<svg width="24" height="24" viewBox="0 0 24 24" fill="none" xmlns="http://www.w3.org/2000/svg">
<g id="Frame 1397">
<path id="Vector" d="M12 0C9.62663 0 7.30655 0.703788 5.33316 2.02236C3.35977 3.34094 1.8217 5.21508 0.913451 7.4078C0.00519953 9.60051 -0.232441 12.0133 0.230582 14.3411C0.693604 16.6689 1.83649 18.807 3.51472 20.4853C5.19295 22.1635 7.33115 23.3064 9.65892 23.7694C11.9867 24.2324 14.3995 23.9948 16.5922 23.0865C18.7849 22.1783 20.6591 20.6402 21.9776 18.6668C23.2962 16.6934 24 14.3734 24 12C24 8.8174 22.7357 5.76515 20.4853 3.51472C18.2348 1.26428 15.1826 0 12 0ZM12 22.4C9.94308 22.4 7.93234 21.79 6.22207 20.6473C4.5118 19.5045 3.17881 17.8803 2.39166 15.9799C1.60451 14.0796 1.39855 11.9885 1.79984 9.97106C2.20112 7.95366 3.19163 6.10055 4.64609 4.64609C6.10056 3.19162 7.95366 2.20112 9.97106 1.79983C11.9885 1.39855 14.0796 1.6045 15.9799 2.39165C17.8803 3.1788 19.5045 4.5118 20.6473 6.22207C21.7901 7.93234 22.4 9.94307 22.4 12C22.4 14.7582 21.3043 17.4035 19.3539 19.3539C17.4035 21.3043 14.7583 22.4 12 22.4ZM16.568 8.568L13.128 12L16.568 15.432C16.643 15.5064 16.7025 15.5948 16.7431 15.6923C16.7837 15.7898 16.8046 15.8944 16.8046 16C16.8046 16.1056 16.7837 16.2102 16.7431 16.3077C16.7025 16.4051 16.643 16.4936 16.568 16.568C16.4936 16.643 16.4051 16.7025 16.3077 16.7431C16.2102 16.7837 16.1056 16.8046 16 16.8046C15.8944 16.8046 15.7898 16.7837 15.6923 16.7431C15.5949 16.7025 15.5064 16.643 15.432 16.568L12 13.128L8.568 16.568C8.49363 16.643 8.40515 16.7025 8.30766 16.7431C8.21018 16.7837 8.10561 16.8046 8 16.8046C7.89439 16.8046 7.78983 16.7837 7.69234 16.7431C7.59485 16.7025 7.50637 16.643 7.432 16.568C7.35702 16.4936 7.29751 16.4051 7.25689 16.3077C7.21628 16.2102 7.19536 16.1056 7.19536 16C7.19536 15.8944 7.21628 15.7898 7.25689 15.6923C7.29751 15.5948 7.35702 15.5064 7.432 15.432L10.872 12L7.432 8.568C7.28136 8.41736 7.19673 8.21304 7.19673 8C7.19673 7.78696 7.28136 7.58264 7.432 7.432C7.58265 7.28136 7.78696 7.19673 8 7.19673C8.21304 7.19673 8.41736 7.28136 8.568 7.432L12 10.872L15.432 7.432C15.5826 7.28136 15.787 7.19673 16 7.19673C16.213 7.19673 16.4174 7.28136 16.568 7.432C16.7186 7.58264 16.8033 7.78696 16.8033 8C16.8033 8.21304 16.7186 8.41736 16.568 8.568Z" fill="black"/>
</g>
</svg>
