<svg width="20" height="20" viewBox="0 0 20 20" fill="none" xmlns="http://www.w3.org/2000/svg">
<g id="Frame 1361">
<g id="Layer 10">
<path id="Vector" d="M16.9811 0H3.0189C2.21852 0.000913464 1.45118 0.319272 0.885224 0.885234C0.319269 1.4512 0.000913454 2.21854 0 3.01893V16.9811C0.000913454 17.7815 0.319269 18.5488 0.885224 19.1148C1.45118 19.6807 2.21852 19.9991 3.0189 20H16.9811C17.7815 19.9991 18.5488 19.6807 19.1148 19.1148C19.6807 18.5488 19.9991 17.7815 20 16.9811V3.01893C19.9991 2.21854 19.6807 1.4512 19.1148 0.885234C18.5488 0.319272 17.7815 0.000913464 16.9811 0ZM0.897606 3.01893C0.898209 2.45651 1.1219 1.9173 1.51959 1.5196C1.91727 1.12191 2.45648 0.898219 3.0189 0.897616H16.9811C17.5435 0.898219 18.0827 1.12191 18.4804 1.5196C18.8781 1.9173 19.1018 2.45651 19.1024 3.01893V13.0286L15.9419 10.2205C15.8551 10.143 15.7415 10.1023 15.6253 10.1071C15.509 10.112 15.3992 10.1619 15.3191 10.2463L12.3394 13.3742L9.4071 10.2485C9.36537 10.204 9.315 10.1686 9.25909 10.1442C9.20317 10.1199 9.14288 10.1072 9.0819 10.1069H9.07971C9.01906 10.1069 8.95905 10.1192 8.90327 10.143C8.84749 10.1668 8.79711 10.2017 8.75516 10.2454L1.23292 18.1159C1.01486 17.7775 0.898487 17.3836 0.897606 16.9811V3.01893ZM1.86347 18.7558L9.07663 11.2084L16.4819 19.1024H3.0189C2.6082 19.102 2.20658 18.9816 1.86347 18.7558ZM17.6129 18.9955L12.9542 14.0295L15.6698 11.179L19.1024 14.2288V16.9811C19.1008 17.4317 18.9555 17.87 18.6876 18.2323C18.4197 18.5946 18.0432 18.862 17.6129 18.9955Z" fill="#7F8493"/>
<path id="Vector_2" d="M11.5807 8.19129C12.0198 8.19124 12.449 8.06099 12.8141 7.817C13.1792 7.57301 13.4637 7.22624 13.6317 6.82054C13.7997 6.41485 13.8436 5.96844 13.7579 5.53779C13.6722 5.10713 13.4607 4.71155 13.1502 4.40109C12.8397 4.09063 12.4441 3.87922 12.0134 3.79359C11.5827 3.70797 11.1363 3.75198 10.7307 3.92006C10.325 4.08814 9.9783 4.37274 9.73439 4.73786C9.49047 5.10299 9.36031 5.53225 9.36035 5.97135C9.36099 6.55999 9.59514 7.12434 10.0114 7.54053C10.4277 7.95672 10.9921 8.19076 11.5807 8.19129ZM11.5807 4.64859C11.8423 4.64864 12.0979 4.72623 12.3154 4.87157C12.5328 5.01691 12.7023 5.22347 12.8024 5.46512C12.9024 5.70677 12.9286 5.97267 12.8776 6.2292C12.8265 6.48573 12.7006 6.72136 12.5156 6.90631C12.3307 7.09125 12.0951 7.21721 11.8385 7.26825C11.582 7.31928 11.3161 7.29311 11.0745 7.19304C10.8328 7.09297 10.6263 6.92349 10.4809 6.70603C10.3356 6.48857 10.258 6.23291 10.258 5.97135C10.2583 5.62063 10.3977 5.28437 10.6457 5.03637C10.8937 4.78837 11.23 4.64891 11.5807 4.64859Z" fill="#7F8493"/>
</g>
</g>
</svg>
