<svg width="204" height="92" viewBox="0 0 204 92" fill="none" xmlns="http://www.w3.org/2000/svg">
<path d="M181.537 59.8V15.4611H181.281L151.16 59.8H181.537ZM191.747 59.8H204V69.3833H191.747V90.5944H181.537V69.3833H141.843V58.9056L183.068 0H191.747V59.8Z" fill="#674AB1"/>
<path d="M84.1951 46C84.1951 49.4074 84.2802 53.2407 84.4504 57.5C84.7056 61.6741 85.3864 65.6352 86.4925 69.3833C87.6838 73.0463 89.5557 76.1555 92.1084 78.7111C94.661 81.2667 98.2348 82.5444 102.83 82.5444C107.424 82.5444 110.998 81.2667 113.551 78.7111C116.103 76.1555 117.933 73.0463 119.039 69.3833C120.23 65.6352 120.911 61.6741 121.081 57.5C121.336 53.2407 121.464 49.4074 121.464 46C121.464 43.7852 121.422 41.3574 121.336 38.7167C121.336 35.9907 121.124 33.3074 120.698 30.6667C120.358 27.9407 119.805 25.3 119.039 22.7444C118.358 20.1889 117.295 17.9741 115.848 16.1C114.487 14.1407 112.742 12.5648 110.615 11.3722C108.488 10.1796 105.893 9.58334 102.83 9.58334C99.7664 9.58334 97.1712 10.1796 95.0439 11.3722C92.9167 12.5648 91.1299 14.1407 89.6833 16.1C88.3219 17.9741 87.2583 20.1889 86.4925 22.7444C85.8118 25.3 85.2587 27.9407 84.8333 30.6667C84.4929 33.3074 84.2802 35.9907 84.1951 38.7167C84.1951 41.3574 84.1951 43.7852 84.1951 46ZM72.7081 46.1278C72.7081 42.8055 72.7932 39.3556 72.9634 35.7778C73.1336 32.2 73.559 28.7074 74.2397 25.3C74.9204 21.8926 75.8989 18.6556 77.1753 15.5889C78.4516 12.5222 80.1959 9.83889 82.4082 7.53889C84.6206 5.23889 87.3859 3.40741 90.7044 2.04445C94.108 0.681483 98.1497 0 102.83 0C107.509 0 111.509 0.681483 114.827 2.04445C118.231 3.40741 121.039 5.23889 123.251 7.53889C125.463 9.83889 127.208 12.5222 128.484 15.5889C129.76 18.6556 130.739 21.8926 131.419 25.3C132.1 28.7074 132.526 32.2 132.696 35.7778C132.866 39.3556 132.951 42.8055 132.951 46.1278C132.951 49.45 132.866 52.9 132.696 56.4778C132.526 60.0556 132.1 63.5481 131.419 66.9556C130.739 70.363 129.76 73.6 128.484 76.6667C127.208 79.6481 125.463 82.2889 123.251 84.5889C121.039 86.8889 118.273 88.7204 114.955 90.0833C111.636 91.3611 107.595 92 102.83 92C98.1497 92 94.108 91.3611 90.7044 90.0833C87.3859 88.7204 84.6206 86.8889 82.4082 84.5889C80.1959 82.2889 78.4516 79.6481 77.1753 76.6667C75.8989 73.6 74.9204 70.363 74.2397 66.9556C73.559 63.5481 73.1336 60.0556 72.9634 56.4778C72.7932 52.9 72.7081 49.45 72.7081 46.1278Z" fill="#674AB1"/>
<path d="M39.694 59.8V15.4611H39.4387L9.31724 59.8H39.694ZM49.9047 59.8H62.1575V69.3833H49.9047V90.5944H39.694V69.3833H0V58.9056L41.2256 0H49.9047V59.8Z" fill="#674AB1"/>
</svg>
