<svg width="204" height="92" viewBox="0 0 204 92" fill="none" xmlns="http://www.w3.org/2000/svg">
<path d="M154.999 46C154.999 49.4074 155.084 53.2407 155.255 57.5C155.512 61.6741 156.196 65.6352 157.308 69.3833C158.505 73.0463 160.386 76.1555 162.952 78.7111C165.517 81.2666 169.109 82.5444 173.727 82.5444C178.345 82.5444 181.937 81.2666 184.502 78.7111C187.068 76.1555 188.906 73.0463 190.018 69.3833C191.215 65.6352 191.899 61.6741 192.07 57.5C192.327 53.2407 192.455 49.4074 192.455 46C192.455 43.7852 192.413 41.3574 192.327 38.7167C192.327 35.9907 192.113 33.3074 191.686 30.6667C191.344 27.9407 190.788 25.3 190.018 22.7444C189.334 20.1889 188.265 17.9741 186.811 16.1C185.443 14.1407 183.69 12.5648 181.552 11.3722C179.414 10.1796 176.806 9.58334 173.727 9.58334C170.648 9.58334 168.04 10.1796 165.902 11.3722C163.764 12.5648 161.969 14.1407 160.515 16.1C159.146 17.9741 158.077 20.1889 157.308 22.7444C156.624 25.3 156.068 27.9407 155.64 30.6667C155.298 33.3074 155.084 35.9907 154.999 38.7167C154.999 41.3574 154.999 43.7852 154.999 46ZM143.454 46.1278C143.454 42.8055 143.54 39.3555 143.711 35.7778C143.882 32.2 144.309 28.7074 144.993 25.3C145.678 21.8926 146.661 18.6556 147.944 15.5889C149.226 12.5222 150.98 9.83889 153.203 7.53889C155.426 5.23889 158.206 3.40741 161.541 2.04445C164.962 0.681483 169.024 0 173.727 0C178.431 0 182.45 0.681483 185.785 2.04445C189.206 3.40741 192.028 5.23889 194.251 7.53889C196.475 9.83889 198.228 12.5222 199.51 15.5889C200.793 18.6556 201.777 21.8926 202.461 25.3C203.145 28.7074 203.573 32.2 203.744 35.7778C203.915 39.3555 204 42.8055 204 46.1278C204 49.45 203.915 52.9 203.744 56.4778C203.573 60.0555 203.145 63.5481 202.461 66.9555C201.777 70.363 200.793 73.6 199.51 76.6667C198.228 79.6481 196.475 82.2889 194.251 84.5889C192.028 86.8889 189.248 88.7204 185.913 90.0833C182.578 91.3611 178.516 92 173.727 92C169.024 92 164.962 91.3611 161.541 90.0833C158.206 88.7204 155.426 86.8889 153.203 84.5889C150.98 82.2889 149.226 79.6481 147.944 76.6667C146.661 73.6 145.678 70.363 144.993 66.9555C144.309 63.5481 143.882 60.0555 143.711 56.4778C143.54 52.9 143.454 49.45 143.454 46.1278Z" fill="#B2B5BE"/>
<path d="M83.7208 46C83.7208 49.4074 83.8063 53.2407 83.9774 57.5C84.2339 61.6741 84.918 65.6352 86.0298 69.3833C87.227 73.0463 89.1084 76.1555 91.6739 78.7111C94.2394 81.2666 97.8311 82.5444 102.449 82.5444C107.067 82.5444 110.659 81.2666 113.224 78.7111C115.79 76.1555 117.628 73.0463 118.74 69.3833C119.937 65.6352 120.621 61.6741 120.792 57.5C121.049 53.2407 121.177 49.4074 121.177 46C121.177 43.7852 121.134 41.3574 121.049 38.7167C121.049 35.9907 120.835 33.3074 120.408 30.6667C120.066 27.9407 119.51 25.3 118.74 22.7444C118.056 20.1889 116.987 17.9741 115.533 16.1C114.165 14.1407 112.412 12.5648 110.274 11.3722C108.136 10.1796 105.528 9.58334 102.449 9.58334C99.3704 9.58334 96.7622 10.1796 94.6242 11.3722C92.4863 12.5648 90.6904 14.1407 89.2367 16.1C87.8684 17.9741 86.7994 20.1889 86.0298 22.7444C85.3456 25.3 84.7898 27.9407 84.3622 30.6667C84.0201 33.3074 83.8063 35.9907 83.7208 38.7167C83.7208 41.3574 83.7208 43.7852 83.7208 46ZM72.176 46.1278C72.176 42.8055 72.2615 39.3555 72.4326 35.7778C72.6036 32.2 73.0312 28.7074 73.7153 25.3C74.3995 21.8926 75.3829 18.6556 76.6657 15.5889C77.9484 12.5222 79.7015 9.83889 81.925 7.53889C84.1484 5.23889 86.9277 3.40741 90.2629 2.04445C93.6835 0.681483 97.7456 0 102.449 0C107.152 0 111.172 0.681483 114.507 2.04445C117.928 3.40741 120.75 5.23889 122.973 7.53889C125.197 9.83889 126.95 12.5222 128.232 15.5889C129.515 18.6556 130.499 21.8926 131.183 25.3C131.867 28.7074 132.294 32.2 132.465 35.7778C132.637 39.3555 132.722 42.8055 132.722 46.1278C132.722 49.45 132.637 52.9 132.465 56.4778C132.294 60.0555 131.867 63.5481 131.183 66.9555C130.499 70.363 129.515 73.6 128.232 76.6667C126.95 79.6481 125.197 82.2889 122.973 84.5889C120.75 86.8889 117.97 88.7204 114.635 90.0833C111.3 91.3611 107.238 92 102.449 92C97.7456 92 93.6835 91.3611 90.2629 90.0833C86.9277 88.7204 84.1484 86.8889 81.925 84.5889C79.7015 82.2889 77.9484 79.6481 76.6657 76.6667C75.3829 73.6 74.3995 70.363 73.7153 66.9555C73.0312 63.5481 72.6036 60.0555 72.4326 56.4778C72.2615 52.9 72.176 49.45 72.176 46.1278Z" fill="#B2B5BE"/>
<path d="M55.7998 11.1168H19.113L14.2386 37.1834L14.4951 37.439C16.462 35.2242 18.9848 33.6057 22.0634 32.5834C25.2275 31.476 28.3489 30.9223 31.4275 30.9223C35.4468 30.9223 39.2523 31.5612 42.844 32.839C46.4357 34.1168 49.5571 36.076 52.2081 38.7168C54.8591 41.2723 56.9543 44.5094 58.4936 48.4279C60.0329 52.2612 60.8026 56.776 60.8026 61.9723C60.8026 65.8057 60.1184 69.5538 58.7502 73.2168C57.4674 76.7945 55.5005 79.989 52.8495 82.8001C50.1985 85.6112 46.8633 87.8686 42.844 89.5723C38.9102 91.1908 34.2923 92.0001 28.9903 92.0001C25.0565 92.0001 21.3365 91.4464 17.8303 90.339C14.4096 89.1464 11.3738 87.4853 8.72273 85.3557C6.0717 83.1408 3.97654 80.4149 2.43723 77.1779C0.897928 73.9408 0.0855171 70.2779 0 66.189H10.9034C11.0744 68.489 11.6303 70.6612 12.571 72.7057C13.5972 74.6649 14.9227 76.4112 16.5475 77.9445C18.2579 79.3927 20.2248 80.5427 22.4482 81.3945C24.7572 82.1612 27.2799 82.5446 30.0165 82.5446C32.582 82.5446 35.0192 82.1186 37.3282 81.2668C39.7226 80.3297 41.775 78.9668 43.4854 77.1779C45.2812 75.389 46.6923 73.1742 47.7185 70.5334C48.7447 67.8075 49.2578 64.6557 49.2578 61.0779C49.2578 58.0964 48.7447 55.3705 47.7185 52.9001C46.7778 50.3446 45.4095 48.1723 43.6137 46.3834C41.8178 44.5094 39.6371 43.0612 37.0716 42.039C34.5916 41.0168 31.8123 40.5057 28.7337 40.5057C25.142 40.5057 21.9351 41.3149 19.113 42.9334C16.3765 44.4668 13.9393 46.5112 11.8013 49.0668L2.43723 48.5557L10.9034 1.53345H55.7998V11.1168Z" fill="#B2B5BE"/>
</svg>
