<svg width="26" height="24" viewBox="0 0 26 24" fill="none" xmlns="http://www.w3.org/2000/svg">
<path d="M13 0C12.701 0 12.2263 0.0220308 11.7405 0.451923L0.267477 10.6058C0.197524 10.6534 0.138055 10.716 0.0930193 10.7895C0.0479832 10.863 0.0184105 10.9457 0.00626447 11.032C-0.00588158 11.1184 -0.000323022 11.2065 0.0225712 11.2904C0.0454654 11.3744 0.0851714 11.4523 0.139053 11.5189C0.192934 11.5856 0.259758 11.6395 0.335088 11.6771C0.410418 11.7147 0.49253 11.7351 0.575972 11.7369C0.659414 11.7388 0.742277 11.722 0.819059 11.6878C0.895842 11.6536 0.964787 11.6027 1.02132 11.5385L12.4944 1.38462C12.5694 1.31825 13.0093 1.23077 13 1.23077C12.9697 1.23077 13.1265 1.23465 13.2482 1.26923C13.37 1.30382 13.4882 1.36923 13.5056 1.38462L24.9787 11.5385C25.0352 11.6027 25.1042 11.6536 25.1809 11.6878C25.2577 11.722 25.3406 11.7388 25.424 11.7369C25.5075 11.7351 25.5896 11.7147 25.6649 11.6771C25.7402 11.6395 25.8071 11.5856 25.8609 11.5189C25.9148 11.4523 25.9545 11.3744 25.9774 11.2904C26.0003 11.2065 26.0059 11.1184 25.9937 11.032C25.9816 10.9457 25.952 10.863 25.907 10.7895C25.8619 10.716 25.8025 10.6534 25.7325 10.6058L14.2595 0.451923C14.0189 0.238994 13.7704 0.148714 13.5516 0.0865385C13.3328 0.0243631 13.1752 0 13 0ZM3.57701 11.5769C3.49975 11.5782 3.42348 11.5954 3.35256 11.6274C3.28163 11.6595 3.21745 11.7059 3.16367 11.764C3.10989 11.822 3.06756 11.8905 3.03911 11.9657C3.01066 12.0408 2.99664 12.1211 2.99785 12.2019V23.3846C2.99786 23.5478 3.05985 23.7043 3.17019 23.8197C3.28053 23.9351 3.43017 24 3.58621 24H22.4138C22.5698 24 22.7195 23.9351 22.8298 23.8197C22.9401 23.7043 23.0021 23.5478 23.0022 23.3846V12.2019C23.0033 12.1204 22.9889 12.0394 22.9598 11.9637C22.9307 11.8881 22.8875 11.8192 22.8328 11.7611C22.7781 11.7031 22.7128 11.6569 22.6409 11.6255C22.569 11.594 22.4918 11.5778 22.4138 11.5778C22.3358 11.5778 22.2586 11.594 22.1867 11.6255C22.1148 11.6569 22.0495 11.7031 21.9948 11.7611C21.94 11.8192 21.8969 11.8881 21.8678 11.9637C21.8387 12.0394 21.8243 12.1204 21.8254 12.2019V22.7692H4.17457V12.2019C4.1758 12.1195 4.16119 12.0376 4.1316 11.9612C4.102 11.8848 4.05803 11.8154 4.0023 11.7571C3.94656 11.6988 3.8802 11.6528 3.80714 11.6219C3.73408 11.5909 3.65583 11.5756 3.57701 11.5769Z" fill="black"/>
</svg>
