<svg width="23" height="23" viewBox="0 0 23 23" fill="none" xmlns="http://www.w3.org/2000/svg">
<path id="search" fill-rule="evenodd" clip-rule="evenodd" d="M13.9369 16.2248C10.4091 18.1113 5.80468 17.6199 2.75728 14.7669C-0.884882 11.357 -0.923792 5.86499 2.67038 2.50006C6.26455 -0.864871 12.1308 -0.828443 15.7729 2.58142C19.2738 5.85897 19.4456 11.0603 16.2618 14.4472L22.2857 20.1622L20.1864 22.1539L13.9369 16.2248ZM14.4469 13.5252C17.2709 10.8814 17.2403 6.56617 14.3786 3.887C11.5169 1.20782 6.90771 1.1792 4.08372 3.82307C1.25973 6.46694 1.2903 10.7821 4.152 13.4613C7.01371 16.1405 11.6229 16.1691 14.4469 13.5252Z" fill="#B2B5BE"/>
</svg>
