<svg width="23" height="25" viewBox="0 0 23 25" fill="none" xmlns="http://www.w3.org/2000/svg">
<path id="search" fill-rule="evenodd" clip-rule="evenodd" d="M14.3835 18.1402C10.7427 20.2495 5.99073 19.7001 2.84566 16.5102C-0.913243 12.6978 -0.9534 6.55738 2.75597 2.7952C6.46533 -0.966974 12.5196 -0.926245 16.2785 2.88617C19.8915 6.55066 20.0688 12.366 16.783 16.1528L23 22.5425L20.8334 24.7692L14.3835 18.1402ZM14.9099 15.1219C17.8244 12.1659 17.7928 7.34133 14.8394 4.34586C11.886 1.3504 7.1291 1.31839 4.2146 4.27439C1.3001 7.23038 1.33165 12.055 4.28507 15.0505C7.23849 18.0459 11.9954 18.0779 14.9099 15.1219Z" fill="white"/>
</svg>
