<svg width="28" height="28" viewBox="0 0 28 28" fill="none" xmlns="http://www.w3.org/2000/svg">
<path id="search" fill-rule="evenodd" clip-rule="evenodd" d="M18.1447 20.882C13.6379 23.7644 7.48231 23.24 3.47052 19.3332C-1.11378 14.869 -1.16275 7.6786 3.36113 3.27314C7.88501 -1.13231 15.2686 -1.08462 19.8529 3.37967C24.0908 7.50661 24.4529 13.9632 20.9096 18.3957L28 25.3928L25.3578 28.0001L18.1447 20.882ZM18.1836 17.7076C21.7381 14.2462 21.6996 8.59659 18.0977 5.08894C14.4958 1.58128 8.69433 1.54381 5.13985 5.00524C1.58537 8.46667 1.62385 14.1162 5.2258 17.6239C8.82774 21.1315 14.6292 21.169 18.1836 17.7076Z" fill="#B2B5BE"/>
</svg>
