<svg width="35" height="36" viewBox="0 0 35 36" fill="none" xmlns="http://www.w3.org/2000/svg">
<circle cx="17.5" cy="18" r="17.5" fill="#424242"/>
<path d="M23.6521 18.3345L21.8443 20.157C21.5348 20.4683 21.0293 20.4689 20.7192 20.157C20.4092 19.8445 20.4092 19.3351 20.7192 19.0226L22.527 17.2001C23.0957 16.6276 23.4093 15.8699 23.4098 15.0663C23.4098 14.3128 23.1384 13.5929 22.6458 13.0398C22.1286 12.459 21.3914 12.1271 20.5706 12.1047C20.5402 12.1041 20.5104 12.1035 20.4799 12.1035C19.5989 12.1035 18.7435 12.4579 18.1222 13.0834L16.4741 14.7444C16.1641 15.0569 15.6592 15.0563 15.3485 14.7444C15.1987 14.5928 15.1157 14.3912 15.1157 14.1772C15.1157 13.9631 15.1987 13.7615 15.3485 13.61L16.9966 11.949C17.9455 10.9933 19.2701 10.4679 20.6122 10.5015C21.8747 10.5363 23.0167 11.0563 23.8287 11.9667C24.584 12.8146 25 13.916 25 15.0657C25 16.298 24.5214 17.4578 23.6521 18.3345Z" fill="white"/>
<path d="M18.6423 23.3834L16.9837 25.0555C16.0377 26.0089 14.7354 26.5337 13.3775 26.4983C12.1179 26.4635 10.9782 25.9429 10.1685 25.032C9.41499 24.1847 9.00019 23.0856 9.00019 21.9353C8.98907 20.7042 9.46472 19.5409 10.3399 18.6594L12.1477 16.8375C12.2981 16.686 12.4976 16.6028 12.71 16.6028C12.9223 16.6028 13.1224 16.6866 13.2728 16.8375C13.4225 16.989 13.5056 17.1907 13.5056 17.4047C13.5056 17.6187 13.4225 17.8204 13.2728 17.9719L11.465 19.7938C10.8946 20.3687 10.5845 21.1275 10.5915 21.9276C10.5915 22.6865 10.8624 23.4093 11.3538 23.9618C11.8693 24.5414 12.6041 24.8728 13.4214 24.8952C14.3194 24.9099 15.2198 24.565 15.8593 23.9205L17.5179 22.249C17.8268 21.9371 18.3322 21.9365 18.6429 22.249C18.9524 22.5621 18.9524 23.0709 18.6423 23.3834Z" fill="white"/>
<path d="M13.4442 20.9471L19.4268 14.9177C19.5819 14.7615 19.7855 14.6837 19.9891 14.6837C20.1926 14.6837 20.3962 14.7621 20.5513 14.9177C20.8614 15.2302 20.8614 15.7397 20.5513 16.0521L14.5692 22.0815C14.2685 22.3846 13.7449 22.3846 13.4442 22.0815C13.2944 21.93 13.2113 21.7284 13.2113 21.5143C13.2113 21.3003 13.2944 21.0986 13.4442 20.9471Z" fill="white"/>
</svg>
