<svg width="28" height="28" viewBox="0 0 28 28" fill="none" xmlns="http://www.w3.org/2000/svg">
<g filter="url(#filter0_d_3008_6332)">
<path d="M12 22C17.5158 22 22 17.5158 22 12C22 6.48421 17.5158 2 12 2C6.48421 2 2 6.48421 2 12C2 17.5158 6.48421 22 12 22ZM8.54737 11.3263L12.4211 7.47368C12.6105 7.28421 12.8421 7.2 13.0947 7.2C13.3474 7.2 13.5789 7.28421 13.7684 7.47368C14.1263 7.83158 14.1263 8.44211 13.7684 8.8L10.5474 12L13.7474 15.2C14.1053 15.5579 14.1053 16.1684 13.7474 16.5263C13.3895 16.8842 12.7789 16.8842 12.4211 16.5263L8.54737 12.6737C8.37895 12.5053 8.27368 12.2526 8.27368 12C8.27368 11.7474 8.37895 11.5158 8.54737 11.3263Z" fill="#FAFAFA"/>
</g>
<defs>
<filter id="filter0_d_3008_6332" x="0" y="0" width="28" height="28" filterUnits="userSpaceOnUse" color-interpolation-filters="sRGB">
<feFlood flood-opacity="0" result="BackgroundImageFix"/>
<feColorMatrix in="SourceAlpha" type="matrix" values="0 0 0 0 0 0 0 0 0 0 0 0 0 0 0 0 0 0 127 0" result="hardAlpha"/>
<feOffset dx="2" dy="2"/>
<feGaussianBlur stdDeviation="2"/>
<feComposite in2="hardAlpha" operator="out"/>
<feColorMatrix type="matrix" values="0 0 0 0 0 0 0 0 0 0 0 0 0 0 0 0 0 0 0.35 0"/>
<feBlend mode="normal" in2="BackgroundImageFix" result="effect1_dropShadow_3008_6332"/>
<feBlend mode="normal" in="SourceGraphic" in2="effect1_dropShadow_3008_6332" result="shape"/>
</filter>
</defs>
</svg>
