<svg width="16" height="24" viewBox="0 0 16 24" fill="none" xmlns="http://www.w3.org/2000/svg">
<path d="M1.75893 0C0.792684 0 0 0.756652 0 1.67898V22.3125C0 23.2348 0.792684 24 1.75893 24H14.2411C15.2073 24 16 23.2348 16 22.3125V1.67898C16 0.756652 15.2073 0 14.2411 0H1.75893ZM1.75893 1.09091H3.4375V1.97727C3.4375 2.90063 4.23457 3.65625 5.19643 3.65625H10.8036C11.7654 3.65625 12.5625 2.90063 12.5625 1.97727V1.09091H14.2411C14.5939 1.09091 14.8571 1.34215 14.8571 1.67898V22.3125C14.8571 22.6493 14.5939 22.9091 14.2411 22.9091H1.75893C1.40606 22.9091 1.14286 22.6493 1.14286 22.3125V1.67898C1.14286 1.34215 1.40606 1.09091 1.75893 1.09091ZM4.58036 1.09091H11.4196V1.97727C11.4196 2.31307 11.151 2.56534 10.8036 2.56534H5.19643C4.84902 2.56534 4.58036 2.31307 4.58036 1.97727V1.09091ZM7.27679 21.2301C7.20107 21.2291 7.12589 21.2424 7.05562 21.2694C6.98535 21.2964 6.9214 21.3364 6.86747 21.3871C6.81354 21.4379 6.77072 21.4983 6.7415 21.565C6.71227 21.6317 6.69722 21.7033 6.69722 21.7756C6.69722 21.8479 6.71227 21.9194 6.7415 21.9861C6.77072 22.0528 6.81354 22.1133 6.86747 22.164C6.9214 22.2148 6.98535 22.2548 7.05562 22.2817C7.12589 22.3087 7.20107 22.322 7.27679 22.321H8.72322C8.79894 22.322 8.87411 22.3087 8.94438 22.2817C9.01465 22.2548 9.0786 22.2148 9.13253 22.164C9.18646 22.1133 9.22928 22.0528 9.2585 21.9861C9.28773 21.9194 9.30278 21.8479 9.30278 21.7756C9.30278 21.7033 9.28773 21.6317 9.2585 21.565C9.22928 21.4983 9.18646 21.4379 9.13253 21.3871C9.0786 21.3364 9.01465 21.2964 8.94438 21.2694C8.87411 21.2424 8.79894 21.2291 8.72322 21.2301H7.27679Z" fill="black"/>
</svg>
