<svg width="11" height="11" viewBox="0 0 11 11" fill="none" xmlns="http://www.w3.org/2000/svg">
<path d="M8.32859 10.7143V4.00293L3.93884 8.39174H4.13126L7.86399 10.9463C7.90754 10.9769 7.95856 10.9952 8.01164 10.9992C8.06472 11.0031 8.11789 10.9927 8.16551 10.9689C8.21314 10.9451 8.25344 10.9089 8.28214 10.8641C8.31085 10.8192 8.3269 10.7675 8.32859 10.7143Z" fill="#575D71"/>
<path d="M10.4367 0.0975229L8.3286 2.20515V0.285662C8.32691 0.23247 8.31086 0.180724 8.28215 0.135908C8.25344 0.0910925 8.21315 0.0548752 8.16552 0.0310937C8.1179 0.00731224 8.06474 -0.00314776 8.01165 0.000821993C7.95857 0.00479175 7.90755 0.0230434 7.864 0.0536432L4.13127 2.60822H1.89338C1.77755 2.60626 1.66569 2.65036 1.58237 2.73083C1.49905 2.8113 1.45111 2.92156 1.44908 3.03736V7.96261C1.45111 8.07841 1.49905 8.18865 1.58236 8.26912C1.66567 8.34959 1.77753 8.39369 1.89335 8.39173H2.1407L0.0963685 10.4356C0.0345959 10.4976 -6.39286e-05 10.5815 8.85227e-08 10.669C6.41057e-05 10.7564 0.0348468 10.8403 0.0967099 10.9022C0.158573 10.964 0.242459 10.9988 0.329947 10.9988C0.417434 10.9989 0.501371 10.9643 0.563325 10.9025L10.9036 0.56438C10.9654 0.502439 11.0001 0.418521 11 0.331051C10.9999 0.243582 10.9652 0.159714 10.9033 0.0978643C10.8414 0.0360143 10.7575 0.00123906 10.6701 0.00117506C10.5826 0.00111106 10.4986 0.0357636 10.4367 0.0975229Z" fill="#575D71"/>
</svg>
