<svg width="24" height="24" viewBox="0 0 24 24" fill="none" xmlns="http://www.w3.org/2000/svg">
<path d="M12.0043 0C5.34794 0 0 5.41382 0 12C0 18.5862 5.34794 24 12.0043 24C18.6606 24 24 18.5862 24 12C24 5.41382 18.6606 0 12.0043 0ZM11.4431 1.05832C11.4571 1.05761 11.4717 1.05898 11.4857 1.05832V5.42816C10.0447 5.45858 8.70637 5.6214 7.4899 5.88051C8.3146 3.5037 9.57379 1.86399 10.8565 1.1522C10.8893 1.13825 10.9206 1.12109 10.9501 1.101C10.9531 1.1007 10.9555 1.09276 10.9586 1.09246C11.1205 1.07681 11.2792 1.06669 11.4431 1.05832ZM12.5739 1.05832C12.7324 1.06666 12.8932 1.07731 13.0499 1.09246C13.0529 1.09275 13.0555 1.1007 13.0584 1.101C13.0879 1.12109 13.1192 1.13825 13.152 1.1522C14.4347 1.86399 15.6939 3.5037 16.5186 5.88051C15.3166 5.62447 13.9953 5.46969 12.5739 5.4367V1.05832ZM8.61211 1.59602C7.61015 2.71587 6.78334 4.27904 6.22317 6.1963C4.35343 6.74425 2.82823 7.55085 1.71732 8.52632C2.80062 5.24473 5.3707 2.67114 8.61211 1.59602ZM15.3964 1.59602C18.6469 2.67546 21.2349 5.26075 22.3167 8.55192C21.2035 7.56576 19.6704 6.74874 17.7853 6.1963C17.2252 4.27904 16.3984 2.71587 15.3964 1.59602ZM11.4857 6.52063V11.4538H6.55473C6.5938 9.84431 6.79458 8.38531 7.12434 7.101C8.41049 6.76925 9.87226 6.55808 11.4857 6.52063ZM12.5739 6.52916C14.1669 6.56981 15.6116 6.77276 16.8842 7.101C17.2139 8.38531 17.4147 9.84431 17.4538 11.4538H12.5739V6.52916ZM5.90861 7.46799C5.65016 8.68418 5.4898 10.0137 5.45802 11.4538H1.17322C1.18391 11.234 1.20097 11.0126 1.22423 10.7966C1.94535 9.52362 3.56712 8.28441 5.90861 7.46799ZM18.0999 7.46799C20.4613 8.29135 22.0894 9.54645 22.8013 10.8307C22.8031 10.8341 22.8079 10.8359 22.8098 10.8393C22.8308 11.041 22.8423 11.2488 22.8523 11.4538H18.5505C18.5187 10.0137 18.3583 8.68418 18.0999 7.46799ZM1.17322 12.5462H5.45802C5.48952 13.9845 5.65095 15.3177 5.90861 16.532C3.56722 15.7131 1.94509 14.468 1.22423 13.1949C1.20144 12.9816 1.18377 12.7631 1.17322 12.5462ZM6.55473 12.5462H11.4857V17.4794C9.8723 17.4418 8.41046 17.2404 7.12434 16.9075C6.79307 15.6212 6.59361 14.1607 6.55473 12.5462ZM12.5739 12.5462H17.4538C17.4149 14.1607 17.2154 15.6212 16.8842 16.9075C15.6116 17.2368 14.167 17.4386 12.5739 17.4794V12.5462ZM18.5505 12.5462H22.8523C22.8424 12.7483 22.8303 12.9533 22.8098 13.1522C22.8095 13.155 22.8101 13.1579 22.8098 13.1607C22.0991 14.4462 20.4632 15.7054 18.0999 16.532C18.3576 15.3177 18.519 13.9845 18.5505 12.5462ZM22.3167 15.4481C21.2349 18.7393 18.6469 21.3245 15.3964 22.404C16.3984 21.2853 17.2252 19.7279 17.7853 17.8122C19.6704 17.2582 21.2035 16.4355 22.3167 15.4481ZM1.71732 15.4737C2.82823 16.4504 4.35343 17.2627 6.22317 17.8122C6.78334 19.7279 7.61015 21.2853 8.61211 22.404C5.3707 21.3289 2.80062 18.7553 1.71732 15.4737ZM7.49841 18.128C8.71238 18.3868 10.0484 18.5414 11.4857 18.5718V22.9417C11.3017 22.933 11.1231 22.9168 10.9416 22.899C10.9152 22.8764 10.8867 22.8564 10.8565 22.8393C9.57561 22.1285 8.32317 20.4969 7.49841 18.128ZM16.5101 18.128C15.6853 20.4969 14.4329 22.1285 13.152 22.8393C13.1218 22.8564 13.0933 22.8764 13.0669 22.899C13.0641 22.9018 13.0613 22.9047 13.0584 22.9075C12.8989 22.9231 12.7352 22.9332 12.5739 22.9417V18.5718C13.9917 18.5388 15.3105 18.3837 16.5101 18.128Z" fill="black"/>
</svg>
