<svg width="9" height="10" viewBox="0 0 9 10" fill="none" xmlns="http://www.w3.org/2000/svg">
<g id="Volume--up" clip-path="url(#clip0_3058_1414)">
<g id="Vector">
<path d="M7.63875 3.14931L7.20844 3.51212C7.65052 4.03579 7.88618 4.70285 7.87116 5.38801C7.85614 6.07316 7.59148 6.72926 7.12687 7.23306L7.54031 7.62681C8.09822 7.02225 8.41611 6.23474 8.43424 5.4123C8.45236 4.58985 8.16948 3.7891 7.63875 3.16056V3.14931Z" fill="#575D71"/>
<path d="M6.06938 4.25181C6.33455 4.56625 6.47575 4.96672 6.46642 5.37794C6.4571 5.78917 6.2979 6.18283 6.01875 6.48493L6.43219 6.86743C6.80425 6.46422 7.01616 5.93896 7.02808 5.39045C7.03999 4.84194 6.85108 4.30798 6.49688 3.88899L6.06938 4.25181Z" fill="#575D71"/>
<path d="M5.0625 9.31431C5.02529 9.31415 4.98848 9.30661 4.9542 9.29213C4.91992 9.27765 4.88886 9.25651 4.86281 9.22993L2.71969 7.06431H0.84375C0.769158 7.06431 0.697621 7.03467 0.644876 6.98193C0.592132 6.92918 0.5625 6.85765 0.5625 6.78306V3.97056C0.5625 3.89596 0.592132 3.82443 0.644876 3.77168C0.697621 3.71894 0.769158 3.68931 0.84375 3.68931H2.71969L4.86281 1.52368C4.91551 1.4713 4.98679 1.44189 5.06109 1.44189C5.1354 1.44189 5.20668 1.4713 5.25938 1.52368C5.31237 1.57561 5.34269 1.64637 5.34375 1.72056V9.03306C5.34375 9.10765 5.31412 9.17919 5.26137 9.23193C5.20863 9.28467 5.13709 9.31431 5.0625 9.31431ZM1.125 6.50181H2.835C2.87221 6.50196 2.90902 6.5095 2.9433 6.52398C2.97758 6.53846 3.00864 6.55961 3.03469 6.58618L4.78125 8.34962V2.40399L3.03469 4.16743C3.00864 4.194 2.97758 4.21515 2.9433 4.22963C2.90902 4.24411 2.87221 4.25165 2.835 4.25181H1.125V6.50181Z" fill="#575D71"/>
</g>
</g>
<defs>
<clipPath id="clip0_3058_1414">
<rect width="9" height="9" fill="white" transform="translate(0 0.876953)"/>
</clipPath>
</defs>
</svg>
