<svg width="12" height="12" viewBox="0 0 12 12" fill="none" xmlns="http://www.w3.org/2000/svg">
<g id="Frame 996">
<g id="flogo-Hex-RGB-MedGrey-58">
<path id="Path" fill-rule="evenodd" clip-rule="evenodd" d="M11.3379 0H0.662069C0.296418 0 0 0.296418 0 0.662069V11.3379C0 11.7036 0.296418 12 0.662069 12H6.41379V7.35931H4.85172V5.54276H6.41379V4.20621C6.41379 2.65655 7.36138 1.81241 8.74345 1.81241C9.20919 1.8114 9.67466 1.83488 10.1379 1.88276V3.50276H9.18621C8.4331 3.50276 8.28621 3.85862 8.28621 4.38414V5.54069H10.0862L9.85241 7.35724H8.27586V12H11.3379C11.7036 12 12 11.7036 12 11.3379V0.662069C12 0.296418 11.7036 0 11.3379 0Z" fill="#000928"/>
<path id="f" fill-rule="evenodd" clip-rule="evenodd" d="M8.27601 12V7.35933H9.84221L10.076 5.54278H8.27601V4.38623C8.27601 3.86071 8.4229 3.50485 9.17601 3.50485H10.1381V1.88278C9.67411 1.83483 9.20795 1.81135 8.74152 1.81244C7.35738 1.81244 6.41394 2.65657 6.41394 4.20623V5.54278H4.85187V7.35933H6.41394V12H8.27601Z" fill="white"/>
</g>
</g>
</svg>
