<svg width="20" height="20" viewBox="0 0 20 20" fill="none" xmlns="http://www.w3.org/2000/svg">
<mask id="mask0_2551_7581" style="mask-type:luminance" maskUnits="userSpaceOnUse" x="0" y="0" width="20" height="20">
<path fill-rule="evenodd" clip-rule="evenodd" d="M0 0H20V20H0V0Z" fill="white"/>
</mask>
<g mask="url(#mask0_2551_7581)">
<path fill-rule="evenodd" clip-rule="evenodd" d="M10 0C7.28416 0 6.94362 0.0115129 5.87701 0.0601849C4.81259 0.108738 4.08569 0.277819 3.44962 0.525069C2.79203 0.780617 2.23436 1.12259 1.67839 1.67859C1.12246 2.23462 0.780524 2.79236 0.525007 3.45003C0.277786 4.08618 0.108725 4.81316 0.0601777 5.87771C0.0115116 6.94445 0 7.28503 0 10.0012C0 12.7174 0.0115116 13.0579 0.0601777 14.1247C0.108725 15.1892 0.277786 15.9162 0.525007 16.5524C0.780524 17.21 1.12246 17.7678 1.67839 18.3238C2.23436 18.8798 2.79203 19.2217 3.44962 19.4774C4.08569 19.7246 4.81259 19.8936 5.87701 19.9422C6.94362 19.9909 7.28416 20.0024 10 20.0024C12.7159 20.0024 13.0564 19.9909 14.123 19.9422C15.1874 19.8936 15.9143 19.7246 16.5504 19.4774C17.208 19.2217 17.7656 18.8798 18.3216 18.3238C18.8775 17.7678 19.2194 17.2101 19.475 16.5524C19.7222 15.9162 19.8913 15.1892 19.9399 14.1247C19.9885 13.0579 20 12.7174 20 10.0012C20 7.28503 19.9885 6.94445 19.9399 5.87771C19.8913 4.81316 19.7222 4.08618 19.475 3.45003C19.2194 2.79236 18.8775 2.23462 18.3216 1.67859C17.7656 1.12259 17.208 0.780617 16.5504 0.525069C15.9143 0.277819 15.1874 0.108738 14.123 0.0601849C13.0564 0.0115129 12.7159 0 10 0ZM9.99998 1.80205C12.6701 1.80205 12.9864 1.81226 14.0408 1.86033C15.0158 1.90487 15.5453 2.06776 15.8977 2.20473C16.3644 2.38616 16.6976 2.60292 17.0475 2.95287C17.3974 3.30282 17.6141 3.63598 17.7955 4.10281C17.9324 4.45523 18.0954 4.98478 18.1398 5.95989C18.188 7.01448 18.1982 7.3308 18.1982 10.0013C18.1982 12.6717 18.188 12.988 18.1398 14.0425C18.0954 15.0177 17.9324 15.5472 17.7955 15.8996C17.6141 16.3665 17.3974 16.6996 17.0475 17.0496C16.6976 17.3996 16.3644 17.6163 15.8977 17.7977C15.5453 17.9347 15.0158 18.0976 14.0408 18.1421C12.9865 18.1902 12.6703 18.2004 9.99998 18.2004C7.32965 18.2004 7.01344 18.1902 5.9591 18.1421C4.98411 18.0976 4.45462 17.9347 4.10225 17.7977C3.63547 17.6163 3.30235 17.3996 2.95244 17.0496C2.60253 16.6996 2.38579 16.3665 2.20438 15.8996C2.06744 15.5472 1.90457 15.0177 1.86007 14.0426C1.81196 12.988 1.80176 12.6717 1.80176 10.0013C1.80176 7.3308 1.81196 7.01448 1.86007 5.95989C1.90457 4.98478 2.06744 4.45523 2.20438 4.10281C2.38579 3.63598 2.60253 3.30282 2.95244 2.95287C3.30235 2.60292 3.63547 2.38616 4.10225 2.20473C4.45462 2.06776 4.98411 1.90487 5.9591 1.86033C7.01356 1.81226 7.32985 1.80205 9.99998 1.80205Z" fill="#575D71"/>
</g>
<path fill-rule="evenodd" clip-rule="evenodd" d="M10.0003 13.3352C8.15937 13.3352 6.66699 11.8426 6.66699 10.0014C6.66699 8.16025 8.15937 6.66769 10.0003 6.66769C11.8412 6.66769 13.3337 8.16025 13.3337 10.0014C13.3337 11.8426 11.8412 13.3352 10.0003 13.3352ZM9.9999 4.86548C7.1638 4.86548 4.86475 7.16481 4.86475 10.0012C4.86475 12.8376 7.1638 15.137 9.9999 15.137C12.836 15.137 15.135 12.8376 15.135 10.0012C15.135 7.16481 12.836 4.86548 9.9999 4.86548Z" fill="#575D71"/>
<path fill-rule="evenodd" clip-rule="evenodd" d="M16.5377 4.66253C16.5377 5.32535 16.0004 5.86265 15.3377 5.86265C14.675 5.86265 14.1377 5.32535 14.1377 4.66253C14.1377 3.9997 14.675 3.4624 15.3377 3.4624C16.0004 3.4624 16.5377 3.9997 16.5377 4.66253Z" fill="#575D71"/>
</svg>
