<svg width="12" height="12" viewBox="0 0 12 12" fill="none" xmlns="http://www.w3.org/2000/svg">
<g id="Frame 1121">
<g id="Group 137">
<g id="Group 3">
<mask id="mask0_549_280" style="mask-type:luminance" maskUnits="userSpaceOnUse" x="0" y="0" width="12" height="12">
<path id="Clip 2" fill-rule="evenodd" clip-rule="evenodd" d="M0 0H12V12H0V0Z" fill="white"/>
</mask>
<g mask="url(#mask0_549_280)">
<path id="Fill 1" fill-rule="evenodd" clip-rule="evenodd" d="M6.00001 3.8147e-05C4.3705 3.8147e-05 4.16617 0.00694591 3.52621 0.0361491C2.88755 0.0652808 2.45142 0.16673 2.06977 0.31508C1.67522 0.468408 1.34061 0.673593 1.00703 1.00719C0.673474 1.34081 0.468314 1.67546 0.315004 2.07006C0.166672 2.45175 0.0652349 2.88794 0.0361066 3.52667C0.00690694 4.16671 0 4.37106 0 6.00076C0 7.63047 0.00690694 7.8348 0.0361066 8.47484C0.0652349 9.11355 0.166672 9.54976 0.315004 9.93145C0.468314 10.326 0.673474 10.6607 1.00703 10.9943C1.34061 11.3279 1.67522 11.5331 2.06977 11.6865C2.45142 11.8348 2.88755 11.9362 3.52621 11.9654C4.16617 11.9946 4.3705 12.0015 6.00001 12.0015C7.62953 12.0015 7.83383 11.9946 8.47379 11.9654C9.11242 11.9362 9.54858 11.8348 9.93023 11.6865C10.3248 11.5331 10.6594 11.3279 10.9929 10.9943C11.3265 10.6607 11.5317 10.3261 11.685 9.93145C11.8333 9.54976 11.9348 9.11355 11.9639 8.47484C11.9931 7.8348 12 7.63047 12 6.00076C12 4.37106 11.9931 4.16671 11.9639 3.52667C11.9348 2.88794 11.8333 2.45175 11.685 2.07006C11.5317 1.67546 11.3265 1.34081 10.9929 1.00719C10.6594 0.673593 10.3248 0.468408 9.93023 0.31508C9.54858 0.16673 9.11242 0.0652808 8.47379 0.0361491C7.83383 0.00694591 7.62953 3.8147e-05 6.00001 3.8147e-05ZM5.99999 1.08125C7.60204 1.08125 7.79182 1.08738 8.42447 1.11622C9.00949 1.14295 9.32718 1.24068 9.5386 1.32286C9.81867 1.43172 10.0185 1.56177 10.2285 1.77174C10.4385 1.98172 10.5685 2.18161 10.6773 2.46171C10.7595 2.67316 10.8572 2.99089 10.8839 3.57596C10.9128 4.20871 10.9189 4.39851 10.9189 6.00077C10.9189 7.60302 10.9128 7.79281 10.8839 8.42554C10.8572 9.01063 10.7595 9.32836 10.6773 9.53981C10.5685 9.81991 10.4385 10.0198 10.2285 10.2298C10.0185 10.4398 9.81867 10.5698 9.5386 10.6787C9.32718 10.7608 9.00949 10.8586 8.42447 10.8853C7.79191 10.9141 7.60216 10.9203 5.99999 10.9203C4.39779 10.9203 4.20807 10.9141 3.57546 10.8853C2.99047 10.8586 2.67277 10.7608 2.46135 10.6787C2.18128 10.5698 1.98141 10.4398 1.77146 10.2298C1.56152 10.0198 1.43147 9.81991 1.32263 9.53981C1.24046 9.32836 1.14274 9.01063 1.11604 8.42556C1.08718 7.79281 1.08105 7.60302 1.08105 6.00077C1.08105 4.39851 1.08718 4.20871 1.11604 3.57596C1.14274 2.99089 1.24046 2.67316 1.32263 2.46171C1.43147 2.18161 1.56152 1.98172 1.77146 1.77174C1.98141 1.56177 2.18128 1.43172 2.46135 1.32286C2.67277 1.24068 2.99047 1.14295 3.57546 1.11622C4.20814 1.08738 4.39791 1.08125 5.99999 1.08125Z" fill="#000928"/>
</g>
</g>
<path id="Fill 4" fill-rule="evenodd" clip-rule="evenodd" d="M6.00021 8.00104C4.89563 8.00104 4.0002 7.10548 4.0002 6.00081C4.0002 4.8961 4.89563 4.00056 6.00021 4.00056C7.10475 4.00056 8.0002 4.8961 8.0002 6.00081C8.0002 7.10548 7.10475 8.00104 6.00021 8.00104ZM5.99994 2.91924C4.29829 2.91924 2.91885 4.29883 2.91885 6.00069C2.91885 7.70253 4.29829 9.08213 5.99994 9.08213C7.70158 9.08213 9.08101 7.70253 9.08101 6.00069C9.08101 4.29883 7.70158 2.91924 5.99994 2.91924Z" fill="#000928"/>
<path id="Fill 5" fill-rule="evenodd" clip-rule="evenodd" d="M9.92261 2.79754C9.92261 3.19524 9.60024 3.51762 9.20259 3.51762C8.80497 3.51762 8.4826 3.19524 8.4826 2.79754C8.4826 2.39985 8.80497 2.07747 9.20259 2.07747C9.60024 2.07747 9.92261 2.39985 9.92261 2.79754Z" fill="#000928"/>
</g>
</g>
</svg>
