<svg width="20" height="20" viewBox="0 0 20 20" fill="none" xmlns="http://www.w3.org/2000/svg">
<path d="M15.4913 0H4.50875C2.01864 0 0 2.01864 0 4.50875V15.4913C0 17.9814 2.01864 20 4.50875 20H15.4913C17.9814 20 20 17.9814 20 15.4913V4.50875C20 2.01864 17.9814 0 15.4913 0Z" fill="#575D71"/>
<path d="M16.6663 9.05749C16.6663 6.07374 13.6751 3.64624 9.9982 3.64624C6.32133 3.64624 3.33008 6.07374 3.33008 9.05749C3.33008 11.7325 5.70258 13.9725 8.90695 14.3962C9.12383 14.4431 9.41945 14.5394 9.49445 14.725C9.56195 14.8937 9.5382 15.1575 9.51633 15.3281C9.51633 15.3281 9.4382 15.7987 9.42133 15.8987C9.39195 16.0675 9.28758 16.5581 9.99883 16.2581C10.7107 15.9581 13.8388 13.9969 15.2376 12.3869C16.2038 11.3269 16.667 10.2519 16.667 9.05749H16.6663Z" fill="white"/>
<path d="M14.4476 10.7807H12.5745C12.5039 10.7807 12.447 10.7238 12.447 10.6532V10.6513V7.74635V7.74322C12.447 7.6726 12.5039 7.61572 12.5745 7.61572H14.4476C14.5176 7.61572 14.5751 7.67322 14.5751 7.74322V8.21635C14.5751 8.28697 14.5183 8.34385 14.4476 8.34385H13.1745V8.8351H14.4476C14.5176 8.8351 14.5751 8.8926 14.5751 8.9626V9.43572C14.5751 9.50635 14.5183 9.56322 14.4476 9.56322H13.1745V10.0545H14.4476C14.5176 10.0545 14.5751 10.112 14.5751 10.182V10.6551C14.5751 10.7257 14.5183 10.7826 14.4476 10.7826V10.7807Z" fill="#575D71"/>
<path d="M7.51834 10.7809C7.58834 10.7809 7.64584 10.724 7.64584 10.6534V10.1802C7.64584 10.1102 7.58834 10.0527 7.51834 10.0527H6.24521V7.74273C6.24521 7.67273 6.18771 7.61523 6.11771 7.61523H5.64459C5.57396 7.61523 5.51709 7.67211 5.51709 7.74273V10.6509V10.6534C5.51709 10.724 5.57396 10.7809 5.64459 10.7809H7.51771H7.51834Z" fill="#575D71"/>
<path d="M8.6459 7.61572H8.1734C8.10298 7.61572 8.0459 7.67281 8.0459 7.74322V10.6532C8.0459 10.7236 8.10298 10.7807 8.1734 10.7807H8.6459C8.71632 10.7807 8.7734 10.7236 8.7734 10.6532V7.74322C8.7734 7.67281 8.71632 7.61572 8.6459 7.61572Z" fill="#575D71"/>
<path d="M11.8649 7.61572H11.3918C11.3212 7.61572 11.2643 7.6726 11.2643 7.74322V9.47135L9.93303 7.67322C9.9299 7.66885 9.92615 7.66447 9.92303 7.6601C9.92303 7.6601 9.92303 7.6601 9.9224 7.65947C9.9199 7.65697 9.9174 7.65385 9.9149 7.65135C9.91428 7.65072 9.91303 7.6501 9.9124 7.64947C9.9099 7.6476 9.90803 7.64572 9.90553 7.64385C9.90428 7.64322 9.90303 7.64197 9.90178 7.64135C9.8999 7.63947 9.8974 7.63822 9.8949 7.63697C9.89365 7.63635 9.8924 7.6351 9.89115 7.63447C9.88865 7.63322 9.88678 7.63197 9.88428 7.63072C9.88303 7.6301 9.88178 7.62947 9.88053 7.62885C9.87803 7.6276 9.87553 7.62635 9.87303 7.62572C9.87178 7.62572 9.87053 7.62447 9.86865 7.62447C9.86615 7.62385 9.86365 7.6226 9.86115 7.62197C9.8599 7.62197 9.85803 7.62135 9.85678 7.62072C9.85428 7.62072 9.85178 7.61947 9.84928 7.61885C9.8474 7.61885 9.84553 7.61885 9.84365 7.61822C9.84115 7.61822 9.83928 7.6176 9.83678 7.6176C9.83428 7.6176 9.8324 7.6176 9.8299 7.6176C9.82865 7.6176 9.82678 7.6176 9.82553 7.6176H9.35553C9.28553 7.6176 9.22803 7.67447 9.22803 7.7451V10.6551C9.22803 10.7251 9.2849 10.7826 9.35553 10.7826H9.82865C9.89928 10.7826 9.95615 10.7257 9.95615 10.6551V8.92697L11.2893 10.7276C11.2987 10.7407 11.3099 10.7513 11.3224 10.7595C11.3224 10.7595 11.3237 10.7601 11.3237 10.7607C11.3262 10.7626 11.3287 10.7638 11.3318 10.7657C11.333 10.7663 11.3343 10.767 11.3355 10.7676C11.3374 10.7688 11.3399 10.7695 11.3418 10.7707C11.3437 10.772 11.3462 10.7726 11.348 10.7732C11.3493 10.7732 11.3505 10.7745 11.3518 10.7745C11.3549 10.7757 11.3574 10.7763 11.3605 10.777C11.3605 10.777 11.3618 10.777 11.3624 10.777C11.373 10.7795 11.3843 10.7813 11.3955 10.7813H11.8655C11.9355 10.7813 11.993 10.7245 11.993 10.6538V7.74385C11.993 7.67385 11.9362 7.61635 11.8655 7.61635L11.8649 7.61572Z" fill="#575D71"/>
</svg>
