<svg width="12" height="12" viewBox="0 0 12 12" fill="none" xmlns="http://www.w3.org/2000/svg">
<g id="Frame 995">
<path id="Vector" d="M9.29475 0H2.70525C1.21118 0 0 1.21118 0 2.70525V9.29475C0 10.7888 1.21118 12 2.70525 12H9.29475C10.7888 12 12 10.7888 12 9.29475V2.70525C12 1.21118 10.7888 0 9.29475 0Z" fill="#000928"/>
<path id="Vector_2" d="M9.9998 5.43446C9.9998 3.64421 8.20505 2.18771 5.99892 2.18771C3.7928 2.18771 1.99805 3.64421 1.99805 5.43446C1.99805 7.03946 3.42155 8.38346 5.34417 8.63771C5.4743 8.66583 5.65167 8.72358 5.69667 8.83496C5.73717 8.93621 5.72292 9.09446 5.7098 9.19683C5.7098 9.19683 5.66292 9.47921 5.6528 9.53921C5.63517 9.64046 5.57255 9.93483 5.9993 9.75483C6.42642 9.57483 8.3033 8.39808 9.14255 7.43208C9.7223 6.79608 10.0002 6.15108 10.0002 5.43446H9.9998Z" fill="white"/>
<path id="Vector_3" d="M8.66864 6.46839H7.54476C7.50239 6.46839 7.46826 6.43426 7.46826 6.39189V6.39076V4.64776V4.64589C7.46826 4.60351 7.50239 4.56939 7.54476 4.56939H8.66864C8.71064 4.56939 8.74514 4.60389 8.74514 4.64589V4.92976C8.74514 4.97214 8.71101 5.00626 8.66864 5.00626H7.90476V5.30101H8.66864C8.71064 5.30101 8.74514 5.33551 8.74514 5.37751V5.66139C8.74514 5.70376 8.71101 5.73789 8.66864 5.73789H7.90476V6.03264H8.66864C8.71064 6.03264 8.74514 6.06714 8.74514 6.10914V6.39301C8.74514 6.43539 8.71101 6.46951 8.66864 6.46951V6.46839Z" fill="#000928"/>
<path id="Vector_4" d="M4.51099 6.46845C4.55299 6.46845 4.58749 6.43433 4.58749 6.39195V6.10808C4.58749 6.06608 4.55299 6.03158 4.51099 6.03158H3.74712V4.64558C3.74712 4.60358 3.71262 4.56908 3.67062 4.56908H3.38674C3.34437 4.56908 3.31024 4.6032 3.31024 4.64558V6.39045V6.39195C3.31024 6.43433 3.34437 6.46845 3.38674 6.46845H4.51062H4.51099Z" fill="#000928"/>
<path id="Vector_5" d="M5.18751 4.56939H4.90401C4.86177 4.56939 4.82751 4.60364 4.82751 4.64589V6.39189C4.82751 6.43414 4.86177 6.46839 4.90401 6.46839H5.18751C5.22976 6.46839 5.26401 6.43414 5.26401 6.39189V4.64589C5.26401 4.60364 5.22976 4.56939 5.18751 4.56939Z" fill="#000928"/>
<path id="Vector_6" d="M7.11893 4.56939H6.83505C6.79268 4.56939 6.75855 4.60351 6.75855 4.64589V5.68276L5.9598 4.60389C5.95793 4.60126 5.95568 4.59864 5.9538 4.59601C5.9538 4.59601 5.9538 4.59601 5.95343 4.59564C5.95193 4.59414 5.95043 4.59226 5.94893 4.59076C5.94855 4.59039 5.9478 4.59001 5.94743 4.58964C5.94593 4.58851 5.9448 4.58739 5.9433 4.58626C5.94255 4.58589 5.9418 4.58514 5.94105 4.58476C5.93993 4.58364 5.93843 4.58289 5.93693 4.58214C5.93618 4.58176 5.93543 4.58101 5.93468 4.58064C5.93318 4.57989 5.93205 4.57914 5.93055 4.57839C5.9298 4.57801 5.92905 4.57764 5.9283 4.57726C5.9268 4.57651 5.9253 4.57576 5.9238 4.57539C5.92305 4.57539 5.9223 4.57464 5.92118 4.57464C5.91968 4.57426 5.91818 4.57351 5.91668 4.57314C5.91593 4.57314 5.9148 4.57276 5.91405 4.57239C5.91255 4.57239 5.91105 4.57164 5.90955 4.57126C5.90843 4.57126 5.9073 4.57126 5.90618 4.57089C5.90468 4.57089 5.90355 4.57051 5.90205 4.57051C5.90055 4.57051 5.89943 4.57051 5.89793 4.57051C5.89718 4.57051 5.89605 4.57051 5.8953 4.57051H5.6133C5.5713 4.57051 5.5368 4.60464 5.5368 4.64701V6.39301C5.5368 6.43501 5.57093 6.46951 5.6133 6.46951H5.89718C5.93955 6.46951 5.97368 6.43539 5.97368 6.39301V5.35614L6.77355 6.43651C6.77918 6.44439 6.78593 6.45076 6.79343 6.45564C6.79343 6.45564 6.79418 6.45601 6.79418 6.45639C6.79568 6.45751 6.79718 6.45826 6.79905 6.45939C6.7998 6.45976 6.80055 6.46014 6.8013 6.46051C6.80243 6.46126 6.80393 6.46164 6.80505 6.46239C6.80618 6.46314 6.80768 6.46351 6.8088 6.46389C6.80955 6.46389 6.8103 6.46464 6.81105 6.46464C6.81293 6.46539 6.81443 6.46576 6.8163 6.46614C6.8163 6.46614 6.81705 6.46614 6.81743 6.46614C6.8238 6.46764 6.83055 6.46876 6.8373 6.46876H7.1193C7.1613 6.46876 7.1958 6.43464 7.1958 6.39226V4.64626C7.1958 4.60426 7.16168 4.56976 7.1193 4.56976L7.11893 4.56939Z" fill="#000928"/>
</g>
</svg>
