<svg width="20" height="20" viewBox="0 0 20 20" fill="none" xmlns="http://www.w3.org/2000/svg">
<path d="M15.4913 0H4.50875C2.01864 0 0 2.01864 0 4.50875V15.4913C0 17.9814 2.01864 20 4.50875 20H15.4913C17.9814 20 20 17.9814 20 15.4913V4.50875C20 2.01864 17.9814 0 15.4913 0Z" fill="white"/>
<path d="M16.6663 9.05743C16.6663 6.07368 13.6751 3.64618 9.9982 3.64618C6.32133 3.64618 3.33008 6.07368 3.33008 9.05743C3.33008 11.7324 5.70258 13.9724 8.90695 14.3962C9.12383 14.4431 9.41945 14.5393 9.49445 14.7249C9.56195 14.8937 9.5382 15.1574 9.51633 15.3281C9.51633 15.3281 9.4382 15.7987 9.42133 15.8987C9.39195 16.0674 9.28758 16.5581 9.99883 16.2581C10.7107 15.9581 13.8388 13.9968 15.2376 12.3868C16.2038 11.3268 16.667 10.2518 16.667 9.05743H16.6663Z" fill="#2B2B2B"/>
<path d="M14.4477 10.7807H12.5746C12.5039 10.7807 12.4471 10.7238 12.4471 10.6532V10.6513V7.74629V7.74316C12.4471 7.67254 12.5039 7.61566 12.5746 7.61566H14.4477C14.5177 7.61566 14.5752 7.67316 14.5752 7.74316V8.21629C14.5752 8.28691 14.5183 8.34379 14.4477 8.34379H13.1746V8.83504H14.4477C14.5177 8.83504 14.5752 8.89254 14.5752 8.96254V9.43566C14.5752 9.50629 14.5183 9.56316 14.4477 9.56316H13.1746V10.0544H14.4477C14.5177 10.0544 14.5752 10.1119 14.5752 10.1819V10.655C14.5752 10.7257 14.5183 10.7825 14.4477 10.7825V10.7807Z" fill="white"/>
<path d="M7.51831 10.7807C7.58831 10.7807 7.64581 10.7239 7.64581 10.6532V10.1801C7.64581 10.1101 7.58831 10.0526 7.51831 10.0526H6.24518V7.74261C6.24518 7.67261 6.18768 7.61511 6.11768 7.61511H5.64456C5.57393 7.61511 5.51706 7.67199 5.51706 7.74261V10.6507V10.6532C5.51706 10.7239 5.57393 10.7807 5.64456 10.7807H7.51768H7.51831Z" fill="white"/>
<path d="M8.64584 7.61566H8.17334C8.10292 7.61566 8.04584 7.67275 8.04584 7.74316V10.6532C8.04584 10.7236 8.10292 10.7807 8.17334 10.7807H8.64584C8.71625 10.7807 8.77334 10.7236 8.77334 10.6532V7.74316C8.77334 7.67275 8.71625 7.61566 8.64584 7.61566Z" fill="white"/>
<path d="M11.8649 7.61566H11.3917C11.3211 7.61566 11.2642 7.67254 11.2642 7.74316V9.47129L9.933 7.67316C9.92987 7.66879 9.92612 7.66441 9.923 7.66004C9.923 7.66004 9.923 7.66004 9.92237 7.65941C9.91987 7.65691 9.91737 7.65379 9.91487 7.65129C9.91425 7.65066 9.913 7.65004 9.91237 7.64941C9.90987 7.64754 9.908 7.64566 9.9055 7.64379C9.90425 7.64316 9.903 7.64191 9.90175 7.64129C9.89987 7.63941 9.89737 7.63816 9.89487 7.63691C9.89362 7.63629 9.89237 7.63504 9.89112 7.63441C9.88862 7.63316 9.88675 7.63191 9.88425 7.63066C9.883 7.63004 9.88175 7.62941 9.8805 7.62879C9.878 7.62754 9.8755 7.62629 9.873 7.62566C9.87175 7.62566 9.8705 7.62441 9.86862 7.62441C9.86612 7.62379 9.86362 7.62254 9.86112 7.62191C9.85987 7.62191 9.858 7.62129 9.85675 7.62066C9.85425 7.62066 9.85175 7.61941 9.84925 7.61879C9.84737 7.61879 9.8455 7.61879 9.84362 7.61816C9.84112 7.61816 9.83925 7.61754 9.83675 7.61754C9.83425 7.61754 9.83237 7.61754 9.82987 7.61754C9.82862 7.61754 9.82675 7.61754 9.8255 7.61754H9.3555C9.2855 7.61754 9.228 7.67441 9.228 7.74504V10.655C9.228 10.725 9.28487 10.7825 9.3555 10.7825H9.82862C9.89925 10.7825 9.95612 10.7257 9.95612 10.655V8.92691L11.2892 10.7275C11.2986 10.7407 11.3099 10.7513 11.3224 10.7594C11.3224 10.7594 11.3236 10.76 11.3236 10.7607C11.3261 10.7625 11.3286 10.7638 11.3317 10.7657C11.333 10.7663 11.3342 10.7669 11.3355 10.7675C11.3374 10.7688 11.3399 10.7694 11.3417 10.7707C11.3436 10.7719 11.3461 10.7725 11.348 10.7732C11.3492 10.7732 11.3505 10.7744 11.3517 10.7744C11.3549 10.7757 11.3574 10.7763 11.3605 10.7769C11.3605 10.7769 11.3617 10.7769 11.3624 10.7769C11.373 10.7794 11.3842 10.7813 11.3955 10.7813H11.8655C11.9355 10.7813 11.993 10.7244 11.993 10.6538V7.74379C11.993 7.67379 11.9361 7.61629 11.8655 7.61629L11.8649 7.61566Z" fill="white"/>
</svg>
