<svg width="35" height="36" viewBox="0 0 35 36" fill="none" xmlns="http://www.w3.org/2000/svg">
<circle cx="17.5" cy="18" r="17.5" fill="#07B53B"/>
<path d="M25.8218 22.2164C27.3741 20.5348 28.0856 18.8531 28.0856 16.9774C28.0856 12.2558 23.364 8.375 17.5428 8.375C11.7216 8.375 7 12.2558 7 16.9774C7 21.1816 10.7514 24.739 15.7964 25.3857C17.0253 25.6445 16.896 26.0972 16.6373 27.7789C16.5726 28.0376 16.3785 28.8138 17.5428 28.361C18.6423 27.9083 23.6227 24.8036 25.8218 22.2164Z" fill="white"/>
<path d="M20.4534 14.7135C20.5828 14.6489 20.7122 14.7782 20.7122 14.9076V19.4998C20.7122 19.6292 20.5828 19.6939 20.4534 19.6939H19.742C19.6773 19.6939 19.6126 19.6292 19.5479 19.6292L17.4782 16.7833V19.4998C17.4782 19.6292 17.3488 19.6939 17.2841 19.6939H16.508C16.3786 19.6939 16.3139 19.6292 16.3139 19.4998V14.9076C16.3139 14.7782 16.3786 14.7135 16.508 14.7135H17.2841C17.3488 14.7135 17.4135 14.7135 17.4135 14.7782L19.5479 17.6241V14.9076C19.5479 14.7782 19.6126 14.7135 19.742 14.7135H20.4534Z" fill="#07B53B"/>
<path d="M14.6323 14.6489H15.4084C15.4731 14.6489 15.6025 14.7782 15.6025 14.9076V19.4998C15.6025 19.6292 15.4731 19.6939 15.4084 19.6939H14.6323C14.5029 19.6939 14.4382 19.6292 14.4382 19.4998V14.9076C14.4382 14.7782 14.5029 14.6489 14.6323 14.6489Z" fill="#07B53B"/>
<path d="M11.5923 18.5296H13.5974C13.7268 18.5296 13.7914 18.659 13.7914 18.7237V19.4998C13.7914 19.5645 13.7268 19.6939 13.5974 19.6939H10.6221C10.5575 19.6939 10.5575 19.6292 10.4928 19.6292C10.4928 19.5645 10.4281 19.5645 10.4281 19.4998V14.9076C10.4281 14.7782 10.5575 14.6489 10.6221 14.6489H11.3983C11.5277 14.6489 11.5923 14.7782 11.5923 14.9076V18.5296Z" fill="#07B53B"/>
<path d="M21.6177 14.6489H24.5929C24.6576 14.6489 24.787 14.7782 24.787 14.9076V15.6191C24.787 15.7484 24.6576 15.8131 24.5929 15.8131H22.5879V16.5893H24.5929C24.6576 16.5893 24.787 16.7186 24.787 16.7833V17.5594C24.787 17.6888 24.6576 17.7535 24.5929 17.7535H22.5879V18.5296H24.5929C24.6576 18.5296 24.787 18.659 24.787 18.7237V19.4998C24.787 19.6292 24.6576 19.6939 24.5929 19.6939H21.6177C21.4883 19.6939 21.4236 19.5645 21.4236 19.4998V14.9076C21.4236 14.7782 21.4883 14.6489 21.6177 14.6489Z" fill="#07B53B"/>
</svg>
