<svg width="77" height="25" viewBox="0 0 77 25" fill="none" xmlns="http://www.w3.org/2000/svg">
<g id="Mnews_Logo_mobile 1" clip-path="url(#clip0_549_305)">
<path id="Vector" d="M30.918 6.72571H25.3648V17.663H27.7058V9.03849C27.7058 9.03849 28.6562 8.99973 30.1229 8.99973C31.6751 8.99973 32.4418 10.0625 32.4418 11.6678V17.663H34.7828V11.0638C34.7891 8.51844 33.4555 6.75155 30.918 6.72571Z" fill="white"/>
<path id="Vector_2" d="M40.9253 6.62878C40.2195 6.60947 39.5178 6.7435 38.8668 7.02196C38.2157 7.30042 37.6302 7.71694 37.1492 8.24385C36.6575 8.76795 36.2721 9.38581 36.015 10.062C35.7578 10.7383 35.6341 11.4596 35.6508 12.1846C35.635 12.9244 35.7673 13.6598 36.0396 14.3457C36.312 15.0316 36.7186 15.6536 37.2347 16.1739C37.7514 16.6944 38.3661 17.1029 39.0417 17.3749C39.7173 17.647 40.4399 17.7768 41.166 17.7566C42.0732 17.7833 42.9702 17.5566 43.7603 17.1012C44.5503 16.6458 45.2032 15.9788 45.6485 15.1725L43.9569 14.029C43.3867 15.1305 42.4427 15.6926 41.1248 15.6926C40.3478 15.7029 39.5936 15.4251 39.0024 14.9109C38.7101 14.6674 38.4736 14.3617 38.3094 14.0152C38.1453 13.6687 38.0574 13.2897 38.052 12.905H46.016C46.0425 12.6582 46.0552 12.4102 46.054 12.162C46.054 10.4985 45.601 9.17413 44.6982 8.15341C43.7953 7.13268 42.5187 6.62878 40.9253 6.62878ZM38.1534 11.1025C38.2367 10.419 38.5668 9.79175 39.0794 9.34318C39.5919 8.89461 40.2501 8.65697 40.9253 8.67669C42.4205 8.67669 43.5799 9.60051 43.6591 11.1025H38.1534Z" fill="white"/>
<path id="Vector_3" d="M59.5871 6.72571L57.3823 14.4296H57.3443L54.9462 6.72571H52.5862L50.2071 14.4102H50.1881L47.9833 6.72571H45.5282L48.8893 17.6533H51.2873L53.7266 10.0398H53.7646L56.1848 17.6533H58.6209L61.9852 6.72571H59.5871Z" fill="white"/>
<path id="Vector_4" d="M66.1699 11.0412C64.814 10.7408 64.2217 10.3951 64.2217 9.67804C64.2217 9.09662 64.9693 8.6347 65.6979 8.6347C66.1675 8.61751 66.6312 8.74643 67.0273 9.00433C67.4233 9.26223 67.7331 9.6369 67.9154 10.0786L69.7242 9.03524C68.9956 7.42017 67.6778 6.62878 65.7929 6.62878C64.8232 6.60894 63.8773 6.93578 63.1192 7.5526C62.7583 7.82566 62.4664 8.18268 62.2681 8.59395C62.0697 9.00521 61.9705 9.45884 61.9788 9.91707C61.9704 10.6378 62.2387 11.3334 62.7264 11.8552C63.2966 12.4753 64.1805 12.8985 65.3431 13.1472C66.7781 13.4476 67.5067 13.9289 67.5067 14.5491C67.5067 15.2694 66.7401 15.7313 65.8563 15.7313C64.7348 15.7313 63.908 15.1499 63.3378 14.0064L61.491 15.053C62.2956 16.836 63.7528 17.7405 65.8373 17.7405C66.8715 17.7923 67.8897 17.4646 68.7073 16.8167C69.0601 16.5282 69.3431 16.1608 69.5343 15.743C69.7254 15.3251 69.8197 14.868 69.8098 14.407C69.8098 12.7467 68.5489 11.5838 66.1699 11.0412Z" fill="white"/>
<path id="Vector_5" d="M19.4757 6.716C17.9235 6.716 16.9003 7.27805 15.8169 8.47966C15.1833 7.29743 14.0872 6.716 12.573 6.716H7.16861V17.663H9.50965V11.7098C9.50965 10.0947 10.3935 8.98357 11.8095 8.98357C13.3618 8.98357 14.0714 10.0463 14.0714 11.6517V17.663H16.3902V11.6872C16.3902 10.0721 17.2741 8.98034 18.7091 8.98034C20.2614 8.98034 20.9519 10.0043 20.9519 11.6258V17.663H23.2962V11.0476C23.2962 8.47966 22.029 6.716 19.4757 6.716Z" fill="white"/>
<path id="Vector_6" d="M2.23627 9.48101V1.97415H35.8282V0.194336H0.48761V9.48101H2.23627Z" fill="white"/>
<path id="Vector_7" d="M2.23627 14.9077V22.4113H35.8282V24.1943H0.48761V14.9077H2.23627Z" fill="white"/>
<path id="Vector_8" d="M74.739 9.48101V1.97415H41.147V0.194336H76.4876V9.48101H74.739Z" fill="white"/>
<path id="Vector_9" d="M74.739 14.9077V22.4113H41.147V24.1943H76.4876V14.9077H74.739Z" fill="white"/>
</g>
<defs>
<clipPath id="clip0_549_305">
<rect width="76" height="24" fill="white" transform="translate(0.48761 0.194336)"/>
</clipPath>
</defs>
</svg>
