<svg width="180" height="42" viewBox="0 0 180 42" fill="none" xmlns="http://www.w3.org/2000/svg">
<g id="&#232;&#179;&#135;&#231;&#148;&#162; 2 2" clip-path="url(#clip0_1186_65776)">
<g id="&#229;&#156;&#150;&#229;&#177;&#164; 1">
<g id="Group">
<path id="Vector" d="M23.084 27.8606C23.2499 27.8606 23.3881 27.8291 23.4947 27.7699C23.6014 27.7108 23.7159 27.5254 23.7712 27.1271C23.8265 26.7287 23.8541 25.8768 23.8541 24.7449C24.4307 25.2931 25.6156 25.9675 26.4133 26.2712C26.3304 27.4307 26.2198 28.6534 26.0263 29.1701C25.8051 29.7498 25.422 30.0851 24.9244 30.3612C24.5097 30.5741 23.8225 30.6372 23.3565 30.6372H21.7057C21.0461 30.6372 20.2207 30.4243 19.7231 29.9037C19.2294 29.383 19.0083 28.7441 19.0083 26.8825V22.761H17.4127C17.0533 26.8825 15.8448 29.387 10.8647 30.8818C10.6159 30.1166 9.95634 28.9886 9.35209 28.3182C6.4888 28.9886 3.62946 29.6 1.31909 30.1206L0.687189 26.8234C1.84435 26.6419 3.24637 26.425 4.75898 26.1213V18.1544H1.04658V15.1017H4.76293V12.8733H2.34197V11.836C1.98258 12.2344 1.59949 12.6012 1.2401 12.9364C1.04658 12.1121 0.442328 10.0652 0 9.18171C2.09316 7.5331 4.21002 4.87482 5.44617 2.09822L7.86713 3.32087C7.70125 3.68767 7.53538 4.05446 7.37346 4.42126C9.16252 5.54925 10.8686 6.89417 11.8876 7.99455L10.9792 9.67471H14.3362C14.1703 8.94112 13.9491 8.11682 13.6766 7.41478L15.9041 6.92572H11.5282V4.17673H16.8401C16.6742 3.68767 16.4807 3.19861 16.2635 2.8042L19.1544 2.03906C19.4861 2.65039 19.8692 3.44314 20.1457 4.17673H25.5129V6.92572H21.0264L23.5303 7.41478C23.1709 8.23908 22.8155 9.00422 22.5114 9.67471H25.9789V12.4829H10.8133V9.9784L10.3197 10.8658L10.2367 10.7751V12.8812H7.59462V15.1096H11.0622V18.1623H7.59462V25.581L11.311 24.8158L11.5045 27.3203C13.5424 26.3737 14.0913 24.9381 14.3401 22.7728H12.1956V13.5517H24.9086V22.7728H22.0453V26.9851C22.0453 27.3834 22.073 27.6279 22.1559 27.7187C22.2388 27.8094 22.3494 27.8725 22.5153 27.8725H23.0919L23.084 27.8606ZM3.35696 19.3139C3.82298 20.9941 4.21002 23.1594 4.34825 24.5634L2.14845 25.2339C2.09316 23.7667 1.71007 21.5699 1.29539 19.8898L3.36091 19.31L3.35696 19.3139ZM9.35604 9.84825C8.39239 8.90168 7.15624 7.95511 5.91614 7.07165C5.33954 8.04977 4.67604 8.96478 4.0165 9.84825H9.35604ZM7.89872 24.0152C8.28576 22.6703 8.69649 20.505 8.86237 19.0694L11.228 19.7123C10.7344 21.424 10.292 23.3447 9.90895 24.6265L7.89872 24.0152ZM14.9404 17.1171H22.0137V15.7722H14.9404V17.1171ZM14.9404 20.5366H22.0137V19.1917H14.9404V20.5366ZM16.3425 6.91783C16.7018 7.74213 17.0849 8.84252 17.2232 9.66682H19.6718C20.0035 8.81097 20.359 7.74213 20.5248 6.91783H16.3425Z" fill="white"/>
<path id="Vector_2" d="M35.9076 10.0928H40.3111V13.1454H37.6137L39.2645 13.6029C38.7985 14.6718 38.3009 15.7091 37.8625 16.6872H39.7621V19.7399H35.9115V22.1812H40.315V25.2339H35.9115V30.6688H32.8863V25.2339H28.1273V22.1812H32.8863V19.7399H28.7869V16.6872H30.7418C30.5483 15.7722 30.1375 14.6126 29.7782 13.666L31.3184 13.1454H28.155V10.0928H32.8863V7.98664H28.8974V4.99312H32.8863V2.36639H35.9115V4.99312H39.6792V7.98664H35.9115V10.0928H35.9076ZM35.1374 16.6872C35.6311 15.5592 36.1287 14.2458 36.4565 13.1454H32.2465C32.7125 14.1827 33.1825 15.4054 33.3207 16.2297L32.0806 16.6872H35.1335H35.1374ZM53.0794 14.6718C52.5581 18.2727 51.5944 21.6014 50.2161 24.4411C51.318 25.8137 52.5818 26.9141 53.9838 27.7068C53.2966 28.3773 52.3329 29.6907 51.8393 30.5781C50.5992 29.7538 49.4736 28.6849 48.4547 27.4031C47.5463 28.748 46.4997 29.876 45.3189 30.8541C45.0148 30.3335 44.5211 29.7538 44.0274 29.2055V30.7319H41.0575V3.55749H52.4198V9.29606C52.4198 10.854 52.1157 11.7374 51.0455 12.2265C49.9989 12.7155 48.5139 12.7471 46.5037 12.7471C46.3655 11.769 45.9547 10.5187 45.5677 9.6313C46.9144 9.69046 48.431 9.69046 48.8417 9.69046C49.2524 9.65891 49.3907 9.5682 49.3907 9.23295V6.72849H44.0235V14.025H50.5715L51.0928 13.8711L53.0754 14.6639L53.0794 14.6718ZM44.0274 27.6476C45.0187 26.7602 45.8442 25.723 46.5866 24.5634C45.54 22.7018 44.7146 20.5642 44.0274 18.2727V27.6476ZM46.3102 16.9002C46.8038 18.4896 47.4397 20.0435 48.2098 21.4476C48.8141 20.0435 49.284 18.4857 49.6395 16.9002H46.3102Z" fill="white"/>
<path id="Vector_3" d="M63.095 19.4047V30.306H61.8035V19.4047H56.0809V18.0597H61.8035V14.3642H55.9703V13.0508H63.7032C64.2798 11.4929 64.967 9.20538 65.354 7.64749L66.6178 8.01429C66.1241 9.63134 65.5159 11.5876 64.9393 13.0508H68.7623V14.3642H63.095V18.0597H68.5688V19.4047H63.095ZM59.9868 21.6961C59.3273 23.9245 58.2254 26.2436 57.0959 27.7739C56.9024 27.5925 56.4087 27.1626 56.1046 27.0087C57.2618 25.514 58.2215 23.4355 58.8297 21.3924L59.9868 21.6961ZM68.3516 7.31619H56.3811V6.00283H62.2419C61.8549 5.05626 61.2783 3.89672 60.8123 3.00931L62.076 2.61096C62.6803 3.67979 63.3675 5.02471 63.7269 5.99889H68.3476V7.31225L68.3516 7.31619ZM59.5761 12.7195C59.4379 11.4693 58.9719 9.45386 58.3913 7.98668L59.4932 7.7106C60.0974 9.17778 60.6227 11.1301 60.757 12.3527L59.5722 12.7195H59.5761ZM65.7371 21.2978C66.6731 22.9148 67.6644 24.9933 68.1028 26.3659L67.0838 26.9772C66.6455 25.5731 65.6542 23.4039 64.7735 21.7868L65.7371 21.2978ZM80.7328 14.4904H77.4312V30.2152H76.1397V14.4904H71.6256V15.9852C71.6256 20.2921 71.2662 26.1529 68.628 30.1837C68.4345 29.88 67.9408 29.4501 67.6367 29.2687C70.1406 25.4509 70.3895 20.1106 70.3895 15.9891V5.66759C73.4976 5.11937 77.1587 4.26351 79.1136 3.40766L80.2708 4.50804C78.0157 5.39545 74.6587 6.1882 71.6295 6.64571V13.1179H80.7368V14.4904H80.7328Z" fill="white"/>
<path id="Vector_4" d="M85.9894 13.2362V30.4243H84.698V4.04657H94.3542V13.2362H85.9894ZM85.9894 5.23767V8.01427H93.0864V5.23767H85.9894ZM93.0904 12.0451V9.20536H85.9934V12.0451H93.0904ZM100.464 26.0622V29.4225H99.2237V26.0622H88.0786V24.8395H91.1039V16.4427H88.8211V15.2516H102.715V16.4427H100.46V24.8395H103.268V26.0622H100.46H100.464ZM92.3203 16.4427V18.5172H99.2277V16.4427H92.3203ZM92.3203 21.6646H99.2277V19.6176H92.3203V21.6646ZM99.2237 24.8395V22.7926H92.3163V24.8395H99.2237ZM107.067 28.2905C107.067 29.3594 106.846 29.8169 106.186 30.093C105.555 30.3375 104.37 30.369 102.525 30.369C102.47 29.9707 102.277 29.3633 102.083 28.9334C103.54 28.965 104.863 28.965 105.247 28.9334C105.634 28.9334 105.768 28.7796 105.768 28.3221V13.2401H97.1543V4.04657H107.059V28.2905H107.067ZM98.426 5.23767V8.01427H105.772V5.23767H98.426ZM105.776 12.0451V9.20536H98.4299V12.0451H105.776Z" fill="white"/>
<path id="Vector_5" d="M113.398 22.2128C113.011 24.8395 112.49 27.7068 111.913 29.6C111.664 29.4777 111.143 29.2332 110.811 29.1109C111.471 27.1862 111.941 24.4688 112.241 21.9959L113.398 22.2088V22.2128ZM118.872 14.1236C119.642 16.0167 120.467 18.5488 120.799 20.0475L119.67 20.505C119.587 20.016 119.448 19.4677 119.283 18.8564C112.679 19.9844 111.909 20.2013 111.439 20.4735C111.384 20.1382 111.19 19.4046 111.028 19.0378C111.522 18.9471 112.158 18.1228 112.928 16.9909C113.394 16.3796 114.413 14.8217 115.542 12.9009C112.186 13.3584 111.609 13.5123 111.305 13.6937C111.222 13.3584 111.028 12.688 110.866 12.2896C111.305 12.1989 111.747 11.4969 112.324 10.5779C112.928 9.63132 114.911 6.05803 116.147 2.70166L117.332 3.31299C116.012 6.39722 114.417 9.60372 112.79 11.982L116.285 11.6152C117.027 10.2703 117.742 8.80702 118.378 7.37139L119.535 8.04188C117.636 11.8597 115.436 15.6736 113.181 18.604L118.931 17.689C118.599 16.5886 118.216 15.4606 117.829 14.4509L118.876 14.1157L118.872 14.1236ZM116.151 21.9091C116.482 23.9837 116.838 26.6735 116.921 28.4444L115.819 28.7204C115.736 26.918 115.432 24.2006 115.076 22.1576L116.151 21.913V21.9091ZM119.093 21.2386C119.725 23.1317 120.44 25.6047 120.771 27.1941L119.725 27.5924C119.421 25.9438 118.706 23.4709 118.102 21.5778L119.093 21.2426V21.2386ZM135.135 28.4128C135.135 29.4185 134.914 29.8484 134.338 30.1245C133.761 30.369 132.659 30.4006 131.036 30.369C130.953 30.0023 130.787 29.3909 130.621 28.965C131.913 29.0241 133.07 28.9965 133.429 28.9965C133.789 28.965 133.895 28.8427 133.895 28.4483V5.60447H122.639V30.4282H121.399V4.23194H135.131V28.4128H135.135ZM123.469 12.0451H129.33C129.823 10.5187 130.487 8.22725 130.787 6.70091L131.917 7.09926C131.451 8.6887 130.87 10.6094 130.349 12.0451H133.263V13.3269H123.469V12.0451ZM131.146 23.0095C131.64 23.0095 132.41 23.0095 132.853 22.8872C132.88 23.2856 132.935 23.8022 132.991 24.1099C132.631 24.2321 131.917 24.2321 131.202 24.2321H126.853C125.369 24.2321 124.981 23.6208 124.981 21.913V18.2175H123.852V16.9357H128.173C127.924 16.0483 127.319 14.7665 126.826 13.8199L127.789 13.3624C128.311 14.3089 128.947 15.6539 129.219 16.4466L128.366 16.9357H132.77V18.2175H126.166V21.9407C126.166 22.765 126.277 23.0095 126.881 23.0095H131.146ZM125.641 6.64175C126.411 8.01427 127.098 9.93896 127.347 11.1892L126.356 11.5876C126.107 10.3373 125.447 8.41262 124.705 6.97699L125.641 6.64175Z" fill="white"/>
</g>
<g id="Group_2">
<g id="Group_3">
<path id="Vector_6" d="M158.401 17.0698L158.583 17.3301C159.297 18.3595 159.124 19.7281 158.2 20.367L150.787 25.656C149.862 26.2949 148.524 25.9715 147.809 24.9421L147.627 24.6818C146.912 23.6524 147.086 22.2838 148.01 21.6449L155.423 16.3559C156.347 15.717 157.686 16.0404 158.401 17.0698Z" fill="#212944"/>
<path id="Vector_7" d="M149.716 26.6696C149.499 26.6696 149.278 26.642 149.057 26.5907C148.33 26.4172 147.682 25.9675 147.244 25.3326L147.062 25.0683C146.13 23.7234 146.383 21.9367 147.619 21.0809L155.024 15.7959C155.64 15.3699 156.395 15.2358 157.153 15.4173C157.88 15.5908 158.527 16.0404 158.966 16.6793L159.147 16.9396C160.079 18.2846 159.827 20.0712 158.591 20.9271L151.185 26.2121C150.747 26.5158 150.242 26.6696 149.716 26.6696ZM156.493 16.7109C156.245 16.7109 156.008 16.7819 155.81 16.916L148.405 22.201C147.781 22.6309 147.686 23.5656 148.188 24.2874L148.37 24.5516C148.618 24.9105 148.978 25.163 149.377 25.2576C149.748 25.3483 150.111 25.2892 150.396 25.092L157.801 19.807C158.425 19.3771 158.519 18.4423 158.018 17.7206L157.836 17.4563C157.587 17.0974 157.232 16.845 156.829 16.7503C156.715 16.7227 156.604 16.7109 156.493 16.7109Z" fill="white"/>
</g>
<g id="Group_4">
<path id="Vector_8" d="M136.261 8.10104C138.372 8.10104 140.084 6.39174 140.084 4.28322C140.084 2.17469 138.372 0.465393 136.261 0.465393C134.149 0.465393 132.438 2.17469 132.438 4.28322C132.438 6.39174 134.149 8.10104 136.261 8.10104Z" fill="#212944"/>
<path id="Vector_9" d="M136.261 8.56644C133.895 8.56644 131.972 6.64569 131.972 4.28322C131.972 1.92074 133.895 0 136.261 0C138.626 0 140.55 1.92074 140.55 4.28322C140.55 6.64569 138.626 8.56644 136.261 8.56644ZM136.261 0.926848C134.409 0.926848 132.9 2.43347 132.9 4.28322C132.9 6.13297 134.409 7.63959 136.261 7.63959C138.113 7.63959 139.622 6.13297 139.622 4.28322C139.622 2.43347 138.113 0.926848 136.261 0.926848Z" fill="#212944"/>
</g>
<g id="Group_5">
<path id="Vector_10" d="M142.489 7.94721L142.367 8.16019C141.877 8.99632 140.795 9.28029 139.957 8.79123C139.341 8.43233 138.749 8.03792 138.168 7.6238C137.588 7.20968 137.019 6.84683 136.49 6.41298C135.917 5.94759 135.609 5.214 135.641 4.47252C135.676 3.73104 136.221 3.00928 136.98 3.28931C137.576 3.51017 138.283 3.81781 138.844 4.09389C139.835 4.58295 140.905 4.97735 141.857 5.53346C142.694 6.02252 142.979 7.10319 142.489 7.93932V7.94721Z" fill="#212944"/>
<path id="Vector_11" d="M140.838 9.71807C140.419 9.71807 139.997 9.61159 139.61 9.38678C139.049 9.05942 138.465 8.68079 137.769 8.18779C137.619 8.0813 137.469 7.97876 137.319 7.87621C136.897 7.58435 136.462 7.28461 136.052 6.94936C135.317 6.34987 134.906 5.41514 134.954 4.44885C134.985 3.76653 135.317 3.13548 135.818 2.80419C136.237 2.5281 136.731 2.47683 137.217 2.65826C137.821 2.88307 138.54 3.19465 139.144 3.49045C139.507 3.67187 139.886 3.83752 140.262 4.00712C140.905 4.29503 141.573 4.59083 142.197 4.95368C142.758 5.28104 143.16 5.80954 143.33 6.44453C143.496 7.07557 143.409 7.73423 143.077 8.29822L142.955 8.5112C142.501 9.28818 141.679 9.72202 140.838 9.72202V9.71807ZM136.652 3.92035C136.616 3.92035 136.593 3.93218 136.577 3.94401C136.466 4.01895 136.34 4.23981 136.328 4.51195C136.304 5.04834 136.525 5.56106 136.924 5.88842C137.292 6.18817 137.702 6.47214 138.101 6.74822C138.255 6.85471 138.409 6.9612 138.563 7.06769C139.223 7.53308 139.776 7.89593 140.305 8.19962C140.814 8.49937 141.478 8.32583 141.778 7.81311L141.901 7.60013C142.201 7.08741 142.027 6.42875 141.513 6.13295C140.953 5.80559 140.348 5.5374 139.709 5.25343C139.314 5.07989 138.923 4.90241 138.54 4.7131C137.983 4.44096 137.296 4.14121 136.743 3.93612C136.707 3.92035 136.676 3.9164 136.656 3.9164L136.652 3.92035Z" fill="white"/>
</g>
<g id="Group_6">
<path id="Vector_12" d="M172.346 38.758C170.514 39.9096 168.314 39.4916 166.102 38.9828C163.796 38.4543 161.489 36.7544 159.724 35.2478C158.444 34.1553 158.95 32.4041 158.847 30.9054C158.741 29.3672 158.638 27.8291 158.531 26.2909C158.397 24.3307 158.263 22.3705 158.128 20.4103L160.384 16.6951C160.913 15.8234 161.936 15.7012 162.658 16.4229L177.149 30.9093C177.919 31.6942 174.021 37.1449 173.491 37.7601C173.128 38.1782 172.745 38.5055 172.342 38.758H172.346Z" fill="#212944"/>
<path id="Vector_13" d="M169.562 40.1778C168.401 40.1778 167.188 39.9372 165.952 39.6533C164.001 39.2076 161.817 37.9376 159.282 35.7723C158.077 34.743 158.124 33.3192 158.164 32.061C158.176 31.6706 158.188 31.2998 158.164 30.9527L157.433 20.2447L159.799 16.344C160.162 15.7485 160.735 15.362 161.367 15.2831C162.003 15.2042 162.65 15.4448 163.144 15.9418C175.652 28.4443 177.382 30.1758 177.638 30.4361C178.16 30.9646 178.148 31.9033 176.394 34.7627C175.442 36.3166 174.321 37.8548 174.013 38.2137C173.618 38.6712 173.179 39.0498 172.709 39.3456C171.726 39.9609 170.668 40.1818 169.558 40.1818L169.562 40.1778ZM158.831 20.5839L159.534 30.862C159.562 31.2761 159.55 31.6982 159.534 32.1083C159.499 33.193 159.467 34.1277 160.17 34.7311C162.536 36.7505 164.526 37.9218 166.256 38.3202C168.464 38.825 170.415 39.1642 171.979 38.1821C172.334 37.9613 172.666 37.6694 172.974 37.3145C173.744 36.4231 176.489 32.3134 176.564 31.2959C175.308 30.0417 162.173 16.908 162.173 16.908C161.975 16.7108 161.75 16.6162 161.529 16.6438C161.312 16.6714 161.114 16.8173 160.968 17.054L158.827 20.5839H158.831Z" fill="white"/>
</g>
<g id="Group_7">
<path id="Vector_14" d="M143.265 8.18972L143.139 8.40433C142.649 9.24346 142.933 10.3206 143.773 10.8101L147.164 12.7857C148.004 13.2753 149.083 12.9919 149.573 12.1528L149.698 11.9381C150.189 11.099 149.905 10.0219 149.065 9.53234L145.674 7.55677C144.834 7.06722 143.755 7.3506 143.265 8.18972Z" fill="#212944"/>
<path id="Vector_15" d="M148.058 13.7173C147.639 13.7173 147.216 13.6108 146.829 13.386L143.437 11.4101C142.876 11.0827 142.473 10.5542 142.303 9.91922C142.137 9.28817 142.224 8.62952 142.556 8.06552L142.679 7.85255C143.358 6.68906 144.863 6.29465 146.028 6.97303L149.42 8.94899C150.585 9.62736 150.98 11.1261 150.301 12.2935L150.178 12.5065C149.724 13.2835 148.903 13.7173 148.058 13.7173ZM144.795 8.01031C144.424 8.01031 144.065 8.19962 143.863 8.54275L143.741 8.75573C143.595 9.0042 143.559 9.29212 143.63 9.5682C143.705 9.84823 143.879 10.0809 144.128 10.2229L147.52 12.1989C148.03 12.4986 148.693 12.3251 148.994 11.8124L149.116 11.5994C149.416 11.0867 149.242 10.428 148.729 10.1283L145.336 8.15229C145.167 8.05369 144.981 8.00636 144.795 8.00636V8.01031Z" fill="white"/>
</g>
<g id="Group_8">
<path id="Vector_16" d="M147.943 27.4859L147.817 27.7738C147.319 28.9058 146.142 29.4895 145.206 29.0793C144.519 28.7756 143.844 28.3733 143.192 28.0026C141.924 27.2848 140.206 26.9535 141.142 24.8355L141.269 24.5476C141.901 23.1199 142.888 23.1396 143.938 23.5419C144.997 23.9481 146.071 24.311 147.145 24.6817C148.081 25.0958 148.441 26.3579 147.943 27.4859Z" fill="#212944"/>
<path id="Vector_17" d="M145.834 29.8918C145.526 29.8918 145.218 29.8326 144.926 29.7025C144.329 29.4382 143.753 29.1109 143.196 28.7914L142.852 28.5942C142.655 28.4838 142.449 28.3852 142.244 28.2826C141.138 27.7423 139.464 26.9298 140.514 24.5516C140.581 24.4017 140.617 24.3149 140.641 24.2637C141.324 22.7137 142.517 22.2522 144.183 22.8951C145.107 23.2501 146.071 23.5814 146.999 23.8969L147.422 24.0428C148.058 24.3228 148.539 24.8947 148.741 25.6165C148.934 26.3027 148.875 27.06 148.567 27.7502L148.441 28.0381C147.935 29.1819 146.881 29.8839 145.834 29.8839V29.8918ZM141.869 24.8789L141.766 25.1116C141.273 26.2278 141.632 26.4684 142.844 27.056C143.073 27.1665 143.307 27.2809 143.524 27.4071L143.875 27.6082C144.4 27.908 144.945 28.2195 145.479 28.4562C146.063 28.7125 146.845 28.2748 147.185 27.5017L147.311 27.2138C147.485 26.8194 147.524 26.3777 147.418 26.0069C147.327 25.6835 147.137 25.4429 146.885 25.3246L146.549 25.2102C145.609 24.8868 144.633 24.5555 143.686 24.1887C142.71 23.814 142.272 23.9679 141.893 24.8316L141.869 24.8868V24.8789Z" fill="white"/>
</g>
<g id="Group_9">
<path id="Vector_18" d="M148.171 27.6677L148.019 28.0105C147.414 29.3819 148.037 30.9835 149.41 31.5878L154.943 34.0226C156.317 34.6269 157.92 34.005 158.525 32.6336L158.677 32.2908C159.282 30.9194 158.659 29.3178 157.286 28.7135L151.753 26.2787C150.38 25.6744 148.776 26.2963 148.171 27.6677Z" fill="#212944"/>
<path id="Vector_19" d="M156.047 34.9481C155.589 34.9481 155.127 34.8574 154.681 34.6602L149.144 32.2228C148.314 31.8599 147.678 31.1894 147.347 30.3415C147.019 29.4935 147.035 28.5706 147.402 27.7424L147.556 27.3953C147.919 26.567 148.591 25.9321 149.44 25.6008C150.289 25.2734 151.213 25.2931 152.042 25.656L157.579 28.0934C158.409 28.4562 159.045 29.1267 159.376 29.9747C159.704 30.8227 159.685 31.7456 159.321 32.5738L159.167 32.9209C158.606 34.1909 157.358 34.9481 156.051 34.9481H156.047ZM150.676 26.7406C150.427 26.7406 150.178 26.7879 149.937 26.8786C149.432 27.0758 149.033 27.4544 148.816 27.9475L148.662 28.2945C148.445 28.7875 148.433 29.3358 148.63 29.8445C148.828 30.3494 149.207 30.7477 149.701 30.9686L155.238 33.406C156.26 33.8556 157.461 33.3902 157.911 32.3687L158.065 32.0216C158.282 31.5286 158.294 30.9804 158.097 30.4716C157.899 29.9668 157.52 29.5685 157.027 29.3476L151.49 26.9102C151.229 26.7958 150.956 26.7406 150.68 26.7406H150.676Z" fill="white"/>
</g>
<g id="Group_10">
<path id="Vector_20" d="M162.741 19.0378L162.579 19.3139C161.947 20.3985 160.605 20.8008 159.594 20.2132L151.339 15.571C150.332 14.9834 150.024 13.6148 150.656 12.5341L150.818 12.258C151.45 11.1734 152.793 10.7711 153.804 11.3588L162.058 16.0009C163.065 16.5886 163.373 17.9572 162.741 19.0378Z" fill="#212944"/>
<path id="Vector_21" d="M160.605 21.1676C160.139 21.1676 159.673 21.0493 159.25 20.8047L151.008 16.1666C149.661 15.3817 149.242 13.599 150.068 12.187L150.23 11.9109C151.055 10.499 152.813 9.98626 154.151 10.7632L162.398 15.4014C163.744 16.1863 164.163 17.969 163.338 19.3809L163.176 19.657C162.611 20.6233 161.612 21.1676 160.609 21.1676H160.605ZM152.789 11.769C152.256 11.769 151.719 12.0727 151.411 12.5972L151.249 12.8733C150.806 13.6305 151.004 14.5732 151.687 14.9755L159.933 19.6136C160.628 20.0199 161.545 19.7241 161.991 18.9668L162.153 18.6907C162.595 17.9335 162.402 16.9909 161.714 16.5886L153.472 11.9504C153.259 11.8281 153.026 11.769 152.793 11.769H152.789Z" fill="white"/>
</g>
<g id="Group_11">
<path id="Vector_22" d="M142.718 9.87187C143.632 9.87187 144.373 9.132 144.373 8.21932C144.373 7.30664 143.632 6.56677 142.718 6.56677C141.804 6.56677 141.063 7.30664 141.063 8.21932C141.063 9.132 141.804 9.87187 142.718 9.87187Z" fill="#212944"/>
<path id="Vector_23" d="M142.714 10.3373C142.37 10.3373 142.023 10.2545 141.703 10.077C141.205 9.80485 140.846 9.35917 140.684 8.8149C140.522 8.27062 140.585 7.69874 140.858 7.20573C141.13 6.70878 141.577 6.34988 142.122 6.18817C142.667 6.03041 143.239 6.08957 143.733 6.36171C144.76 6.92176 145.139 8.21146 144.578 9.23296C144.195 9.935 143.464 10.3333 142.714 10.3333V10.3373ZM142.722 7.02825C142.611 7.02825 142.497 7.04403 142.386 7.07558C142.082 7.16629 141.829 7.36744 141.675 7.64746C141.521 7.92749 141.49 8.24696 141.577 8.55459C141.664 8.86223 141.869 9.1107 142.149 9.26452C142.726 9.58004 143.449 9.36706 143.765 8.79123C144.081 8.2154 143.867 7.49365 143.291 7.17812C143.113 7.07952 142.919 7.03219 142.722 7.03219V7.02825Z" fill="white"/>
</g>
<g id="Group_12">
<path id="Vector_24" d="M142.718 8.88196C143.084 8.88196 143.382 8.5853 143.382 8.21936C143.382 7.85342 143.084 7.55676 142.718 7.55676C142.352 7.55676 142.055 7.85342 142.055 8.21936C142.055 8.5853 142.352 8.88196 142.718 8.88196Z" fill="#212944"/>
<path id="Vector_25" d="M142.718 8.95688C142.6 8.95688 142.477 8.92927 142.367 8.86617C142.193 8.77151 142.07 8.61769 142.011 8.42838C141.952 8.23907 141.976 8.04186 142.07 7.86833C142.165 7.69479 142.319 7.57252 142.509 7.51336C142.698 7.45815 142.896 7.47787 143.07 7.57252C143.425 7.76578 143.559 8.2154 143.362 8.57036C143.228 8.81489 142.975 8.95294 142.714 8.95294L142.718 8.95688ZM142.718 7.63168C142.663 7.63168 142.607 7.63957 142.552 7.65535C142.402 7.69873 142.276 7.80128 142.201 7.93538C142.126 8.07342 142.11 8.23118 142.153 8.38105C142.197 8.53092 142.299 8.65713 142.434 8.73207C142.718 8.88589 143.077 8.78334 143.231 8.49937C143.386 8.2154 143.283 7.85649 142.998 7.70268C142.912 7.65535 142.813 7.63168 142.718 7.63168Z" fill="white"/>
</g>
<g id="Group_13">
<path id="Vector_26" d="M150.317 14.0171C151.231 14.0171 151.971 13.2772 151.971 12.3645C151.971 11.4518 151.231 10.712 150.317 10.712C149.403 10.712 148.662 11.4518 148.662 12.3645C148.662 13.2772 149.403 14.0171 150.317 14.0171Z" fill="#212944"/>
<path id="Vector_27" d="M150.313 14.4825C149.961 14.4825 149.614 14.3957 149.298 14.2222C148.271 13.6621 147.892 12.3724 148.453 11.3509C149.013 10.3255 150.305 9.95079 151.328 10.5069C151.825 10.779 152.185 11.2247 152.347 11.769C152.509 12.3133 152.445 12.8852 152.173 13.3782C151.9 13.8751 151.454 14.234 150.909 14.3957C150.712 14.4549 150.51 14.4825 150.309 14.4825H150.313ZM150.321 11.1774C149.898 11.1774 149.491 11.4022 149.274 11.7966C148.958 12.3724 149.171 13.0942 149.748 13.4097C150.028 13.5635 150.348 13.5951 150.652 13.5083C150.956 13.4176 151.209 13.2165 151.363 12.9364C151.517 12.6564 151.549 12.3369 151.462 12.0332C151.375 11.7296 151.17 11.4771 150.889 11.3233C150.708 11.2247 150.514 11.1774 150.321 11.1774Z" fill="white"/>
</g>
<g id="Group_14">
<path id="Vector_28" d="M150.317 13.0272C150.683 13.0272 150.98 12.7305 150.98 12.3646C150.98 11.9986 150.683 11.702 150.317 11.702C149.95 11.702 149.653 11.9986 149.653 12.3646C149.653 12.7305 149.95 13.0272 150.317 13.0272Z" fill="#212944"/>
<path id="Vector_29" d="M150.317 13.1021C150.194 13.1021 150.076 13.0705 149.965 13.0114C149.61 12.8181 149.475 12.3685 149.673 12.0135C149.768 11.84 149.922 11.7138 150.111 11.6586C150.301 11.6033 150.498 11.6231 150.672 11.7177C150.846 11.8124 150.968 11.9662 151.028 12.1555C151.087 12.3448 151.063 12.542 150.968 12.7156C150.873 12.8891 150.719 13.0114 150.53 13.0705C150.463 13.0902 150.392 13.1021 150.321 13.1021H150.317ZM150.317 11.7769C150.261 11.7769 150.206 11.7848 150.151 11.8006C150.001 11.8439 149.874 11.9465 149.799 12.0806C149.645 12.3645 149.748 12.7235 150.032 12.8773C150.171 12.9522 150.328 12.968 150.479 12.9246C150.629 12.8812 150.755 12.7787 150.83 12.6446C150.905 12.5065 150.921 12.3488 150.877 12.1989C150.834 12.049 150.731 11.9228 150.597 11.8479C150.51 11.8006 150.411 11.7769 150.317 11.7769Z" fill="white"/>
</g>
<g id="Group_15">
<g id="Group_16">
<path id="Vector_30" d="M154.898 21.6606C155.812 21.6606 156.553 20.9208 156.553 20.0081C156.553 19.0954 155.812 18.3555 154.898 18.3555C153.984 18.3555 153.243 19.0954 153.243 20.0081C153.243 20.9208 153.984 21.6606 154.898 21.6606Z" fill="#212944"/>
<path id="Vector_31" d="M154.894 22.126C154.55 22.126 154.203 22.0432 153.883 21.8657C153.385 21.5936 153.026 21.1479 152.864 20.6037C152.702 20.0594 152.765 19.4875 153.038 18.9945C153.31 18.4975 153.757 18.1386 154.302 17.9769C154.847 17.8192 155.419 17.8783 155.913 18.1505C156.94 18.7105 157.319 20.0002 156.758 21.0217C156.375 21.7238 155.644 22.1221 154.894 22.1221V22.126ZM154.902 18.821C154.787 18.821 154.677 18.8367 154.566 18.8683C154.262 18.959 154.009 19.1601 153.855 19.4402C153.701 19.7202 153.67 20.0397 153.757 20.3433C153.843 20.647 154.049 20.8995 154.329 21.0533C154.906 21.3688 155.628 21.1558 155.944 20.58C156.26 20.0042 156.047 19.2824 155.471 18.9669C155.293 18.8683 155.099 18.821 154.902 18.821Z" fill="white"/>
</g>
<g id="Group_17">
<path id="Vector_32" d="M154.898 20.6707C155.264 20.6707 155.561 20.3741 155.561 20.0081C155.561 19.6422 155.264 19.3455 154.898 19.3455C154.531 19.3455 154.234 19.6422 154.234 20.0081C154.234 20.3741 154.531 20.6707 154.898 20.6707Z" fill="#212944"/>
<path id="Vector_33" d="M154.898 20.7456C154.775 20.7456 154.657 20.7141 154.546 20.6549C154.373 20.5603 154.25 20.4064 154.191 20.2171C154.132 20.0278 154.155 19.8306 154.25 19.6571C154.345 19.4835 154.499 19.3613 154.689 19.3021C154.878 19.2469 155.076 19.2666 155.249 19.3613C155.605 19.5545 155.739 20.0042 155.542 20.3591C155.447 20.5327 155.293 20.6589 155.103 20.7141C155.036 20.7338 154.965 20.7456 154.894 20.7456H154.898ZM154.898 19.4204C154.843 19.4204 154.787 19.4283 154.732 19.4441C154.582 19.4875 154.456 19.59 154.38 19.7241C154.305 19.8622 154.29 20.0199 154.333 20.1698C154.377 20.3197 154.479 20.4459 154.614 20.5208C154.752 20.5958 154.91 20.6115 155.06 20.5682C155.21 20.5248 155.336 20.4222 155.411 20.2881C155.565 20.0042 155.463 19.6453 155.178 19.4914C155.091 19.4441 154.993 19.4204 154.898 19.4204Z" fill="white"/>
</g>
</g>
<g id="Group_18">
<g id="Group_19">
<path id="Vector_34" d="M147.86 29.2016C148.774 29.2016 149.515 28.4617 149.515 27.549C149.515 26.6364 148.774 25.8965 147.86 25.8965C146.946 25.8965 146.205 26.6364 146.205 27.549C146.205 28.4617 146.946 29.2016 147.86 29.2016Z" fill="#212944"/>
<path id="Vector_35" d="M147.856 29.667C147.473 29.667 147.086 29.5644 146.738 29.3475C145.747 28.7283 145.443 27.4189 146.063 26.4289C146.683 25.439 147.994 25.1353 148.986 25.7545C149.467 26.0543 149.799 26.5236 149.926 27.0718C150.052 27.62 149.957 28.1919 149.657 28.6691C149.254 29.312 148.563 29.663 147.856 29.663V29.667ZM147.86 26.3579C147.769 26.3579 147.678 26.3698 147.592 26.3895C147.28 26.4605 147.019 26.6498 146.849 26.918C146.502 27.4741 146.671 28.2077 147.228 28.5587C147.785 28.9058 148.52 28.7362 148.871 28.1801C149.041 27.9119 149.092 27.5924 149.021 27.2808C148.95 26.9732 148.761 26.709 148.492 26.5394C148.298 26.421 148.085 26.3579 147.864 26.3579H147.86Z" fill="white"/>
</g>
<g id="Group_20">
<path id="Vector_36" d="M147.86 28.2117C148.227 28.2117 148.524 27.915 148.524 27.5491C148.524 27.1831 148.227 26.8865 147.86 26.8865C147.494 26.8865 147.197 27.1831 147.197 27.5491C147.197 27.915 147.494 28.2117 147.86 28.2117Z" fill="#212944"/>
<path id="Vector_37" d="M147.856 28.2866C147.722 28.2866 147.588 28.2511 147.469 28.1762C147.303 28.0736 147.185 27.908 147.141 27.7186C147.098 27.5254 147.129 27.3282 147.236 27.1625C147.339 26.9969 147.505 26.8786 147.694 26.8352C147.888 26.7918 148.085 26.8234 148.251 26.9298C148.595 27.1428 148.701 27.6003 148.484 27.9435C148.346 28.1683 148.105 28.2905 147.86 28.2905L147.856 28.2866ZM147.86 26.9614C147.817 26.9614 147.769 26.9653 147.726 26.9772C147.572 27.0127 147.441 27.1034 147.359 27.2375C147.276 27.3716 147.248 27.5293 147.284 27.6792C147.319 27.833 147.41 27.9632 147.544 28.046C147.821 28.2195 148.184 28.1328 148.354 27.8606C148.524 27.5845 148.441 27.2217 148.168 27.0521C148.073 26.9929 147.967 26.9614 147.856 26.9614H147.86Z" fill="white"/>
</g>
</g>
<g id="Group_21">
<g id="Group_22">
<path id="Vector_38" d="M158.496 35.6659C160.291 35.6659 161.746 34.2126 161.746 32.4199C161.746 30.6273 160.291 29.174 158.496 29.174C156.701 29.174 155.245 30.6273 155.245 32.4199C155.245 34.2126 156.701 35.6659 158.496 35.6659Z" fill="#212944"/>
<path id="Vector_39" d="M158.488 36.1313C157.876 36.1313 157.267 35.9775 156.711 35.6738C155.838 35.2005 155.206 34.4156 154.926 33.4651C154.645 32.5146 154.756 31.5128 155.23 30.6412C156.213 28.8467 158.472 28.1841 160.269 29.1661C161.142 29.6394 161.774 30.4243 162.05 31.3748C162.327 32.3253 162.22 33.3271 161.746 34.1987C161.268 35.0664 160.482 35.7014 159.53 35.9814C159.183 36.084 158.831 36.1313 158.48 36.1313H158.488ZM158.496 29.6355C158.231 29.6355 157.967 29.6749 157.706 29.7498C156.991 29.9589 156.403 30.4322 156.047 31.0869C155.692 31.7376 155.609 32.4909 155.818 33.2048C156.027 33.9187 156.501 34.5063 157.157 34.8613C157.812 35.2163 158.563 35.2991 159.278 35.0901C159.993 34.881 160.581 34.4077 160.936 33.753C161.292 33.1023 161.375 32.3489 161.165 31.6351C160.956 30.9212 160.482 30.3336 159.827 29.9786C159.412 29.7538 158.954 29.6355 158.496 29.6355Z" fill="white"/>
</g>
<g id="Group_23">
<path id="Vector_40" d="M158.496 34.0409C159.392 34.0409 160.119 33.3152 160.119 32.4199C160.119 31.5247 159.392 30.799 158.496 30.799C157.599 30.799 156.873 31.5247 156.873 32.4199C156.873 33.3152 157.599 34.0409 158.496 34.0409Z" fill="#212944"/>
<path id="Vector_41" d="M158.492 34.2737C158.184 34.2737 157.88 34.1987 157.603 34.0449C156.707 33.5558 156.371 32.4279 156.865 31.5286C157.354 30.6333 158.484 30.2981 159.384 30.7911C159.819 31.0277 160.135 31.4221 160.277 31.8954C160.419 32.3687 160.364 32.8735 160.123 33.3074C159.886 33.7412 159.491 34.0567 159.017 34.1987C158.843 34.25 158.666 34.2737 158.492 34.2737ZM158.496 31.0277C158.002 31.0277 157.524 31.288 157.271 31.7495C156.904 32.4239 157.153 33.2679 157.828 33.6387C158.156 33.8162 158.531 33.8556 158.887 33.7531C159.242 33.6466 159.538 33.4099 159.716 33.0865C159.894 32.7592 159.933 32.3845 159.831 32.0295C159.728 31.6745 159.487 31.3787 159.163 31.2013C158.95 31.0869 158.725 31.0317 158.5 31.0317L158.496 31.0277Z" fill="white"/>
</g>
</g>
<g id="Group_24">
<g id="Group_25">
<path id="Vector_42" d="M160.119 21.6015C161.914 21.6015 163.369 20.1482 163.369 18.3556C163.369 16.5629 161.914 15.1096 160.119 15.1096C158.324 15.1096 156.869 16.5629 156.869 18.3556C156.869 20.1482 158.324 21.6015 160.119 21.6015Z" fill="#212944"/>
<path id="Vector_43" d="M160.111 22.0629C159.511 22.0629 158.903 21.917 158.338 21.6094C156.541 20.6273 155.877 18.3713 156.861 16.5768C157.844 14.7823 160.103 14.1197 161.9 15.1017C163.697 16.0838 164.361 18.3398 163.377 20.1343C162.702 21.3648 161.426 22.0629 160.111 22.0629ZM160.123 15.575C159.136 15.575 158.18 16.0996 157.674 17.0225C156.94 18.3674 157.433 20.0633 158.784 20.7969C160.131 21.5305 161.829 21.0335 162.564 19.6886C163.302 18.3437 162.804 16.6478 161.454 15.9142C161.031 15.6854 160.573 15.575 160.123 15.575Z" fill="white"/>
</g>
<g id="Group_26">
<path id="Vector_44" d="M160.119 19.9766C161.015 19.9766 161.742 19.2508 161.742 18.3556C161.742 17.4603 161.015 16.7346 160.119 16.7346C159.222 16.7346 158.496 17.4603 158.496 18.3556C158.496 19.2508 159.222 19.9766 160.119 19.9766Z" fill="#212944"/>
<path id="Vector_45" d="M160.115 20.2092C159.815 20.2092 159.511 20.1343 159.226 19.9844C158.792 19.7478 158.476 19.3534 158.334 18.8801C158.192 18.4068 158.247 17.902 158.488 17.4681C158.725 17.0343 159.12 16.7188 159.594 16.5768C160.072 16.4387 160.573 16.49 161.008 16.7306C161.904 17.2197 162.236 18.3476 161.746 19.2469C161.41 19.8622 160.771 20.2132 160.115 20.2132V20.2092ZM160.123 16.9633C159.993 16.9633 159.858 16.983 159.728 17.0185C159.372 17.125 159.076 17.3616 158.899 17.685C158.721 18.0085 158.681 18.3871 158.784 18.742C158.887 19.097 159.128 19.3928 159.451 19.5703C160.123 19.9371 160.972 19.6886 161.343 19.0181C161.711 18.3437 161.462 17.4997 160.79 17.1329C160.581 17.0185 160.356 16.9633 160.123 16.9633Z" fill="white"/>
</g>
</g>
<g id="Group_27">
<path id="Vector_46" d="M178.377 36.218C179.534 35.0112 179.637 32.9484 178.61 31.6311L176.876 29.4067C175.849 28.0894 174.348 28.2077 173.535 29.667L169.408 37.1054C168.598 38.5647 168.989 40.3119 170.281 40.9903C171.572 41.6687 173.57 41.2348 174.728 40.028L178.377 36.218Z" fill="#212944"/>
<path id="Vector_47" d="M171.702 42C171.082 42 170.482 41.8699 169.961 41.5977C169.234 41.2151 168.693 40.5486 168.448 39.7243C168.164 38.7738 168.294 37.6971 168.808 36.7742L172.935 29.3357C173.436 28.4365 174.214 27.8804 175.071 27.8133C175.928 27.7502 176.785 28.1762 177.417 28.9886L179.151 31.2131C180.379 32.7907 180.253 35.2478 178.871 36.6953L175.221 40.5052C174.297 41.4676 172.958 42 171.698 42H171.702ZM175.249 29.178C175.225 29.178 175.202 29.178 175.178 29.178C174.783 29.2095 174.412 29.5014 174.135 29.9983L170.008 37.4368C169.672 38.0402 169.582 38.7304 169.763 39.3338C169.902 39.8032 170.202 40.1739 170.601 40.3869C171.623 40.9233 173.286 40.5447 174.234 39.5587L177.883 35.7487C178.799 34.7943 178.886 33.1023 178.073 32.0571L176.339 29.8327C176.011 29.4107 175.628 29.1819 175.253 29.1819L175.249 29.178Z" fill="white"/>
</g>
</g>
</g>
</g>
<defs>
<clipPath id="clip0_1186_65776">
<rect width="180" height="42" fill="white"/>
</clipPath>
</defs>
</svg>
