<svg width="80" height="65" viewBox="0 0 80 65" fill="none" xmlns="http://www.w3.org/2000/svg">
<rect width="80" height="65" fill="none"/>
<g id="desktop" clip-path="url(#clip0_0_1)">
<rect width="1200" height="5604" transform="translate(-16 -24)" fill="none"/>
<g id="header">
<rect width="1200" height="144" transform="translate(-16 -24)" fill="none"/>
<g id="Frame 1054">
<g id="&#232;&#179;&#135;&#231;&#148;&#162; 2 1" clip-path="url(#clip1_0_1)">
<g id="_&#229;&#156;&#150;&#229;&#177;&#164;_1-2">
<path id="Vector" d="M63.7148 32.501C63.7148 49.8911 49.6773 63.9884 32.361 63.9884C15.0448 63.9884 1.00928 49.8891 1.00928 32.501C1.00928 15.1129 15.0468 1.01361 32.363 1.01361C49.6793 1.01361 63.7167 15.1109 63.7167 32.501" fill="#003467"/>
<g id="Clip path group">
<mask id="mask0_0_1" style="mask-type:luminance" maskUnits="userSpaceOnUse" x="1" y="1" width="63" height="63">
<g id="clippath">
<path id="Vector_2" d="M32.363 1.01361C15.0468 1.01361 1.00928 15.1109 1.00928 32.501C1.00928 49.8911 15.0468 63.9884 32.363 63.9884C49.6793 63.9884 63.7167 49.8911 63.7167 32.501C63.7167 15.1109 49.6773 1.01361 32.363 1.01361Z" fill="white"/>
</g>
</mask>
<g mask="url(#mask0_0_1)">
<g id="Group">
<path id="Vector_3" d="M11.7304 26.7208H11.4579V15.4779L0.981604 4.95698H-4.13999L-6.51611 2.57073L-6.32255 2.37634L-4.02741 4.68325H1.09419L11.7304 15.3648V26.7208Z" fill="#E0AB00"/>
<path id="Vector_4" d="M11.2861 26.705C11.2861 26.8756 11.4244 27.0144 11.5943 27.0144C11.7641 27.0144 11.9024 26.8756 11.9024 26.705C11.9024 26.5344 11.7641 26.3955 11.5943 26.3955C11.4244 26.3955 11.2861 26.5344 11.2861 26.705Z" fill="#E0AB00"/>
<path id="Vector_5" d="M14.2014 29.1428H13.6563V14.9026L1.81714 3.01305L2.2023 2.62625L14.2014 14.6765V29.1428Z" fill="#E0AB00"/>
<path id="Vector_6" d="M1.6672 3.2015C1.46771 3.00116 1.46771 2.67585 1.6672 2.47353C1.86669 2.27319 2.19061 2.27319 2.39208 2.47353C2.59157 2.67387 2.59157 2.99918 2.39208 3.2015C2.19259 3.40185 1.86866 3.40185 1.6672 3.2015Z" fill="#E0AB00"/>
<path id="Vector_7" d="M13.4172 29.117C13.4172 29.4006 13.6464 29.6307 13.9288 29.6307C14.2113 29.6307 14.4404 29.4006 14.4404 29.117C14.4404 28.8333 14.2113 28.6032 13.9288 28.6032C13.6464 28.6032 13.4172 28.8333 13.4172 29.117Z" fill="#E0AB00"/>
<path id="Vector_8" d="M17.2768 26.7208H17.0042V15.9063L9.88574 8.75551V2.47351H10.1583V8.64245L17.2768 15.7933V26.7208Z" fill="#E0AB00"/>
<path id="Vector_9" d="M16.8345 26.705C16.8345 26.8756 16.9727 27.0144 17.1426 27.0144C17.3125 27.0144 17.4507 26.8756 17.4507 26.705C17.4507 26.5344 17.3125 26.3955 17.1426 26.3955C16.9727 26.3955 16.8345 26.5344 16.8345 26.705Z" fill="#E0AB00"/>
<path id="Vector_10" d="M10.6521 32.4058H10.3795V16.0631L1.60982 7.25595H-8.22847L-12.8938 2.57073L-12.7022 2.37634L-8.11588 6.98222H1.7224L10.6521 15.95V32.4058Z" fill="#E0AB00"/>
<path id="Vector_11" d="M10.5159 32.6994C10.6861 32.6994 10.824 32.5608 10.824 32.3899C10.824 32.219 10.6861 32.0805 10.5159 32.0805C10.3457 32.0805 10.2078 32.219 10.2078 32.3899C10.2078 32.5608 10.3457 32.6994 10.5159 32.6994Z" fill="#E0AB00"/>
<path id="Vector_12" d="M9.07979 30.8705H8.80721V17.2373L0.351543 8.7456H-9.3623V8.47186H0.464128L9.07979 17.1242V30.8705Z" fill="#E0AB00"/>
<path id="Vector_13" d="M8.6355 30.8566C8.6355 31.0272 8.77376 31.166 8.94362 31.166C9.11349 31.166 9.25175 31.0272 9.25175 30.8566C9.25175 30.686 9.11349 30.5471 8.94362 30.5471C8.77376 30.5471 8.6355 30.686 8.6355 30.8566Z" fill="#E0AB00"/>
<path id="Vector_14" d="M16.1312 11.9868H15.8586V6.16102L19.6273 2.37634L19.8208 2.57073L16.1312 6.27408V11.9868Z" fill="#E0AB00"/>
<path id="Vector_15" d="M15.9949 12.2823C16.1651 12.2823 16.303 12.1438 16.303 11.9729C16.303 11.802 16.1651 11.6635 15.9949 11.6635C15.8247 11.6635 15.6868 11.802 15.6868 11.9729C15.6868 12.1438 15.8247 12.2823 15.9949 12.2823Z" fill="#E0AB00"/>
<path id="Vector_16" d="M9.80683 37.0315L9.61523 36.8371L18.8234 27.5897V10.9434L27.3542 2.37634L27.5477 2.57073L19.096 11.0565V27.7027L9.80683 37.0315Z" fill="#E0AB00"/>
<path id="Vector_17" d="M9.50443 36.7062C9.38394 36.8272 9.38394 37.0216 9.50443 37.1426C9.62491 37.2636 9.81848 37.2636 9.93896 37.1426C10.0594 37.0216 10.0594 36.8272 9.93896 36.7062C9.81848 36.5852 9.62491 36.5852 9.50443 36.7062Z" fill="#E0AB00"/>
<path id="Vector_18" d="M10.571 38.5192H5.91162V38.2455H10.4584L20.0814 28.5814V11.9352L29.5997 2.37634L29.7933 2.57073L20.354 12.0483V28.6945L10.571 38.5192Z" fill="#E0AB00"/>
<path id="Vector_19" d="M5.92556 38.0749C5.75569 38.0749 5.61743 38.2137 5.61743 38.3843C5.61743 38.5549 5.75569 38.6937 5.92556 38.6937C6.09542 38.6937 6.23368 38.5549 6.23368 38.3843C6.23368 38.2137 6.09542 38.0749 5.92556 38.0749Z" fill="#E0AB00"/>
<path id="Vector_20" d="M23.0917 20.5023L22.7065 20.1135L25.7404 17.0668V12.1951L32.5448 5.36163L32.93 5.74843L26.2855 12.4212V17.2929L23.0917 20.5023Z" fill="#E0AB00"/>
<path id="Vector_21" d="M32.3571 5.20888C32.5566 5.00854 32.8806 5.00854 33.082 5.20888C33.2815 5.40922 33.2815 5.73453 33.082 5.93686C32.8825 6.1372 32.5586 6.1372 32.3571 5.93686C32.1576 5.73651 32.1576 5.41121 32.3571 5.20888Z" fill="#E0AB00"/>
<path id="Vector_22" d="M22.9159 20.8038C23.1984 20.8038 23.4274 20.5738 23.4274 20.2901C23.4274 20.0063 23.1984 19.7763 22.9159 19.7763C22.6333 19.7763 22.4043 20.0063 22.4043 20.2901C22.4043 20.5738 22.6333 20.8038 22.9159 20.8038Z" fill="#E0AB00"/>
<path id="Vector_23" d="M22.1159 26.9271L21.9224 26.7327L31.7606 16.8525V10.9434L40.084 2.58459L40.2775 2.777L32.0332 11.0565V16.9656L22.1159 26.9271Z" fill="#E0AB00"/>
<path id="Vector_24" d="M40.1709 3.00117C40.3411 3.00117 40.479 2.86263 40.479 2.69173C40.479 2.52083 40.3411 2.38229 40.1709 2.38229C40.0007 2.38229 39.8628 2.52083 39.8628 2.69173C39.8628 2.86263 40.0007 3.00117 40.1709 3.00117Z" fill="#E0AB00"/>
<path id="Vector_25" d="M21.8138 26.5998C21.6933 26.7208 21.6933 26.9152 21.8138 27.0362C21.9342 27.1572 22.1278 27.1572 22.2483 27.0362C22.3688 26.9152 22.3688 26.7208 22.2483 26.5998C22.1278 26.4788 21.9342 26.4788 21.8138 26.5998Z" fill="#E0AB00"/>
<path id="Vector_26" d="M14.1303 39.5229L13.9368 39.3285L36.1396 17.033V12.0919L46.6435 1.54321L46.8351 1.73562L36.4121 12.205V17.1461L14.1303 39.5229Z" fill="#E0AB00"/>
<path id="Vector_27" d="M46.8259 1.94328C46.9871 1.88857 47.0736 1.71297 47.0191 1.55107C46.9647 1.38916 46.7898 1.30226 46.6286 1.35697C46.4674 1.41168 46.3808 1.58727 46.4353 1.74918C46.4898 1.91108 46.6646 1.99799 46.8259 1.94328Z" fill="#E0AB00"/>
<path id="Vector_28" d="M13.8282 39.1976C13.7077 39.3186 13.7077 39.5129 13.8282 39.6339C13.9486 39.7549 14.1422 39.7549 14.2627 39.6339C14.3832 39.5129 14.3832 39.3186 14.2627 39.1976C14.1422 39.0766 13.9486 39.0766 13.8282 39.1976Z" fill="#E0AB00"/>
<path id="Vector_29" d="M-5.33286 49.6094L-5.71802 49.2226L2.47496 40.9967H14.401L52.6085 2.62625L52.9937 3.01305L14.6262 41.5441H2.70012L-5.33286 49.6094Z" fill="#E0AB00"/>
<path id="Vector_30" d="M52.4209 2.47353C52.6204 2.27319 52.9443 2.27319 53.1457 2.47353C53.3452 2.67387 53.3452 2.99918 53.1457 3.2015C52.9463 3.40185 52.6223 3.40185 52.4209 3.2015C52.2214 3.00116 52.2214 2.67585 52.4209 2.47353Z" fill="#E0AB00"/>
<path id="Vector_31" d="M-5.43754 52.0234L-5.6311 51.831L3.22157 42.9406H14.9995L43.2068 14.613H60.9892L72.9665 2.58459L73.1601 2.777L61.1017 14.8868H43.3193L15.1121 43.2143H3.33416L-5.43754 52.0234Z" fill="#E0AB00"/>
<path id="Vector_32" d="M51.5695 12.0086L51.376 11.8142L53.6277 9.5549H57.7597L64.7004 2.58459L64.894 2.777L57.8723 9.82864H53.7402L51.5695 12.0086Z" fill="#E0AB00"/>
<path id="Vector_33" d="M51.4846 12.2109C51.6548 12.2109 51.7928 12.0724 51.7928 11.9015C51.7928 11.7306 51.6548 11.592 51.4846 11.592C51.3145 11.592 51.1765 11.7306 51.1765 11.9015C51.1765 12.0724 51.3145 12.2109 51.4846 12.2109Z" fill="#E0AB00"/>
<path id="Vector_34" d="M59.804 13.4824H47.238V13.2087H59.6914L70.2724 2.58459L70.464 2.777L59.804 13.4824Z" fill="#E0AB00"/>
<path id="Vector_35" d="M47.2539 13.655C47.4241 13.655 47.5621 13.5164 47.5621 13.3455C47.5621 13.1746 47.4241 13.0361 47.2539 13.0361C47.0838 13.0361 46.9458 13.1746 46.9458 13.3455C46.9458 13.5164 47.0838 13.655 47.2539 13.655Z" fill="#E0AB00"/>
<path id="Vector_36" d="M24.2629 37.3548L24.0713 37.1624L44.1034 17.0429H59.1423V17.3167H44.2179L24.2629 37.3548Z" fill="#E0AB00"/>
<path id="Vector_37" d="M59.1265 17.4892C59.2967 17.4892 59.4346 17.3507 59.4346 17.1798C59.4346 17.0089 59.2967 16.8704 59.1265 16.8704C58.9563 16.8704 58.8184 17.0089 58.8184 17.1798C58.8184 17.3507 58.9563 17.4892 59.1265 17.4892Z" fill="#E0AB00"/>
<path id="Vector_38" d="M23.9607 37.0295C23.8402 37.1505 23.8402 37.3449 23.9607 37.4659C24.0812 37.5869 24.2748 37.5869 24.3953 37.4659C24.5157 37.3449 24.5157 37.1505 24.3953 37.0295C24.2748 36.9085 24.0812 36.9085 23.9607 37.0295Z" fill="#E0AB00"/>
<path id="Vector_39" d="M59.4347 27.0104H59.1621V23.1226L63.2507 19.0186V15.589L76.1999 2.58459L76.3934 2.777L63.5233 15.702V19.1316L59.4347 23.2357V27.0104Z" fill="#E0AB00"/>
<path id="Vector_40" d="M58.9922 26.9946C58.9922 27.1651 59.1304 27.304 59.3003 27.304C59.4702 27.304 59.6084 27.1651 59.6084 26.9946C59.6084 26.824 59.4702 26.6851 59.3003 26.6851C59.1304 26.6851 58.9922 26.824 58.9922 26.9946Z" fill="#E0AB00"/>
<path id="Vector_41" d="M60.8351 28.1311H60.5625V25.009L65.1824 20.3714V16.2654L78.8071 2.58459L78.9987 2.777L65.455 16.3804V20.4844L60.8351 25.124V28.1311Z" fill="#E0AB00"/>
<path id="Vector_42" d="M60.3926 28.1153C60.3926 28.2859 60.5308 28.4247 60.7007 28.4247C60.8706 28.4247 61.0088 28.2859 61.0088 28.1153C61.0088 27.9447 60.8706 27.8058 60.7007 27.8058C60.5308 27.8058 60.3926 27.9447 60.3926 28.1153Z" fill="#E0AB00"/>
<path id="Vector_43" d="M20.4391 46.5448L19.8623 45.9655L39.5902 26.1535H50.2798L56.4008 20.0064L56.9796 20.5876L50.6195 26.9727H39.928L20.4391 46.5448Z" fill="#E0AB00"/>
<path id="Vector_44" d="M56.1185 19.7783C56.4187 19.4768 56.9046 19.4768 57.2048 19.7783C57.505 20.0798 57.505 20.5677 57.2048 20.8693C56.9046 21.1708 56.4187 21.1708 56.1185 20.8693C55.8183 20.5677 55.8183 20.0798 56.1185 19.7783Z" fill="#E0AB00"/>
<path id="Vector_45" d="M19.6351 45.6819C19.3349 45.9834 19.3349 46.4713 19.6351 46.7728C19.9353 47.0744 20.4212 47.0744 20.7214 46.7728C21.0216 46.4713 21.0216 45.9834 20.7214 45.6819C20.4212 45.3804 19.9353 45.3804 19.6351 45.6819Z" fill="#E0AB00"/>
<path id="Vector_46" d="M22.0588 47.1478L21.8672 46.9534L32.9636 35.8096H36.4676L41.2297 31.0272H48.3186V31.3009H41.3423L36.5802 36.0833H33.0762L22.0588 47.1478Z" fill="#E0AB00"/>
<path id="Vector_47" d="M48.3028 31.4735C48.4729 31.4735 48.6109 31.335 48.6109 31.1641C48.6109 30.9932 48.4729 30.8546 48.3028 30.8546C48.1326 30.8546 47.9946 30.9932 47.9946 31.1641C47.9946 31.335 48.1326 31.4735 48.3028 31.4735Z" fill="#E0AB00"/>
<path id="Vector_48" d="M21.9737 47.3501C22.1438 47.3501 22.2818 47.2115 22.2818 47.0406C22.2818 46.8697 22.1438 46.7312 21.9737 46.7312C21.8035 46.7312 21.6655 46.8697 21.6655 47.0406C21.6655 47.2115 21.8035 47.3501 21.9737 47.3501Z" fill="#E0AB00"/>
<path id="Vector_49" d="M30.3821 47.3957H23.9292V47.122H30.2695L42.7071 34.6313L42.9006 34.8238L30.3821 47.3957Z" fill="#E0AB00"/>
<path id="Vector_50" d="M23.9448 47.5663C23.775 47.5663 23.6367 47.4274 23.6367 47.2569C23.6367 47.0863 23.775 46.9474 23.9448 46.9474C24.1147 46.9474 24.253 47.0863 24.253 47.2569C24.253 47.4274 24.1147 47.5663 23.9448 47.5663Z" fill="#E0AB00"/>
<path id="Vector_51" d="M43.0093 34.9567C43.1298 34.8357 43.1298 34.6413 43.0093 34.5203C42.8888 34.3993 42.6952 34.3993 42.5747 34.5203C42.4543 34.6413 42.4543 34.8357 42.5747 34.9567C42.6952 35.0777 42.8888 35.0777 43.0093 34.9567Z" fill="#E0AB00"/>
<path id="Vector_52" d="M29.9 45.8743H10.5454V45.3268H29.6729L39.2228 35.7382L39.6079 36.125L29.9 45.8743Z" fill="#E0AB00"/>
<path id="Vector_53" d="M39.0351 35.5855C39.2346 35.3851 39.5585 35.3851 39.76 35.5855C39.9615 35.7858 39.9595 36.1111 39.76 36.3134C39.5605 36.5138 39.2366 36.5138 39.0351 36.3134C38.8356 36.1131 38.8356 35.7878 39.0351 35.5855Z" fill="#E0AB00"/>
<path id="Vector_54" d="M11.0684 45.7144C11.1333 45.4383 10.963 45.1616 10.688 45.0964C10.413 45.0312 10.1375 45.2023 10.0726 45.4784C10.0077 45.7546 10.178 46.0313 10.453 46.0964C10.7279 46.1616 11.0035 45.9906 11.0684 45.7144Z" fill="#E0AB00"/>
<path id="Vector_55" d="M30.382 49.899H13.5398V49.6252H30.2694L40.961 38.8881L41.1545 39.0805L30.382 49.899Z" fill="#E0AB00"/>
<path id="Vector_56" d="M13.5557 50.0715C13.3858 50.0715 13.2476 49.9327 13.2476 49.7621C13.2476 49.5915 13.3858 49.4527 13.5557 49.4527C13.7255 49.4527 13.8638 49.5915 13.8638 49.7621C13.8638 49.9327 13.7255 50.0715 13.5557 50.0715Z" fill="#E0AB00"/>
<path id="Vector_57" d="M41.2651 39.2134C41.3856 39.0924 41.3856 38.898 41.2651 38.777C41.1446 38.656 40.9511 38.656 40.8306 38.777C40.7101 38.898 40.7101 39.0924 40.8306 39.2134C40.9511 39.3344 41.1446 39.3344 41.2651 39.2134Z" fill="#E0AB00"/>
<path id="Vector_58" d="M-5.43754 54.6021L-5.6311 54.4097L0.600533 48.1495H9.56184L13.5161 52.1206H31.4368L49.1717 34.312H79.052L86.3028 27.0303H95.9772V27.304H86.4154L79.1646 34.5857H49.2843L31.5494 52.3943H13.4016L9.44926 48.4232H0.713118L-5.43754 54.6021Z" fill="#E0AB00"/>
<path id="Vector_59" d="M77.9084 32.8362H50.5623V32.5625H77.7938L85.2066 25.1181H95.9772V25.3918H85.3192L77.9084 32.8362Z" fill="#E0AB00"/>
<path id="Vector_60" d="M50.5781 33.0068C50.4083 33.0068 50.27 32.868 50.27 32.6974C50.27 32.5268 50.4083 32.3879 50.5781 32.3879C50.748 32.3879 50.8863 32.5268 50.8863 32.6974C50.8863 32.868 50.748 33.0068 50.5781 33.0068Z" fill="#E0AB00"/>
<path id="Vector_61" d="M75.145 30.0413H56.4797V29.2201H74.8073L83.1622 20.8296H95.0902V21.6508H83.5L75.145 30.0413Z" fill="#E0AB00"/>
<path id="Vector_62" d="M56.5193 30.4024C56.0947 30.4024 55.751 30.0572 55.751 29.6307C55.751 29.2043 56.0947 28.8591 56.5193 28.8591C56.944 28.8591 57.2877 29.2043 57.2877 29.6307C57.2877 30.0572 56.944 30.4024 56.5193 30.4024Z" fill="#E0AB00"/>
<path id="Vector_63" d="M64.1809 25.255C64.0604 25.376 63.8669 25.376 63.7464 25.255C63.6259 25.134 63.6259 24.9396 63.7464 24.8186C63.8669 24.6976 64.0604 24.6976 64.1809 24.8186C64.3014 24.9396 64.3014 25.134 64.1809 25.255Z" fill="white"/>
<path id="Vector_64" d="M32.4164 54.4811L32.0312 54.0943L50.3568 35.6926H79.3008L86.7156 28.2462H96.6803V28.7917H86.9408L79.526 36.2401H50.582L32.4164 54.4811Z" fill="#E0AB00"/>
<path id="Vector_65" d="M32.604 54.6338C32.4045 54.8341 32.0806 54.8341 31.8791 54.6338C31.6796 54.4334 31.6796 54.1081 31.8791 53.9058C32.0786 53.7055 32.4025 53.7055 32.604 53.9058C32.8035 54.1062 32.8035 54.4315 32.604 54.6338Z" fill="#E0AB00"/>
<path id="Vector_66" d="M37.8561 53.4258L37.6646 53.2334L51.5381 39.3007H81.6396L88.3097 32.6021H95.8252V32.8759H88.4242L81.7541 39.5744H51.6507L37.8561 53.4258Z" fill="#E0AB00"/>
<path id="Vector_67" d="M37.9883 53.5369C37.8678 53.6579 37.6742 53.6579 37.5537 53.5369C37.4333 53.4159 37.4333 53.2215 37.5537 53.1005C37.6742 52.9795 37.8678 52.9795 37.9883 53.1005C38.1088 53.2215 38.1088 53.4159 37.9883 53.5369Z" fill="#E0AB00"/>
<path id="Vector_68" d="M40.1808 53.4159L39.9893 53.2215L52.895 40.2608H83.1861L89.6468 33.7725H95.9772V34.0462H89.7594L83.2986 40.5345H53.0076L40.1808 53.4159Z" fill="#E0AB00"/>
<path id="Vector_69" d="M40.3132 53.525C40.1927 53.646 39.9992 53.646 39.8787 53.525C39.7582 53.404 39.7582 53.2096 39.8787 53.0886C39.9992 52.9676 40.1927 52.9676 40.3132 53.0886C40.4337 53.2096 40.4337 53.404 40.3132 53.525Z" fill="#E0AB00"/>
<path id="Vector_70" d="M42.1638 53.4357L41.9702 53.2413L53.4123 41.7504H84.6219L90.9937 35.3514H95.5267V35.6251H91.1083L84.7364 42.0241H53.5269L42.1638 53.4357Z" fill="#E0AB00"/>
<path id="Vector_71" d="M42.2961 53.5468C42.1757 53.6678 41.9821 53.6678 41.8616 53.5468C41.7411 53.4258 41.7411 53.2314 41.8616 53.1104C41.9821 52.9894 42.1757 52.9894 42.2961 53.1104C42.4166 53.2314 42.4166 53.4258 42.2961 53.5468Z" fill="#E0AB00"/>
<path id="Vector_72" d="M64.1809 46.2313C64.0604 46.3523 63.8669 46.3523 63.7464 46.2313C63.6259 46.1103 63.6259 45.9159 63.7464 45.7949C63.8669 45.6739 64.0604 45.6739 64.1809 45.7949C64.3014 45.9159 64.3014 46.1103 64.1809 46.2313Z" fill="white"/>
<path id="Vector_73" d="M63.8017 52.2713H47.238V51.9976H63.6892L67.0331 48.6414H96.8758V48.9151H67.1457L63.8017 52.2713Z" fill="#E0AB00"/>
<path id="Vector_74" d="M47.2539 52.4439C47.4241 52.4439 47.5621 52.3054 47.5621 52.1345C47.5621 51.9636 47.4241 51.825 47.2539 51.825C47.0838 51.825 46.9458 51.9636 46.9458 52.1345C46.9458 52.3054 47.0838 52.4439 47.2539 52.4439Z" fill="#E0AB00"/>
<path id="Vector_75" d="M59.8416 60.9257L56.7722 57.8432H31.421L28.7427 55.1535H10.9188L7.44848 51.6703H-0.0512066L-2.97247 54.602L-3.16406 54.4096L-0.163791 51.3966H7.56304L11.0314 54.8817H28.8553L31.5336 57.5715H56.8848L56.9243 57.6111L60.0332 60.7333L59.8416 60.9257Z" fill="#E0AB00"/>
<path id="Vector_76" d="M59.7093 61.0368C59.8297 61.1578 60.0233 61.1578 60.1438 61.0368C60.2643 60.9158 60.2643 60.7214 60.1438 60.6004C60.0233 60.4794 59.8297 60.4794 59.7093 60.6004C59.5888 60.7214 59.5888 60.9158 59.7093 61.0368Z" fill="#E0AB00"/>
<path id="Vector_77" d="M95.0902 57.149H60.3569L57.8919 55.7843H37.1172V54.9631H58.1013L60.5683 56.3278H95.0902V57.149Z" fill="#E0AB00"/>
<path id="Vector_78" d="M37.1548 56.1453C36.7302 56.1453 36.3865 55.8001 36.3865 55.3737C36.3865 54.9472 36.7302 54.6021 37.1548 54.6021C37.5795 54.6021 37.9232 54.9472 37.9232 55.3737C37.9232 55.8001 37.5795 56.1453 37.1548 56.1453Z" fill="#E0AB00"/>
<path id="Vector_79" d="M64.3154 56.5162L60.1833 54.126H68.7101L70.2429 52.5867H78.8072L80.9206 54.7092H95.5269V54.9829H80.808L78.6926 52.8605H70.3554L68.8227 54.3997H61.2006L64.4517 56.2802L64.3154 56.5162Z" fill="white"/>
<path id="Vector_80" d="M6.39965 35.762H-15.5306L-19.1945 32.0824H-29.0703V31.535H-18.9693L-15.3054 35.2145H6.39965V35.762Z" fill="#E0AB00"/>
<path id="Vector_81" d="M6.37387 34.9745C6.65632 34.9745 6.88544 35.2046 6.88544 35.4883C6.88544 35.7719 6.65632 36.002 6.37387 36.002C6.09142 36.002 5.8623 35.7719 5.8623 35.4883C5.8623 35.2046 6.09142 34.9745 6.37387 34.9745Z" fill="#E0AB00"/>
<path id="Vector_82" d="M4.61008 30.4162L-5.04253 20.7205H-22.1869L-27.4409 25.9968H-41.4349L-58.1448 9.21572L-57.9532 9.02133L-41.3223 25.7231H-27.5535L-22.2995 20.4468H-4.92995L4.80365 30.2219L4.61008 30.4162Z" fill="#E0AB00"/>
<path id="Vector_83" d="M4.9143 30.0889C5.03479 30.2099 5.03479 30.4043 4.9143 30.5253C4.79382 30.6463 4.60025 30.6463 4.47977 30.5253C4.35928 30.4043 4.35928 30.2099 4.47977 30.0889C4.60025 29.9679 4.79382 29.9679 4.9143 30.0889Z" fill="#E0AB00"/>
<path id="Vector_84" d="M1.37465 13.7304H-15.8428L-19.6194 9.93774H-31.9029L-34.8083 7.01791L-34.6168 6.8255L-31.7903 9.66401H-19.5068L-15.7303 13.4566H1.37465V13.7304Z" fill="white"/>
<path id="Vector_85" d="M1.35891 13.901C1.52877 13.901 1.66703 13.7621 1.66703 13.5915C1.66703 13.4209 1.52877 13.2821 1.35891 13.2821C1.18904 13.2821 1.05078 13.4209 1.05078 13.5915C1.05078 13.7621 1.18904 13.901 1.35891 13.901Z" fill="white"/>
<path id="Vector_86" d="M6.25341 22.5275C6.60358 22.5275 6.88744 22.2425 6.88744 21.8908C6.88744 21.5392 6.60358 21.2541 6.25341 21.2541C5.90325 21.2541 5.61938 21.5392 5.61938 21.8908C5.61938 22.2425 5.90325 22.5275 6.25341 22.5275Z" fill="#E0AB00"/>
<path id="Vector_87" d="M6.25341 25.9552C6.60358 25.9552 6.88744 25.6701 6.88744 25.3184C6.88744 24.9668 6.60358 24.6817 6.25341 24.6817C5.90325 24.6817 5.61938 24.9668 5.61938 25.3184C5.61938 25.6701 5.90325 25.9552 6.25341 25.9552Z" fill="#E0AB00"/>
<path id="Vector_88" d="M6.25341 29.3828C6.60358 29.3828 6.88744 29.0977 6.88744 28.7461C6.88744 28.3944 6.60358 28.1093 6.25341 28.1093C5.90325 28.1093 5.61938 28.3944 5.61938 28.7461C5.61938 29.0977 5.90325 29.3828 6.25341 29.3828Z" fill="#E0AB00"/>
<path id="Vector_89" d="M44.7613 20.0064C44.9456 20.0064 45.0951 19.8421 45.0951 19.6395C45.0951 19.4368 44.9456 19.2725 44.7613 19.2725C44.5769 19.2725 44.4275 19.4368 44.4275 19.6395C44.4275 19.8421 44.5769 20.0064 44.7613 20.0064Z" fill="white"/>
<path id="Vector_90" d="M44.7613 21.988C44.9456 21.988 45.0951 21.8237 45.0951 21.6211C45.0951 21.4184 44.9456 21.2541 44.7613 21.2541C44.5769 21.2541 44.4275 21.4184 44.4275 21.6211C44.4275 21.8237 44.5769 21.988 44.7613 21.988Z" fill="white"/>
<path id="Vector_91" d="M44.7613 23.9696C44.9456 23.9696 45.0951 23.8053 45.0951 23.6026C45.0951 23.4 44.9456 23.2357 44.7613 23.2357C44.5769 23.2357 44.4275 23.4 44.4275 23.6026C44.4275 23.8053 44.5769 23.9696 44.7613 23.9696Z" fill="white"/>
<path id="Vector_92" d="M46.3651 20.0064C46.5494 20.0064 46.6989 19.8421 46.6989 19.6395C46.6989 19.4368 46.5494 19.2725 46.3651 19.2725C46.1807 19.2725 46.0312 19.4368 46.0312 19.6395C46.0312 19.8421 46.1807 20.0064 46.3651 20.0064Z" fill="white"/>
<path id="Vector_93" d="M46.3651 21.988C46.5494 21.988 46.6989 21.8237 46.6989 21.6211C46.6989 21.4184 46.5494 21.2541 46.3651 21.2541C46.1807 21.2541 46.0312 21.4184 46.0312 21.6211C46.0312 21.8237 46.1807 21.988 46.3651 21.988Z" fill="white"/>
<path id="Vector_94" d="M46.3651 23.9696C46.5494 23.9696 46.6989 23.8053 46.6989 23.6026C46.6989 23.4 46.5494 23.2357 46.3651 23.2357C46.1807 23.2357 46.0312 23.4 46.0312 23.6026C46.0312 23.8053 46.1807 23.9696 46.3651 23.9696Z" fill="white"/>
<path id="Vector_95" d="M47.9669 20.0064C48.1512 20.0064 48.3007 19.8421 48.3007 19.6395C48.3007 19.4368 48.1512 19.2725 47.9669 19.2725C47.7825 19.2725 47.6331 19.4368 47.6331 19.6395C47.6331 19.8421 47.7825 20.0064 47.9669 20.0064Z" fill="white"/>
<path id="Vector_96" d="M47.9669 21.988C48.1512 21.988 48.3007 21.8237 48.3007 21.6211C48.3007 21.4184 48.1512 21.2541 47.9669 21.2541C47.7825 21.2541 47.6331 21.4184 47.6331 21.6211C47.6331 21.8237 47.7825 21.988 47.9669 21.988Z" fill="white"/>
<path id="Vector_97" d="M47.9669 23.9696C48.1512 23.9696 48.3007 23.8053 48.3007 23.6026C48.3007 23.4 48.1512 23.2357 47.9669 23.2357C47.7825 23.2357 47.6331 23.4 47.6331 23.6026C47.6331 23.8053 47.7825 23.9696 47.9669 23.9696Z" fill="white"/>
<path id="Vector_98" d="M53.764 45.9794C53.9483 45.9794 54.0978 45.8151 54.0978 45.6125C54.0978 45.4098 53.9483 45.2455 53.764 45.2455C53.5796 45.2455 53.4302 45.4098 53.4302 45.6125C53.4302 45.8151 53.5796 45.9794 53.764 45.9794Z" fill="#E0AB00"/>
<path id="Vector_99" d="M53.764 47.961C53.9483 47.961 54.0978 47.7967 54.0978 47.5941C54.0978 47.3914 53.9483 47.2271 53.764 47.2271C53.5796 47.2271 53.4302 47.3914 53.4302 47.5941C53.4302 47.7967 53.5796 47.961 53.764 47.961Z" fill="#E0AB00"/>
<path id="Vector_100" d="M53.764 49.9426C53.9483 49.9426 54.0978 49.7783 54.0978 49.5757C54.0978 49.373 53.9483 49.2087 53.764 49.2087C53.5796 49.2087 53.4302 49.373 53.4302 49.5757C53.4302 49.7783 53.5796 49.9426 53.764 49.9426Z" fill="#E0AB00"/>
<path id="Vector_101" d="M55.3658 45.9794C55.5501 45.9794 55.6996 45.8151 55.6996 45.6125C55.6996 45.4098 55.5501 45.2455 55.3658 45.2455C55.1814 45.2455 55.032 45.4098 55.032 45.6125C55.032 45.8151 55.1814 45.9794 55.3658 45.9794Z" fill="#E0AB00"/>
<path id="Vector_102" d="M55.3658 47.961C55.5501 47.961 55.6996 47.7967 55.6996 47.5941C55.6996 47.3914 55.5501 47.2271 55.3658 47.2271C55.1814 47.2271 55.032 47.3914 55.032 47.5941C55.032 47.7967 55.1814 47.961 55.3658 47.961Z" fill="#E0AB00"/>
<path id="Vector_103" d="M55.3658 49.9426C55.5501 49.9426 55.6996 49.7783 55.6996 49.5757C55.6996 49.373 55.5501 49.2087 55.3658 49.2087C55.1814 49.2087 55.032 49.373 55.032 49.5757C55.032 49.7783 55.1814 49.9426 55.3658 49.9426Z" fill="#E0AB00"/>
<path id="Vector_104" d="M56.9695 45.9794C57.1539 45.9794 57.3033 45.8151 57.3033 45.6125C57.3033 45.4098 57.1539 45.2455 56.9695 45.2455C56.7852 45.2455 56.6357 45.4098 56.6357 45.6125C56.6357 45.8151 56.7852 45.9794 56.9695 45.9794Z" fill="#E0AB00"/>
<path id="Vector_105" d="M56.9695 47.961C57.1539 47.961 57.3033 47.7967 57.3033 47.5941C57.3033 47.3914 57.1539 47.2271 56.9695 47.2271C56.7852 47.2271 56.6357 47.3914 56.6357 47.5941C56.6357 47.7967 56.7852 47.961 56.9695 47.961Z" fill="#E0AB00"/>
<path id="Vector_106" d="M56.9695 49.9426C57.1539 49.9426 57.3033 49.7783 57.3033 49.5757C57.3033 49.373 57.1539 49.2087 56.9695 49.2087C56.7852 49.2087 56.6357 49.373 56.6357 49.5757C56.6357 49.7783 56.7852 49.9426 56.9695 49.9426Z" fill="#E0AB00"/>
<path id="Vector_107" d="M58.5242 45.9794C58.7086 45.9794 58.858 45.8151 58.858 45.6125C58.858 45.4098 58.7086 45.2455 58.5242 45.2455C58.3399 45.2455 58.1904 45.4098 58.1904 45.6125C58.1904 45.8151 58.3399 45.9794 58.5242 45.9794Z" fill="#E0AB00"/>
<path id="Vector_108" d="M58.5242 47.961C58.7086 47.961 58.858 47.7967 58.858 47.5941C58.858 47.3914 58.7086 47.2271 58.5242 47.2271C58.3399 47.2271 58.1904 47.3914 58.1904 47.5941C58.1904 47.7967 58.3399 47.961 58.5242 47.961Z" fill="#E0AB00"/>
<path id="Vector_109" d="M58.5242 49.9426C58.7086 49.9426 58.858 49.7783 58.858 49.5757C58.858 49.373 58.7086 49.2087 58.5242 49.2087C58.3399 49.2087 58.1904 49.373 58.1904 49.5757C58.1904 49.7783 58.3399 49.9426 58.5242 49.9426Z" fill="#E0AB00"/>
<path id="Vector_110" d="M6.25341 32.8084C6.60358 32.8084 6.88744 32.5234 6.88744 32.1717C6.88744 31.82 6.60358 31.535 6.25341 31.535C5.90325 31.535 5.61938 31.82 5.61938 32.1717C5.61938 32.5234 5.90325 32.8084 6.25341 32.8084Z" fill="#E0AB00"/>
<path id="Vector_111" d="M15.1396 59.8407C15.4898 59.8407 15.7737 59.5556 15.7737 59.204C15.7737 58.8523 15.4898 58.5673 15.1396 58.5673C14.7895 58.5673 14.5056 58.8523 14.5056 59.204C14.5056 59.5556 14.7895 59.8407 15.1396 59.8407Z" fill="white"/>
<path id="Vector_112" d="M21.9658 59.8407C22.316 59.8407 22.5998 59.5556 22.5998 59.204C22.5998 58.8523 22.316 58.5673 21.9658 58.5673C21.6157 58.5673 21.3318 58.8523 21.3318 59.204C21.3318 59.5556 21.6157 59.8407 21.9658 59.8407Z" fill="#E0AB00"/>
<path id="Vector_113" d="M25.3789 59.8407C25.7291 59.8407 26.0129 59.5556 26.0129 59.204C26.0129 58.8523 25.7291 58.5673 25.3789 58.5673C25.0287 58.5673 24.7449 58.8523 24.7449 59.204C24.7449 59.5556 25.0287 59.8407 25.3789 59.8407Z" fill="#E0AB00"/>
<path id="Vector_114" d="M50.8367 60.9852H30.297L26.0879 56.7582H12.5541L11.0886 58.23H11.0333C6.96047 58.3332 0.0849314 58.4621 -0.185666 58.1923L-1.94751 56.423H-5.57983V56.1493H-1.83295L-0.00592613 57.9841C0.479964 58.1527 6.78468 58.0614 10.972 57.9583L12.4396 56.4845H26.1986L30.4076 60.7115H50.8348V60.9852H50.8367Z" fill="#E0AB00"/>
<path id="Vector_115" d="M50.8211 61.1578C50.9909 61.1578 51.1292 61.019 51.1292 60.8484C51.1292 60.6778 50.9909 60.5389 50.8211 60.5389C50.6512 60.5389 50.5129 60.6778 50.5129 60.8484C50.5129 61.019 50.6512 61.1578 50.8211 61.1578Z" fill="#E0AB00"/>
<path id="Vector_116" d="M37.7495 69.1219H21.3596L15.9397 63.6789H-0.0353708L-5.79297 57.8968L-5.60138 57.7024L0.0772138 63.4052H16.0523L21.4722 68.8481H37.6369L40.8722 65.599H61.6015L68.9491 58.2201H96.0247V58.4938H69.0617L61.7141 65.8728H40.9848L37.7495 69.1219Z" fill="white"/>
<path id="Vector_117" d="M36.0704 67.4854H22.4477L16.9114 61.9254H0.961914V61.6517H17.0239L22.5603 67.2117H35.9578L39.8153 63.3377H59.1423V63.6095H39.9279L36.0704 67.4854Z" fill="white"/>
<path id="Vector_118" d="M0.977803 62.098C0.807939 62.098 0.669678 61.9592 0.669678 61.7886C0.669678 61.618 0.807939 61.4791 0.977803 61.4791C1.14767 61.4791 1.28593 61.618 1.28593 61.7886C1.28593 61.9592 1.14767 62.098 0.977803 62.098Z" fill="white"/>
<path id="Vector_119" d="M59.1265 63.7821C59.2967 63.7821 59.4346 63.6435 59.4346 63.4726C59.4346 63.3017 59.2967 63.1632 59.1265 63.1632C58.9563 63.1632 58.8184 63.3017 58.8184 63.4726C58.8184 63.6435 58.9563 63.7821 59.1265 63.7821Z" fill="white"/>
</g>
</g>
</g>
<path id="Vector_120" d="M32.363 65C14.5174 65 0 50.4207 0 32.501C0 14.5813 14.5174 0 32.363 0C50.2086 0 64.7261 14.5793 64.7261 32.501C64.7261 50.4227 50.2086 65.002 32.363 65.002V65ZM32.363 2.24938C15.7519 2.24938 2.23983 15.8191 2.23983 32.501C2.23983 49.1829 15.7519 62.7526 32.363 62.7526C48.9742 62.7526 62.4862 49.1809 62.4862 32.501C62.4862 15.8211 48.9722 2.24938 32.363 2.24938Z" fill="#003467"/>
<path id="Vector_121" d="M53.7045 16.0174H11.0173V40.9491H53.7045V16.0174Z" fill="#003467"/>
<path id="Vector_122" d="M42.6516 41.7544H39.4597V43.1667H42.6516V41.7544Z" fill="#003467"/>
<path id="Vector_123" d="M29.2718 37.7139C29.4022 37.7139 29.5108 37.69 29.5977 37.6405C29.6846 37.5929 29.7715 37.4461 29.815 37.1307C29.8584 36.8153 29.8802 36.1349 29.8802 35.2364C30.3364 35.6727 31.2726 36.2083 31.9027 36.4503C31.8375 37.3727 31.7506 38.3446 31.5985 38.7572C31.4247 39.2194 31.1206 39.4852 30.7275 39.7034C30.4016 39.874 29.8565 39.9216 29.4871 39.9216H28.1815C27.6601 39.9216 27.0063 39.751 26.6152 39.3384C26.2241 38.9258 26.0503 38.416 26.0503 36.9343V33.6574H24.7882C24.5057 36.9343 23.5478 38.9258 19.6093 40.116C19.4138 39.509 18.8923 38.6104 18.4124 38.0768C16.1488 38.6104 13.8873 39.0964 12.0602 39.509L11.5605 36.8867C12.475 36.7419 13.5831 36.5713 14.78 36.3273V29.9898H11.843V27.5619H14.78V25.7886H12.8661V24.9634C12.5837 25.2788 12.2795 25.5704 11.9951 25.8381C11.843 25.1836 11.365 23.555 11.0154 22.8529C12.6686 21.5417 14.3435 19.4292 15.3232 17.2195L17.2371 18.1914C17.1068 18.483 16.9764 18.7746 16.8461 19.0662C18.2603 19.9648 19.6093 21.0319 20.4152 21.9067L19.6982 23.2416H22.3528C22.2225 22.6585 22.0486 22.0039 21.8314 21.4445L23.5932 21.0557H20.1347V18.8698H24.3339C24.2035 18.481 24.0515 18.0923 23.8776 17.7769L26.1629 17.1699C26.4236 17.6559 26.7278 18.2866 26.947 18.8698H31.1897V21.0557H27.6423L29.6214 21.4445C29.339 22.1011 29.0565 22.7061 28.8155 23.2416H31.5571V25.4751H19.5698V23.4836L19.1787 24.1878L19.1135 24.1144V25.7886H17.0258V27.5619H19.7673V29.9898H17.0258V35.889L19.9629 35.282L20.115 37.2735C21.7247 36.5217 22.1592 35.3792 22.3568 33.6554H20.6601V26.3241H30.7117V33.6554H28.4482V37.0057C28.4482 37.3211 28.4699 37.5155 28.5351 37.5889C28.6003 37.6623 28.6872 37.7099 28.8175 37.7099H29.2738L29.2718 37.7139ZM13.672 30.9161C14.0413 32.2511 14.3475 33.9748 14.4561 35.0916L12.716 35.6251C12.6725 34.4588 12.3684 32.7113 12.0425 31.3763L13.674 30.9141L13.672 30.9161ZM18.4163 23.3904C17.6539 22.6386 16.6762 21.8849 15.6965 21.1807C15.2403 21.9583 14.7168 22.6862 14.1954 23.3904H18.4163ZM17.2628 34.6552C17.567 33.586 17.8929 31.8623 18.0252 30.7217L19.8957 31.2315C19.5046 32.5903 19.155 34.1216 18.8509 35.1411L17.2628 34.6552ZM22.8328 29.1686H28.4245V28.0994H22.8328V29.1686ZM22.8328 31.8881H28.4245V30.8189H22.8328V31.8881ZM23.9428 21.0597C24.2253 21.7163 24.5294 22.589 24.6381 23.2456H26.5737C26.8345 22.5652 27.1169 21.7163 27.2492 21.0597H23.9428Z" fill="white"/>
<path id="Vector_124" d="M39.4125 23.5848H42.8927V26.0127H40.7615L42.0671 26.3777C41.6977 27.2267 41.3047 28.0518 40.957 28.8294H42.4582V31.2573H39.4125V33.1992H42.8927V35.6271H39.4125V39.9494H37.0186V35.6271H33.2539V33.1992H37.0186V31.2573H33.7773V28.8294H35.3219C35.1698 28.1014 34.8439 27.1791 34.5595 26.4253L35.7782 26.0127H33.2756V23.5848H37.0186V21.9087H33.8642V19.5304H37.0186V17.4417H39.4125V19.5304H42.393V21.9087H39.4125V23.5848ZM38.8021 28.8294C39.1932 27.9308 39.5863 26.8875 39.847 26.0127H36.5188C36.8882 26.8379 37.2595 27.8098 37.3682 28.4644L36.3885 28.8294H38.8041H38.8021ZM52.9878 27.2267C52.5749 30.091 51.8125 32.737 50.7242 34.9963C51.5953 36.0893 52.5947 36.9621 53.7047 37.5948C53.1616 38.1284 52.3992 39.1738 52.0081 39.8779C51.0284 39.2234 50.1376 38.3724 49.3317 37.3528C48.6128 38.422 47.7872 39.3186 46.8509 40.0961C46.6119 39.6836 46.2208 39.2214 45.8278 38.785V39.9989H43.4773V18.3918H52.4624V22.956C52.4624 24.1938 52.2234 24.8979 51.374 25.2867C50.5465 25.6755 49.3732 25.6993 47.7832 25.6993C47.6746 24.9217 47.3487 23.928 47.0425 23.2238C48.1091 23.2714 49.3061 23.2714 49.632 23.2714C49.9579 23.2476 50.0665 23.1742 50.0665 22.9064V20.9149H45.8238V26.7169H51.0027L51.4155 26.5959L52.9818 27.2267H52.9878ZM45.8298 37.5453C46.6139 36.8411 47.2657 36.0159 47.8523 35.0935C47.0247 33.6118 46.3729 31.9139 45.8298 30.0929V37.5472V37.5453ZM47.6351 28.998C48.0261 30.2596 48.5278 31.4993 49.1362 32.6161C49.6142 31.4993 49.9855 30.2615 50.268 28.998H47.6351Z" fill="white"/>
<path id="Vector_125" d="M25.3058 41.9528H16.4927V51.2339H25.3058V41.9528Z" fill="#003467"/>
<path id="Vector_126" d="M36.7678 41.9528H27.9546V51.2339H36.7678V41.9528Z" fill="#003467"/>
<path id="Vector_127" d="M48.2314 41.9528H39.4182V51.2339H48.2314V41.9528Z" fill="#003467"/>
<path id="Vector_128" d="M18.6338 48.1316C18.4303 48.7882 18.0945 49.536 17.8081 50.0021C17.66 49.8653 17.3499 49.6272 17.1702 49.5102C17.4487 49.0818 17.7173 48.4609 17.8891 47.8956L18.6338 48.1336V48.1316ZM19.7774 47.602V50.6309H18.8372V47.602H17.3163V46.6896H18.8372V45.9874H17.2669V45.0928H18.061C18.0195 44.819 17.9227 44.4263 17.8239 44.1446L18.4935 43.9621H17.3894V43.0775H18.7878C18.7147 42.8315 18.6239 42.5756 18.5429 42.3574L19.5167 42.0936C19.6391 42.3951 19.7873 42.768 19.884 43.0794H21.0533V43.9641H20.0322L20.6939 44.1109C20.5714 44.458 20.4489 44.8131 20.3265 45.0967H21.1778V45.9913H19.7794V46.6935H21.0474V47.606H19.7794L19.7774 47.602ZM18.6002 43.9601C18.7226 44.2617 18.8293 44.6544 18.8708 44.9083L18.2822 45.0908H19.4594C19.5818 44.7615 19.73 44.2974 19.811 43.9601H18.6002ZM24.8219 46.1778H24.0615V50.6587H23.1134V46.1778H22.353V46.2869C22.353 47.6278 22.2463 49.5082 21.5511 50.6766C21.3871 50.4841 21.004 50.139 20.7985 50.0279C20.9546 49.7641 21.077 49.4626 21.1659 49.1432L20.5852 49.5439C20.4549 49.179 20.1764 48.5958 19.9472 48.1753L20.5852 47.7924C20.8064 48.1574 21.0593 48.6414 21.1975 48.9885C21.4266 48.1118 21.4503 47.1279 21.4503 46.2869V43.0378C22.3411 42.8553 23.3307 42.5716 23.9272 42.2622L24.6718 43.0556C24.0023 43.3571 23.151 43.5753 22.349 43.74V45.1721H24.818V46.1758L24.8219 46.1778Z" fill="#00FFFF"/>
<path id="Vector_129" d="M29.9908 45.4756V50.6766H29.0427V42.4447H32.1911V45.4736H29.9908V45.4756ZM29.9908 43.1667V43.613H31.2747V43.1667H29.9908ZM31.2747 44.7635V44.3073H29.9908V44.7635H31.2747ZM33.9569 49.4547V50.4306H33.0819V49.4547H30.2851V48.7148H30.9468V46.5249H30.4727V45.7851H34.4389V46.5249H33.9569V48.7148H34.5455V49.4547H33.9569ZM31.7981 46.5249V46.8443H33.0819V46.5249H31.7981ZM31.7981 47.7746H33.0819V47.4453H31.7981V47.7746ZM33.0819 48.7148V48.3776H31.7981V48.7148H33.0819ZM35.936 49.5816C35.936 50.0736 35.8551 50.3116 35.5924 50.4842C35.3395 50.6389 34.9544 50.6666 34.4566 50.6666C34.4231 50.3929 34.3085 49.9823 34.186 49.7264C34.4566 49.7364 34.7509 49.7364 34.8477 49.7264C34.9465 49.7264 34.9781 49.6808 34.9781 49.5717V45.4736H32.7304V42.4447H35.936V49.5816ZM33.6547 43.1667V43.613H34.9801V43.1667H33.6547ZM34.9781 44.7635V44.3073H33.6528V44.7635H34.9781Z" fill="#00FFFF"/>
<path id="Vector_130" d="M41.0795 48.2943C41.0222 49.0976 40.8998 49.9645 40.7359 50.5119C40.5877 50.4108 40.2361 50.2937 40.0564 50.2481C40.2361 49.7106 40.327 48.8973 40.3744 48.1673L41.0776 48.2943H41.0795ZM47.5561 49.6272C47.5561 50.1112 47.483 50.3572 47.2282 50.5119C46.9754 50.6666 46.6159 50.6944 46.0925 50.6944C46.0589 50.4306 45.9621 50.02 45.8555 49.772C46.134 49.7899 46.4441 49.7899 46.5507 49.7899C46.6574 49.78 46.689 49.7443 46.689 49.6253V43.492H44.0561V50.7004H43.1969V47.479L42.551 47.7885C42.5273 47.6794 42.5016 47.5425 42.4602 47.4056C40.8583 47.6972 40.5877 47.7885 40.408 47.8718C40.3744 47.6992 40.2361 47.243 40.1374 47.005C40.3408 46.9494 40.5127 46.7312 40.7596 46.3841C40.8583 46.2472 41.0539 45.9636 41.283 45.5728C40.6529 45.6541 40.4732 45.7097 40.3586 45.7731C40.3092 45.5907 40.1868 45.1523 40.088 44.9063C40.244 44.8607 40.3744 44.6881 40.5304 44.4144C40.6944 44.1585 41.1763 43.1449 41.4627 42.1868L42.239 42.5518C41.9447 43.3095 41.5694 44.1208 41.1684 44.7794L41.7412 44.7338C41.9447 44.3231 42.1501 43.8848 42.3219 43.4464L43.0251 43.9582C42.5668 44.944 41.9782 45.9656 41.3659 46.7967L42.2567 46.6598C42.1915 46.4416 42.1264 46.2214 42.0612 46.0389L42.6834 45.7751C42.8789 46.2869 43.0922 46.9792 43.1989 47.3997V42.5538H47.5561V49.6253V49.6272ZM41.8972 48.1039C41.996 48.7069 42.0849 49.4725 42.1106 50.0021L41.4311 50.2025C41.4153 49.6729 41.3403 48.8894 41.2593 48.2863L41.8972 48.1039ZM42.715 47.8381C42.9026 48.3855 43.1001 49.0877 43.1811 49.5439L42.551 49.8177C42.4779 49.3436 42.2903 48.6216 42.1264 48.0662L42.715 47.8381ZM45.9858 48.2863C46.1162 48.2863 46.3374 48.2685 46.4599 48.2308C46.4757 48.449 46.4934 48.7604 46.5172 48.9608C46.4026 49.0163 46.1893 49.0163 46.0095 49.0163H45.3222C44.6269 49.0163 44.4887 48.7247 44.4887 47.9948V47.4572H44.2516V46.6459H45.0773C45.02 46.4535 44.939 46.2254 44.8718 46.0528L45.3617 45.8803H44.2082V45.069H44.6506C44.617 44.7318 44.4867 44.2478 44.3484 43.8828L44.8955 43.6825C45.0595 44.0573 45.1977 44.5592 45.2471 44.8865L44.7731 45.069H45.492C45.5987 44.6584 45.7291 44.101 45.7784 43.7003L46.4322 43.8927C46.3177 44.2855 46.2031 44.7238 46.1043 45.069H46.5211V45.8803H45.5651C45.6639 46.0905 45.7705 46.3464 45.81 46.5091L45.4822 46.6459H46.4796V47.4572H45.253V48.0047C45.253 48.205 45.2767 48.2883 45.4091 48.2883H45.9819L45.9858 48.2863Z" fill="#00FFFF"/>
<path id="Vector_131" d="M63.5469 41.9528L62.1189 42.4447L59.5294 46.5924L57.6432 47.4096L56.3435 49.0143L56.6892 50.5099C56.6892 50.5099 57.0783 51.8627 57.4871 51.1506C57.896 50.4385 64.0427 43.1647 64.0427 43.1647L63.5489 41.9508L63.5469 41.9528Z" fill="#003467"/>
<path id="Vector_132" d="M32.3632 2.3803C40.3744 2.3803 47.9057 5.51436 53.5705 11.2033C59.2352 16.8922 62.356 24.4556 62.356 32.501C62.356 40.5464 59.2352 48.1098 53.5705 53.7987C47.9057 59.4876 40.3744 62.6217 32.3632 62.6217C24.3519 62.6217 16.8206 59.4876 11.1558 53.7987C5.49107 48.1098 2.37032 40.5464 2.37032 32.501C2.37032 24.4556 5.49107 16.8922 11.1558 11.2033C16.8186 5.51238 24.3519 2.3803 32.3632 2.3803ZM32.3632 2.09863C15.6434 2.09863 2.08984 15.71 2.08984 32.501C2.08984 49.292 15.6434 62.9034 32.3632 62.9034C49.0829 62.9034 62.6365 49.292 62.6365 32.501C62.6365 15.71 49.0809 2.09863 32.3632 2.09863Z" fill="#E0AB00"/>
<path id="Vector_133" d="M66.7803 42.9525L66.8909 43.1132C67.3274 43.7479 67.2228 44.5889 66.6559 44.9817L62.1189 48.2387C61.554 48.6315 60.7324 48.4331 60.2959 47.7984L60.1853 47.6377C59.7487 47.003 59.8534 46.1619 60.4203 45.7692L64.9572 42.5121C65.5221 42.1194 66.3438 42.3177 66.7803 42.9525Z" fill="white"/>
<path id="Vector_134" d="M61.465 48.8616C61.3327 48.8616 61.1964 48.8457 61.0621 48.812C60.6157 48.7049 60.2226 48.4291 59.952 48.0364L59.8414 47.8757C59.5708 47.483 59.4543 47.0148 59.5116 46.5586C59.5708 46.0845 59.8098 45.6799 60.1831 45.422L64.7141 42.169C65.4766 41.6393 66.557 41.8853 67.1258 42.7125L67.2364 42.8731C67.507 43.2659 67.6236 43.734 67.5663 44.1902C67.507 44.6643 67.268 45.069 66.8947 45.3268L62.3637 48.5799C62.0951 48.7664 61.787 48.8616 61.465 48.8616ZM65.6168 42.7303C65.4667 42.7303 65.3205 42.772 65.1961 42.8592L60.6651 46.1123C60.4853 46.2373 60.3727 46.4317 60.3451 46.6657C60.3135 46.9157 60.3806 47.1775 60.5327 47.3977L60.6433 47.5583C60.7954 47.7805 61.0147 47.9352 61.2596 47.9928C61.4867 48.0483 61.7079 48.0106 61.8818 47.8896L66.4128 44.6365C66.5925 44.5116 66.7051 44.3172 66.7328 44.0831C66.7644 43.8332 66.6972 43.5714 66.5451 43.3512L66.4345 43.1905C66.2311 42.893 65.915 42.7283 65.6168 42.7283V42.7303Z" fill="#003467"/>
<path id="Vector_135" d="M53.2287 37.4322C54.5214 37.4322 55.5693 36.3798 55.5693 35.0816C55.5693 33.7835 54.5214 32.7311 53.2287 32.7311C51.9361 32.7311 50.8882 33.7835 50.8882 35.0816C50.8882 36.3798 51.9361 37.4322 53.2287 37.4322Z" fill="#00FFFF"/>
<path id="Vector_136" d="M53.2287 37.7178C51.781 37.7178 50.6038 36.5356 50.6038 35.0816C50.6038 33.6277 51.781 32.4455 53.2287 32.4455C54.6765 32.4455 55.8537 33.6277 55.8537 35.0816C55.8537 36.5356 54.6765 37.7178 53.2287 37.7178ZM53.2287 33.0167C52.095 33.0167 51.1726 33.9431 51.1726 35.0816C51.1726 36.2202 52.095 37.1466 53.2287 37.1466C54.3625 37.1466 55.2849 36.2202 55.2849 35.0816C55.2849 33.9431 54.3625 33.0167 53.2287 33.0167Z" fill="#00FFFF"/>
<path id="Vector_137" d="M57.0406 37.337L56.9656 37.4679C56.6673 37.9816 56.0037 38.1582 55.4901 37.8567C55.1129 37.6365 54.7514 37.3925 54.3939 37.1386C54.0364 36.8847 53.6907 36.6606 53.3668 36.3948C53.0172 36.1072 52.8276 35.6569 52.8474 35.2007C52.8691 34.7425 53.2029 34.3001 53.667 34.4727C54.0305 34.6096 54.465 34.798 54.8067 34.9686C55.4131 35.2701 56.0688 35.5121 56.6515 35.8552C57.1631 36.1548 57.3389 36.8212 57.0386 37.337H57.0406Z" fill="white"/>
<path id="Vector_138" d="M56.0313 38.4259C55.7745 38.4259 55.5158 38.3605 55.2787 38.2216C54.9351 38.0193 54.5776 37.7852 54.1529 37.4837C54.0621 37.4203 53.9712 37.3568 53.8784 37.2913C53.6196 37.1128 53.353 36.9264 53.1021 36.7201C52.6538 36.3511 52.4009 35.7759 52.4306 35.1808C52.4503 34.7603 52.6538 34.3715 52.9599 34.1672C53.2147 33.9986 53.5189 33.9668 53.8152 34.0759C54.1825 34.2128 54.625 34.4052 54.9943 34.5897C55.2155 34.6988 55.4407 34.8 55.6797 34.9071C56.0747 35.0836 56.4816 35.2661 56.8648 35.4902C57.2105 35.6926 57.4554 36.0179 57.5581 36.4067C57.6608 36.7954 57.6055 37.2021 57.404 37.5472L57.329 37.6781C57.0505 38.1562 56.5488 38.424 56.0333 38.424L56.0313 38.4259ZM53.4675 34.8575C53.4438 34.8575 53.432 34.8654 53.4221 34.8733C53.353 34.919 53.2759 35.0558 53.268 35.2225C53.2522 35.5537 53.3885 35.8691 53.6334 36.0694C53.8586 36.2539 54.1114 36.4285 54.3563 36.5991C54.4512 36.6645 54.546 36.73 54.6388 36.7954C55.0437 37.0831 55.3815 37.3052 55.7034 37.4937C56.0175 37.6761 56.4204 37.571 56.6041 37.2556L56.6791 37.1247C56.768 36.974 56.7917 36.7954 56.7463 36.6229C56.7009 36.4503 56.5942 36.3075 56.4421 36.2202C56.0984 36.0199 55.7291 35.8532 55.338 35.6787C55.103 35.5735 54.858 35.4645 54.623 35.3474C54.2813 35.1788 53.8606 34.9943 53.5228 34.8694C53.4991 34.8614 53.4813 34.8575 53.4695 34.8575H53.4675Z" fill="#003467"/>
<path id="Vector_139" d="M75.3168 56.302C74.1969 57.0101 72.8479 56.7523 71.4949 56.4409C70.0826 56.1155 68.6724 55.0702 67.592 54.1419C66.8078 53.4694 67.1179 52.3924 67.0547 51.468C66.9895 50.5218 66.9263 49.5737 66.8612 48.6275C66.7782 47.4215 66.6972 46.2155 66.6143 45.0095L67.9949 42.7224C68.3188 42.1848 68.9449 42.1095 69.3874 42.5538C69.3874 42.5538 78.2559 51.47 78.2559 51.472C78.7279 51.956 76.3419 55.3102 76.018 55.6871C75.7968 55.945 75.5617 56.1473 75.3148 56.302H75.3168Z" fill="white"/>
<path id="Vector_140" d="M73.6104 57.1748C72.9013 57.1748 72.1567 57.026 71.4022 56.8514C70.2072 56.5757 68.872 55.7942 67.3195 54.4612C66.5808 53.8265 66.6104 52.9497 66.6361 52.1781C66.644 51.9381 66.6519 51.71 66.6361 51.4978L66.1877 44.9063L67.6355 42.5042C67.8568 42.1372 68.2083 41.8992 68.5974 41.8516C68.9865 41.804 69.3836 41.9528 69.6858 42.2562L78.5542 51.1744C78.8762 51.5037 78.8683 52.0829 77.7938 53.8404C77.2111 54.7965 76.5257 55.7446 76.3361 55.9628C76.0952 56.2425 75.8265 56.4765 75.5382 56.659C74.9377 57.0379 74.2879 57.1748 73.6084 57.1748H73.6104ZM67.043 45.1146L67.4736 51.4402C67.4913 51.6961 67.4815 51.956 67.4736 52.2059C67.4518 52.8744 67.4321 53.4496 67.8647 53.8205C69.3124 55.0622 70.5292 55.7843 71.5898 56.0302C72.9408 56.3417 74.1358 56.5499 75.0938 55.9449C75.311 55.8081 75.5164 55.6276 75.7021 55.4114C76.1742 54.8619 77.8531 52.3328 77.8985 51.708C77.1321 50.9384 69.0912 42.8513 69.0912 42.8513C68.9707 42.7303 68.8305 42.6708 68.6982 42.6887C68.5658 42.7045 68.4434 42.7938 68.3545 42.9406L67.043 45.1146Z" fill="#003467"/>
<path id="Vector_141" d="M57.5178 37.4856L57.4421 37.6158C57.142 38.1325 57.3157 38.7956 57.8302 39.0971L59.9064 40.3136C60.4209 40.615 61.0812 40.4405 61.3814 39.9239L61.457 39.7936C61.7572 39.277 61.5834 38.6138 61.069 38.3124L58.9927 37.0959C58.4783 36.7945 57.8179 36.969 57.5178 37.4856Z" fill="white"/>
<path id="Vector_142" d="M60.448 40.8896C60.1853 40.8896 59.9285 40.8201 59.6974 40.6853L57.6215 39.4693C56.9085 39.0508 56.6655 38.1284 57.0823 37.4123L57.1574 37.2814C57.5741 36.5654 58.4926 36.3214 59.2056 36.7399L61.2815 37.9558C61.6272 38.1582 61.8721 38.4835 61.9748 38.8723C62.0775 39.261 62.0222 39.6657 61.8207 40.0128L61.7457 40.1437C61.5442 40.4909 61.2203 40.7368 60.8331 40.84C60.7047 40.8737 60.5764 40.8896 60.448 40.8896ZM58.4531 37.3766C58.2259 37.3766 58.0047 37.4937 57.8842 37.7039L57.8092 37.8348C57.6255 38.1502 57.7321 38.5549 58.0462 38.7394L60.1221 39.9553C60.2722 40.0446 60.45 40.0684 60.6218 40.0227C60.7936 39.9771 60.9358 39.87 61.0228 39.7173L61.0978 39.5864C61.1867 39.4356 61.2104 39.2571 61.165 39.0845C61.1195 38.9119 61.0129 38.7691 60.8608 38.6818L58.7849 37.4659C58.6802 37.4044 58.5676 37.3766 58.455 37.3766H58.4531Z" fill="#003467"/>
<path id="Vector_143" d="M60.3787 49.3634L60.3017 49.54C59.9955 50.2362 59.2766 50.5972 58.7038 50.3433C58.2831 50.1569 57.8702 49.9069 57.4693 49.6808C56.693 49.2404 55.6423 49.0361 56.2151 47.7309L56.2921 47.5544C56.6772 46.6757 57.2836 46.6856 57.9255 46.9355C58.5734 47.1854 59.2311 47.4096 59.8889 47.6357C60.4617 47.8896 60.6829 48.6672 60.3767 49.3614L60.3787 49.3634Z" fill="white"/>
<path id="Vector_144" d="M59.089 50.8451C58.8994 50.8451 58.7117 50.8075 58.532 50.7281C58.1666 50.5674 57.817 50.3651 57.4773 50.1707L57.262 50.0477C57.1454 49.9823 57.021 49.9208 56.8906 49.8573C56.2132 49.5261 55.19 49.0242 55.83 47.5623L55.907 47.3858C56.3257 46.4317 57.0546 46.148 58.0757 46.5428C58.6387 46.761 59.2213 46.9613 59.7862 47.1557L60.0588 47.2509C60.8449 47.6 61.1609 48.6235 60.762 49.534L60.6849 49.7105C60.3768 50.4127 59.7309 50.8471 59.089 50.8471V50.8451ZM56.6754 47.723C56.6595 47.7646 56.6339 47.8202 56.5983 47.8995C56.2981 48.5858 56.5173 48.7326 57.258 49.0956C57.3943 49.1631 57.5365 49.2325 57.6748 49.3099L57.894 49.4348C58.214 49.6193 58.5458 49.8097 58.8717 49.9525C59.2273 50.1092 59.7072 49.8415 59.9166 49.3654L59.9936 49.1889C60.199 48.7187 60.0805 48.1911 59.7349 48.0245L59.5156 47.9491C58.9428 47.7527 58.3523 47.5484 57.7755 47.3243C57.177 47.0922 56.9104 47.1894 56.6773 47.721L56.6754 47.723Z" fill="#003467"/>
<path id="Vector_145" d="M60.5245 49.4742L60.4305 49.6884C60.0606 50.5315 60.4413 51.5162 61.2808 51.8877L64.6716 53.3881C65.5112 53.7596 66.4916 53.3773 66.8615 52.5342L66.9555 52.32C67.3254 51.4769 66.9448 50.4923 66.1052 50.1208L62.7144 48.6203C61.8749 48.2488 60.8944 48.6311 60.5245 49.4742Z" fill="white"/>
<path id="Vector_146" d="M65.3383 53.9574C65.0539 53.9574 64.7714 53.8979 64.5028 53.7789L61.1134 52.2793C60.6058 52.0552 60.2167 51.6446 60.0133 51.1229C59.8118 50.6012 59.8237 50.0339 60.0469 49.5241L60.1397 49.3099C60.6019 48.2546 61.8344 47.7746 62.8852 48.2407L66.2745 49.7403C66.7822 49.9645 67.1713 50.3751 67.3747 50.8967C67.5781 51.4184 67.5643 51.9857 67.3411 52.4955L67.2483 52.7097C67.0251 53.2195 66.6162 53.6103 66.0968 53.8146C65.8499 53.9098 65.5951 53.9574 65.3403 53.9574H65.3383ZM62.0497 48.9052C61.5717 48.9052 61.1154 49.1829 60.912 49.6491L60.8191 49.8633C60.6868 50.1668 60.6789 50.506 60.7994 50.8174C60.9199 51.1288 61.1529 51.3748 61.4551 51.5077L64.8445 53.0073C65.1467 53.1402 65.4845 53.1481 65.7946 53.0271C66.1047 52.9061 66.3496 52.6721 66.4819 52.3686L66.5748 52.1543C66.7071 51.8508 66.715 51.5117 66.5945 51.2002C66.474 50.8888 66.241 50.6428 65.9388 50.5099L62.5494 49.0104C62.3874 48.9389 62.2176 48.9052 62.0497 48.9052Z" fill="#003467"/>
<path id="Vector_147" d="M69.4368 44.1625L69.3381 44.3311C68.9509 44.9976 68.1293 45.2475 67.511 44.8845L62.4586 42.0262C61.8403 41.6651 61.6527 40.8221 62.0398 40.1556L62.1386 39.987C62.5257 39.3205 63.3474 39.0706 63.9656 39.4336L69.0181 42.292C69.6363 42.653 69.8239 43.496 69.4368 44.1625Z" fill="white"/>
<path id="Vector_148" d="M68.1272 45.4736C67.8369 45.4736 67.5544 45.3983 67.2996 45.2495L62.2531 42.3951C61.4295 41.9111 61.1727 40.8142 61.6783 39.9454L61.7771 39.7768C62.2827 38.908 63.3592 38.5906 64.1789 39.0706L69.2254 41.925C70.0491 42.409 70.3058 43.5059 69.8002 44.3747L69.7014 44.5433C69.4605 44.9579 69.0812 45.2614 68.6329 45.3963C68.465 45.4478 68.2951 45.4717 68.1272 45.4717V45.4736ZM63.3454 39.6895C63.0195 39.6895 62.6916 39.876 62.502 40.2013L62.4032 40.3699C62.1306 40.838 62.2511 41.4172 62.6718 41.6632L67.7184 44.5175C67.9198 44.6366 68.1588 44.6604 68.3899 44.5909C68.6349 44.5175 68.8422 44.3489 68.9766 44.1188L69.0753 43.9502C69.3479 43.4821 69.2274 42.9029 68.8067 42.6569L63.7602 39.8026C63.6298 39.7272 63.4876 39.6915 63.3454 39.6915V39.6895Z" fill="#003467"/>
<path id="Vector_149" d="M57.181 38.5231C57.7406 38.5231 58.1942 38.0675 58.1942 37.5056C58.1942 36.9436 57.7406 36.488 57.181 36.488C56.6214 36.488 56.1677 36.9436 56.1677 37.5056C56.1677 38.0675 56.6214 38.5231 57.181 38.5231Z" fill="#00FFFF"/>
<path id="Vector_150" d="M57.1789 38.8068C56.9695 38.8068 56.7562 38.7552 56.5587 38.6481C55.9306 38.303 55.6995 37.5115 56.0412 36.8807C56.2071 36.5753 56.4817 36.3531 56.8155 36.2559C57.1493 36.1587 57.4989 36.1964 57.803 36.363C58.1072 36.5296 58.3284 36.8054 58.4252 37.1406C58.522 37.4758 58.4845 37.8269 58.3186 38.1324C58.0835 38.5648 57.6371 38.8108 57.1769 38.8108L57.1789 38.8068ZM57.1828 36.7716C57.1137 36.7716 57.0446 36.7816 56.9774 36.8014C56.7898 36.8569 56.6357 36.9819 56.5429 37.1525C56.3513 37.5075 56.4797 37.9519 56.8332 38.1463C57.1868 38.3387 57.6292 38.2097 57.8228 37.8547C57.9156 37.6821 57.9374 37.4857 57.882 37.2973C57.8267 37.1088 57.7023 36.9541 57.5324 36.8609C57.4238 36.8014 57.3053 36.7716 57.1848 36.7716H57.1828Z" fill="#003467"/>
<path id="Vector_151" d="M57.181 37.9122C57.4047 37.9122 57.5859 37.7302 57.5859 37.5056C57.5859 37.281 57.4047 37.0989 57.181 37.0989C56.9574 37.0989 56.7761 37.281 56.7761 37.5056C56.7761 37.7302 56.9574 37.9122 57.181 37.9122Z" fill="white"/>
<path id="Vector_152" d="M57.1811 37.9578C57.106 37.9578 57.0329 37.94 56.9658 37.9023C56.8591 37.8448 56.784 37.7476 56.7485 37.6325C56.7149 37.5175 56.7268 37.3945 56.786 37.2874C56.9045 37.0692 57.1791 36.9879 57.3983 37.1069C57.505 37.1644 57.58 37.2596 57.6156 37.3766C57.6492 37.4917 57.6373 37.6147 57.5781 37.7218C57.5188 37.8289 57.424 37.9043 57.3094 37.94C57.268 37.9519 57.2245 37.9578 57.1811 37.9578ZM57.1811 37.1426C57.0546 37.1426 56.9302 37.21 56.865 37.331C56.8196 37.4163 56.8078 37.5135 56.8354 37.6067C56.8631 37.7 56.9243 37.7753 57.0092 37.823C57.0942 37.8706 57.1909 37.8805 57.2838 37.8527C57.3766 37.8249 57.4517 37.7634 57.4991 37.6801C57.5465 37.5968 57.5563 37.4976 57.5287 37.4044C57.501 37.3112 57.4398 37.2358 57.3549 37.1882C57.2996 37.1585 57.2403 37.1446 57.183 37.1446L57.1811 37.1426Z" fill="#003467"/>
<path id="Vector_153" d="M61.8323 41.074C62.392 41.074 62.8456 40.6185 62.8456 40.0565C62.8456 39.4945 62.392 39.0389 61.8323 39.0389C61.2727 39.0389 60.8191 39.4945 60.8191 40.0565C60.8191 40.6185 61.2727 41.074 61.8323 41.074Z" fill="#00FFFF"/>
<path id="Vector_154" d="M61.8284 41.3597C61.619 41.3597 61.4057 41.3081 61.2082 41.201C60.904 41.0344 60.6828 40.7587 60.586 40.4234C60.4892 40.0902 60.5268 39.7371 60.6927 39.4316C60.8586 39.1262 61.1332 38.904 61.467 38.8068C61.7988 38.7096 62.1504 38.7473 62.4545 38.9139C63.0826 39.2591 63.3137 40.0525 62.9701 40.6813C62.735 41.1137 62.2886 41.3597 61.8284 41.3597ZM61.8324 39.3245C61.7632 39.3245 61.6941 39.3344 61.6269 39.3543C61.4393 39.4098 61.2852 39.5348 61.1924 39.7054C61.0996 39.8779 61.0779 40.0743 61.1332 40.2628C61.1885 40.4512 61.3129 40.6059 61.4828 40.6991C61.8363 40.8916 62.2788 40.7626 62.4723 40.4076C62.6659 40.0525 62.5355 39.6082 62.182 39.4138C62.0733 39.3543 61.9548 39.3245 61.8343 39.3245H61.8324Z" fill="#003467"/>
<path id="Vector_155" d="M61.8324 40.4631C62.056 40.4631 62.2373 40.281 62.2373 40.0564C62.2373 39.8319 62.056 39.6498 61.8324 39.6498C61.6088 39.6498 61.4275 39.8319 61.4275 40.0564C61.4275 40.281 61.6088 40.4631 61.8324 40.4631Z" fill="white"/>
<path id="Vector_156" d="M61.8305 40.5087C61.7554 40.5087 61.6823 40.4909 61.6152 40.4532C61.3979 40.3342 61.3169 40.0584 61.4354 39.8383C61.554 39.6181 61.8285 39.5387 62.0477 39.6578C62.265 39.7768 62.346 40.0525 62.2275 40.2727C62.1702 40.3798 62.0734 40.4552 61.9589 40.4909C61.9174 40.5028 61.8739 40.5087 61.8305 40.5087ZM61.8324 39.6954C61.7041 39.6954 61.5816 39.7629 61.5164 39.8839C61.4216 40.0584 61.4848 40.2786 61.6606 40.3738C61.7455 40.4195 61.8423 40.4314 61.9352 40.4036C62.028 40.3758 62.1031 40.3143 62.1505 40.231C62.2453 40.0565 62.1821 39.8363 62.0082 39.7411C61.9529 39.7113 61.8937 39.6974 61.8364 39.6974L61.8324 39.6954Z" fill="#003467"/>
<path id="Vector_157" d="M64.6353 45.7791C65.1949 45.7791 65.6486 45.3235 65.6486 44.7615C65.6486 44.1995 65.1949 43.7439 64.6353 43.7439C64.0757 43.7439 63.6221 44.1995 63.6221 44.7615C63.6221 45.3235 64.0757 45.7791 64.6353 45.7791Z" fill="#00FFFF"/>
<path id="Vector_158" d="M64.6332 46.0647C64.418 46.0647 64.2066 46.0112 64.013 45.904C63.3849 45.5589 63.1538 44.7675 63.4955 44.1367C63.8392 43.5059 64.6273 43.2738 65.2554 43.617C65.5596 43.7836 65.7808 44.0593 65.8776 44.3945C65.9744 44.7278 65.9368 45.0809 65.7709 45.3863C65.605 45.6918 65.3305 45.914 64.9967 46.0112C64.8762 46.0469 64.7517 46.0647 64.6293 46.0647H64.6332ZM64.6372 44.0296C64.3784 44.0296 64.1276 44.1684 63.9953 44.4104C63.8037 44.7655 63.9321 45.2098 64.2856 45.4042C64.4575 45.4974 64.653 45.5192 64.8406 45.4637C65.0283 45.4082 65.1823 45.2832 65.2752 45.1126C65.368 44.942 65.3897 44.7437 65.3344 44.5552C65.2791 44.3668 65.1547 44.2121 64.9848 44.1188C64.8742 44.0573 64.7537 44.0296 64.6372 44.0296Z" fill="#003467"/>
<path id="Vector_159" d="M64.6351 45.1682C64.8588 45.1682 65.04 44.9861 65.04 44.7615C65.04 44.5369 64.8588 44.3549 64.6351 44.3549C64.4115 44.3549 64.2302 44.5369 64.2302 44.7615C64.2302 44.9861 64.4115 45.1682 64.6351 45.1682Z" fill="white"/>
<path id="Vector_160" d="M64.6352 45.2138C64.5601 45.2138 64.487 45.1959 64.4199 45.1582C64.3132 45.1007 64.2382 45.0035 64.2026 44.8885C64.169 44.7734 64.1809 44.6504 64.2401 44.5433C64.3586 44.3251 64.6332 44.2438 64.8524 44.3628C65.0697 44.4818 65.1507 44.7575 65.0322 44.9777C64.9749 45.0848 64.8781 45.1602 64.7635 45.1959C64.7221 45.2078 64.6786 45.2138 64.6352 45.2138ZM64.6371 44.4005C64.5087 44.4005 64.3863 44.4679 64.3211 44.5889C64.2757 44.6742 64.2638 44.7714 64.2915 44.8646C64.3191 44.9579 64.3804 45.0333 64.4653 45.0809C64.5502 45.1285 64.647 45.1384 64.7398 45.1106C64.8327 45.0828 64.9077 45.0214 64.9551 44.9361C65.0499 44.7615 64.9867 44.5413 64.811 44.4461C64.7556 44.4164 64.6964 44.4025 64.6391 44.4025L64.6371 44.4005Z" fill="#003467"/>
<path id="Vector_161" d="M60.3275 50.4207C60.8871 50.4207 61.3407 49.9651 61.3407 49.4031C61.3407 48.8411 60.8871 48.3855 60.3275 48.3855C59.7679 48.3855 59.3142 48.8411 59.3142 49.4031C59.3142 49.9651 59.7679 50.4207 60.3275 50.4207Z" fill="#00FFFF"/>
<path id="Vector_162" d="M60.3235 50.7063C60.0826 50.7063 59.8475 50.6389 59.6381 50.5079C59.3438 50.3235 59.1384 50.0358 59.0614 49.6967C58.9844 49.3575 59.0417 49.0084 59.2253 48.7128C59.6046 48.1038 60.4065 47.9174 61.0129 48.2982C61.3072 48.4827 61.5126 48.7703 61.5896 49.1095C61.6666 49.4487 61.6094 49.7978 61.4257 50.0934C61.242 50.3889 60.9556 50.5932 60.6178 50.6726C60.5191 50.6944 60.4203 50.7063 60.3235 50.7063ZM60.3275 48.6711C60.0845 48.6711 59.8455 48.7921 59.7073 49.0143C59.6046 49.1809 59.571 49.3773 59.6144 49.5677C59.6579 49.7581 59.7725 49.9208 59.9384 50.0239C60.1043 50.1271 60.2998 50.1608 60.4894 50.1172C60.6791 50.0735 60.841 49.9585 60.9437 49.7919C61.0464 49.6253 61.08 49.4289 61.0366 49.2384C60.9931 49.048 60.8786 48.8854 60.7126 48.7822C60.5922 48.7068 60.4598 48.6711 60.3275 48.6711Z" fill="#003467"/>
<path id="Vector_163" d="M60.3273 49.8097C60.5509 49.8097 60.7322 49.6277 60.7322 49.4031C60.7322 49.1785 60.5509 48.9965 60.3273 48.9965C60.1036 48.9965 59.9224 49.1785 59.9224 49.4031C59.9224 49.6277 60.1036 49.8097 60.3273 49.8097Z" fill="white"/>
<path id="Vector_164" d="M60.3254 49.8553C60.2444 49.8553 60.1614 49.8335 60.0864 49.7859C59.875 49.653 59.8118 49.3733 59.9422 49.1611C60.0745 48.9488 60.353 48.8854 60.5624 49.0163C60.6651 49.0798 60.7362 49.1809 60.7619 49.298C60.7895 49.415 60.7698 49.538 60.7046 49.6391C60.6197 49.776 60.4715 49.8514 60.3214 49.8514L60.3254 49.8553ZM60.3274 49.0421C60.2069 49.0421 60.0903 49.1016 60.0212 49.2127C59.9165 49.3813 59.9679 49.6054 60.1358 49.7105C60.3037 49.8157 60.5269 49.7641 60.6315 49.5955C60.6829 49.5142 60.6987 49.417 60.677 49.3218C60.6552 49.2285 60.598 49.1472 60.517 49.0976C60.4577 49.0599 60.3925 49.0421 60.3274 49.0421Z" fill="#003467"/>
<path id="Vector_165" d="M66.8376 54.3978C67.9361 54.3978 68.8266 53.5035 68.8266 52.4003C68.8266 51.2971 67.9361 50.4028 66.8376 50.4028C65.7391 50.4028 64.8486 51.2971 64.8486 52.4003C64.8486 53.5035 65.7391 54.3978 66.8376 54.3978Z" fill="#00FFFF"/>
<path id="Vector_166" d="M66.8335 54.6814C66.4662 54.6814 66.0929 54.5921 65.7472 54.4017C65.2139 54.1101 64.8268 53.6261 64.6549 53.041C64.4831 52.4558 64.5503 51.8389 64.8406 51.3034C65.4411 50.1985 66.8256 49.7919 67.9258 50.3949C69.026 50.9979 69.4309 52.3884 68.8304 53.4932C68.4176 54.251 67.6374 54.6814 66.8316 54.6814H66.8335ZM66.8395 50.6884C66.2351 50.6884 65.6504 51.0098 65.3403 51.5791C65.1211 51.9798 65.0717 52.4439 65.2001 52.8823C65.3285 53.3207 65.6188 53.6837 66.0178 53.9038C66.8414 54.3561 67.8804 54.0506 68.3307 53.2215C68.7811 52.3923 68.4769 51.351 67.6513 50.8987C67.3925 50.7559 67.112 50.6904 66.8375 50.6904L66.8395 50.6884Z" fill="#003467"/>
<path id="Vector_167" d="M66.8375 53.398C67.3862 53.398 67.831 52.9513 67.831 52.4003C67.831 51.8493 67.3862 51.4026 66.8375 51.4026C66.2888 51.4026 65.844 51.8493 65.844 52.4003C65.844 52.9513 66.2888 53.398 66.8375 53.398Z" fill="white"/>
<path id="Vector_168" d="M66.8355 53.5408C66.6518 53.5408 66.4642 53.4952 66.2924 53.402C66.0257 53.2552 65.8321 53.0132 65.7472 52.7216C65.6623 52.43 65.6939 52.1206 65.84 51.8528C66.1403 51.3014 66.8335 51.0971 67.3826 51.3986C67.9317 51.7001 68.1352 52.3943 67.835 52.9477C67.6295 53.3266 67.2385 53.5428 66.8355 53.5428V53.5408ZM66.8375 51.5434C66.5353 51.5434 66.243 51.704 66.0869 51.9897C65.8618 52.4042 66.0139 52.9259 66.4267 53.152C66.8395 53.3782 67.357 53.2254 67.5841 52.8109C67.8093 52.3963 67.6572 51.8766 67.2444 51.6485C67.114 51.5771 66.9758 51.5434 66.8375 51.5434Z" fill="#003467"/>
<path id="Vector_169" d="M67.831 45.7414C68.9295 45.7414 69.82 44.8471 69.82 43.7439C69.82 42.6408 68.9295 41.7465 67.831 41.7465C66.7325 41.7465 65.842 42.6408 65.842 43.7439C65.842 44.8471 66.7325 45.7414 67.831 45.7414Z" fill="#00FFFF"/>
<path id="Vector_170" d="M67.8291 46.027C67.4539 46.027 67.0806 45.9318 66.7428 45.7474C66.2095 45.4558 65.8224 44.9718 65.6505 44.3866C65.4787 43.8015 65.5459 43.1846 65.8362 42.649C66.4367 41.5441 67.8212 41.1375 68.9214 41.7405C70.0216 42.3435 70.4265 43.734 69.826 44.8389C69.5357 45.3744 69.0537 45.7632 68.4711 45.9358C68.2597 45.9973 68.0425 46.029 67.8272 46.029L67.8291 46.027ZM67.8351 42.0321C67.2307 42.0321 66.646 42.3535 66.3359 42.9227C66.1167 43.3234 66.0673 43.7876 66.1957 44.226C66.3241 44.6643 66.6144 45.0273 67.0134 45.2475C67.837 45.6998 68.876 45.3943 69.3263 44.5651C69.7767 43.736 69.4725 42.6946 68.6469 42.2424C68.3881 42.0996 68.1076 42.0341 67.8331 42.0341L67.8351 42.0321Z" fill="#003467"/>
<path id="Vector_171" d="M67.8309 44.7417C68.3796 44.7417 68.8244 44.295 68.8244 43.7439C68.8244 43.1929 68.3796 42.7462 67.8309 42.7462C67.2822 42.7462 66.8374 43.1929 66.8374 43.7439C66.8374 44.295 67.2822 44.7417 67.8309 44.7417Z" fill="white"/>
<path id="Vector_172" d="M67.8292 44.8845C67.6455 44.8845 67.4578 44.8389 67.286 44.7456C67.0194 44.5989 66.8258 44.3569 66.7409 44.0653C66.6559 43.7737 66.6875 43.4642 66.8337 43.1965C67.1339 42.645 67.8272 42.4407 68.3763 42.7422C68.6429 42.889 68.8365 43.131 68.9214 43.4226C69.0064 43.7162 68.9728 44.0236 68.8286 44.2914C68.6232 44.6703 68.2321 44.8865 67.8292 44.8865V44.8845ZM67.8331 42.887C67.5309 42.887 67.2386 43.0477 67.0845 43.3333C66.8594 43.7479 67.0115 44.2696 67.4243 44.4957C67.8371 44.7218 68.3565 44.5691 68.5817 44.1545C68.6903 43.9542 68.716 43.7221 68.6508 43.5039C68.5876 43.2837 68.4415 43.1032 68.242 42.9941C68.1116 42.9227 67.9734 42.889 67.8351 42.889L67.8331 42.887Z" fill="#003467"/>
<path id="Vector_173" d="M79.0064 54.7389C79.7135 53.9971 79.7787 52.7256 79.1506 51.9163L78.088 50.5456C77.4599 49.7343 76.5395 49.8077 76.0437 50.7043L73.5175 55.2824C73.0217 56.181 73.2607 57.2561 74.0508 57.6746C74.8408 58.0932 76.0654 57.8254 76.7725 57.0835L79.0064 54.7389Z" fill="white"/>
<path id="Vector_174" d="M74.9219 58.2955C74.5426 58.2955 74.1733 58.2161 73.8553 58.0475C73.4089 57.8115 73.081 57.4029 72.9289 56.8951C72.7551 56.3099 72.8361 55.6474 73.1501 55.0781L75.6764 50.5C75.9825 49.9466 76.4585 49.6034 76.9839 49.5637C77.5073 49.5241 78.0327 49.7859 78.4199 50.2858L79.4825 51.6564C80.235 52.6284 80.158 54.1419 79.3107 55.0305L77.0768 57.3751C76.5119 57.9682 75.6922 58.2955 74.9219 58.2955ZM77.0926 50.4028C77.0787 50.4028 77.0629 50.4028 77.0491 50.4028C76.8081 50.4207 76.581 50.6012 76.4111 50.9066L73.8849 55.4847C73.6795 55.8557 73.6242 56.2821 73.7348 56.6511C73.8197 56.9387 74.0034 57.1688 74.2464 57.2977C74.8725 57.629 75.8917 57.3949 76.4684 56.788L78.7023 54.4434C79.2633 53.8542 79.3166 52.8148 78.8169 52.1702L77.7542 50.7995C77.5528 50.5397 77.3177 50.3988 77.0886 50.3988L77.0926 50.4028Z" fill="#003467"/>
</g>
</g>
</g>
</g>
</g>
<defs>
<clipPath id="clip0_0_1">
<rect width="1200" height="5604" fill="white" transform="translate(-16 -24)"/>
</clipPath>
<clipPath id="clip1_0_1">
<rect width="80" height="65" fill="white"/>
</clipPath>
</defs>
</svg>
