<svg width="120" height="32" viewBox="0 0 120 32" fill="none" xmlns="http://www.w3.org/2000/svg">
<g id="&#232;&#179;&#135;&#231;&#148;&#162; 2 3" clip-path="url(#clip0_4548_77037)">
<g id="Group">
<g id="&#229;&#156;&#150;&#229;&#177;&#164; 2">
<g id="&#229;&#156;&#150;&#229;&#177;&#164; 1">
<g id="Group_2">
<g id="Group_3">
<path id="Vector" d="M50.7105 22.7313C50.8128 22.7313 50.8974 22.7145 50.9643 22.6776C51.0313 22.6406 51.1018 22.5331 51.1335 22.2978C51.1652 22.0626 51.1829 21.5585 51.1829 20.8931C51.5389 21.2191 52.272 21.6156 52.7655 21.7937C52.7161 22.4793 52.6456 23.1985 52.5258 23.5077C52.3883 23.8504 52.1522 24.0487 51.8455 24.21C51.5917 24.3377 51.1652 24.3713 50.8762 24.3713H49.854C49.4452 24.3713 48.9341 24.2436 48.6274 23.9378C48.3208 23.632 48.1833 23.2522 48.1833 22.1533V19.7202H47.1964C46.9743 22.1533 46.2271 23.632 43.1464 24.5158C42.9949 24.0655 42.586 23.3968 42.2124 23.0002C40.443 23.3968 38.6735 23.7563 37.2425 24.0622L36.8512 22.1164C37.5668 22.0088 38.4339 21.8811 39.3679 21.703V16.9981H37.0698V15.1968H39.3679V13.8794H37.8699V13.2678C37.6478 13.503 37.4117 13.7181 37.1896 13.9164C37.0698 13.4291 36.6961 12.2226 36.4247 11.6984C37.7183 10.7238 39.0295 9.15773 39.7944 7.51774L41.2924 8.24027C41.1902 8.45536 41.088 8.6738 40.9858 8.88888C42.0925 9.55428 43.1464 10.3474 43.7774 10.9994L43.2169 11.9907H45.293C45.1908 11.5572 45.0533 11.0699 44.8841 10.6566L46.2623 10.3676H43.5553V8.74437H46.8404C46.7382 8.45536 46.6183 8.16634 46.4844 7.93446L48.2714 7.48413C48.4759 7.84372 48.7155 8.31421 48.8847 8.74437H52.2015V10.3676H49.4275L50.9749 10.6566C50.7528 11.1439 50.5308 11.5942 50.344 11.9907H52.487V13.6475H43.1112V12.1689L42.8045 12.6931L42.7552 12.6394V13.8828H41.1232V15.2002H43.2663V17.0015H41.1232V21.3804L43.4214 20.93L43.5412 22.4087C44.7995 21.8509 45.1414 21.004 45.293 19.7236H43.9642V14.2793H51.8244V19.7236H50.0549V22.2104C50.0549 22.4457 50.0726 22.5902 50.1219 22.644C50.1713 22.6977 50.2417 22.7347 50.344 22.7347H50.7L50.7105 22.7313ZM38.5114 17.6837C38.8004 18.6751 39.0401 19.9555 39.1247 20.7855L37.7641 21.1821C37.7289 20.3184 37.4927 19.0178 37.2354 18.0265L38.5114 17.6837ZM42.2194 12.0983C41.6237 11.5404 40.8589 10.9792 40.094 10.4583C39.738 11.0363 39.3291 11.5774 38.9203 12.0983H42.223H42.2194ZM41.3171 20.4596C41.5568 19.6664 41.8106 18.386 41.9128 17.5392L43.3755 17.9189C43.0689 18.9271 42.7975 20.063 42.5578 20.8225L41.3171 20.4629V20.4596ZM45.6737 16.3865H50.0479V15.5934H45.6737V16.3865ZM45.6737 18.4062H50.0479V17.6131H45.6737V18.4062ZM46.5408 10.3676C46.7628 10.8549 46.999 11.5035 47.0836 11.9907H48.5992C48.8037 11.4867 49.0257 10.8549 49.1279 10.3676H46.5408Z" fill="white"/>
<path id="Vector_2" d="M58.6412 12.2428H61.3623V14.0441H59.6951L60.7173 14.313C60.4283 14.9448 60.1216 15.5564 59.8502 16.1344H61.0239V17.9357H58.6412V19.3775H61.3623V21.1788H58.6412V24.3882H56.7696V21.1788H53.8264V19.3775H56.7696V17.9357H54.2353V16.1344H55.4443C55.3244 15.5934 55.0706 14.9078 54.8486 14.3499L55.8003 14.0441H53.844V12.2428H56.7696V10.9994H54.3023V9.23169H56.7696V7.68243H58.6412V9.23169H60.9711V10.9994H58.6412V12.2428ZM58.1619 16.1344C58.4685 15.469 58.7752 14.6927 58.9796 14.0441H56.3748C56.6638 14.6558 56.9529 15.3783 57.0375 15.8656L56.2726 16.1344H58.1619ZM69.2578 14.9448C68.9335 17.0721 68.3378 19.038 67.4883 20.7116C68.1686 21.5215 68.9511 22.1701 69.8182 22.6406C69.3917 23.0372 68.796 23.8135 68.4894 24.3344C67.7245 23.8471 67.0266 23.2153 66.3957 22.4592C65.8352 23.2523 65.1867 23.9177 64.457 24.4957C64.2702 24.1899 63.9636 23.8471 63.6569 23.5211V24.4218H61.8205V8.38481H68.8489V11.7723C68.8489 12.6931 68.6621 13.214 67.9994 13.5031C67.3544 13.7921 66.4344 13.8089 65.1902 13.8089C65.1056 13.2308 64.8483 12.4915 64.6121 11.9706C65.4475 12.0076 66.3816 12.0076 66.6353 12.0076C66.8891 11.9908 66.9772 11.937 66.9772 11.7387V10.26H63.6605V14.5684H67.7104L68.0347 14.4776L69.2613 14.9448H69.2578ZM63.6605 22.607C64.2738 22.0828 64.7849 21.4711 65.2431 20.7856C64.598 19.6866 64.087 18.423 63.6605 17.0721V22.607ZM65.0704 16.2621C65.377 17.1998 65.7683 18.1172 66.2441 18.9473C66.6177 18.1172 66.9067 17.1998 67.1288 16.2621H65.0704Z" fill="white"/>
<path id="Vector_3" d="M75.4507 17.7374V24.1731H74.6506V17.7374H71.1118V16.9443H74.6506V14.7633H71.0448V13.987H75.8279C76.1839 13.0661 76.6104 11.7152 76.8501 10.7977L77.6326 11.0128C77.3259 11.9672 76.9523 13.1233 76.5963 13.987H78.9614V14.7633H75.4578V16.9443H78.8451V17.7374H75.4578H75.4507ZM73.5297 19.0918C73.1209 20.4091 72.4406 21.7769 71.7427 22.6776C71.6229 22.57 71.3162 22.318 71.1294 22.2272C71.8449 21.3434 72.4406 20.1168 72.8142 18.9103L73.5297 19.0918ZM78.7006 10.5994H71.2986V9.82313H74.922C74.6823 9.26526 74.3263 8.57969 74.0373 8.05543L74.8198 7.82019C75.1934 8.45199 75.6199 9.2451 75.842 9.81977H78.7006V10.5961V10.5994ZM73.2724 13.792C73.1878 13.0527 72.8988 11.863 72.5393 10.9994L73.2196 10.838C73.5932 11.7017 73.9175 12.8578 74.0021 13.577L73.2689 13.792H73.2724ZM77.0862 18.8565C77.6643 19.8109 78.2776 21.0376 78.549 21.8475L77.9181 22.2071C77.6467 21.377 77.0333 20.0966 76.487 19.1422L77.0827 18.8532L77.0862 18.8565ZM86.3598 14.8372H84.319V24.1193H83.5189V14.8372H80.7273V15.721C80.7273 18.2617 80.5052 21.7232 78.8733 24.1025C78.7534 23.921 78.4468 23.669 78.26 23.5614C79.8073 21.3098 79.9624 18.1542 79.9624 15.721V9.62821C81.8869 9.30223 84.1498 8.79814 85.3553 8.29404L86.0708 8.94264C84.675 9.4669 82.5989 9.93403 80.7273 10.2029V14.0239H86.3598V14.8338V14.8372Z" fill="white"/>
<path id="Vector_4" d="M89.6096 14.0978V24.247H88.8095V8.67041H94.7804V14.0978H89.6061H89.6096ZM89.6096 9.37615V11.0161H93.9979V9.37615H89.6096ZM94.0015 13.3955V11.7185H89.6132V13.3955H94.0015ZM98.559 21.6694V23.6521H97.7941V21.6694H90.9032V20.9468H92.7748V15.9899H91.3614V15.2875H99.9548V15.9899H98.559V20.9468H100.293V21.6694H98.559ZM93.5221 15.9899V17.2165H97.7941V15.9899H93.5221ZM93.5221 19.0716H97.7941V17.8651H93.5221V19.0716ZM97.7941 20.9468V19.7404H93.5221V20.9468H97.7941ZM102.644 22.9834C102.644 23.6152 102.507 23.884 102.101 24.0453C101.71 24.1898 100.977 24.2066 99.8384 24.2066C99.8032 23.9714 99.6869 23.6118 99.567 23.3598C100.469 23.3766 101.287 23.3766 101.523 23.3598C101.763 23.3598 101.848 23.269 101.848 23.0002V14.0945H96.5217V8.66705H102.648V22.98L102.644 22.9834ZM97.3006 9.37615V11.0161H101.844V9.37615H97.3006ZM101.844 13.3955V11.7185H97.3006V13.3955H101.844Z" fill="white"/>
<path id="Vector_5" d="M106.557 19.3976C106.317 20.9468 105.996 22.644 105.637 23.7597C105.485 23.6891 105.161 23.5446 104.956 23.4707C105.365 22.3348 105.654 20.7318 105.841 19.2699L106.557 19.3976ZM109.944 14.6221C110.42 15.7412 110.931 17.2367 111.135 18.1205L110.437 18.3894C110.388 18.1004 110.3 17.7778 110.198 17.4148C106.113 18.0802 105.637 18.2079 105.348 18.3692C105.312 18.171 105.196 17.7374 105.094 17.5224C105.401 17.4686 105.792 16.9813 106.268 16.3159C106.557 15.9563 107.188 15.0355 107.885 13.8996C105.809 14.1684 105.453 14.2592 105.267 14.3667C105.217 14.1684 105.097 13.7719 104.995 13.5366C105.267 13.4829 105.538 13.0695 105.898 12.5284C106.271 11.9706 107.498 9.8601 108.263 7.87732L108.996 8.23691C108.178 10.0584 107.191 11.9504 106.19 13.3552L108.351 13.1401C108.809 12.347 109.253 11.4833 109.644 10.633L110.36 11.0296C109.186 13.2812 107.826 15.5362 106.43 17.2669L109.986 16.7259C109.782 16.0773 109.542 15.4085 109.306 14.8137L109.951 14.6154L109.944 14.6221ZM108.259 19.2161C108.464 20.4427 108.686 22.029 108.735 23.0741L108.055 23.2354C108.005 22.1735 107.815 20.5671 107.596 19.3606L108.259 19.2161ZM110.081 18.8196C110.473 19.9386 110.917 21.3972 111.118 22.3348L110.473 22.57C110.286 21.5954 109.842 20.1369 109.468 19.0178L110.081 18.8196ZM120 23.0573C120 23.6522 119.863 23.9042 119.507 24.0655C119.151 24.21 118.47 24.2268 117.466 24.21C117.416 23.9949 117.314 23.632 117.212 23.3799C118.012 23.4169 118.728 23.3967 118.946 23.3967C119.168 23.3799 119.235 23.306 119.235 23.0708V9.59125H112.277V24.247H111.512V8.78133H120.004V23.0573H120ZM112.785 13.3955H116.408C116.715 12.4948 117.124 11.1439 117.311 10.2398L118.009 10.4751C117.719 11.4127 117.363 12.5486 117.039 13.3955H118.844V14.1516H112.785V13.3955ZM117.533 19.8647C117.839 19.8647 118.315 19.8647 118.587 19.7941C118.604 20.0294 118.636 20.3352 118.671 20.5167C118.449 20.5873 118.009 20.5873 117.564 20.5873H114.875C113.955 20.5873 113.719 20.2277 113.719 19.2161V17.0351H113.021V16.2789H115.693C115.541 15.7547 115.164 14.9985 114.857 14.4406L115.453 14.1718C115.777 14.7297 116.169 15.5228 116.338 15.9933L115.809 16.2823H118.53V17.0384H114.445V19.2363C114.445 19.7236 114.512 19.8681 114.889 19.8681H117.526L117.533 19.8647ZM114.131 10.2029C114.607 11.0128 115.034 12.1487 115.185 12.888L114.572 13.1233C114.42 12.3839 114.011 11.248 113.55 10.4012L114.128 10.2029H114.131Z" fill="white"/>
</g>
<g id="Clip path group">
<mask id="mask0_4548_77037" style="mask-type:luminance" maskUnits="userSpaceOnUse" x="0" y="0" width="34" height="32">
<g id="clippath">
<path id="Vector_6" d="M16.7813 32C26.0494 32 33.5626 24.8366 33.5626 16C33.5626 7.16344 26.0494 0 16.7813 0C7.51325 0 0 7.16344 0 16C0 24.8366 7.51325 32 16.7813 32Z" fill="white"/>
</g>
</mask>
<g mask="url(#mask0_4548_77037)">
<g id="Group_4">
<path id="Vector_7" d="M38.2118 16C38.2118 27.7387 28.2297 37.256 15.9177 37.256C3.6058 37.256 -6.37628 27.7387 -6.37628 16C-6.37628 4.26129 3.60228 -5.2594 15.9177 -5.2594C28.2332 -5.2594 38.2118 4.25793 38.2118 15.9966" fill="url(#paint0_linear_4548_77037)"/>
<g id="Group_5" opacity="0.8">
<g id="Group_6">
<g id="Group_7">
<path id="Vector_8" d="M5.14964 6.98675H4.95931V-0.530995L-2.41799 -7.56481H-6.0238L-7.69806 -9.15775L-7.56059 -9.28882L-5.94626 -7.74629H-2.34044L5.14964 -0.604929V6.98675Z" fill="white"/>
<path id="Vector_9" d="M4.83948 6.97667C4.83948 7.09093 4.93465 7.18167 5.05449 7.18167C5.17433 7.18167 5.2695 7.09093 5.2695 6.97667C5.2695 6.8624 5.17433 6.77167 5.05449 6.77167C4.93465 6.77167 4.83948 6.8624 4.83948 6.97667Z" fill="white"/>
</g>
<g id="Group_8">
<path id="Vector_10" d="M6.89088 8.60658H6.50668V-0.914109L-1.82935 -8.86202L-1.55794 -9.12079L6.89088 -1.06534V8.60658Z" fill="white"/>
<path id="Vector_11" d="M6.33752 8.58979C6.33752 8.78135 6.49966 8.93258 6.69705 8.93258C6.89443 8.93258 7.05657 8.77799 7.05657 8.58979C7.05657 8.4016 6.89443 8.24701 6.69705 8.24701C6.49966 8.24701 6.33752 8.4016 6.33752 8.58979Z" fill="white"/>
</g>
<g id="Group_9">
<path id="Vector_12" d="M9.05507 6.98674H8.86473V-0.241994L3.85254 -5.02418V-9.22162H4.04288V-5.09812L9.05507 -0.319288V6.98674Z" fill="white"/>
<path id="Vector_13" d="M8.74487 6.97667C8.74487 7.09093 8.84004 7.18167 8.95988 7.18167C9.07972 7.18167 9.17489 7.09093 9.17489 6.97667C9.17489 6.8624 9.07972 6.77167 8.95988 6.77167C8.84004 6.77167 8.74487 6.8624 8.74487 6.97667Z" fill="white"/>
</g>
<g id="Group_10">
<path id="Vector_14" d="M4.39181 10.7876H4.19795V-0.137799L-1.97741 -6.02564H-8.90353L-12.1886 -9.15775L-12.0547 -9.28882L-8.82247 -6.20711H-1.89634L4.39181 -0.215094V10.7876Z" fill="white"/>
<path id="Vector_15" d="M4.29667 10.9826C4.41542 10.9826 4.51168 10.8908 4.51168 10.7776C4.51168 10.6644 4.41542 10.5726 4.29667 10.5726C4.17793 10.5726 4.08167 10.6644 4.08167 10.7776C4.08167 10.8908 4.17793 10.9826 4.29667 10.9826Z" fill="white"/>
</g>
<g id="Group_11">
<path id="Vector_16" d="M3.28503 9.76266H3.09117V0.645251L-2.86213 -5.03087H-9.70013V-5.21234H-2.78106L3.28503 0.571318V9.76266Z" fill="white"/>
<path id="Vector_17" d="M2.97131 9.75261C2.97131 9.86687 3.06648 9.95761 3.18632 9.95761C3.30616 9.95761 3.40133 9.86687 3.40133 9.75261C3.40133 9.63834 3.30616 9.54761 3.18632 9.54761C3.06648 9.54761 2.97131 9.63834 2.97131 9.75261Z" fill="white"/>
</g>
<g id="Group_12">
<path id="Vector_18" d="M3.79611 13.8794L3.66217 13.7517L10.1442 7.56814V-3.56229L16.1539 -9.28882L16.2878 -9.15775L10.338 -3.485V7.64208L3.79611 13.8794Z" fill="white"/>
<path id="Vector_19" d="M3.58462 13.661C3.50003 13.7416 3.50003 13.8727 3.58462 13.9533C3.66922 14.034 3.80668 14.034 3.89128 13.9533C3.97587 13.8727 3.97587 13.7416 3.89128 13.661C3.80668 13.5803 3.66922 13.5803 3.58462 13.661Z" fill="white"/>
</g>
<g id="Group_13">
<path id="Vector_20" d="M4.33537 14.8742H1.05383V14.6927H4.2543L11.0324 8.23019V-2.89688L17.7329 -9.28882L17.8704 -9.15775L11.2227 -2.82295V8.30749L4.33537 14.8742Z" fill="white"/>
<path id="Vector_21" d="M1.06444 14.5751C0.944594 14.5751 0.849426 14.6658 0.849426 14.7801C0.849426 14.8943 0.944594 14.9851 1.06444 14.9851C1.18428 14.9851 1.27945 14.8943 1.27945 14.7801C1.27945 14.6658 1.18428 14.5751 1.06444 14.5751Z" fill="white"/>
</g>
<g id="Group_14">
<path id="Vector_22" d="M13.1508 2.82964L12.8794 2.57087L15.0154 0.534325V-2.72549L19.809 -7.2926L20.0805 -7.03383L15.3996 -2.57427V0.685554L13.1508 2.82964Z" fill="white"/>
<path id="Vector_23" d="M13.0274 3.03127C13.226 3.03127 13.387 2.8778 13.387 2.68849C13.387 2.49917 13.226 2.3457 13.0274 2.3457C12.8289 2.3457 12.6679 2.49917 12.6679 2.68849C12.6679 2.8778 12.8289 3.03127 13.0274 3.03127Z" fill="white"/>
</g>
<g id="Group_15">
<path id="Vector_24" d="M12.4635 7.12457L12.3295 6.9935L19.2557 0.389848V-3.56226L25.1173 -9.14764L25.2512 -9.01994L19.446 -3.48497V0.467143L12.4635 7.12457Z" fill="white"/>
<path id="Vector_25" d="M12.252 6.90613C12.1674 6.98679 12.1674 7.11785 12.252 7.19851C12.3366 7.27916 12.474 7.27916 12.5586 7.19851C12.6432 7.11785 12.6432 6.98679 12.5586 6.90613C12.474 6.82548 12.3366 6.82548 12.252 6.90613Z" fill="white"/>
</g>
<g id="Group_16">
<path id="Vector_26" d="M6.84151 15.5463L6.70404 15.4152L22.3398 0.510808V-2.7927L29.7347 -9.84668L29.8687 -9.71561L22.5302 -2.71877V0.584743L6.84151 15.5463Z" fill="white"/>
<path id="Vector_27" d="M6.62649 15.3279C6.5419 15.4085 6.5419 15.5396 6.62649 15.6203C6.71109 15.7009 6.84855 15.7009 6.93315 15.6203C7.01774 15.5396 7.01774 15.4085 6.93315 15.3279C6.84855 15.2472 6.71109 15.2472 6.62649 15.3279Z" fill="white"/>
</g>
<path id="Vector_28" d="M-6.86269 22.2877L-7.13409 22.029L-1.36761 16.531H7.03186L33.9363 -9.12079L34.2077 -8.86202L7.19048 16.8973H-1.20899L-6.86269 22.2877Z" fill="white"/>
<path id="Vector_29" d="M-6.94028 23.9042L-7.07422 23.7732L-0.842467 17.8316H7.45126L27.3132 -1.109H39.8366L48.2713 -9.14764L48.4053 -9.01994L39.9177 -0.924162H27.3943L7.53233 18.013H-0.761398L-6.94028 23.9042Z" fill="white"/>
<g id="Group_17">
<path id="Vector_30" d="M13.9756 14.0979L13.8417 13.9668L27.9477 0.517517H38.536V0.698992H28.0253L13.9756 14.0979Z" fill="white"/>
<path id="Vector_31" d="M13.7641 13.8794C13.6795 13.9601 13.6795 14.0911 13.7641 14.1718C13.8487 14.2524 13.9862 14.2524 14.0708 14.1718C14.1554 14.0911 14.1554 13.9601 14.0708 13.8794C13.9862 13.7987 13.8487 13.7987 13.7641 13.8794Z" fill="white"/>
</g>
<g id="Group_18">
<path id="Vector_32" d="M13.7853 19.7202L13.3764 19.3338L27.2674 6.08949H34.7963L39.1071 1.97943L39.5124 2.3659L35.036 6.63728H27.5071L13.7853 19.7202Z" fill="white"/>
<path id="Vector_33" d="M10.7152 19.6631C10.5037 19.8648 10.5037 20.1908 10.7152 20.3924C10.9267 20.594 11.2686 20.594 11.4801 20.3924C11.6915 20.1908 11.6915 19.8648 11.4801 19.6631C11.2686 19.4615 10.9267 19.4615 10.7152 19.6631Z" fill="white"/>
</g>
<g id="Group_19">
<path id="Vector_34" d="M12.4247 20.641L12.2872 20.5133L20.1016 13.0628H22.5689L25.9245 9.86682H30.9155V10.0483H26.002L22.65 13.2443H20.1827L12.4247 20.641Z" fill="white"/>
<path id="Vector_35" d="M30.905 10.1626C31.0237 10.1626 31.12 10.0708 31.12 9.95756C31.12 9.84434 31.0237 9.75256 30.905 9.75256C30.7862 9.75256 30.6899 9.84434 30.6899 9.95756C30.6899 10.0708 30.7862 10.1626 30.905 10.1626Z" fill="white"/>
<path id="Vector_36" d="M12.3648 20.7755C12.4835 20.7755 12.5798 20.6837 12.5798 20.5705C12.5798 20.4573 12.4835 20.3655 12.3648 20.3655C12.246 20.3655 12.1498 20.4573 12.1498 20.5705C12.1498 20.6837 12.246 20.7755 12.3648 20.7755Z" fill="white"/>
</g>
<path id="Vector_37" d="M13.7535 20.9233C13.6337 20.9233 13.5385 20.8326 13.5385 20.7183C13.5385 20.604 13.6337 20.5133 13.7535 20.5133C13.8734 20.5133 13.9685 20.604 13.9685 20.7183C13.9685 20.8326 13.8734 20.9233 13.7535 20.9233Z" fill="white"/>
<g id="Group_20">
<path id="Vector_38" d="M21.0709 17.8282H7.44073V17.4619H20.9123L27.6375 11.0532L27.9089 11.3119L21.0709 17.8282Z" fill="white"/>
<path id="Vector_39" d="M27.5036 10.949C27.6446 10.8145 27.8737 10.8145 28.0147 10.949C28.1556 11.0834 28.1556 11.3018 28.0147 11.4363C27.8737 11.5707 27.6446 11.5707 27.5036 11.4363C27.3626 11.3018 27.3626 11.0834 27.5036 10.949Z" fill="white"/>
<path id="Vector_40" d="M7.46188 17.9895C7.66044 17.9895 7.8214 17.8361 7.8214 17.6467C7.8214 17.4574 7.66044 17.304 7.46188 17.304C7.26332 17.304 7.10236 17.4574 7.10236 17.6467C7.10236 17.8361 7.26332 17.9895 7.46188 17.9895Z" fill="white"/>
</g>
<g id="Group_21">
<path id="Vector_41" d="M-7.72978 24.741L-7.86725 24.61L-3.47894 20.426H2.83036L5.61491 23.0809H18.2335L30.7217 11.1741H51.7644L56.8682 6.30792H63.6816V6.49276H56.9493L51.842 11.359H30.8027L18.3146 23.2657H5.53736L2.75281 20.6108H-3.39787L-7.72978 24.741Z" fill="white"/>
</g>
<g id="Group_22">
<path id="Vector_42" d="M19.3649 24.6906L19.0935 24.4319L30.5137 13.5434H50.8938L56.1174 8.56628H63.1317V8.93259H56.2761L51.0524 13.9097H30.6723L19.3649 24.6906Z" fill="white"/>
<path id="Vector_43" d="M19.8478 25.6484C19.7068 25.7828 19.4777 25.7828 19.3367 25.6484C19.1957 25.514 19.1957 25.2955 19.3367 25.1611C19.4777 25.0267 19.7068 25.0267 19.8478 25.1611C19.9888 25.2955 19.9888 25.514 19.8478 25.6484Z" fill="white"/>
</g>
<g id="Group_23">
<path id="Vector_44" d="M24.4688 22.3852L24.3314 22.2575L31.7263 15.2069H52.9241L57.6191 10.7272H62.9097V10.912H57.7001L53.0016 15.3884H31.8038L24.4688 22.3852Z" fill="white"/>
<path id="Vector_45" d="M23.6405 24.9158C23.5559 24.9965 23.4184 24.9965 23.3338 24.9158C23.2492 24.8351 23.2492 24.7041 23.3338 24.6234C23.4184 24.5428 23.5559 24.5428 23.6405 24.6234C23.7251 24.7041 23.7251 24.8351 23.6405 24.9158Z" fill="white"/>
</g>
<g id="Group_24">
<path id="Vector_46" d="M25.1843 24.8317L25.0504 24.704L34.1372 16.0403H55.4654L60.0158 11.7017H64.4746V11.8832H60.0969L55.5465 16.2218H34.2147L25.1843 24.8317Z" fill="white"/>
<path id="Vector_47" d="M25.2795 24.9057C25.1949 24.9863 25.0574 24.9863 24.9728 24.9057C24.8882 24.825 24.8882 24.6939 24.9728 24.6133C25.0574 24.5326 25.1949 24.5326 25.2795 24.6133C25.3641 24.6939 25.3641 24.825 25.2795 24.9057Z" fill="white"/>
</g>
<g id="Group_25">
<path id="Vector_48" d="M26.5801 24.8452L26.4462 24.7175L34.5002 17.0351H56.477L60.964 12.757H64.1574V12.9384H61.0451L56.5581 17.2165H34.5813L26.5801 24.8452Z" fill="white"/>
<path id="Vector_49" d="M26.6717 24.9191C26.5871 24.9997 26.4497 24.9997 26.3651 24.9191C26.2805 24.8384 26.2805 24.7074 26.3651 24.6267C26.4497 24.5461 26.5871 24.5461 26.6717 24.6267C26.7563 24.7074 26.7563 24.8384 26.6717 24.9191Z" fill="white"/>
</g>
<g id="Group_26">
<path id="Vector_50" d="M41.8176 24.0689H30.1542V23.8841H41.7366L44.0911 21.6425H65.1056V21.824H44.1722L41.8176 24.0689Z" fill="white"/>
<path id="Vector_51" d="M30.1648 24.1832C30.2835 24.1832 30.3798 24.0914 30.3798 23.9782C30.3798 23.865 30.2835 23.7732 30.1648 23.7732C30.046 23.7732 29.9498 23.865 29.9498 23.9782C29.9498 24.0914 30.046 24.1832 30.1648 24.1832Z" fill="white"/>
</g>
<g id="Group_27">
<path id="Vector_52" d="M4.12038 23.4841L6.56303 25.8131H17.2078L19.0935 27.611H36.9463L36.9745 27.6379L39.1634 29.7248L39.0295 29.8559L36.8688 27.7925H19.016L17.1302 25.9945H6.48548L4.03931 23.6656" fill="white"/>
<path id="Vector_53" d="M4.20498 23.7227C4.06751 23.8538 3.8384 23.8538 3.70094 23.7227C3.56347 23.5917 3.56347 23.3732 3.70094 23.2422C3.8384 23.1111 4.06751 23.1111 4.20498 23.2422C4.34244 23.3732 4.34244 23.5917 4.20498 23.7227Z" fill="white"/>
</g>
<g id="Group_28">
<path id="Vector_54" d="M63.8472 27.3287H39.3926L37.6549 26.418H23.0272V25.8668H37.8029L39.5406 26.7809H63.8472V27.3287Z" fill="white"/>
<path id="Vector_55" d="M23.0553 26.6566C22.7557 26.6566 22.5161 26.4247 22.5161 26.1424C22.5161 25.8601 22.7593 25.6282 23.0553 25.6282C23.3514 25.6282 23.5946 25.8601 23.5946 26.1424C23.5946 26.4247 23.3514 26.6566 23.0553 26.6566Z" fill="white"/>
</g>
<g id="Group_29">
<path id="Vector_56" d="M0.137444 9.45681L-6.66179 2.97414H-18.7341L-22.4315 6.50281H-32.2867L-44.0523 -4.715L-43.9184 -4.84607L-32.2056 6.32133H-22.5126L-18.8116 2.79266H-6.58072L0.271381 9.3291L0.137444 9.45681Z" fill="white"/>
<path id="Vector_57" d="M0.348919 9.23835C0.433513 9.319 0.433513 9.45007 0.348919 9.53072C0.264325 9.61138 0.12686 9.61138 0.0422662 9.53072C-0.0423277 9.45007 -0.0423277 9.319 0.0422662 9.23835C0.12686 9.15769 0.264325 9.15769 0.348919 9.23835Z" fill="white"/>
</g>
<path id="Vector_58" d="M1.29359 4.18399C1.54082 4.18399 1.74123 3.9929 1.74123 3.75718C1.74123 3.52147 1.54082 3.33038 1.29359 3.33038C1.04636 3.33038 0.845947 3.52147 0.845947 3.75718C0.845947 3.9929 1.04636 4.18399 1.29359 4.18399Z" fill="white"/>
<path id="Vector_59" d="M1.29359 6.47592C1.54082 6.47592 1.74123 6.28483 1.74123 6.04912C1.74123 5.8134 1.54082 5.62231 1.29359 5.62231C1.04636 5.62231 0.845947 5.8134 0.845947 6.04912C0.845947 6.28483 1.04636 6.47592 1.29359 6.47592Z" fill="white"/>
<path id="Vector_60" d="M1.29359 8.76791C1.54082 8.76791 1.74123 8.57682 1.74123 8.34111C1.74123 8.10539 1.54082 7.91431 1.29359 7.91431C1.04636 7.91431 0.845947 8.10539 0.845947 8.34111C0.845947 8.57682 1.04636 8.76791 1.29359 8.76791Z" fill="white"/>
<g id="Group_30">
<path id="Vector_61" d="M30.8626 2.49694C30.993 2.49694 31.0988 2.3871 31.0988 2.25161C31.0988 2.11612 30.993 2.00629 30.8626 2.00629C30.7322 2.00629 30.6265 2.11612 30.6265 2.25161C30.6265 2.3871 30.7322 2.49694 30.8626 2.49694Z" fill="white"/>
<path id="Vector_62" d="M30.8626 3.82104C30.993 3.82104 31.0988 3.7112 31.0988 3.57571C31.0988 3.44022 30.993 3.33038 30.8626 3.33038C30.7322 3.33038 30.6265 3.44022 30.6265 3.57571C30.6265 3.7112 30.7322 3.82104 30.8626 3.82104Z" fill="white"/>
<path id="Vector_63" d="M30.8626 5.14849C30.993 5.14849 31.0988 5.03865 31.0988 4.90316C31.0988 4.76767 30.993 4.65784 30.8626 4.65784C30.7322 4.65784 30.6265 4.76767 30.6265 4.90316C30.6265 5.03865 30.7322 5.14849 30.8626 5.14849Z" fill="white"/>
<path id="Vector_64" d="M31.9941 2.49694C32.1245 2.49694 32.2303 2.3871 32.2303 2.25161C32.2303 2.11612 32.1245 2.00629 31.9941 2.00629C31.8637 2.00629 31.7579 2.11612 31.7579 2.25161C31.7579 2.3871 31.8637 2.49694 31.9941 2.49694Z" fill="white"/>
<path id="Vector_65" d="M31.9941 3.82104C32.1245 3.82104 32.2303 3.7112 32.2303 3.57571C32.2303 3.44022 32.1245 3.33038 31.9941 3.33038C31.8637 3.33038 31.7579 3.44022 31.7579 3.57571C31.7579 3.7112 31.8637 3.82104 31.9941 3.82104Z" fill="white"/>
<path id="Vector_66" d="M31.9941 5.14849C32.1245 5.14849 32.2303 5.03865 32.2303 4.90316C32.2303 4.76767 32.1245 4.65784 31.9941 4.65784C31.8637 4.65784 31.7579 4.76767 31.7579 4.90316C31.7579 5.03865 31.8637 5.14849 31.9941 5.14849Z" fill="white"/>
<path id="Vector_67" d="M33.122 2.49694C33.2524 2.49694 33.3581 2.3871 33.3581 2.25161C33.3581 2.11612 33.2524 2.00629 33.122 2.00629C32.9915 2.00629 32.8858 2.11612 32.8858 2.25161C32.8858 2.3871 32.9915 2.49694 33.122 2.49694Z" fill="white"/>
<path id="Vector_68" d="M33.122 3.82104C33.2524 3.82104 33.3581 3.7112 33.3581 3.57571C33.3581 3.44022 33.2524 3.33038 33.122 3.33038C32.9915 3.33038 32.8858 3.44022 32.8858 3.57571C32.8858 3.7112 32.9915 3.82104 33.122 3.82104Z" fill="white"/>
<path id="Vector_69" d="M33.122 5.14849C33.2524 5.14849 33.3581 5.03865 33.3581 4.90316C33.3581 4.76767 33.2524 4.65784 33.122 4.65784C32.9915 4.65784 32.8858 4.76767 32.8858 4.90316C32.8858 5.03865 32.9915 5.14849 33.122 5.14849Z" fill="white"/>
</g>
<path id="Vector_70" d="M12.3577 29.13C12.605 29.13 12.8054 28.9389 12.8054 28.7032C12.8054 28.4675 12.605 28.2764 12.3577 28.2764C12.1105 28.2764 11.9101 28.4675 11.9101 28.7032C11.9101 28.9389 12.1105 29.13 12.3577 29.13Z" fill="white"/>
<path id="Vector_71" d="M9.95387 29.13C10.2011 29.13 10.4015 28.9389 10.4015 28.7032C10.4015 28.4675 10.2011 28.2764 9.95387 28.2764C9.70664 28.2764 9.50623 28.4675 9.50623 28.7032C9.50623 28.9389 9.70664 29.13 9.95387 29.13Z" fill="white"/>
<path id="Vector_72" d="M14.7616 29.13C15.0088 29.13 15.2093 28.9389 15.2093 28.7032C15.2093 28.4675 15.0088 28.2764 14.7616 28.2764C14.5144 28.2764 14.314 28.4675 14.314 28.7032C14.314 28.9389 14.5144 29.13 14.7616 29.13Z" fill="white"/>
<path id="Vector_73" d="M8.11041 24.2907C8.24278 24.2907 8.35009 24.1884 8.35009 24.0621C8.35009 23.9359 8.24278 23.8336 8.11041 23.8336C7.97804 23.8336 7.87073 23.9359 7.87073 24.0621C7.87073 24.1884 7.97804 24.2907 8.11041 24.2907Z" fill="white"/>
<path id="Vector_74" d="M9.41107 24.2907C9.54344 24.2907 9.65075 24.1884 9.65075 24.0621C9.65075 23.9359 9.54344 23.8336 9.41107 23.8336C9.2787 23.8336 9.17139 23.9359 9.17139 24.0621C9.17139 24.1884 9.2787 24.2907 9.41107 24.2907Z" fill="white"/>
<path id="Vector_75" d="M10.7082 24.2907C10.8406 24.2907 10.9479 24.1884 10.9479 24.0621C10.9479 23.9359 10.8406 23.8336 10.7082 23.8336C10.5758 23.8336 10.4685 23.9359 10.4685 24.0621C10.4685 24.1884 10.5758 24.2907 10.7082 24.2907Z" fill="white"/>
<path id="Vector_76" d="M12.0088 24.2907C12.1412 24.2907 12.2485 24.1884 12.2485 24.0621C12.2485 23.9359 12.1412 23.8336 12.0088 23.8336C11.8764 23.8336 11.7691 23.9359 11.7691 24.0621C11.7691 24.1884 11.8764 24.2907 12.0088 24.2907Z" fill="white"/>
<path id="Vector_77" d="M8.11041 25.2249C8.24278 25.2249 8.35009 25.1226 8.35009 24.9964C8.35009 24.8702 8.24278 24.7679 8.11041 24.7679C7.97804 24.7679 7.87073 24.8702 7.87073 24.9964C7.87073 25.1226 7.97804 25.2249 8.11041 25.2249Z" fill="white"/>
<path id="Vector_78" d="M9.41107 25.2249C9.54344 25.2249 9.65075 25.1226 9.65075 24.9964C9.65075 24.8702 9.54344 24.7679 9.41107 24.7679C9.2787 24.7679 9.17139 24.8702 9.17139 24.9964C9.17139 25.1226 9.2787 25.2249 9.41107 25.2249Z" fill="white"/>
<path id="Vector_79" d="M10.7082 25.2249C10.8406 25.2249 10.9479 25.1226 10.9479 24.9964C10.9479 24.8702 10.8406 24.7679 10.7082 24.7679C10.5758 24.7679 10.4685 24.8702 10.4685 24.9964C10.4685 25.1226 10.5758 25.2249 10.7082 25.2249Z" fill="white"/>
<path id="Vector_80" d="M12.0088 25.2249C12.1412 25.2249 12.2485 25.1226 12.2485 24.9964C12.2485 24.8702 12.1412 24.7679 12.0088 24.7679C11.8764 24.7679 11.7691 24.8702 11.7691 24.9964C11.7691 25.1226 11.8764 25.2249 12.0088 25.2249Z" fill="white"/>
<g id="Group_31">
<path id="Vector_81" d="M32.6885 29.8928H18.2264L15.2621 27.0665H5.73122L4.69847 28.0512H4.65969C1.79055 28.1184 -3.04893 28.2058 -3.23926 28.0243L-4.47997 26.8414H-7.03894V26.6599H-4.40243L-3.1159 27.8865C-2.774 28.0008 1.66718 27.9403 4.61387 27.8697L5.64662 26.8851H15.3361L18.3005 29.7114H32.685V29.8928H32.6885Z" fill="white"/>
<path id="Vector_82" d="M32.6779 30.0071C32.7977 30.0071 32.8929 29.9164 32.8929 29.8021C32.8929 29.6878 32.7977 29.5971 32.6779 29.5971C32.5581 29.5971 32.4629 29.6878 32.4629 29.8021C32.4629 29.9164 32.5581 30.0071 32.6779 30.0071Z" fill="white"/>
</g>
<g id="Group_32">
<path id="Vector_83" d="M23.4713 35.3337H11.9313L8.11396 31.6942H-3.13351L-7.19049 27.8294L-7.05303 27.6984L-3.05596 31.5127H8.19503L12.0088 35.1523H23.3937L25.6707 32.9779H40.2667L45.441 28.0445H64.5064V28.226H45.5221L40.3478 33.1594H25.7518L23.4713 35.3337Z" fill="white"/>
</g>
<g id="Group_33">
<path id="Vector_84" d="M22.2904 34.2382H12.6961L8.79771 30.5213H-2.43213V30.3398H8.87878L12.7772 34.0567H22.2094L24.927 31.4657H38.536V31.6471H25.0045L22.2904 34.2382Z" fill="white"/>
</g>
</g>
</g>
<g id="Group_34">
<path id="Vector_85" d="M13.0415 21.9013C18.9808 21.9013 23.7955 17.3107 23.7955 11.648C23.7955 5.98522 18.9808 1.39465 13.0415 1.39465C7.10227 1.39465 2.28754 5.98522 2.28754 11.648C2.28754 17.3107 7.10227 21.9013 13.0415 21.9013Z" fill="url(#paint1_linear_4548_77037)"/>
<path id="Vector_86" d="M13.0416 21.4005C18.6908 21.4005 23.2704 17.0342 23.2704 11.648C23.2704 6.26176 18.6908 1.89539 13.0416 1.89539C7.39234 1.89539 2.81274 6.26176 2.81274 11.648C2.81274 17.0342 7.39234 21.4005 13.0416 21.4005Z" fill="url(#paint2_linear_4548_77037)"/>
<path id="Vector_87" d="M12.7842 18.0769C16.6542 18.0769 19.7914 15.0857 19.7914 11.3959C19.7914 7.70613 16.6542 4.71497 12.7842 4.71497C8.91427 4.71497 5.77704 7.70613 5.77704 11.3959C5.77704 15.0857 8.91427 18.0769 12.7842 18.0769Z" fill="url(#paint3_linear_4548_77037)"/>
<path id="Vector_88" d="M12.7842 18.833C17.0922 18.833 20.5845 15.5033 20.5845 11.3959C20.5845 7.2885 17.0922 3.9588 12.7842 3.9588C8.47625 3.9588 4.98395 7.2885 4.98395 11.3959C4.98395 15.5033 8.47625 18.833 12.7842 18.833Z" fill="url(#paint4_linear_4548_77037)"/>
<path id="Vector_89" d="M12.7842 17.9592C16.6542 17.9592 19.7914 14.9681 19.7914 11.2783C19.7914 7.58851 16.6542 4.59735 12.7842 4.59735C8.91427 4.59735 5.77704 7.58851 5.77704 11.2783C5.77704 14.9681 8.91427 17.9592 12.7842 17.9592Z" fill="url(#paint5_linear_4548_77037)"/>
<g id="Vector_90" filter="url(#filter0_d_4548_77037)">
<path d="M10.902 7.55133L16.7672 11.1707C17.0668 11.3556 17.0668 11.7723 16.7672 11.9571L10.902 15.5765C10.5742 15.7782 10.1442 15.553 10.1442 15.1833V7.94453C10.1442 7.57486 10.5742 7.3497 10.902 7.55133Z" fill="white"/>
</g>
<g id="Clip path group_2">
<mask id="mask1_4548_77037" style="mask-type:luminance" maskUnits="userSpaceOnUse" x="10" y="7" width="7" height="9">
<g id="clippath-1">
<path id="Vector_91" d="M16.9893 7.47406H10.1407V15.6539H16.9893V7.47406Z" fill="white"/>
</g>
</mask>
<g mask="url(#mask1_4548_77037)">
<g id="Group_35">
<path id="Vector_92" d="M10.9023 7.55152L16.7675 11.1709C17.0671 11.3558 17.0671 11.7725 16.7675 11.9573L10.9023 15.5767C10.5745 15.7784 10.1445 15.5566 10.1445 15.1835V7.94471C10.1445 7.57504 10.5745 7.34988 10.9023 7.55152Z" fill="white"/>
</g>
</g>
</g>
<g id="Clip path group_3">
<mask id="mask2_4548_77037" style="mask-type:luminance" maskUnits="userSpaceOnUse" x="10" y="7" width="7" height="9">
<g id="clippath-2">
<path id="Vector_93" d="M10.6236 7.47406C10.3733 7.47742 10.1407 7.67234 10.1407 7.94455V15.1834C10.1407 15.4556 10.3733 15.6471 10.6236 15.6539H10.6412C10.7293 15.6539 10.8174 15.627 10.8985 15.5766L16.7637 11.9572C16.9117 11.8664 16.9893 11.7152 16.9893 11.564C16.9893 11.4127 16.9152 11.2615 16.7637 11.1708L10.8985 7.55135C10.8174 7.50095 10.7293 7.47742 10.6412 7.47742H10.6236V7.47406Z" fill="white"/>
</g>
</mask>
<g mask="url(#mask2_4548_77037)">
<g id="Group_36">
<g id="Group_37">
<g id="Clip path group_4">
<mask id="mask3_4548_77037" style="mask-type:luminance" maskUnits="userSpaceOnUse" x="8" y="1" width="14" height="13">
<g id="clippath-4">
<path id="Vector_94" d="M21.6595 1.32745H8.87177V13.6644H21.6595V1.32745Z" fill="white"/>
</g>
</mask>
<g mask="url(#mask3_4548_77037)">
<g id="Group_38">
<g id="Vector_95" style="mix-blend-mode:multiply" opacity="0.75">
<path d="M21.6595 1.32745H8.87177V13.6644H21.6595V1.32745Z" fill="#231916"/>
</g>
</g>
</g>
</g>
</g>
<path id="Vector_96" d="M19.4213 2.9305L18.096 10.9826C18.029 11.3926 17.5391 11.601 17.1725 11.3724L10.0102 6.92294C9.61194 6.67426 9.65776 6.10295 10.0948 5.91811L18.5824 2.31551C19.0195 2.13067 19.4953 2.48018 19.4213 2.92714" fill="white"/>
</g>
</g>
</g>
</g>
<g id="Group_39">
<path id="Vector_97" d="M25.0786 19.364L25.1667 19.4883C25.5192 19.9723 25.431 20.6142 24.9728 20.9166L21.3 23.4203C20.8418 23.7228 20.1792 23.5715 19.8302 23.091L19.7421 22.9666C19.3896 22.4827 19.4778 21.8408 19.936 21.5383L23.6088 19.0347C24.067 18.7322 24.7296 18.8834 25.0786 19.364Z" fill="white" stroke="black" stroke-width="1.24" stroke-miterlimit="10"/>
<path id="Vector_98" d="M17.2572 15.0859L17.1972 15.1867C16.9576 15.5799 16.4253 15.711 16.0129 15.4824C15.7098 15.3144 15.4208 15.1296 15.1317 14.9347C14.8427 14.7397 14.5678 14.5717 14.307 14.3667C14.025 14.1483 13.8734 13.8021 13.891 13.456C13.9087 13.1065 14.1765 12.7704 14.5502 12.9015C14.8427 13.0057 15.1917 13.1502 15.4666 13.2812C15.953 13.5098 16.4782 13.6946 16.947 13.9567C17.3594 14.1852 17.4968 14.6927 17.2572 15.0859Z" fill="white" stroke="black" stroke-width="1.24" stroke-miterlimit="10"/>
<g id="Group_40">
<path id="Vector_99" d="M31.9307 29.5434C31.0319 30.0844 30.2529 29.6576 29.1673 29.419C28.0359 29.1703 26.5978 28.6024 25.7307 27.8966C25.0997 27.3825 25.35 26.5625 25.3007 25.8601C25.2478 25.1376 25.1984 24.4184 25.1456 23.6958C25.0786 22.775 25.0152 21.8576 24.9482 20.9368L25.9598 18.9943C26.1818 18.5641 26.6542 18.4936 27.0066 18.833L34.2923 25.8601C34.6694 26.2298 32.7555 28.7872 32.4947 29.0729C32.3149 29.2678 32.1281 29.4224 31.9307 29.5434Z" fill="white"/>
<path id="Vector_100" d="M31.9307 29.5434C31.0319 30.0844 30.2529 29.6576 29.1673 29.419C28.0359 29.1703 26.5978 28.6024 25.7307 27.8966C25.0997 27.3825 25.35 26.5625 25.3007 25.8601C25.2478 25.1376 25.1984 24.4184 25.1456 23.6958C25.0786 22.775 25.0152 21.8576 24.9482 20.9368L25.9598 18.9943C26.1818 18.5641 26.6542 18.4936 27.0066 18.833L34.2923 25.8601C34.6694 26.2298 32.7555 28.7872 32.4947 29.0729C32.3149 29.2678 32.1281 29.4224 31.9307 29.5434Z" stroke="black" stroke-width="1.24" stroke-miterlimit="10"/>
</g>
<path id="Vector_101" d="M17.6436 15.199L17.5832 15.2976C17.3419 15.692 17.4816 16.1982 17.8952 16.4283L19.5606 17.3547C19.9742 17.5848 20.5052 17.4516 20.7465 17.0572L20.8069 16.9585C21.0482 16.5641 20.9085 16.0579 20.4949 15.8278L18.8295 14.9015C18.4159 14.6714 17.885 14.8046 17.6436 15.199Z" fill="white" stroke="black" stroke-width="1.24" stroke-miterlimit="10"/>
<path id="Vector_102" d="M27.211 20.2882L27.1335 20.4159C26.8233 20.9233 26.1642 21.1149 25.6672 20.8393L21.6102 18.6616C21.1132 18.386 20.9617 17.7442 21.2754 17.2367L21.3529 17.109C21.6631 16.6015 22.3222 16.41 22.8192 16.6856L26.8762 18.8633C27.3732 19.1388 27.5247 19.7807 27.211 20.2882Z" fill="white" stroke="black" stroke-width="1.24" stroke-miterlimit="10"/>
<path id="Vector_103" d="M21.6403 23.7577C20.9782 23.5224 20.2413 23.8434 19.9946 24.4748C19.7478 25.1061 20.0845 25.8086 20.7467 26.0439L24.2179 27.2774C24.8801 27.5126 25.6169 27.1916 25.8637 26.5603C26.1105 25.929 25.7737 25.2264 25.1116 24.9912L21.6403 23.7577Z" fill="white" stroke="black" stroke-width="1.24" stroke-miterlimit="10"/>
<path id="Vector_104" d="M20.0488 24.5696L19.9712 24.6771C19.6646 25.1073 19.0724 25.2384 18.6565 24.9695C18.3534 24.7712 18.0573 24.5326 17.7718 24.3075C17.2184 23.8739 16.4289 23.3934 16.9999 22.7616C17.4616 22.281 18.1912 22.3885 18.6741 22.644C19.2275 22.933 19.365 23.0304 19.8479 23.2959C20.2638 23.5648 20.3519 24.1394 20.0452 24.5696H20.0488Z" fill="white" stroke="black" stroke-width="1.24" stroke-miterlimit="10"/>
<path id="Vector_105" d="M17.3699 15.9899C17.8196 15.9899 18.1842 15.6424 18.1842 15.2136C18.1842 14.7849 17.8196 14.4373 17.3699 14.4373C16.9203 14.4373 16.5557 14.7849 16.5557 15.2136C16.5557 15.6424 16.9203 15.9899 17.3699 15.9899Z" fill="#00FFFF" stroke="black" stroke-width="0.78" stroke-miterlimit="10"/>
<path id="Vector_106" d="M17.3699 15.5228C17.549 15.5228 17.6942 15.3844 17.6942 15.2136C17.6942 15.0428 17.549 14.9044 17.3699 14.9044C17.1908 14.9044 17.0457 15.0428 17.0457 15.2136C17.0457 15.3844 17.1908 15.5228 17.3699 15.5228Z" fill="white" stroke="black" stroke-width="0.13" stroke-miterlimit="10"/>
<path id="Vector_107" d="M21.1027 17.9357C21.5523 17.9357 21.9169 17.5882 21.9169 17.1594C21.9169 16.7307 21.5523 16.3831 21.1027 16.3831C20.653 16.3831 20.2885 16.7307 20.2885 17.1594C20.2885 17.5882 20.653 17.9357 21.1027 17.9357Z" fill="#00FFFF" stroke="black" stroke-width="0.78" stroke-miterlimit="10"/>
<path id="Vector_108" d="M21.1027 17.4686C21.2818 17.4686 21.4269 17.3302 21.4269 17.1594C21.4269 16.9886 21.2818 16.8502 21.1027 16.8502C20.9236 16.8502 20.7784 16.9886 20.7784 17.1594C20.7784 17.3302 20.9236 17.4686 21.1027 17.4686Z" fill="white" stroke="black" stroke-width="0.13" stroke-miterlimit="10"/>
<path id="Vector_109" d="M19.8619 25.2014C20.3116 25.2014 20.6762 24.8539 20.6762 24.4251C20.6762 23.9964 20.3116 23.6488 19.8619 23.6488C19.4123 23.6488 19.0477 23.9964 19.0477 24.4251C19.0477 24.8539 19.4123 25.2014 19.8619 25.2014Z" fill="#00FFFF" stroke="black" stroke-width="0.78" stroke-miterlimit="10"/>
<path id="Vector_110" d="M19.8619 24.7343C20.041 24.7343 20.1862 24.5958 20.1862 24.4251C20.1862 24.2543 20.041 24.1159 19.8619 24.1159C19.6828 24.1159 19.5377 24.2543 19.5377 24.4251C19.5377 24.5958 19.6828 24.7343 19.8619 24.7343Z" fill="white" stroke="black" stroke-width="0.13" stroke-miterlimit="10"/>
<path id="Vector_111" d="M25.1209 27.816C26.0027 27.816 26.7176 27.1344 26.7176 26.2936C26.7176 25.4528 26.0027 24.7712 25.1209 24.7712C24.239 24.7712 23.5242 25.4528 23.5242 26.2936C23.5242 27.1344 24.239 27.816 25.1209 27.816Z" fill="#00FFFF" stroke="black" stroke-width="0.78" stroke-miterlimit="10"/>
<path id="Vector_112" d="M25.1209 27.0565C25.5627 27.0565 25.921 26.7149 25.921 26.2936C25.921 25.8723 25.5627 25.5308 25.1209 25.5308C24.679 25.5308 24.3207 25.8723 24.3207 26.2936C24.3207 26.7149 24.679 27.0565 25.1209 27.0565Z" fill="white" stroke="black" stroke-width="0.39" stroke-miterlimit="10"/>
<path id="Vector_113" d="M26.062 21.4576C26.9438 21.4576 27.6587 20.7761 27.6587 19.9353C27.6587 19.0945 26.9438 18.4129 26.062 18.4129C25.1801 18.4129 24.4653 19.0945 24.4653 19.9353C24.4653 20.7761 25.1801 21.4576 26.062 21.4576Z" fill="#00FFFF" stroke="black" stroke-width="0.78" stroke-miterlimit="10"/>
<path id="Vector_114" d="M26.062 20.6982C26.5039 20.6982 26.8621 20.3566 26.8621 19.9353C26.8621 19.514 26.5039 19.1724 26.062 19.1724C25.6201 19.1724 25.2618 19.514 25.2618 19.9353C25.2618 20.3566 25.6201 20.6982 26.062 20.6982Z" fill="white" stroke="black" stroke-width="0.39" stroke-miterlimit="10"/>
<g id="Group_41">
<path id="Vector_115" d="M34.895 28.3503C35.4625 27.7857 35.5154 26.8179 35.0113 26.1995L34.1583 25.1544C33.6543 24.536 32.9141 24.5898 32.5158 25.2754L30.4855 28.7637C30.0872 29.4493 30.2811 30.2693 30.9156 30.5852C31.55 30.9011 32.5334 30.6994 33.1009 30.1348L34.895 28.347V28.3503Z" fill="white"/>
<path id="Vector_116" d="M34.895 28.3503C35.4625 27.7857 35.5154 26.8179 35.0113 26.1995L34.1583 25.1544C33.6543 24.536 32.9141 24.5898 32.5158 25.2754L30.4855 28.7637C30.0872 29.4493 30.2811 30.2693 30.9156 30.5852C31.55 30.9011 32.5334 30.6994 33.1009 30.1348L34.895 28.347V28.3503Z" stroke="black" stroke-width="1.24" stroke-miterlimit="10"/>
</g>
</g>
</g>
</g>
</g>
</g>
</g>
</g>
</g>
</g>
<defs>
<filter id="filter0_d_4548_77037" x="9.14417" y="6.47565" width="8.84772" height="10.1766" filterUnits="userSpaceOnUse" color-interpolation-filters="sRGB">
<feFlood flood-opacity="0" result="BackgroundImageFix"/>
<feColorMatrix in="SourceAlpha" type="matrix" values="0 0 0 0 0 0 0 0 0 0 0 0 0 0 0 0 0 0 127 0" result="hardAlpha"/>
<feOffset/>
<feGaussianBlur stdDeviation="0.5"/>
<feColorMatrix type="matrix" values="0 0 0 0 0 0 0 0 0 0 0 0 0 0 0 0 0 0 0.75 0"/>
<feBlend mode="normal" in2="BackgroundImageFix" result="effect1_dropShadow_4548_77037"/>
<feBlend mode="normal" in="SourceGraphic" in2="effect1_dropShadow_4548_77037" result="shape"/>
</filter>
<linearGradient id="paint0_linear_4548_77037" x1="15.9177" y1="37.256" x2="15.9177" y2="-5.2594" gradientUnits="userSpaceOnUse">
<stop offset="0.2" stop-color="#00FFFF"/>
<stop offset="0.7" stop-color="#FFFF00"/>
</linearGradient>
<linearGradient id="paint1_linear_4548_77037" x1="13.0415" y1="21.9013" x2="13.0415" y2="1.39801" gradientUnits="userSpaceOnUse">
<stop stop-color="#00FFFF"/>
<stop offset="1" stop-color="#6C00AA"/>
</linearGradient>
<linearGradient id="paint2_linear_4548_77037" x1="13.0416" y1="1.89875" x2="13.0416" y2="21.4005" gradientUnits="userSpaceOnUse">
<stop stop-color="#00FFFF"/>
<stop offset="1" stop-color="#6C00AA"/>
</linearGradient>
<linearGradient id="paint3_linear_4548_77037" x1="12.7842" y1="18.0769" x2="12.7842" y2="4.71497" gradientUnits="userSpaceOnUse">
<stop stop-color="#FF8DA4"/>
<stop offset="1" stop-color="#AA0047"/>
</linearGradient>
<linearGradient id="paint4_linear_4548_77037" x1="12.7842" y1="3.9588" x2="12.7842" y2="18.833" gradientUnits="userSpaceOnUse">
<stop stop-color="#00FFFF"/>
<stop offset="1" stop-color="#6C00AA"/>
</linearGradient>
<linearGradient id="paint5_linear_4548_77037" x1="12.7842" y1="17.9592" x2="12.7842" y2="4.59735" gradientUnits="userSpaceOnUse">
<stop stop-color="#00FFFF"/>
<stop offset="1" stop-color="#6C00AA"/>
</linearGradient>
<clipPath id="clip0_4548_77037">
<rect width="120" height="32" fill="white"/>
</clipPath>
</defs>
</svg>
