<svg width="58" height="25" viewBox="0 0 58 25" fill="none" xmlns="http://www.w3.org/2000/svg">
<g id="Frame" clip-path="url(#clip0_549_244)">
<path id="Vector" d="M12.154 0.443498C13.6925 0.442111 15.2163 0.744955 16.6382 1.33474C18.0601 1.92452 19.3523 2.78967 20.4408 3.88077C21.5294 4.97186 22.3931 6.26752 22.9825 7.69369C23.5719 9.11987 23.8755 10.6486 23.876 12.1926C23.876 15.309 22.6426 18.2977 20.447 20.5017C18.2515 22.7056 15.2735 23.9443 12.168 23.9452C10.6302 23.9452 9.10749 23.6412 7.68679 23.0505C6.26608 22.4598 4.97524 21.5941 3.88801 20.5027C2.80078 19.4113 1.93844 18.1157 1.35027 16.6898C0.762091 15.264 0.459597 13.7358 0.460058 12.1926C0.460058 9.07652 1.69358 6.0881 3.88925 3.88472C6.08492 1.68134 9.06288 0.443498 12.168 0.443498H12.154ZM12.168 2.69807e-07C10.5713 -0.00509991 8.98944 0.308075 7.51428 0.921359C6.03912 1.53464 4.70003 2.43582 3.5747 3.57259C2.44296 4.70193 1.54558 6.04525 0.934501 7.52485C0.323421 9.00444 0.0107585 10.5909 0.0146008 12.1926C0.0102944 13.7948 0.322744 15.382 0.933837 16.8622C1.54493 18.3424 2.44254 19.6863 3.5747 20.8161C4.70003 21.9529 6.03912 22.854 7.51428 23.4673C8.98944 24.0806 10.5713 24.3938 12.168 24.3887C13.7647 24.393 15.3463 24.0795 16.8213 23.4662C18.2964 22.853 19.6356 21.9522 20.7614 20.8161C21.893 19.6862 22.7901 18.3422 23.4006 16.8619C24.0111 15.3817 24.3229 13.7946 24.3179 12.1926C24.3224 10.5912 24.0104 9.00475 23.3999 7.52514C22.7894 6.04553 21.8926 4.7021 20.7614 3.57259C19.6356 2.43645 18.2964 1.53569 16.8213 0.922454C15.3463 0.309215 13.7647 -0.00432127 12.168 2.69807e-07Z" fill="white"/>
<path id="Vector_2" d="M13.0723 11.2141H20.0522V10.2321C20.0522 9.57738 19.3507 9.62666 19.3507 9.62666H18.8702V8.02867H20.0558V7.1628C20.0561 7.0651 20.0362 6.96838 19.9973 6.87883C19.9583 6.78927 19.9013 6.70882 19.8297 6.64261C19.7581 6.57639 19.6736 6.52586 19.5814 6.49423C19.4893 6.46259 19.3916 6.45054 19.2946 6.45884H17.0253V5.75488H15.4574V6.45884H12.427V7.51478C12.427 7.51478 12.4059 8.03923 13.0969 8.03923H13.6125V9.62666H12.427V10.6368C12.428 10.7184 12.446 10.7989 12.4797 10.8732C12.5135 10.9475 12.5622 11.0138 12.6229 11.0681C12.6837 11.1224 12.755 11.1635 12.8324 11.1886C12.9097 11.2137 12.9914 11.2224 13.0723 11.2141ZM15.1768 8.04626H17.2813V9.6337H15.1768V8.04626Z" fill="white"/>
<path id="Vector_3" d="M18.4634 19.732V17.5567H20.0523V11.7455H12.4095V16.7542C12.4032 16.8577 12.4182 16.9613 12.4535 17.0587C12.4889 17.1561 12.5437 17.2452 12.6147 17.3204C12.6858 17.3957 12.7715 17.4555 12.8665 17.4961C12.9615 17.5368 13.0638 17.5574 13.1671 17.5567H13.9879V19.7355H12.4446C12.3838 20.3407 12.1087 20.9039 11.6694 21.3229H14.0545C14.2567 21.3343 14.4591 21.3025 14.6482 21.2296C14.8372 21.1566 15.0087 21.0442 15.1513 20.8998C15.2939 20.7554 15.4042 20.5823 15.4752 20.3919C15.5461 20.2015 15.5759 19.9982 15.5627 19.7953V17.5602H16.878V21.3229H18.3932C19.3648 21.3229 20.4977 19.7355 20.4977 19.7355L18.4634 19.732ZM16.2151 16.4832C15.7426 16.4833 15.2885 16.299 14.9489 15.9693H13.9983V13.3295H14.9559C15.2947 12.9985 15.7493 12.814 16.2221 12.8156C16.6949 12.814 17.1495 12.9985 17.4883 13.3295H18.4774V15.9693H17.4883C17.1458 16.2982 16.6891 16.48 16.2151 16.4762V16.4832Z" fill="white"/>
<path id="Vector_4" d="M16.1905 13.2731C16.0092 13.2731 15.8297 13.309 15.6622 13.3788C15.4947 13.4485 15.3426 13.5507 15.2146 13.6795C15.0865 13.8084 14.9851 13.9613 14.916 14.1295C14.847 14.2977 14.8116 14.478 14.8121 14.6599C14.8121 15.0271 14.9572 15.3793 15.2156 15.6393C15.474 15.8993 15.8246 16.0458 16.1905 16.0467C16.557 16.0467 16.9085 15.9006 17.1677 15.6406C17.4269 15.3805 17.5725 15.0277 17.5725 14.6599C17.573 14.4777 17.5375 14.2971 17.4682 14.1287C17.399 13.9602 17.2972 13.8072 17.1687 13.6783C17.0403 13.5494 16.8878 13.4473 16.7199 13.3778C16.5521 13.3082 16.3721 13.2727 16.1905 13.2731ZM16.1905 15.6068C15.9403 15.6068 15.7003 15.507 15.5234 15.3295C15.3464 15.1519 15.247 14.9111 15.247 14.6599C15.247 14.4088 15.3464 14.168 15.5234 13.9904C15.7003 13.8129 15.9403 13.7131 16.1905 13.7131C16.3147 13.7126 16.4378 13.7368 16.5527 13.7842C16.6675 13.8316 16.772 13.9012 16.86 13.9892C16.9479 14.0771 17.0177 14.1817 17.0654 14.2968C17.113 14.4119 17.1376 14.5353 17.1376 14.6599C17.1376 14.7846 17.113 14.908 17.0654 15.0231C17.0177 15.1382 16.9479 15.2427 16.86 15.3307C16.772 15.4187 16.6675 15.4883 16.5527 15.5357C16.4378 15.5831 16.3147 15.6072 16.1905 15.6068Z" fill="white"/>
<path id="Vector_5" d="M11.715 20.3796C11.8219 20.1778 11.892 19.9585 11.9219 19.732H9.68768V14.3854H11.8834V13.4245C11.8941 13.3381 11.8848 13.2503 11.8561 13.1682C11.8273 13.086 11.78 13.0117 11.7178 12.9509C11.6556 12.8902 11.5802 12.8448 11.4976 12.8183C11.4149 12.7917 11.3272 12.7848 11.2415 12.798H9.68768V11.214H11.9219V9.56326C11.902 9.1913 11.756 8.83736 11.508 8.56013L9.35444 6.39897C9.24462 6.28892 9.09579 6.22711 8.94058 6.22711C8.78538 6.22711 8.63651 6.28892 8.52668 6.39897L6.36606 8.56716C6.11815 8.84301 5.97208 9.19586 5.9522 9.56678V10.6227C5.9522 10.943 5.9522 11.2105 5.9522 11.214C5.9522 11.2176 6.14159 11.031 6.36957 10.8022L8.52317 8.64108C8.633 8.53103 8.78187 8.46922 8.93707 8.46922C9.09228 8.46922 9.24111 8.53103 9.35093 8.64108L10.3366 9.63014H8.58282C8.41847 9.63534 8.25683 9.67353 8.10743 9.74244C7.95803 9.81136 7.82391 9.90961 7.71297 10.0314L6.35206 11.3971H8.1058V12.805H5.91012V13.7976C5.90126 13.8797 5.91123 13.9628 5.93927 14.0405C5.96732 14.1182 6.01269 14.1884 6.07192 14.2458C6.13114 14.3032 6.20265 14.3462 6.28099 14.3717C6.35933 14.3971 6.44243 14.4042 6.52393 14.3924H8.1058V19.739H5.91012C5.91012 19.739 6.41518 21.3264 7.34466 21.3264H10.4067C10.4928 21.3262 10.5786 21.3167 10.6627 21.2983C11.0434 21.1602 11.3712 20.9053 11.5992 20.5697L11.6203 20.538L11.6834 20.4394C11.6957 20.4205 11.7062 20.4004 11.715 20.3796Z" fill="white"/>
<path id="Vector_6" d="M10.7434 17.5603C11.3265 17.5603 11.7992 17.0859 11.7992 16.5008C11.7992 15.9157 11.3265 15.4413 10.7434 15.4413C10.1603 15.4413 9.68767 15.9157 9.68767 16.5008C9.68767 17.0859 10.1603 17.5603 10.7434 17.5603Z" fill="white"/>
<path id="Vector_7" d="M7.0781 18.0214C7.32554 17.7439 7.47152 17.3901 7.492 17.0183V14.9064L7.07459 15.3217L6.32749 16.0749C6.07957 16.3522 5.93356 16.7061 5.91364 17.0781V19.19L6.331 18.7746L7.0781 18.0214Z" fill="white"/>
<path id="Vector_8" d="M32.6967 11.9005H34.3628V15.9975H32.6967V11.9005Z" fill="white"/>
<path id="Vector_9" d="M35.4256 11.9005H38.2316C39.6345 11.9005 40.1361 12.4038 40.1361 12.9564C40.1361 13.509 39.7222 13.8469 38.9471 13.956C39.9993 14.0405 40.0694 14.4277 40.087 14.9768C40.1186 15.7863 40.1677 15.8673 40.4062 15.9236V15.9764H38.6068C38.4771 15.8391 38.428 15.6068 38.428 15.1422C38.428 14.4382 38.2596 14.2834 37.7265 14.2834H37.0916V15.9764H35.4221L35.4256 11.9005ZM37.0951 13.6252H37.6107C38.2842 13.6252 38.463 13.333 38.463 13.0937C38.463 12.7839 38.2631 12.5763 37.6002 12.5763H37.0951V13.6252Z" fill="white"/>
<path id="Vector_10" d="M41.1217 11.9005H43.9277C45.3307 11.9005 45.8357 12.4038 45.8357 12.9564C45.8357 13.509 45.4184 13.8469 44.6432 13.956C45.6954 14.0405 45.7656 14.4277 45.7831 14.9768C45.8147 15.7863 45.8638 15.8673 46.1023 15.9236V15.9764H44.3065C44.1767 15.8391 44.1276 15.6068 44.1276 15.1422C44.1276 14.4382 43.9593 14.2834 43.4261 14.2834H42.7913V15.9764H41.1217V11.9005ZM42.7913 13.6252H43.3069C43.9803 13.6252 44.1592 13.333 44.1592 13.0937C44.1592 12.7839 43.9628 12.5763 43.2963 12.5763H42.7913V13.6252Z" fill="white"/>
<path id="Vector_11" d="M49.1503 16.0749C46.9582 16.0749 46.66 15.2513 46.66 13.963C46.66 12.6748 46.9582 11.8336 49.1503 11.8336C51.5144 11.8336 51.6442 12.8261 51.6442 13.963C51.6442 15.0999 51.5144 16.0749 49.1503 16.0749ZM49.1503 15.4343C49.8238 15.4343 49.922 15.0823 49.922 13.949C49.922 12.8156 49.8238 12.4636 49.1503 12.4636C48.4769 12.4636 48.3962 12.8156 48.3962 13.949C48.3962 15.0823 48.4874 15.4202 49.1293 15.4202L49.1503 15.4343Z" fill="white"/>
<path id="Vector_12" d="M52.5175 11.9005H55.3235C56.7265 11.9005 57.2315 12.4038 57.2315 12.9564C57.2315 13.509 56.8141 13.8469 56.039 13.956C57.0912 14.0405 57.1614 14.4277 57.1824 14.9768C57.2105 15.7863 57.2596 15.8673 57.4981 15.9236V15.9764H55.7023C55.5725 15.8391 55.5234 15.6068 55.5234 15.1422C55.5234 14.4382 55.355 14.2834 54.8219 14.2834H54.1871V15.9764H52.521L52.5175 11.9005ZM54.1836 13.6252H54.6992C55.3726 13.6252 55.5515 13.333 55.5515 13.0937C55.5515 12.7839 55.355 12.5763 54.6886 12.5763H54.1836V13.6252Z" fill="white"/>
<path id="Vector_13" d="M26.5867 16.6557L26.1764 13.9912H26.1553V16.6557H24.6681V11.9005H27.1234L27.7898 16.6628L26.5867 16.6557ZM29.7084 16.6557V13.9912H29.6908L29.3015 16.6557H28.2001L28.8455 11.8934H31.2587V16.6557H29.7084Z" fill="white"/>
<path id="Vector_14" d="M32.6091 17.2928H36.7058V18.0742H34.2751V18.8943H36.5585V19.6722H34.2751V20.6084H36.8145V21.4039H32.6055L32.6091 17.2928Z" fill="white"/>
<path id="Vector_15" d="M37.5546 17.2928H40.0098C41.6583 17.2928 42.3598 17.7856 42.3598 19.2076C42.3598 20.6929 42.0337 21.3898 39.8415 21.3898H37.5546V17.2928ZM39.2242 20.6788H39.6696C40.4448 20.6788 40.7219 20.4993 40.7219 19.2709C40.7219 18.2748 40.5851 18.0038 39.7012 18.0038H39.2347L39.2242 20.6788Z" fill="white"/>
<path id="Vector_16" d="M43.2963 17.2928H44.9624V21.4039H43.2963V17.2928Z" fill="white"/>
<path id="Vector_17" d="M47.337 17.2928H49.4204L51.1741 21.3898H49.4485L49.1924 20.6084H47.4948L47.2458 21.3898H45.5201L47.337 17.2928ZM48.3471 18.039L47.7614 19.8622H48.9715L48.3471 18.039Z" fill="white"/>
<path id="Vector_18" d="M24.6681 16.6557H26.1553V21.4039H24.6681V16.6557ZM27.3163 21.3863L26.5867 16.6557H27.7757L27.9827 18.127H28.0037L28.2036 16.6557H29.3015L28.6 21.3863H27.3163ZM29.7084 16.6557H31.2587V21.4039H29.7084V16.6557Z" fill="white"/>
</g>
<defs>
<clipPath id="clip0_549_244">
<rect width="57.4876" height="24.3887" fill="white"/>
</clipPath>
</defs>
</svg>
