<svg width="52" height="16" viewBox="0 0 52 16" fill="none" xmlns="http://www.w3.org/2000/svg">
<g id="Mnews_Logo_mobile 1" clip-path="url(#clip0_3946_1812)">
<path id="Vector" d="M20.8208 4.35425H17.0212V11.6458H18.623V5.89611C18.623 5.89611 19.2732 5.87026 20.2768 5.87026C21.3388 5.87026 21.8634 6.57874 21.8634 7.649V11.6458H23.4651V7.24631C23.4695 5.5494 22.557 4.37148 20.8208 4.35425Z" fill="url(#paint0_radial_3946_1812)"/>
<path id="Vector_2" d="M27.6679 4.28961C27.185 4.27674 26.7049 4.36609 26.2594 4.55173C25.814 4.73737 25.4134 5.01505 25.0843 5.36632C24.7479 5.71572 24.4841 6.12763 24.3082 6.57845C24.1323 7.02926 24.0476 7.51013 24.059 7.99351C24.0482 8.48671 24.1388 8.97693 24.3251 9.4342C24.5114 9.89147 24.7897 10.3062 25.1428 10.653C25.4963 11 25.9169 11.2724 26.3791 11.4537C26.8414 11.6351 27.3358 11.7216 27.8326 11.7082C28.4533 11.7259 29.0671 11.5748 29.6076 11.2712C30.1482 10.9676 30.5949 10.523 30.8996 9.98544L29.7422 9.22312C29.352 9.95744 28.7061 10.3321 27.8044 10.3321C27.2728 10.339 26.7567 10.1538 26.3522 9.81101C26.1523 9.64869 25.9904 9.44488 25.8781 9.21387C25.7658 8.98287 25.7057 8.73025 25.702 8.47373H31.151C31.1692 8.30925 31.1778 8.14389 31.177 7.97844C31.177 6.86942 30.8671 5.98651 30.2494 5.30603C29.6316 4.62554 28.7581 4.28961 27.6679 4.28961ZM25.7713 7.27211C25.8283 6.81645 26.0542 6.39826 26.4049 6.09921C26.7556 5.80016 27.2059 5.64174 27.6679 5.65488C28.6909 5.65488 29.4842 6.27077 29.5384 7.27211H25.7713Z" fill="url(#paint1_radial_3946_1812)"/>
<path id="Vector_3" d="M40.4365 4.35425L38.9279 9.49018H38.9019L37.2611 4.35425H35.6464L34.0186 9.47726H34.0056L32.497 4.35425H30.8172L33.1169 11.6393H34.7577L36.4267 6.56367H36.4527L38.1086 11.6393H39.7754L42.0773 4.35425H40.4365Z" fill="url(#paint2_radial_3946_1812)"/>
<path id="Vector_4" d="M44.9405 7.23122C44.0128 7.03095 43.6075 6.80053 43.6075 6.32247C43.6075 5.93485 44.119 5.62691 44.6175 5.62691C44.9389 5.61545 45.2561 5.7014 45.5271 5.87333C45.7981 6.04526 46.0101 6.29505 46.1348 6.5895L47.3724 5.89394C46.8739 4.81722 45.9722 4.28963 44.6826 4.28963C44.0191 4.27641 43.3719 4.4943 42.8532 4.90551C42.6062 5.08755 42.4066 5.32556 42.2708 5.59974C42.1351 5.87392 42.0673 6.17633 42.0729 6.48182C42.0672 6.96233 42.2508 7.42602 42.5845 7.77388C42.9746 8.18734 43.5793 8.46944 44.3748 8.63526C45.3567 8.83553 45.8552 9.15639 45.8552 9.56985C45.8552 10.0501 45.3306 10.358 44.7259 10.358C43.9586 10.358 43.3929 9.97038 43.0028 9.20807L41.7391 9.90578C42.2897 11.0945 43.2867 11.6974 44.7129 11.6974C45.4206 11.732 46.1172 11.5135 46.6767 11.0816C46.918 10.8893 47.1116 10.6443 47.2424 10.3658C47.3732 10.0872 47.4377 9.78242 47.4309 9.47509C47.4309 8.36823 46.5683 7.593 44.9405 7.23122Z" fill="url(#paint3_radial_3946_1812)"/>
<path id="Vector_5" d="M12.9919 4.34778C11.9298 4.34778 11.2297 4.72248 10.4884 5.52355C10.055 4.7354 9.305 4.34778 8.26895 4.34778H4.57123V11.6458H6.173V7.67698C6.173 6.60027 6.77772 5.85949 7.74659 5.85949C8.80865 5.85949 9.29417 6.56797 9.29417 7.63822V11.6458H10.8808V7.66191C10.8808 6.58519 11.4855 5.85733 12.4674 5.85733C13.5294 5.85733 14.0019 6.53997 14.0019 7.62099V11.6458H15.6059V7.23553C15.6059 5.52355 14.7389 4.34778 12.9919 4.34778Z" fill="#003366"/>
<path id="Vector_6" d="M1.19645 6.19112V1.18654H24.1804V0H0V6.19112H1.19645Z" fill="#003366"/>
<path id="Vector_7" d="M1.19645 9.8089V14.8113H24.1804V16H0V9.8089H1.19645Z" fill="#003366"/>
<path id="Vector_8" d="M50.8036 6.19112V1.18654H27.8196V0H52V6.19112H50.8036Z" fill="#003366"/>
<path id="Vector_9" d="M50.8036 9.8089V14.8113H27.8196V16H52V9.8089H50.8036Z" fill="#003366"/>
</g>
<defs>
<radialGradient id="paint0_radial_3946_1812" cx="0" cy="0" r="1" gradientUnits="userSpaceOnUse" gradientTransform="translate(9.61591 3.07677) rotate(14.3626) scale(27.2632 27.4379)">
<stop stop-color="#1EB5EA"/>
<stop offset="1" stop-color="#121E7C"/>
</radialGradient>
<radialGradient id="paint1_radial_3946_1812" cx="0" cy="0" r="1" gradientUnits="userSpaceOnUse" gradientTransform="translate(9.61606 3.01131) rotate(14.3627) scale(27.261 27.4357)">
<stop stop-color="#1EB5EA"/>
<stop offset="1" stop-color="#121E7C"/>
</radialGradient>
<radialGradient id="paint2_radial_3946_1812" cx="0" cy="0" r="1" gradientUnits="userSpaceOnUse" gradientTransform="translate(9.61557 2.89734) rotate(14.3626) scale(27.2979 27.4728)">
<stop stop-color="#1EB5EA"/>
<stop offset="1" stop-color="#121E7C"/>
</radialGradient>
<radialGradient id="paint3_radial_3946_1812" cx="0" cy="0" r="1" gradientUnits="userSpaceOnUse" gradientTransform="translate(9.76334 3.01133) rotate(14.3627) scale(27.261 27.4357)">
<stop stop-color="#1EB5EA"/>
<stop offset="1" stop-color="#121E7C"/>
</radialGradient>
<clipPath id="clip0_3946_1812">
<rect width="52" height="16" fill="white"/>
</clipPath>
</defs>
</svg>
