<svg width="58" height="25" viewBox="0 0 58 25" fill="none" xmlns="http://www.w3.org/2000/svg">
<g clip-path="url(#clip0_5090_56)">
<path d="M12.154 0.443559C13.6925 0.442172 15.2163 0.745016 16.6382 1.3348C18.0601 1.92458 19.3522 2.78973 20.4408 3.88083C21.5294 4.97193 22.3931 6.26758 22.9825 7.69375C23.5719 9.11993 23.8755 10.6487 23.876 12.1926C23.876 15.309 22.6426 18.2978 20.447 20.5017C18.2514 22.7057 15.2735 23.9443 12.168 23.9452C10.6302 23.9452 9.10746 23.6412 7.68676 23.0506C6.26605 22.4599 4.97521 21.5942 3.88798 20.5028C2.80075 19.4114 1.93841 18.1158 1.35023 16.6899C0.76206 15.264 0.459566 13.7358 0.460027 12.1926C0.460027 9.07659 1.69355 6.08816 3.88922 3.88478C6.08489 1.6814 9.06285 0.443559 12.168 0.443559H12.154ZM12.168 6.1305e-05C10.5713 -0.00503887 8.98941 0.308136 7.51425 0.92142C6.03909 1.5347 4.7 2.43588 3.57467 3.57265C2.44293 4.70199 1.54555 6.04531 0.93447 7.52491C0.32339 9.0045 0.010728 10.591 0.0145703 12.1926C0.0102639 13.7949 0.322713 15.382 0.933807 16.8623C1.5449 18.3425 2.44251 19.6864 3.57467 20.8161C4.7 21.9529 6.03909 22.8541 7.51425 23.4674C8.98941 24.0807 10.5713 24.3938 12.168 24.3887C13.7646 24.3931 15.3462 24.0795 16.8213 23.4663C18.2963 22.8531 19.6355 21.9523 20.7613 20.8161C21.893 19.6862 22.7901 18.3422 23.4006 16.862C24.0111 15.3817 24.3229 13.7946 24.3179 12.1926C24.3224 10.5912 24.0104 9.00481 23.3999 7.5252C22.7894 6.04559 21.8926 4.70216 20.7613 3.57265C19.6355 2.43651 18.2963 1.53575 16.8213 0.922515C15.3462 0.309276 13.7646 -0.00426024 12.168 6.1305e-05Z" fill="white"/>
<path d="M13.0723 11.2141H20.0522V10.2321C20.0522 9.57738 19.3507 9.62666 19.3507 9.62666H18.8702V8.02867H20.0557V7.1628C20.0561 7.0651 20.0362 6.96838 19.9972 6.87883C19.9583 6.78927 19.9012 6.70882 19.8297 6.64261C19.7581 6.57639 19.6735 6.52586 19.5814 6.49423C19.4893 6.46259 19.3916 6.45054 19.2946 6.45884H17.0253V5.75488H15.4574V6.45884H12.4269V7.51478C12.4269 7.51478 12.4059 8.03923 13.0969 8.03923H13.6125V9.62666H12.4269V10.6368C12.428 10.7184 12.446 10.7989 12.4797 10.8732C12.5134 10.9475 12.5622 11.0138 12.6229 11.0681C12.6836 11.1224 12.755 11.1635 12.8323 11.1886C12.9097 11.2137 12.9914 11.2224 13.0723 11.2141ZM15.1768 8.04626H17.2813V9.6337H15.1768V8.04626Z" fill="white"/>
<path d="M18.4633 19.732V17.5568H20.0522V11.7456H12.4094V16.7543C12.4032 16.8577 12.4182 16.9614 12.4535 17.0588C12.4888 17.1562 12.5437 17.2453 12.6147 17.3205C12.6857 17.3957 12.7714 17.4555 12.8664 17.4962C12.9614 17.5368 13.0637 17.5575 13.167 17.5568H13.9878V19.7356H12.4445C12.3837 20.3407 12.1087 20.904 11.6693 21.323H14.0544C14.2567 21.3344 14.459 21.3026 14.6481 21.2296C14.8372 21.1567 15.0087 21.0443 15.1512 20.8999C15.2938 20.7555 15.4042 20.5824 15.4751 20.392C15.546 20.2016 15.5759 19.9982 15.5626 19.7954V17.5603H16.878V21.323H18.3932C19.3647 21.323 20.4977 19.7356 20.4977 19.7356L18.4633 19.732ZM16.215 16.4833C15.7425 16.4834 15.2884 16.2991 14.9488 15.9694H13.9983V13.3295H14.9558C15.2946 12.9985 15.7492 12.814 16.2221 12.8156C16.6949 12.814 17.1495 12.9985 17.4883 13.3295H18.4773V15.9694H17.4883C17.1458 16.2982 16.689 16.4801 16.215 16.4762V16.4833Z" fill="white"/>
<path d="M16.1906 13.273C16.0092 13.273 15.8297 13.3088 15.6622 13.3786C15.4948 13.4483 15.3427 13.5505 15.2146 13.6794C15.0866 13.8082 14.9851 13.9611 14.9161 14.1293C14.847 14.2975 14.8117 14.4778 14.8121 14.6598C14.8121 15.0269 14.9572 15.3792 15.2156 15.6391C15.474 15.8991 15.8246 16.0456 16.1906 16.0466C16.5571 16.0466 16.9086 15.9005 17.1677 15.6404C17.4269 15.3803 17.5725 15.0276 17.5725 14.6598C17.573 14.4775 17.5376 14.297 17.4683 14.1285C17.399 13.96 17.2972 13.807 17.1688 13.6781C17.0404 13.5492 16.8878 13.4471 16.72 13.3776C16.5521 13.308 16.3722 13.2725 16.1906 13.273ZM16.1906 15.6066C15.9403 15.6066 15.7003 15.5068 15.5234 15.3293C15.3465 15.1517 15.2471 14.9109 15.2471 14.6598C15.2471 14.4086 15.3465 14.1678 15.5234 13.9903C15.7003 13.8127 15.9403 13.7129 16.1906 13.7129C16.3148 13.7125 16.4378 13.7366 16.5527 13.784C16.6676 13.8314 16.772 13.901 16.86 13.989C16.948 14.077 17.0178 14.1815 17.0654 14.2966C17.113 14.4117 17.1376 14.5351 17.1376 14.6598C17.1376 14.7844 17.113 14.9078 17.0654 15.0229C17.0178 15.138 16.948 15.2425 16.86 15.3305C16.772 15.4185 16.6676 15.4882 16.5527 15.5355C16.4378 15.5829 16.3148 15.607 16.1906 15.6066Z" fill="white"/>
<path d="M11.715 20.3795C11.8219 20.1778 11.892 19.9584 11.9219 19.7319H9.68768V14.3853H11.8834V13.4244C11.8941 13.338 11.8848 13.2503 11.8561 13.1681C11.8273 13.0859 11.78 13.0116 11.7178 12.9509C11.6556 12.8902 11.5802 12.8447 11.4976 12.8182C11.4149 12.7917 11.3272 12.7847 11.2415 12.7979H9.68768V11.214H11.9219V9.5632C11.902 9.19124 11.756 8.8373 11.508 8.56007L9.35444 6.39891C9.24462 6.28886 9.09579 6.22705 8.94058 6.22705C8.78538 6.22705 8.63651 6.28886 8.52668 6.39891L6.36606 8.5671C6.11815 8.84295 5.97208 9.1958 5.9522 9.56672V10.6227C5.9522 10.943 5.9522 11.2105 5.9522 11.214C5.9522 11.2175 6.14159 11.031 6.36957 10.8022L8.52317 8.64102C8.633 8.53097 8.78187 8.46916 8.93707 8.46916C9.09228 8.46916 9.24111 8.53097 9.35093 8.64102L10.3366 9.63008H8.58282C8.41847 9.63528 8.25683 9.67346 8.10743 9.74238C7.95803 9.8113 7.82391 9.90955 7.71297 10.0313L6.35206 11.397H8.1058V12.8049H5.91012V13.7975C5.90126 13.8797 5.91123 13.9628 5.93927 14.0404C5.96732 14.1181 6.01269 14.1883 6.07192 14.2457C6.13114 14.3031 6.20265 14.3462 6.28099 14.3716C6.35933 14.397 6.44243 14.4041 6.52393 14.3924H8.1058V19.7389H5.91012C5.91012 19.7389 6.41518 21.3264 7.34466 21.3264H10.4067C10.4928 21.3261 10.5786 21.3167 10.6627 21.2982C11.0434 21.1602 11.3712 20.9052 11.5992 20.5696L11.6203 20.5379L11.6834 20.4394C11.6957 20.4204 11.7062 20.4004 11.715 20.3795Z" fill="white"/>
<path d="M10.7434 17.5603C11.3264 17.5603 11.7991 17.086 11.7991 16.5009C11.7991 15.9157 11.3264 15.4414 10.7434 15.4414C10.1603 15.4414 9.68762 15.9157 9.68762 16.5009C9.68762 17.086 10.1603 17.5603 10.7434 17.5603Z" fill="white"/>
<path d="M7.07804 18.0213C7.32548 17.7437 7.47146 17.39 7.49194 17.0181V14.9062L7.07453 15.3216L6.32743 16.0748C6.07951 16.352 5.9335 16.706 5.91357 17.078V19.1898L6.33094 18.7745L7.07804 18.0213Z" fill="white"/>
<path d="M32.6968 11.9004H34.3628V15.9974H32.6968V11.9004Z" fill="white"/>
<path d="M35.4256 11.9004H38.2316C39.6346 11.9004 40.1362 12.4037 40.1362 12.9563C40.1362 13.5089 39.7223 13.8468 38.9471 13.956C39.9994 14.0404 40.0695 14.4276 40.087 14.9767C40.1186 15.7862 40.1677 15.8672 40.4062 15.9235V15.9763H38.6069C38.4771 15.839 38.428 15.6067 38.428 15.1421C38.428 14.4382 38.2597 14.2833 37.7265 14.2833H37.0917V15.9763H35.4221L35.4256 11.9004ZM37.0952 13.6251H37.6108C38.2842 13.6251 38.4631 13.333 38.4631 13.0936C38.4631 12.7839 38.2632 12.5762 37.6003 12.5762H37.0952V13.6251Z" fill="white"/>
<path d="M41.1217 11.9004H43.9277C45.3307 11.9004 45.8357 12.4037 45.8357 12.9563C45.8357 13.5089 45.4183 13.8468 44.6432 13.956C45.6954 14.0404 45.7656 14.4276 45.7831 14.9767C45.8147 15.7862 45.8638 15.8672 46.1023 15.9235V15.9763H44.3065C44.1767 15.839 44.1276 15.6067 44.1276 15.1421C44.1276 14.4382 43.9592 14.2833 43.4261 14.2833H42.7913V15.9763H41.1217V11.9004ZM42.7913 13.6251H43.3069C43.9803 13.6251 44.1591 13.333 44.1591 13.0936C44.1591 12.7839 43.9627 12.5762 43.2963 12.5762H42.7913V13.6251Z" fill="white"/>
<path d="M49.1504 16.0748C46.9582 16.0748 46.66 15.2512 46.66 13.963C46.66 12.6747 46.9582 11.8335 49.1504 11.8335C51.5144 11.8335 51.6442 12.8261 51.6442 13.963C51.6442 15.0999 51.5144 16.0748 49.1504 16.0748ZM49.1504 15.4343C49.8238 15.4343 49.922 15.0823 49.922 13.9489C49.922 12.8155 49.8238 12.4635 49.1504 12.4635C48.4769 12.4635 48.3963 12.8155 48.3963 13.9489C48.3963 15.0823 48.4874 15.4202 49.1293 15.4202L49.1504 15.4343Z" fill="white"/>
<path d="M52.5176 11.9004H55.3236C56.7266 11.9004 57.2316 12.4037 57.2316 12.9563C57.2316 13.5089 56.8142 13.8468 56.0391 13.956C57.0913 14.0404 57.1615 14.4276 57.1825 14.9767C57.2106 15.7862 57.2597 15.8672 57.4982 15.9235V15.9763H55.7024C55.5726 15.839 55.5235 15.6067 55.5235 15.1421C55.5235 14.4382 55.3551 14.2833 54.822 14.2833H54.1871V15.9763H52.5211L52.5176 11.9004ZM54.1836 13.6251H54.6992C55.3727 13.6251 55.5516 13.333 55.5516 13.0936C55.5516 12.7839 55.3551 12.5762 54.6887 12.5762H54.1836V13.6251Z" fill="white"/>
<path d="M26.5867 16.6558L26.1763 13.9914H26.1553V16.6558H24.6681V11.9006H27.1233L27.7898 16.6629L26.5867 16.6558ZM29.7083 16.6558V13.9914H29.6908L29.3015 16.6558H28.2001L28.8455 11.8936H31.2587V16.6558H29.7083Z" fill="white"/>
<path d="M32.6091 17.293H36.7058V18.0744H34.2752V18.8945H36.5585V19.6723H34.2752V20.6086H36.8146V21.4041H32.6056L32.6091 17.293Z" fill="white"/>
<path d="M37.5546 17.293H40.0098C41.6583 17.293 42.3598 17.7857 42.3598 19.2077C42.3598 20.6931 42.0336 21.39 39.8414 21.39H37.5546V17.293ZM39.2241 20.679H39.6696C40.4447 20.679 40.7218 20.4995 40.7218 19.2711C40.7218 18.275 40.585 18.004 39.7011 18.004H39.2347L39.2241 20.679Z" fill="white"/>
<path d="M43.2964 17.293H44.9624V21.4041H43.2964V17.293Z" fill="white"/>
<path d="M47.3369 17.293H49.4203L51.1741 21.39H49.4484L49.1924 20.6086H47.4947L47.2457 21.39H45.52L47.3369 17.293ZM48.3471 18.0392L47.7613 19.8624H48.9714L48.3471 18.0392Z" fill="white"/>
<path d="M24.6681 16.6558H26.1553V21.404H24.6681V16.6558ZM27.3163 21.3864L26.5867 16.6558H27.7757L27.9826 18.127H28.0037L28.2036 16.6558H29.3015L28.6 21.3864H27.3163ZM29.7083 16.6558H31.2587V21.404H29.7083V16.6558Z" fill="white"/>
</g>
<defs>
<clipPath id="clip0_5090_56">
<rect width="57.4876" height="24.3887" fill="white"/>
</clipPath>
</defs>
</svg>
