<svg width="208" height="60" viewBox="0 0 208 60" fill="none" xmlns="http://www.w3.org/2000/svg">
<g id="&#232;&#179;&#135;&#231;&#148;&#162; 1 3" clip-path="url(#clip0_4551_115311)">
<g id="Group">
<g id="&#229;&#156;&#150;&#229;&#177;&#164; 2">
<g id="&#229;&#156;&#150;&#229;&#177;&#164; 1">
<g id="Group_2">
<g id="Group_3">
<path id="Vector" d="M87.8982 42.6212C88.0754 42.6212 88.222 42.5897 88.3381 42.5204C88.4542 42.4511 88.5764 42.2495 88.6314 41.8084C88.6864 41.3673 88.7169 40.4221 88.7169 39.1745C89.334 39.7857 90.6047 40.5292 91.4601 40.8632C91.3746 42.1487 91.2524 43.4971 91.0446 44.0768C90.8064 44.7195 90.397 45.0913 89.8655 45.3938C89.4256 45.6332 88.6863 45.6962 88.1854 45.6962H86.4136C85.7049 45.6962 84.819 45.4568 84.2875 44.8834C83.7559 44.31 83.5177 43.5979 83.5177 41.5374V36.9754H81.807C81.4221 41.5374 80.1269 44.31 74.7871 45.9672C74.5244 45.1228 73.8157 43.8689 73.1681 43.1253C70.1011 43.8689 67.0341 44.5431 64.5536 45.1165L63.8754 41.4681C65.1157 41.2665 66.6186 41.027 68.2377 40.6931V31.8714H64.2542V28.494H68.2377V26.0239H65.6411V24.8771C65.2562 25.3182 64.8468 25.7214 64.4619 26.0932C64.2542 25.1795 63.6066 22.9174 63.1362 21.9344C65.3784 20.1071 67.6511 17.1707 68.9769 14.0957L71.5735 15.4505C71.3963 15.8538 71.2191 16.2633 71.0419 16.6666C72.9603 17.9143 74.7871 19.4013 75.8807 20.6238L74.9093 22.4826H78.5078C78.3306 21.6698 78.0924 20.7561 77.7991 19.981L80.188 19.4391H75.4958V16.3957H81.1899C81.0127 15.8538 80.805 15.3119 80.5729 14.8771L83.6704 14.0327C84.0248 14.7069 84.4402 15.5891 84.7335 16.3957H90.4826V19.4391H85.6743L88.3564 19.981C87.9715 20.8947 87.5866 21.7391 87.2628 22.4826H90.9774V25.5891H74.726V22.8166L74.1945 23.7996L74.1089 23.6988V26.0302H71.2802V28.5003H74.9948V31.8777H71.2802V40.0882L75.2636 39.2438L75.4714 42.0163C77.6525 40.9703 78.2451 39.3824 78.5078 36.9817H76.2045V26.7737H89.8288V36.9817H86.7618V41.6446C86.7618 42.0856 86.7924 42.3566 86.8779 42.4574C86.9635 42.5582 87.0856 42.6276 87.2628 42.6276H87.8799L87.8982 42.6212ZM66.753 33.1568C67.254 35.0157 67.6695 37.4165 67.8161 38.9729L65.4578 39.7164C65.3967 38.097 64.9874 35.6584 64.5414 33.7996L66.753 33.1568ZM73.1803 22.6843C72.1478 21.6383 70.822 20.586 69.4962 19.6093C68.8792 20.6931 68.1704 21.7076 67.4617 22.6843H73.1864H73.1803ZM71.6162 38.3616C72.0317 36.8746 72.4716 34.4738 72.6488 32.8859L75.1842 33.5979C74.6527 35.4883 74.1823 37.6181 73.7668 39.0422L71.6162 38.3679V38.3616ZM79.1677 30.7246H86.7496V29.2375H79.1677V30.7246ZM79.1677 34.5116H86.7496V33.0245H79.1677V34.5116ZM80.6706 19.4391C81.0555 20.3528 81.4649 21.5689 81.6115 22.4826H84.2386C84.5929 21.5374 84.9778 20.3528 85.155 19.4391H80.6706Z" fill="#1B1464"/>
<path id="Vector_2" d="M101.645 22.9553H106.361V26.3327H103.471L105.243 26.8368C104.742 28.0214 104.211 29.1682 103.74 30.2521H105.775V33.6295H101.645V36.3327H106.361V39.7102H101.645V45.7278H98.4005V39.7102H93.2991V36.3327H98.4005V33.6295H94.0078V30.2521H96.1034C95.8956 29.2376 95.4557 27.9521 95.0708 26.9061L96.7204 26.3327H93.3296V22.9553H98.4005V20.6238H94.1239V17.3094H98.4005V14.4045H101.645V17.3094H105.683V20.6238H101.645V22.9553ZM100.814 30.2521C101.345 29.0044 101.877 27.5488 102.231 26.3327H97.7163C98.2173 27.4795 98.7183 28.8343 98.8649 29.748L97.5391 30.2521H100.814ZM120.047 28.0214C119.485 32.0101 118.452 35.6963 116.98 38.8343C118.159 40.3529 119.515 41.569 121.018 42.4512C120.279 43.1947 119.246 44.6503 118.715 45.627C117.389 44.7133 116.179 43.5287 115.086 42.1109C114.114 43.598 112.99 44.8456 111.725 45.9294C111.402 45.356 110.87 44.7133 110.339 44.1021V45.7908H107.156V15.7215H119.338V22.0731C119.338 23.7996 119.014 24.7763 117.866 25.3182C116.748 25.8601 115.153 25.8916 112.996 25.8916C112.85 24.8078 112.404 23.4216 111.994 22.4449C113.442 22.5142 115.061 22.5142 115.501 22.5142C115.941 22.4827 116.094 22.3819 116.094 22.0101V19.2376H110.345V27.3157H117.365L117.927 27.1456L120.053 28.0214H120.047ZM110.345 42.3882C111.408 41.4052 112.294 40.2584 113.088 38.9729C111.97 36.9124 111.084 34.5432 110.345 32.0101V42.3882ZM112.789 30.4915C113.32 32.2495 113.998 33.9698 114.823 35.5262C115.471 33.9698 115.972 32.2495 116.357 30.4915H112.789Z" fill="#1B1464"/>
<path id="Vector_3" d="M130.781 33.2577V45.3245H129.394V33.2577H123.26V31.7706H129.394V27.6811H123.144V26.2255H131.435C132.052 24.499 132.791 21.9659 133.207 20.2457L134.563 20.649C134.031 22.4385 133.384 24.6061 132.767 26.2255H136.866V27.6811H130.793V31.7706H136.665V33.2577H130.793H130.781ZM127.451 35.7971C126.743 38.2671 125.564 40.8317 124.354 42.5204C124.146 42.3188 123.615 41.8462 123.291 41.6761C124.531 40.0189 125.564 37.7189 126.211 35.4568L127.451 35.7971ZM136.414 19.8739H123.584V18.4184H129.865C129.449 17.3724 128.832 16.0869 128.331 15.1039L129.688 14.6628C130.335 15.8475 131.074 17.3345 131.459 18.4121H136.414V19.8676V19.8739ZM127.006 25.8601C126.859 24.4738 126.358 22.2432 125.735 20.6238L126.914 20.3213C127.561 21.9407 128.124 24.1083 128.27 25.4568L126.999 25.8601H127.006ZM133.616 35.356C134.618 37.1455 135.681 39.4454 136.152 40.964L135.058 41.6383C134.587 40.0819 133.524 37.6811 132.577 35.8916L133.61 35.3497L133.616 35.356ZM149.69 27.8197H146.153V45.2236H144.766V27.8197H139.927V29.477C139.927 34.2407 139.542 40.7309 136.714 45.1921C136.506 44.8519 135.974 44.3793 135.651 44.1776C138.333 39.9558 138.601 34.039 138.601 29.477V18.0529C141.937 17.4417 145.86 16.4965 147.949 15.5513L149.189 16.7674C146.77 17.7504 143.171 18.6263 139.927 19.1304V26.2948H149.69V27.8134V27.8197Z" fill="#1B1464"/>
<path id="Vector_4" d="M155.323 26.4335V45.4631H153.936V16.257H164.286V26.4335H155.317H155.323ZM155.323 17.5803V20.6553H162.93V17.5803H155.323ZM162.936 25.1165V21.9722H155.329V25.1165H162.936ZM170.836 40.6301V44.3478H169.51V40.6301H157.566V39.2753H160.81V29.981H158.36V28.6641H173.255V29.981H170.836V39.2753H173.841V40.6301H170.836ZM162.105 29.981V32.281H169.51V29.981H162.105ZM162.105 35.7592H169.51V33.4971H162.105V35.7592ZM169.51 39.2753V37.0132H162.105V39.2753H169.51ZM177.916 43.0938C177.916 44.2785 177.678 44.7826 176.976 45.085C176.297 45.356 175.027 45.3875 173.053 45.3875C172.992 44.9464 172.791 44.2722 172.583 43.7996C174.147 43.8311 175.564 43.8311 175.974 43.7996C176.389 43.7996 176.536 43.6294 176.536 43.1253V26.4272H167.304V16.2507H177.923V43.0875L177.916 43.0938ZM168.654 17.5803V20.6553H176.53V17.5803H168.654ZM176.53 25.1165V21.9722H168.654V25.1165H176.53Z" fill="#1B1464"/>
<path id="Vector_5" d="M184.698 36.3704C184.283 39.2753 183.727 42.4574 183.104 44.5494C182.841 44.417 182.279 44.1461 181.924 44.0075C182.633 41.8776 183.134 38.872 183.458 36.131L184.698 36.3704ZM190.569 27.4164C191.394 29.5147 192.28 32.3187 192.634 33.9759L191.425 34.48C191.339 33.9381 191.186 33.3332 191.009 32.6527C183.928 33.9003 183.104 34.1398 182.603 34.4422C182.541 34.0705 182.34 33.2576 182.163 32.8543C182.694 32.7535 183.372 31.8398 184.197 30.5922C184.698 29.918 185.792 28.1914 187.001 26.0616C183.403 26.5657 182.786 26.7359 182.462 26.9375C182.376 26.5657 182.169 25.8222 181.992 25.3811C182.462 25.2803 182.932 24.5052 183.556 23.4908C184.203 22.4448 186.329 18.4876 187.655 14.7699L188.926 15.4441C187.508 18.8594 185.798 22.407 184.063 25.0409L187.808 24.6376C188.602 23.1505 189.372 21.5311 190.05 19.9369L191.29 20.6804C189.256 24.9022 186.898 29.1303 184.478 32.3754L190.643 31.361C190.288 30.1448 189.873 28.8909 189.464 27.7756L190.582 27.4038L190.569 27.4164ZM187.649 36.0301C188.003 38.3301 188.388 41.3042 188.474 43.2639L187.295 43.5664C187.209 41.5752 186.879 38.5632 186.5 36.3011L187.649 36.0301ZM190.808 35.2866C191.486 37.3849 192.256 40.1196 192.604 41.8776L191.486 42.3187C191.162 40.4914 190.392 37.7567 189.745 35.6584L190.808 35.2866ZM208 43.2324C208 44.3477 207.762 44.8203 207.145 45.1228C206.528 45.3937 205.348 45.4252 203.607 45.3937C203.522 44.9904 203.344 44.3099 203.167 43.8373C204.554 43.9066 205.794 43.8688 206.173 43.8688C206.558 43.8373 206.674 43.6987 206.674 43.2576V17.9835H194.614V45.463H193.288V16.4649H208.006V43.2324H208ZM195.494 25.1165H201.774C202.306 23.4277 203.015 20.8947 203.338 19.1996L204.548 19.6407C204.047 21.3988 203.43 23.5286 202.868 25.1165H205.996V26.5342H195.494V25.1165ZM203.723 37.2463C204.255 37.2463 205.08 37.2463 205.55 37.1139C205.581 37.555 205.636 38.1284 205.697 38.4687C205.312 38.601 204.548 38.601 203.778 38.601H199.117C197.522 38.601 197.113 37.9268 197.113 36.0301V31.9407H195.903V30.5229H200.534C200.271 29.5399 199.618 28.1221 199.086 27.0761L200.119 26.572C200.681 27.618 201.359 29.1051 201.652 29.9873L200.736 30.5292H205.452V31.947H198.371V36.0679C198.371 36.9816 198.487 37.2526 199.141 37.2526H203.711L203.723 37.2463ZM197.828 19.1303C198.652 20.6489 199.392 22.7787 199.654 24.165L198.591 24.6061C198.329 23.2198 197.62 21.09 196.819 19.5021L197.821 19.1303H197.828Z" fill="#1B1464"/>
</g>
<g id="Clip path group">
<mask id="mask0_4551_115311" style="mask-type:luminance" maskUnits="userSpaceOnUse" x="0" y="0" width="59" height="60">
<g id="clippath">
<path id="Vector_6" d="M29.0876 60C45.1523 60 58.1752 46.5685 58.1752 30C58.1752 13.4315 45.1523 0 29.0876 0C13.023 0 0 13.4315 0 30C0 46.5685 13.023 60 29.0876 60Z" fill="white"/>
</g>
</mask>
<g mask="url(#mask0_4551_115311)">
<g id="Group_4">
<path id="Vector_7" d="M70.4663 30C70.4663 52.0101 53.164 69.8551 31.8233 69.8551C10.4826 69.8551 -6.81964 52.0101 -6.81964 30C-6.81964 7.98996 10.4765 -9.86133 31.8233 -9.86133C53.1701 -9.86133 70.4663 7.98366 70.4663 29.9937" fill="url(#paint0_linear_4551_115311)"/>
<g id="Group_5" opacity="0.8">
<g id="Group_6">
<g id="Group_7">
<path id="Vector_8" d="M8.92603 13.1002H8.59611V-0.995584L-4.1912 -14.184H-10.4413L-13.3433 -17.1708L-13.1051 -17.4165L-10.3069 -14.5243H-4.05679L8.92603 -1.13421V13.1002Z" fill="white"/>
<path id="Vector_9" d="M8.38837 13.0813C8.38837 13.2955 8.55333 13.4656 8.76105 13.4656C8.96878 13.4656 9.13373 13.2955 9.13373 13.0813C9.13373 12.867 8.96878 12.6969 8.76105 12.6969C8.55333 12.6969 8.38837 12.867 8.38837 13.0813Z" fill="white"/>
</g>
<g id="Group_8">
<path id="Vector_10" d="M11.9442 16.1374H11.2782V-1.71392L-3.1709 -16.6162L-2.70046 -17.1014L11.9442 -1.99747V16.1374Z" fill="white"/>
<path id="Vector_11" d="M10.985 16.1059C10.985 16.465 11.266 16.7486 11.6082 16.7486C11.9503 16.7486 12.2313 16.4587 12.2313 16.1059C12.2313 15.753 11.9503 15.4631 11.6082 15.4631C11.266 15.4631 10.985 15.753 10.985 16.1059Z" fill="white"/>
</g>
<g id="Group_9">
<path id="Vector_12" d="M15.6954 13.1001H15.3655V-0.45373L6.67773 -9.42033V-17.2905H7.00765V-9.55896L15.6954 -0.598658V13.1001Z" fill="white"/>
<path id="Vector_13" d="M15.1578 13.0813C15.1578 13.2955 15.3227 13.4656 15.5305 13.4656C15.7382 13.4656 15.9031 13.2955 15.9031 13.0813C15.9031 12.867 15.7382 12.6969 15.5305 12.6969C15.3227 12.6969 15.1578 12.867 15.1578 13.0813Z" fill="white"/>
</g>
<g id="Group_10">
<path id="Vector_14" d="M7.61248 20.2268H7.27646V-0.258345L-3.42749 -11.298H-15.4328L-21.1269 -17.1708L-20.8947 -17.4165L-15.2923 -11.6383H-3.28697L7.61248 -0.403273V20.2268Z" fill="white"/>
<path id="Vector_15" d="M7.44751 20.5924C7.65334 20.5924 7.8202 20.4203 7.8202 20.208C7.8202 19.9957 7.65334 19.8236 7.44751 19.8236C7.24168 19.8236 7.07483 19.9957 7.07483 20.208C7.07483 20.4203 7.24168 20.5924 7.44751 20.5924Z" fill="white"/>
</g>
<g id="Group_11">
<path id="Vector_16" d="M5.69408 18.3049H5.35806V1.20979L-4.96099 -9.43293H-16.8135V-9.77319H-4.82047L5.69408 1.07117V18.3049Z" fill="white"/>
<path id="Vector_17" d="M5.15033 18.286C5.15033 18.5002 5.31529 18.6704 5.52301 18.6704C5.73074 18.6704 5.8957 18.5002 5.8957 18.286C5.8957 18.0717 5.73074 17.9016 5.52301 17.9016C5.31529 17.9016 5.15033 18.0717 5.15033 18.286Z" fill="white"/>
</g>
<g id="Group_12">
<path id="Vector_18" d="M6.58 26.024L6.34784 25.7845L17.5833 14.1903V-6.67926L28.0001 -17.4165L28.2323 -17.1708L17.9193 -6.53434V14.3289L6.58 26.024Z" fill="white"/>
<path id="Vector_19" d="M6.21343 25.6144C6.0668 25.7656 6.0668 26.0114 6.21343 26.1626C6.36006 26.3138 6.59833 26.3138 6.74496 26.1626C6.89159 26.0114 6.89159 25.7656 6.74496 25.6144C6.59833 25.4632 6.36006 25.4632 6.21343 25.6144Z" fill="white"/>
</g>
<g id="Group_13">
<path id="Vector_20" d="M7.51478 27.8891H1.82678V27.5488H7.37426L19.1229 15.4316V-5.43163L30.7372 -17.4165L30.9755 -17.1708L19.4529 -5.293V15.5766L7.51478 27.8891Z" fill="white"/>
<path id="Vector_21" d="M1.8451 27.3282C1.63737 27.3282 1.47241 27.4984 1.47241 27.7126C1.47241 27.9269 1.63737 28.097 1.8451 28.097C2.05282 28.097 2.21778 27.9269 2.21778 27.7126C2.21778 27.4984 2.05282 27.3282 1.8451 27.3282Z" fill="white"/>
</g>
<g id="Group_14">
<path id="Vector_22" d="M22.7948 5.30562L22.3243 4.82043L26.0267 1.0019V-5.11026L34.3357 -13.6736L34.8062 -13.1884L26.6927 -4.8267V1.28546L22.7948 5.30562Z" fill="white"/>
<path id="Vector_23" d="M22.5809 5.68364C22.9251 5.68364 23.2041 5.39588 23.2041 5.04092C23.2041 4.68595 22.9251 4.39819 22.5809 4.39819C22.2368 4.39819 21.9578 4.68595 21.9578 5.04092C21.9578 5.39588 22.2368 5.68364 22.5809 5.68364Z" fill="white"/>
</g>
<g id="Group_15">
<path id="Vector_24" d="M21.6034 13.3585L21.3712 13.1128L33.3765 0.730942V-6.67927L43.5367 -17.1519L43.7689 -16.9124L33.7064 -6.53434V0.87587L21.6034 13.3585Z" fill="white"/>
<path id="Vector_25" d="M21.2368 12.949C21.0902 13.1002 21.0902 13.346 21.2368 13.4972C21.3834 13.6484 21.6217 13.6484 21.7683 13.4972C21.915 13.346 21.915 13.1002 21.7683 12.949C21.6217 12.7978 21.3834 12.7978 21.2368 12.949Z" fill="white"/>
</g>
<g id="Group_16">
<path id="Vector_26" d="M11.8586 29.1493L11.6204 28.9036L38.7224 0.957764V-5.23631L51.5402 -18.4625L51.7724 -18.2168L39.0523 -5.09769V1.09639L11.8586 29.1493Z" fill="white"/>
<path id="Vector_27" d="M11.4859 28.7398C11.3393 28.891 11.3393 29.1367 11.4859 29.288C11.6326 29.4392 11.8709 29.4392 12.0175 29.288C12.1641 29.1367 12.1641 28.891 12.0175 28.7398C11.8709 28.5885 11.6326 28.5885 11.4859 28.7398Z" fill="white"/>
</g>
<path id="Vector_28" d="M-11.8953 41.7896L-12.3658 41.3044L-2.37054 30.9956H12.1885L58.8228 -17.1014L59.2933 -16.6162L12.4635 31.6824H-2.09561L-11.8953 41.7896Z" fill="white"/>
<path id="Vector_29" d="M-12.0297 44.8204L-12.2619 44.5747L-1.4602 33.4342H12.9156L47.343 -2.07939H69.0502L83.6704 -17.1519L83.9026 -16.9124L69.1908 -1.73283H47.4835L13.0561 33.7744H-1.31968L-12.0297 44.8204Z" fill="white"/>
<g id="Group_17">
<path id="Vector_30" d="M24.2244 26.4335L23.9922 26.1877L48.4427 0.970337H66.7958V1.3106H48.5771L24.2244 26.4335Z" fill="white"/>
<path id="Vector_31" d="M23.8578 26.0239C23.7112 26.1752 23.7112 26.4209 23.8578 26.5721C24.0045 26.7234 24.2427 26.7234 24.3894 26.5721C24.536 26.4209 24.536 26.1752 24.3894 26.0239C24.2427 25.8727 24.0045 25.8727 23.8578 26.0239Z" fill="white"/>
</g>
<g id="Group_18">
<path id="Vector_32" d="M23.8945 36.9754L23.1858 36.2508L47.2636 11.4178H60.3136L67.7856 3.71143L68.4882 4.43606L60.729 12.4449H47.679L23.8945 36.9754Z" fill="white"/>
<path id="Vector_33" d="M18.5731 36.8683C18.2065 37.2463 18.2065 37.8576 18.5731 38.2356C18.9397 38.6137 19.5323 38.6137 19.8989 38.2356C20.2654 37.8576 20.2654 37.2463 19.8989 36.8683C19.5323 36.4902 18.9397 36.4902 18.5731 36.8683Z" fill="white"/>
</g>
<g id="Group_19">
<path id="Vector_34" d="M21.5362 38.7019L21.2979 38.4624L34.8428 24.4927H39.1195L44.9358 18.5002H53.5869V18.8405H45.0702L39.26 24.8329H34.9833L21.5362 38.7019Z" fill="white"/>
<path id="Vector_35" d="M53.5686 19.0548C53.7744 19.0548 53.9413 18.8827 53.9413 18.6704C53.9413 18.4581 53.7744 18.286 53.5686 18.286C53.3628 18.286 53.1959 18.4581 53.1959 18.6704C53.1959 18.8827 53.3628 19.0548 53.5686 19.0548Z" fill="white"/>
<path id="Vector_36" d="M21.4323 38.9539C21.6381 38.9539 21.805 38.7818 21.805 38.5696C21.805 38.3573 21.6381 38.1852 21.4323 38.1852C21.2265 38.1852 21.0596 38.3573 21.0596 38.5696C21.0596 38.7818 21.2265 38.9539 21.4323 38.9539Z" fill="white"/>
</g>
<path id="Vector_37" d="M23.8395 39.2313C23.6318 39.2313 23.4668 39.0611 23.4668 38.8469C23.4668 38.6327 23.6318 38.4625 23.8395 38.4625C24.0472 38.4625 24.2122 38.6327 24.2122 38.8469C24.2122 39.0611 24.0472 39.2313 23.8395 39.2313Z" fill="white"/>
<g id="Group_20">
<path id="Vector_38" d="M36.5229 33.4278H12.8972V32.741H36.248L47.905 20.7246L48.3754 21.2098L36.5229 33.4278Z" fill="white"/>
<path id="Vector_39" d="M47.6728 20.5292C47.9172 20.2772 48.3144 20.2772 48.5587 20.5292C48.8031 20.7813 48.8031 21.1909 48.5587 21.4429C48.3144 21.695 47.9172 21.695 47.6728 21.4429C47.4285 21.1909 47.4285 20.7813 47.6728 20.5292Z" fill="white"/>
<path id="Vector_40" d="M12.9339 33.7303C13.2781 33.7303 13.5571 33.4425 13.5571 33.0875C13.5571 32.7326 13.2781 32.4448 12.9339 32.4448C12.5897 32.4448 12.3107 32.7326 12.3107 33.0875C12.3107 33.4425 12.5897 33.7303 12.9339 33.7303Z" fill="white"/>
</g>
<g id="Group_21">
<path id="Vector_41" d="M-13.3983 46.3893L-13.6365 46.1436L-6.03013 38.2986H4.90598L9.73254 43.2765H31.6048L53.2509 20.9514H89.725L98.5717 11.8273H110.381V12.1738H98.7122L89.8594 21.298H53.3915L31.7453 43.6231H9.59813L4.77157 38.6452H-5.88961L-13.3983 46.3893Z" fill="white"/>
</g>
<g id="Group_22">
<path id="Vector_42" d="M33.5659 46.2949L33.0955 45.8097L52.8904 25.3938H88.2159L97.2703 16.0618H109.428V16.7486H97.5452L88.4908 26.0807H53.1654L33.5659 46.2949Z" fill="white"/>
<path id="Vector_43" d="M34.4029 48.0907C34.1585 48.3428 33.7614 48.3428 33.517 48.0907C33.2726 47.8387 33.2726 47.4291 33.517 47.1771C33.7614 46.925 34.1585 46.925 34.4029 47.1771C34.6473 47.4291 34.6473 47.8387 34.4029 48.0907Z" fill="white"/>
</g>
<g id="Group_23">
<path id="Vector_44" d="M42.4126 41.9723L42.1743 41.7328L54.9922 28.5129H91.7351L99.873 20.1134H109.043V20.46H100.014L91.8695 28.8532H55.1266L42.4126 41.9723Z" fill="white"/>
<path id="Vector_45" d="M40.9768 46.717C40.8302 46.8683 40.5919 46.8683 40.4453 46.717C40.2987 46.5658 40.2987 46.3201 40.4453 46.1688C40.5919 46.0176 40.8302 46.0176 40.9768 46.1688C41.1235 46.3201 41.1235 46.5658 40.9768 46.717Z" fill="white"/>
</g>
<g id="Group_24">
<path id="Vector_46" d="M43.6528 46.5596L43.4207 46.3201L59.1711 30.0756H96.14L104.027 21.9408H111.756V22.2811H104.168L96.2806 30.4159H59.3055L43.6528 46.5596Z" fill="white"/>
<path id="Vector_47" d="M43.8178 46.6982C43.6711 46.8495 43.4329 46.8495 43.2862 46.6982C43.1396 46.547 43.1396 46.3013 43.2862 46.15C43.4329 45.9988 43.6711 45.9988 43.8178 46.15C43.9644 46.3013 43.9644 46.547 43.8178 46.6982Z" fill="white"/>
</g>
<g id="Group_25">
<path id="Vector_48" d="M46.0722 46.5847L45.84 46.3453L59.8004 31.9407H97.8935L105.671 23.9193H111.206V24.2596H105.811L98.034 32.281H59.9409L46.0722 46.5847Z" fill="white"/>
<path id="Vector_49" d="M46.231 46.7234C46.0844 46.8746 45.8461 46.8746 45.6995 46.7234C45.5529 46.5722 45.5529 46.3264 45.6995 46.1752C45.8461 46.024 46.0844 46.024 46.231 46.1752C46.3777 46.3264 46.3777 46.5722 46.231 46.7234Z" fill="white"/>
</g>
<g id="Group_26">
<path id="Vector_50" d="M72.4839 45.1292H52.2673V44.7826H72.3434L76.4245 40.5797H112.85V40.92H76.5651L72.4839 45.1292Z" fill="white"/>
<path id="Vector_51" d="M52.2856 45.3435C52.4915 45.3435 52.6583 45.1714 52.6583 44.9591C52.6583 44.7468 52.4915 44.5747 52.2856 44.5747C52.0798 44.5747 51.913 44.7468 51.913 44.9591C51.913 45.1714 52.0798 45.3435 52.2856 45.3435Z" fill="white"/>
</g>
<g id="Group_27">
<path id="Vector_52" d="M7.14205 44.0327L11.376 48.3994H29.8268L33.0955 51.7706H64.0404L64.0893 51.821L67.8833 55.734L67.6511 55.9798L63.906 52.1108H32.961L29.6924 48.7397H11.2416L7.00153 44.373" fill="white"/>
<path id="Vector_53" d="M7.2887 44.4802C7.05043 44.7259 6.65331 44.7259 6.41503 44.4802C6.17676 44.2344 6.17676 43.8248 6.41503 43.5791C6.65331 43.3333 7.05043 43.3333 7.2887 43.5791C7.52697 43.8248 7.52697 44.2344 7.2887 44.4802Z" fill="white"/>
</g>
<g id="Group_28">
<path id="Vector_54" d="M110.669 51.2413H68.2804L65.2684 49.5336H39.9138V48.5002H65.525L68.537 50.2142H110.669V51.2413Z" fill="white"/>
<path id="Vector_55" d="M39.9626 49.981C39.4433 49.981 39.0278 49.5462 39.0278 49.0169C39.0278 48.4876 39.4494 48.0529 39.9626 48.0529C40.4758 48.0529 40.8974 48.4876 40.8974 49.0169C40.8974 49.5462 40.4758 49.981 39.9626 49.981Z" fill="white"/>
</g>
<g id="Group_29">
<path id="Vector_56" d="M0.238258 17.7316L-11.5471 5.57658H-32.4723L-38.8813 12.1928H-55.9636L-76.3573 -8.84056L-76.1251 -9.0863L-55.8231 11.8526H-39.0218L-32.6067 5.23632H-11.4066L0.470421 17.4921L0.238258 17.7316Z" fill="white"/>
<path id="Vector_57" d="M0.604822 17.322C0.751451 17.4733 0.751451 17.719 0.604822 17.8702C0.458192 18.0215 0.219919 18.0215 0.07329 17.8702C-0.0733395 17.719 -0.0733395 17.4733 0.07329 17.322C0.219919 17.1708 0.458192 17.1708 0.604822 17.322Z" fill="white"/>
</g>
<path id="Vector_58" d="M2.24222 7.84501C2.67075 7.84501 3.01814 7.48673 3.01814 7.04476C3.01814 6.60279 2.67075 6.24451 2.24222 6.24451C1.8137 6.24451 1.46631 6.60279 1.46631 7.04476C1.46631 7.48673 1.8137 7.84501 2.24222 7.84501Z" fill="white"/>
<path id="Vector_59" d="M2.24222 12.1424C2.67075 12.1424 3.01814 11.7841 3.01814 11.3421C3.01814 10.9002 2.67075 10.5419 2.24222 10.5419C1.8137 10.5419 1.46631 10.9002 1.46631 11.3421C1.46631 11.7841 1.8137 12.1424 2.24222 12.1424Z" fill="white"/>
<path id="Vector_60" d="M2.24222 16.4399C2.67075 16.4399 3.01814 16.0816 3.01814 15.6396C3.01814 15.1976 2.67075 14.8394 2.24222 14.8394C1.8137 14.8394 1.46631 15.1976 1.46631 15.6396C1.46631 16.0816 1.8137 16.4399 2.24222 16.4399Z" fill="white"/>
<g id="Group_30">
<path id="Vector_61" d="M53.4953 4.68182C53.7213 4.68182 53.9046 4.47587 53.9046 4.22183C53.9046 3.96778 53.7213 3.76184 53.4953 3.76184C53.2692 3.76184 53.0859 3.96778 53.0859 4.22183C53.0859 4.47587 53.2692 4.68182 53.4953 4.68182Z" fill="white"/>
<path id="Vector_62" d="M53.4953 7.16448C53.7213 7.16448 53.9046 6.95854 53.9046 6.70449C53.9046 6.45045 53.7213 6.24451 53.4953 6.24451C53.2692 6.24451 53.0859 6.45045 53.0859 6.70449C53.0859 6.95854 53.2692 7.16448 53.4953 7.16448Z" fill="white"/>
<path id="Vector_63" d="M53.4953 9.6535C53.7213 9.6535 53.9046 9.44755 53.9046 9.19351C53.9046 8.93946 53.7213 8.73352 53.4953 8.73352C53.2692 8.73352 53.0859 8.93946 53.0859 9.19351C53.0859 9.44755 53.2692 9.6535 53.4953 9.6535Z" fill="white"/>
<path id="Vector_64" d="M55.4565 4.68182C55.6825 4.68182 55.8658 4.47587 55.8658 4.22183C55.8658 3.96778 55.6825 3.76184 55.4565 3.76184C55.2304 3.76184 55.0471 3.96778 55.0471 4.22183C55.0471 4.47587 55.2304 4.68182 55.4565 4.68182Z" fill="white"/>
<path id="Vector_65" d="M55.4565 7.16448C55.6825 7.16448 55.8658 6.95854 55.8658 6.70449C55.8658 6.45045 55.6825 6.24451 55.4565 6.24451C55.2304 6.24451 55.0471 6.45045 55.0471 6.70449C55.0471 6.95854 55.2304 7.16448 55.4565 7.16448Z" fill="white"/>
<path id="Vector_66" d="M55.4565 9.6535C55.6825 9.6535 55.8658 9.44755 55.8658 9.19351C55.8658 8.93946 55.6825 8.73352 55.4565 8.73352C55.2304 8.73352 55.0471 8.93946 55.0471 9.19351C55.0471 9.44755 55.2304 9.6535 55.4565 9.6535Z" fill="white"/>
<path id="Vector_67" d="M57.4115 4.68182C57.6376 4.68182 57.8209 4.47587 57.8209 4.22183C57.8209 3.96778 57.6376 3.76184 57.4115 3.76184C57.1855 3.76184 57.0022 3.96778 57.0022 4.22183C57.0022 4.47587 57.1855 4.68182 57.4115 4.68182Z" fill="white"/>
<path id="Vector_68" d="M57.4115 7.16448C57.6376 7.16448 57.8209 6.95854 57.8209 6.70449C57.8209 6.45045 57.6376 6.24451 57.4115 6.24451C57.1855 6.24451 57.0022 6.45045 57.0022 6.70449C57.0022 6.95854 57.1855 7.16448 57.4115 7.16448Z" fill="white"/>
<path id="Vector_69" d="M57.4115 9.6535C57.6376 9.6535 57.8209 9.44755 57.8209 9.19351C57.8209 8.93946 57.6376 8.73352 57.4115 8.73352C57.1855 8.73352 57.0022 8.93946 57.0022 9.19351C57.0022 9.44755 57.1855 9.6535 57.4115 9.6535Z" fill="white"/>
</g>
<path id="Vector_70" d="M21.4201 54.6188C21.8486 54.6188 22.196 54.2605 22.196 53.8186C22.196 53.3766 21.8486 53.0183 21.4201 53.0183C20.9916 53.0183 20.6442 53.3766 20.6442 53.8186C20.6442 54.2605 20.9916 54.6188 21.4201 54.6188Z" fill="white"/>
<path id="Vector_71" d="M17.2534 54.6188C17.6819 54.6188 18.0293 54.2605 18.0293 53.8186C18.0293 53.3766 17.6819 53.0183 17.2534 53.0183C16.8249 53.0183 16.4775 53.3766 16.4775 53.8186C16.4775 54.2605 16.8249 54.6188 17.2534 54.6188Z" fill="white"/>
<path id="Vector_72" d="M25.5868 54.6188C26.0154 54.6188 26.3627 54.2605 26.3627 53.8186C26.3627 53.3766 26.0154 53.0183 25.5868 53.0183C25.1583 53.0183 24.8109 53.3766 24.8109 53.8186C24.8109 54.2605 25.1583 54.6188 25.5868 54.6188Z" fill="white"/>
<path id="Vector_73" d="M14.0581 45.5451C14.2875 45.5451 14.4735 45.3532 14.4735 45.1166C14.4735 44.8799 14.2875 44.6881 14.0581 44.6881C13.8286 44.6881 13.6426 44.8799 13.6426 45.1166C13.6426 45.3532 13.8286 45.5451 14.0581 45.5451Z" fill="white"/>
<path id="Vector_74" d="M16.3125 45.5451C16.5419 45.5451 16.7279 45.3532 16.7279 45.1166C16.7279 44.8799 16.5419 44.6881 16.3125 44.6881C16.083 44.6881 15.897 44.8799 15.897 45.1166C15.897 45.3532 16.083 45.5451 16.3125 45.5451Z" fill="white"/>
<path id="Vector_75" d="M18.5608 45.5451C18.7903 45.5451 18.9763 45.3532 18.9763 45.1166C18.9763 44.8799 18.7903 44.6881 18.5608 44.6881C18.3314 44.6881 18.1454 44.8799 18.1454 45.1166C18.1454 45.3532 18.3314 45.5451 18.5608 45.5451Z" fill="white"/>
<path id="Vector_76" d="M20.8152 45.5451C21.0447 45.5451 21.2307 45.3532 21.2307 45.1166C21.2307 44.8799 21.0447 44.6881 20.8152 44.6881C20.5858 44.6881 20.3998 44.8799 20.3998 45.1166C20.3998 45.3532 20.5858 45.5451 20.8152 45.5451Z" fill="white"/>
<path id="Vector_77" d="M14.0581 47.2968C14.2875 47.2968 14.4735 47.1049 14.4735 46.8683C14.4735 46.6317 14.2875 46.4398 14.0581 46.4398C13.8286 46.4398 13.6426 46.6317 13.6426 46.8683C13.6426 47.1049 13.8286 47.2968 14.0581 47.2968Z" fill="white"/>
<path id="Vector_78" d="M16.3125 47.2968C16.5419 47.2968 16.7279 47.1049 16.7279 46.8683C16.7279 46.6317 16.5419 46.4398 16.3125 46.4398C16.083 46.4398 15.897 46.6317 15.897 46.8683C15.897 47.1049 16.083 47.2968 16.3125 47.2968Z" fill="white"/>
<path id="Vector_79" d="M18.5608 47.2968C18.7903 47.2968 18.9763 47.1049 18.9763 46.8683C18.9763 46.6317 18.7903 46.4398 18.5608 46.4398C18.3314 46.4398 18.1454 46.6317 18.1454 46.8683C18.1454 47.1049 18.3314 47.2968 18.5608 47.2968Z" fill="white"/>
<path id="Vector_80" d="M20.8152 47.2968C21.0447 47.2968 21.2307 47.1049 21.2307 46.8683C21.2307 46.6317 21.0447 46.4398 20.8152 46.4398C20.5858 46.4398 20.3998 46.6317 20.3998 46.8683C20.3998 47.1049 20.5858 47.2968 20.8152 47.2968Z" fill="white"/>
<g id="Group_31">
<path id="Vector_81" d="M56.66 56.0492H31.5925L26.4544 50.7499H9.93413L8.14403 52.5961H8.07683C3.10364 52.7221 -5.28478 52.886 -5.6147 52.5457L-7.76526 50.3277H-12.2008V49.9874H-7.63085L-5.40087 52.2874C-4.80824 52.5016 2.88981 52.3882 7.9974 52.2559L9.7875 50.4096H26.5827L31.7208 55.7089H56.6539V56.0492H56.66Z" fill="white"/>
<path id="Vector_82" d="M56.6417 56.2634C56.8495 56.2634 57.0144 56.0932 57.0144 55.879C57.0144 55.6648 56.8495 55.4946 56.6417 55.4946C56.434 55.4946 56.269 55.6648 56.269 55.879C56.269 56.0932 56.434 56.2634 56.6417 56.2634Z" fill="white"/>
</g>
<g id="Group_32">
<path id="Vector_83" d="M40.6836 66.2508H20.6809L14.0642 59.4266H-5.4314L-12.4635 52.1802L-12.2252 51.9344L-5.29699 59.0863H14.2047L20.8153 65.9105H40.5492L44.4959 61.8336H69.7956L78.7644 52.5835H111.811V52.9237H78.905L69.9361 62.1739H44.6364L40.6836 66.2508Z" fill="white"/>
</g>
<g id="Group_33">
<path id="Vector_84" d="M38.6368 64.1966H22.0066L15.2494 57.2275H-4.21564V56.8872H15.3899L22.1471 63.8563H38.4963L43.2068 58.9981H66.7958V59.3384H43.3412L38.6368 64.1966Z" fill="white"/>
</g>
</g>
</g>
<g id="Group_34">
<path id="Vector_85" d="M22.6054 41.0649C32.9001 41.0649 41.2456 32.4576 41.2456 21.8399C41.2456 11.2223 32.9001 2.61499 22.6054 2.61499C12.3106 2.61499 3.96509 11.2223 3.96509 21.8399C3.96509 32.4576 12.3106 41.0649 22.6054 41.0649Z" fill="url(#paint1_linear_4551_115311)"/>
<path id="Vector_86" d="M22.6054 40.126C32.3974 40.126 40.3353 31.939 40.3353 21.8399C40.3353 11.7408 32.3974 3.55383 22.6054 3.55383C12.8134 3.55383 4.87543 11.7408 4.87543 21.8399C4.87543 31.939 12.8134 40.126 22.6054 40.126Z" fill="url(#paint2_linear_4551_115311)"/>
<path id="Vector_87" d="M22.1594 33.8941C28.8673 33.8941 34.3052 28.2857 34.3052 21.3674C34.3052 14.449 28.8673 8.84058 22.1594 8.84058C15.4514 8.84058 10.0135 14.449 10.0135 21.3674C10.0135 28.2857 15.4514 33.8941 22.1594 33.8941Z" fill="url(#paint3_linear_4551_115311)"/>
<path id="Vector_88" d="M22.1594 35.312C29.6265 35.312 35.6798 29.0688 35.6798 21.3674C35.6798 13.666 29.6265 7.42285 22.1594 7.42285C14.6922 7.42285 8.63892 13.666 8.63892 21.3674C8.63892 29.0688 14.6922 35.312 22.1594 35.312Z" fill="url(#paint4_linear_4551_115311)"/>
<path id="Vector_89" d="M22.1594 33.6736C28.8673 33.6736 34.3052 28.0651 34.3052 21.1468C34.3052 14.2284 28.8673 8.62 22.1594 8.62C15.4514 8.62 10.0135 14.2284 10.0135 21.1468C10.0135 28.0651 15.4514 33.6736 22.1594 33.6736Z" fill="url(#paint5_linear_4551_115311)"/>
<g id="Vector_90" filter="url(#filter0_d_4551_115311)">
<path d="M18.8969 14.1588L29.0632 20.9451C29.5825 21.2917 29.5825 22.0731 29.0632 22.4196L18.8969 29.206C18.3287 29.5841 17.5833 29.1619 17.5833 28.4688V14.896C17.5833 14.2029 18.3287 13.7807 18.8969 14.1588Z" fill="white"/>
</g>
<g id="Clip path group_2">
<mask id="mask1_4551_115311" style="mask-type:luminance" maskUnits="userSpaceOnUse" x="17" y="14" width="13" height="16">
<g id="clippath-1">
<path id="Vector_91" d="M29.4481 14.0139H17.5772V29.351H29.4481V14.0139Z" fill="white"/>
</g>
</mask>
<g mask="url(#mask1_4551_115311)">
<g id="Group_35">
<path id="Vector_92" d="M18.8969 14.1588L29.0632 20.9452C29.5825 21.2917 29.5825 22.0731 29.0632 22.4196L18.8969 29.206C18.3287 29.5841 17.5833 29.1682 17.5833 28.4688V14.896C17.5833 14.2029 18.3287 13.7807 18.8969 14.1588Z" fill="white"/>
</g>
</g>
</g>
<g id="Clip path group_3">
<mask id="mask2_4551_115311" style="mask-type:luminance" maskUnits="userSpaceOnUse" x="17" y="14" width="13" height="16">
<g id="clippath-2">
<path id="Vector_93" d="M18.4142 14.0139C17.9804 14.0202 17.5772 14.3857 17.5772 14.8961V28.4689C17.5772 28.9793 17.9804 29.3384 18.4142 29.351H18.4448C18.5975 29.351 18.7502 29.3006 18.8908 29.2061L29.0571 22.4197C29.3137 22.2496 29.4481 21.966 29.4481 21.6825C29.4481 21.3989 29.3198 21.1154 29.0571 20.9452L18.8908 14.1588C18.7502 14.0643 18.5975 14.0202 18.4448 14.0202H18.4142V14.0139Z" fill="white"/>
</g>
</mask>
<g mask="url(#mask2_4551_115311)">
<g id="Group_36">
<g id="Group_37">
<g id="Clip path group_4">
<mask id="mask3_4551_115311" style="mask-type:luminance" maskUnits="userSpaceOnUse" x="15" y="2" width="23" height="24">
<g id="clippath-4">
<path id="Vector_94" d="M37.5432 2.48901H15.3777V25.6207H37.5432V2.48901Z" fill="white"/>
</g>
</mask>
<g mask="url(#mask3_4551_115311)">
<g id="Group_38">
<g id="Vector_95" style="mix-blend-mode:multiply" opacity="0.75">
<path d="M37.5432 2.48901H15.3777V25.6207H37.5432V2.48901Z" fill="#231916"/>
</g>
</g>
</g>
</g>
</g>
<path id="Vector_96" d="M33.6637 5.49474L31.3665 20.5924C31.2504 21.3612 30.4012 21.7518 29.7658 21.3234L17.3511 12.9806C16.6608 12.5143 16.7402 11.4431 17.4978 11.0965L32.2096 4.34162C32.9672 3.99506 33.792 4.65038 33.6637 5.48844" fill="white"/>
</g>
</g>
</g>
</g>
<g id="Group_39">
<path id="Vector_97" d="M43.4695 36.3076L43.6223 36.5407C44.2332 37.4481 44.0805 38.6516 43.2862 39.2187L36.9201 43.9131C36.1258 44.4802 34.9772 44.1967 34.3724 43.2956L34.2196 43.0625C33.6087 42.1551 33.7614 40.9516 34.5557 40.3844L40.9218 35.6901C41.7161 35.123 42.8647 35.4065 43.4695 36.3076Z" fill="white" stroke="black" stroke-width="1.24" stroke-miterlimit="10"/>
<path id="Vector_98" d="M29.9124 28.2861L29.8085 28.4751C29.3931 29.2124 28.4705 29.4581 27.7557 29.0296C27.2303 28.7146 26.7293 28.368 26.2283 28.0026C25.7274 27.6371 25.2508 27.322 24.7987 26.9376C24.3099 26.5281 24.0472 25.879 24.0778 25.23C24.1083 24.5747 24.5726 23.9446 25.2203 24.1903C25.7274 24.3857 26.3322 24.6566 26.8087 24.9024C27.6519 25.3308 28.5622 25.6774 29.3748 26.1689C30.0896 26.5974 30.3279 27.5489 29.9124 28.2861Z" fill="white" stroke="black" stroke-width="1.24" stroke-miterlimit="10"/>
<g id="Group_40">
<path id="Vector_99" d="M55.3465 55.3938C53.7886 56.4083 52.4384 55.6081 50.5566 55.1607C48.5954 54.6944 46.1027 53.6295 44.5998 52.3062C43.5062 51.3422 43.94 49.8047 43.8544 48.4877C43.7628 47.133 43.6772 45.7845 43.5856 44.4298C43.4695 42.7032 43.3596 40.983 43.2435 39.2565L44.9969 35.6144C45.3818 34.8078 46.2005 34.6755 46.8115 35.3119L59.4399 48.4877C60.0936 49.1809 56.7761 53.9761 56.324 54.5117C56.0125 54.8771 55.6886 55.167 55.3465 55.3938Z" fill="white"/>
<path id="Vector_100" d="M55.3465 55.3938C53.7886 56.4083 52.4384 55.6081 50.5566 55.1607C48.5954 54.6944 46.1027 53.6295 44.5998 52.3062C43.5062 51.3422 43.94 49.8047 43.8544 48.4877C43.7628 47.133 43.6772 45.7845 43.5856 44.4298C43.4695 42.7032 43.3596 40.983 43.2435 39.2565L44.9969 35.6144C45.3818 34.8078 46.2005 34.6755 46.8115 35.3119L59.4399 48.4877C60.0936 49.1809 56.7761 53.9761 56.324 54.5117C56.0125 54.8771 55.6886 55.167 55.3465 55.3938Z" stroke="black" stroke-width="1.24" stroke-miterlimit="10"/>
</g>
<path id="Vector_101" d="M30.5823 28.4982L30.4776 28.6832C30.0593 29.4227 30.3014 30.3718 31.0184 30.8032L33.905 32.5401C34.6219 32.9715 35.5422 32.7218 35.9605 31.9824L36.0652 31.7973C36.4835 31.0579 36.2414 30.1087 35.5244 29.6773L32.6378 27.9404C31.9209 27.509 31.0006 27.7587 30.5823 28.4982Z" fill="white" stroke="black" stroke-width="1.24" stroke-miterlimit="10"/>
<path id="Vector_102" d="M47.1658 38.0404L47.0314 38.2799C46.4938 39.2313 45.3513 39.5905 44.4898 39.0738L37.4577 34.9906C36.5963 34.4739 36.3336 33.2704 36.8773 32.3189L37.0117 32.0795C37.5494 31.128 38.6918 30.7688 39.5533 31.2855L46.5854 35.3687C47.4468 35.8854 47.7096 37.0889 47.1658 38.0404Z" fill="white" stroke="black" stroke-width="1.24" stroke-miterlimit="10"/>
<path id="Vector_103" d="M37.5098 44.5457C36.3621 44.1046 35.0849 44.7065 34.6572 45.8902C34.2294 47.074 34.8131 48.3912 35.9608 48.8324L41.9777 51.1451C43.1254 51.5863 44.4026 50.9843 44.8303 49.8006C45.2581 48.6169 44.6744 47.2997 43.5267 46.8585L37.5098 44.5457Z" fill="white" stroke="black" stroke-width="1.24" stroke-miterlimit="10"/>
<path id="Vector_104" d="M34.7512 46.0681L34.6168 46.2698C34.0852 47.0763 33.0588 47.3221 32.3379 46.818C31.8125 46.4462 31.2993 45.9988 30.8044 45.5766C29.8452 44.7638 28.4767 43.8627 29.4664 42.6781C30.2668 41.777 31.5315 41.9786 32.3685 42.4575C33.3277 42.9994 33.5659 43.1822 34.4029 43.68C35.1239 44.1841 35.2766 45.2616 34.7451 46.0681H34.7512Z" fill="white" stroke="black" stroke-width="1.24" stroke-miterlimit="10"/>
<path id="Vector_105" d="M30.1079 29.9811C30.8873 29.9811 31.5192 29.3294 31.5192 28.5255C31.5192 27.7216 30.8873 27.0699 30.1079 27.0699C29.3285 27.0699 28.6966 27.7216 28.6966 28.5255C28.6966 29.3294 29.3285 29.9811 30.1079 29.9811Z" fill="#00FFFF" stroke="black" stroke-width="0.78" stroke-miterlimit="10"/>
<path id="Vector_106" d="M30.1079 29.1052C30.4183 29.1052 30.67 28.8457 30.67 28.5255C30.67 28.2053 30.4183 27.9458 30.1079 27.9458C29.7975 27.9458 29.5458 28.2053 29.5458 28.5255C29.5458 28.8457 29.7975 29.1052 30.1079 29.1052Z" fill="white" stroke="black" stroke-width="0.13" stroke-miterlimit="10"/>
<path id="Vector_107" d="M36.5779 33.6295C37.3574 33.6295 37.9892 32.9779 37.9892 32.174C37.9892 31.3701 37.3574 30.7184 36.5779 30.7184C35.7985 30.7184 35.1666 31.3701 35.1666 32.174C35.1666 32.9779 35.7985 33.6295 36.5779 33.6295Z" fill="#00FFFF" stroke="black" stroke-width="0.78" stroke-miterlimit="10"/>
<path id="Vector_108" d="M36.5779 32.7537C36.8884 32.7537 37.14 32.4941 37.14 32.1739C37.14 31.8538 36.8884 31.5942 36.5779 31.5942C36.2675 31.5942 36.0159 31.8538 36.0159 32.1739C36.0159 32.4941 36.2675 32.7537 36.5779 32.7537Z" fill="white" stroke="black" stroke-width="0.13" stroke-miterlimit="10"/>
<path id="Vector_109" d="M34.4274 47.2527C35.2068 47.2527 35.8387 46.601 35.8387 45.7971C35.8387 44.9932 35.2068 44.3416 34.4274 44.3416C33.6479 44.3416 33.0161 44.9932 33.0161 45.7971C33.0161 46.601 33.6479 47.2527 34.4274 47.2527Z" fill="#00FFFF" stroke="black" stroke-width="0.78" stroke-miterlimit="10"/>
<path id="Vector_110" d="M34.4274 46.3768C34.7378 46.3768 34.9895 46.1173 34.9895 45.7971C34.9895 45.477 34.7378 45.2174 34.4274 45.2174C34.1169 45.2174 33.8653 45.477 33.8653 45.7971C33.8653 46.1173 34.1169 46.3768 34.4274 46.3768Z" fill="white" stroke="black" stroke-width="0.13" stroke-miterlimit="10"/>
<path id="Vector_111" d="M43.5428 52.1551C45.0714 52.1551 46.3105 50.8771 46.3105 49.3006C46.3105 47.7241 45.0714 46.4462 43.5428 46.4462C42.0143 46.4462 40.7752 47.7241 40.7752 49.3006C40.7752 50.8771 42.0143 52.1551 43.5428 52.1551Z" fill="#00FFFF" stroke="black" stroke-width="0.78" stroke-miterlimit="10"/>
<path id="Vector_112" d="M43.5428 50.731C44.3088 50.731 44.9297 50.0906 44.9297 49.3006C44.9297 48.5106 44.3088 47.8702 43.5428 47.8702C42.7769 47.8702 42.1559 48.5106 42.1559 49.3006C42.1559 50.0906 42.7769 50.731 43.5428 50.731Z" fill="white" stroke="black" stroke-width="0.39" stroke-miterlimit="10"/>
<path id="Vector_113" d="M45.1741 40.2332C46.7026 40.2332 47.9417 38.9552 47.9417 37.3787C47.9417 35.8023 46.7026 34.5243 45.1741 34.5243C43.6455 34.5243 42.4064 35.8023 42.4064 37.3787C42.4064 38.9552 43.6455 40.2332 45.1741 40.2332Z" fill="#00FFFF" stroke="black" stroke-width="0.78" stroke-miterlimit="10"/>
<path id="Vector_114" d="M45.1741 38.8091C45.9401 38.8091 46.561 38.1687 46.561 37.3787C46.561 36.5888 45.9401 35.9484 45.1741 35.9484C44.4082 35.9484 43.7872 36.5888 43.7872 37.3787C43.7872 38.1687 44.4082 38.8091 45.1741 38.8091Z" fill="white" stroke="black" stroke-width="0.39" stroke-miterlimit="10"/>
<g id="Group_41">
<path id="Vector_115" d="M60.4846 53.1569C61.4683 52.0983 61.5599 50.2835 60.6863 49.1241L59.2077 47.1645C58.3341 46.005 57.0511 46.1058 56.3607 47.3913L52.8416 53.9319C52.1512 55.2174 52.4872 56.7549 53.5869 57.3472C54.6867 57.9395 56.3912 57.5614 57.3749 56.5028L60.4846 53.1506V53.1569Z" fill="white"/>
<path id="Vector_116" d="M60.4846 53.1569C61.4683 52.0983 61.5599 50.2835 60.6863 49.1241L59.2077 47.1645C58.3341 46.005 57.0511 46.1058 56.3607 47.3913L52.8416 53.9319C52.1512 55.2174 52.4872 56.7549 53.5869 57.3472C54.6867 57.9395 56.3912 57.5614 57.3749 56.5028L60.4846 53.1506V53.1569Z" stroke="black" stroke-width="1.24" stroke-miterlimit="10"/>
</g>
</g>
</g>
</g>
</g>
</g>
</g>
</g>
</g>
</g>
<defs>
<filter id="filter0_d_4551_115311" x="16.5833" y="13.0168" width="13.8693" height="17.3311" filterUnits="userSpaceOnUse" color-interpolation-filters="sRGB">
<feFlood flood-opacity="0" result="BackgroundImageFix"/>
<feColorMatrix in="SourceAlpha" type="matrix" values="0 0 0 0 0 0 0 0 0 0 0 0 0 0 0 0 0 0 127 0" result="hardAlpha"/>
<feOffset/>
<feGaussianBlur stdDeviation="0.5"/>
<feColorMatrix type="matrix" values="0 0 0 0 0 0 0 0 0 0 0 0 0 0 0 0 0 0 0.75 0"/>
<feBlend mode="normal" in2="BackgroundImageFix" result="effect1_dropShadow_4551_115311"/>
<feBlend mode="normal" in="SourceGraphic" in2="effect1_dropShadow_4551_115311" result="shape"/>
</filter>
<linearGradient id="paint0_linear_4551_115311" x1="31.8233" y1="69.8551" x2="31.8233" y2="-9.86133" gradientUnits="userSpaceOnUse">
<stop offset="0.2" stop-color="#00FFFF"/>
<stop offset="0.7" stop-color="#FFFF00"/>
</linearGradient>
<linearGradient id="paint1_linear_4551_115311" x1="22.6054" y1="41.0649" x2="22.6054" y2="2.62129" gradientUnits="userSpaceOnUse">
<stop stop-color="#00FFFF"/>
<stop offset="1" stop-color="#6C00AA"/>
</linearGradient>
<linearGradient id="paint2_linear_4551_115311" x1="22.6054" y1="3.56013" x2="22.6054" y2="40.126" gradientUnits="userSpaceOnUse">
<stop stop-color="#00FFFF"/>
<stop offset="1" stop-color="#6C00AA"/>
</linearGradient>
<linearGradient id="paint3_linear_4551_115311" x1="22.1594" y1="33.8941" x2="22.1594" y2="8.84058" gradientUnits="userSpaceOnUse">
<stop stop-color="#FF8DA4"/>
<stop offset="1" stop-color="#AA0047"/>
</linearGradient>
<linearGradient id="paint4_linear_4551_115311" x1="22.1594" y1="7.42285" x2="22.1594" y2="35.312" gradientUnits="userSpaceOnUse">
<stop stop-color="#00FFFF"/>
<stop offset="1" stop-color="#6C00AA"/>
</linearGradient>
<linearGradient id="paint5_linear_4551_115311" x1="22.1594" y1="33.6736" x2="22.1594" y2="8.62" gradientUnits="userSpaceOnUse">
<stop stop-color="#00FFFF"/>
<stop offset="1" stop-color="#6C00AA"/>
</linearGradient>
<clipPath id="clip0_4551_115311">
<rect width="208" height="60" fill="white"/>
</clipPath>
</defs>
</svg>
