<svg width="214" height="50" viewBox="0 0 214 50" fill="none" xmlns="http://www.w3.org/2000/svg">
<g id="&#232;&#179;&#135;&#231;&#148;&#162; 1 1" clip-path="url(#clip0_1186_8277)">
<g id="&#229;&#156;&#150;&#229;&#177;&#164; 1">
<g id="Group">
<path id="Vector" d="M27.4443 33.1674C27.6415 33.1674 27.8059 33.1299 27.9326 33.0594C28.0594 32.989 28.1956 32.7683 28.2613 32.2941C28.3271 31.8199 28.3599 30.8057 28.3599 29.4582C29.0454 30.1108 30.454 30.9137 31.4025 31.2752C31.3039 32.6557 31.1724 34.1112 30.9424 34.7263C30.6794 35.4165 30.224 35.8156 29.6324 36.1442C29.1393 36.3978 28.3224 36.4729 27.7683 36.4729H25.8056C25.0215 36.4729 24.0402 36.2194 23.4486 35.5996C22.8617 34.9798 22.5987 34.2192 22.5987 32.003V27.0964H20.7018C20.2745 32.003 18.8377 34.9845 12.9169 36.764C12.6211 35.8531 11.837 34.5103 11.1186 33.7121C7.71446 34.5103 4.31503 35.2381 1.56825 35.8578L0.816991 31.9326C2.19273 31.7166 3.85958 31.4584 5.6579 31.0968V21.6124H1.24427V17.9782H5.66259V15.3254H2.78434V14.0905C2.35707 14.5647 1.90162 15.0014 1.47434 15.4005C1.24427 14.4192 0.525879 11.9823 0 10.9306C2.48854 8.96798 5.00524 5.80336 6.47489 2.49789L9.35314 3.95342C9.15593 4.39009 8.95873 4.82675 8.76622 5.26341C10.8932 6.60626 12.9216 8.20735 14.133 9.51733L13.0531 11.5175H17.0441C16.8469 10.6442 16.584 9.66288 16.26 8.82712L18.9082 8.24491H13.7057V4.9723H20.021C19.8238 4.39009 19.5937 3.80787 19.3355 3.33834L22.7725 2.42746C23.1669 3.15523 23.6223 4.09898 23.951 4.9723H30.332V8.24491H24.998L27.9749 8.82712C27.5476 9.80843 27.125 10.7193 26.7635 11.5175H30.886V14.8606H12.8559V11.8791L12.269 12.9355L12.1703 12.8275V15.3348H9.02916V17.9876H13.1517V21.6217H9.02916V30.4536L13.4475 29.5427L13.6776 32.5242C16.1004 31.3973 16.753 29.6882 17.0488 27.1105H14.4992V16.133H29.6136V27.1105H26.2094V32.1251C26.2094 32.5993 26.2423 32.8904 26.3409 32.9984C26.4395 33.1064 26.571 33.1815 26.7682 33.1815H27.4537L27.4443 33.1674ZM3.99105 22.9928C4.5451 24.993 5.00524 27.5707 5.16958 29.2422L2.55427 30.0404C2.48854 28.2937 2.03309 25.6785 1.54008 23.6783L3.99574 22.9881L3.99105 22.9928ZM11.1233 11.7241C9.97762 10.5972 8.50798 9.47037 7.03364 8.41863C6.34811 9.58306 5.5593 10.6724 4.77517 11.7241H11.1233ZM9.3907 28.5895C9.85085 26.9885 10.3392 24.4107 10.5364 22.7017L13.3489 23.467C12.762 25.5047 12.2361 27.7913 11.7806 29.3173L9.3907 28.5895ZM17.7625 20.3775H26.1719V18.7764H17.7625V20.3775ZM17.7625 24.4483H26.1719V22.8472H17.7625V24.4483ZM19.4294 8.23552C19.8566 9.21683 20.3121 10.5268 20.4764 11.5081H23.3875C23.782 10.4892 24.2045 9.21683 24.4017 8.23552H19.4294Z" fill="#003467"/>
<path id="Vector_2" d="M42.6901 12.0152H47.9255V15.6494H44.7185L46.6812 16.194C46.1271 17.4664 45.5355 18.7013 45.0143 19.8657H47.2728V23.4999H42.6948V26.4062H47.9302V30.0404H42.6948V36.5105H39.0982V30.0404H33.4403V26.4062H39.0982V23.4999H34.2244V19.8657H36.5486C36.3186 18.7764 35.8302 17.396 35.403 16.2691L37.2342 15.6494H33.4732V12.0152H39.0982V9.50794H34.3559V5.94422H39.0982V2.81717H42.6948V5.94422H47.1742V9.50794H42.6948V12.0152H42.6901ZM41.7746 19.8657C42.3615 18.5229 42.9531 16.9593 43.3428 15.6494H38.3376C38.8916 16.8842 39.4504 18.3398 39.6147 19.3211L38.1404 19.8657H41.7699H41.7746ZM63.1055 17.4664C62.4857 21.7532 61.3401 25.716 59.7014 29.0966C61.0114 30.7306 62.5139 32.0406 64.1808 32.9843C63.3638 33.7825 62.2181 35.346 61.6312 36.4025C60.1568 35.4212 58.8187 34.1488 57.6073 32.6228C56.5273 34.2239 55.2831 35.5667 53.8792 36.7312C53.5176 36.1114 52.9307 35.4212 52.3438 34.7685V36.5856H48.8129V4.23514H62.3214V11.0668C62.3214 12.9214 61.9599 13.9731 60.6874 14.5554C59.4432 15.1376 57.6777 15.1751 55.2878 15.1751C55.1234 14.0107 54.6351 12.5223 54.175 11.4659C55.7761 11.5363 57.5791 11.5363 58.0674 11.5363C58.5557 11.4987 58.7201 11.3907 58.7201 10.9916V8.01015H52.3391V16.6964H60.124L60.7438 16.5133L63.1008 17.457L63.1055 17.4664ZM52.3438 32.9139C53.5223 31.8575 54.5036 30.6226 55.3864 29.2422C54.1421 27.026 53.1608 24.4812 52.3438 21.7532V32.9139ZM55.0577 20.1193C55.6446 22.0115 56.4006 23.8614 57.3162 25.5329C58.0346 23.8614 58.5933 22.0068 59.0159 20.1193H55.0577Z" fill="#003467"/>
<path id="Vector_3" d="M75.0129 23.1008V36.0785H73.4775V23.1008H66.6739V21.4997H73.4775V17.1002H66.5425V15.5367H75.736C76.4215 13.682 77.2385 10.9588 77.6986 9.10414L79.2011 9.54081C78.6142 11.4659 77.8911 13.7947 77.2056 15.5367H81.7507V17.1002H75.0129V21.4997H81.5206V23.1008H75.0129ZM71.3177 25.8287C70.5335 28.4816 69.2235 31.2424 67.8807 33.0641C67.6506 32.8482 67.0637 32.3364 66.7021 32.1533C68.0779 30.3738 69.2188 27.8993 69.9419 25.4672L71.3177 25.8287ZM81.2624 8.70974H67.0308V7.14621H73.9987C73.5386 6.01935 72.853 4.63894 72.299 3.5825L73.8015 3.10828C74.5199 4.3807 75.3369 5.98179 75.7641 7.14152H81.2577V8.70505L81.2624 8.70974ZM70.8293 15.1423C70.665 13.6539 70.1109 11.2546 69.4207 9.50794L70.7307 9.17927C71.4491 10.9259 72.0736 13.2501 72.2332 14.7056L70.8246 15.1423H70.8293ZM78.1541 25.3545C79.2669 27.2796 80.4454 29.754 80.9666 31.3879L79.7552 32.1157C79.234 30.4442 78.0555 27.8618 77.0084 25.9367L78.1541 25.3545ZM95.9823 17.2505H92.057V35.9705H90.5216V17.2505H85.1549V19.03C85.1549 24.1572 84.7276 31.1344 81.5911 35.933C81.361 35.5714 80.7741 35.0596 80.4125 34.8436C83.3894 30.2986 83.6852 23.9412 83.6852 19.0347V6.74712C87.3804 6.09447 91.733 5.0756 94.0572 4.05672L95.433 5.3667C92.7519 6.42314 88.7609 7.36689 85.1595 7.91154V15.6165H95.987V17.2505H95.9823Z" fill="url(#paint0_linear_1186_8277)"/>
<path id="Vector_4" d="M102.232 15.7573V36.2194H100.696V4.81735H112.177V15.7573H102.232ZM102.232 6.23533V9.5408H110.669V6.23533H102.232ZM110.674 14.3394V10.9588H102.237V14.3394H110.674ZM119.44 31.0264V35.0268H117.966V31.0264H104.716V29.5709H108.312V19.5746H105.598V18.1566H122.117V19.5746H119.436V29.5709H122.774V31.0264H119.436H119.44ZM109.758 19.5746V22.0443H117.971V19.5746H109.758ZM109.758 25.7912H117.971V23.3543H109.758V25.7912ZM117.966 29.5709V27.134H109.754V29.5709H117.966ZM127.291 33.6792C127.291 34.9516 127.028 35.4963 126.244 35.825C125.493 36.1161 124.084 36.1536 121.891 36.1536C121.826 35.6794 121.595 34.9563 121.365 34.4445C123.098 34.4821 124.671 34.4821 125.126 34.4445C125.587 34.4445 125.746 34.2614 125.746 33.7168V15.762H115.506V4.81735H127.282V33.6792H127.291ZM117.018 6.23533V9.5408H125.751V6.23533H117.018ZM125.756 14.3394V10.9588H117.022V14.3394H125.756Z" fill="url(#paint1_linear_1186_8277)"/>
<path id="Vector_5" d="M134.818 26.4438C134.357 29.5709 133.738 32.9843 133.052 35.2381C132.756 35.0925 132.137 34.8014 131.742 34.6558C132.526 32.3645 133.085 29.1295 133.442 26.1856L134.818 26.4391V26.4438ZM141.325 16.8138C142.241 19.0675 143.222 22.0819 143.617 23.8661L142.274 24.4107C142.175 23.8285 142.011 23.1759 141.814 22.4481C133.963 23.791 133.047 24.0492 132.489 24.3732C132.423 23.9741 132.193 23.1008 132 22.6641C132.587 22.5561 133.343 21.5748 134.259 20.2273C134.813 19.4995 136.024 17.6448 137.367 15.3582C133.376 15.9029 132.691 16.086 132.329 16.302C132.23 15.9029 132 15.1047 131.808 14.6305C132.329 14.5225 132.855 13.6867 133.54 12.5927C134.259 11.4659 136.616 7.21194 138.086 3.21626L139.494 3.94403C137.926 7.61574 136.029 11.433 134.095 14.2642L138.25 13.8276C139.133 12.2265 139.982 10.4846 140.738 8.77547L142.114 9.57367C139.856 14.1187 137.24 18.659 134.559 22.1476L141.396 21.0583C141.001 19.7483 140.546 18.4055 140.086 17.2035L141.33 16.8044L141.325 16.8138ZM138.09 26.0823C138.485 28.552 138.907 31.7542 139.006 33.8623L137.696 34.191C137.597 32.0453 137.236 28.8102 136.813 26.3781L138.09 26.087V26.0823ZM141.588 25.2841C142.34 27.5378 143.189 30.4817 143.584 32.3739L142.34 32.8482C141.978 30.8855 141.128 27.9416 140.41 25.6879L141.588 25.2888V25.2841ZM160.661 33.8248C160.661 35.0221 160.398 35.5339 159.712 35.8625C159.027 36.1536 157.717 36.1912 155.787 36.1536C155.688 35.717 155.491 34.9892 155.294 34.4821C156.829 34.5525 158.205 34.5197 158.632 34.5197C159.06 34.4821 159.186 34.3366 159.186 33.867V6.67199H145.805V36.2241H144.33V5.03803H160.656V33.8248H160.661ZM146.791 14.3394H153.759C154.346 12.5223 155.134 9.79435 155.491 7.97727L156.834 8.4515C156.28 10.3437 155.59 12.6303 154.97 14.3394H158.435V15.8653H146.791V14.3394ZM155.918 27.3922C156.505 27.3922 157.421 27.3922 157.947 27.2467C157.98 27.7209 158.045 28.336 158.111 28.7022C157.684 28.8478 156.834 28.8478 155.984 28.8478H150.815C149.049 28.8478 148.589 28.12 148.589 26.087V21.6875H147.246V20.1615H152.383C152.087 19.1051 151.369 17.5791 150.782 16.4522L151.927 15.9076C152.547 17.0345 153.303 18.6356 153.627 19.5793L152.613 20.1615H157.848V21.6875H149.998V26.1198C149.998 27.1011 150.129 27.3922 150.848 27.3922H155.918ZM149.373 7.90684C150.289 9.5408 151.106 11.8321 151.402 13.3205L150.223 13.7947C149.927 12.3063 149.143 10.015 148.26 8.30594L149.373 7.90684Z" fill="url(#paint2_linear_1186_8277)"/>
</g>
<g id="Group_2">
<g id="Group_3">
<path id="Vector_6" d="M188.321 20.3212L188.537 20.631C189.387 21.8565 189.18 23.4858 188.082 24.2464L179.268 30.5428C178.17 31.3034 176.578 30.9184 175.728 29.6929L175.512 29.383C174.662 28.1576 174.869 26.5283 175.968 25.7677L184.781 19.4713C185.88 18.7107 187.471 19.0957 188.321 20.3212Z" fill="white"/>
<path id="Vector_7" d="M177.996 31.7495C177.738 31.7495 177.475 31.7166 177.212 31.6556C176.348 31.449 175.578 30.9137 175.057 30.1578L174.841 29.8432C173.733 28.2421 174.033 26.1151 175.503 25.0963L184.307 18.8046C185.039 18.2975 185.936 18.1379 186.837 18.3538C187.701 18.5604 188.471 19.0957 188.993 19.8563L189.209 20.1662C190.317 21.7673 190.016 23.8943 188.546 24.9131L179.743 31.2048C179.222 31.5663 178.621 31.7495 177.996 31.7495ZM186.053 19.8939C185.757 19.8939 185.476 19.9784 185.241 20.138L176.437 26.4297C175.695 26.9415 175.583 28.0543 176.179 28.9135L176.395 29.2281C176.691 29.6554 177.118 29.9559 177.592 30.0685C178.034 30.1765 178.466 30.1061 178.804 29.8713L187.607 23.5797C188.349 23.0679 188.462 21.9551 187.866 21.0959L187.65 20.7813C187.354 20.354 186.931 20.0535 186.452 19.9408C186.316 19.908 186.185 19.8939 186.053 19.8939Z" fill="#003467"/>
</g>
<g id="Group_4">
<path id="Vector_8" d="M161.999 9.6441C164.509 9.6441 166.544 7.60922 166.544 5.09907C166.544 2.58892 164.509 0.554039 161.999 0.554039C159.489 0.554039 157.454 2.58892 157.454 5.09907C157.454 7.60922 159.489 9.6441 161.999 9.6441Z" fill="#00FFFF"/>
<path id="Vector_9" d="M161.999 10.1981C159.186 10.1981 156.9 7.91154 156.9 5.09907C156.9 2.2866 159.186 0 161.999 0C164.812 0 167.098 2.2866 167.098 5.09907C167.098 7.91154 164.812 10.1981 161.999 10.1981ZM161.999 1.10339C159.797 1.10339 158.003 2.89699 158.003 5.09907C158.003 7.30116 159.797 9.09475 161.999 9.09475C164.201 9.09475 165.995 7.30116 165.995 5.09907C165.995 2.89699 164.201 1.10339 161.999 1.10339Z" fill="#00FFFF"/>
</g>
<g id="Group_5">
<path id="Vector_10" d="M169.404 9.46098L169.258 9.71453C168.676 10.7099 167.389 11.048 166.394 10.4658C165.661 10.0385 164.957 9.56897 164.267 9.07597C163.577 8.58297 162.9 8.151 162.271 7.63452C161.59 7.08048 161.224 6.20716 161.262 5.32444C161.304 4.44173 161.952 3.5825 162.854 3.91586C163.563 4.1788 164.403 4.54503 165.07 4.8737C166.248 5.45591 167.521 5.92544 168.652 6.58747C169.648 7.16969 169.986 8.45619 169.404 9.45159V9.46098Z" fill="white"/>
<path id="Vector_11" d="M167.441 11.5692C166.943 11.5692 166.441 11.4424 165.981 11.1748C165.314 10.785 164.619 10.3343 163.793 9.74739C163.614 9.62062 163.436 9.49854 163.257 9.37647C162.755 9.02902 162.238 8.67217 161.75 8.27308C160.877 7.55939 160.388 6.44661 160.445 5.29627C160.482 4.48399 160.877 3.73274 161.473 3.33834C161.971 3.00967 162.558 2.94863 163.135 3.16461C163.854 3.43225 164.708 3.80317 165.427 4.15532C165.859 4.3713 166.309 4.5685 166.755 4.7704C167.521 5.11315 168.314 5.4653 169.056 5.89727C169.723 6.28697 170.202 6.91614 170.404 7.67208C170.601 8.42333 170.498 9.20744 170.103 9.87886L169.958 10.1324C169.418 11.0574 168.441 11.5739 167.441 11.5739V11.5692ZM162.464 4.6671C162.422 4.6671 162.393 4.68119 162.375 4.69528C162.243 4.78449 162.093 5.04742 162.079 5.37139C162.051 6.00995 162.314 6.62034 162.788 7.01005C163.224 7.36689 163.713 7.70495 164.187 8.03362C164.37 8.16039 164.553 8.28716 164.736 8.41393C165.521 8.96798 166.178 9.39994 166.807 9.76148C167.413 10.1183 168.202 9.91173 168.558 9.30134L168.704 9.0478C169.061 8.43741 168.854 7.6533 168.244 7.30115C167.577 6.91145 166.859 6.59217 166.098 6.25411C165.628 6.04751 165.164 5.83623 164.708 5.61085C164.046 5.28688 163.229 4.93004 162.572 4.68588C162.53 4.6671 162.492 4.66241 162.469 4.66241L162.464 4.6671Z" fill="#003467"/>
</g>
<g id="Group_6">
<path id="Vector_12" d="M204.9 46.1405C202.722 47.5115 200.106 47.0138 197.477 46.4081C194.735 45.7789 191.993 43.7553 189.894 41.9617C188.373 40.6611 188.974 38.5764 188.852 36.7922C188.725 34.961 188.603 33.1299 188.476 31.2987C188.316 28.9652 188.157 26.6316 187.997 24.2981L190.678 19.8751C191.307 18.8374 192.523 18.6919 193.383 19.5511L210.61 36.7969C211.526 37.7312 206.891 44.2201 206.262 44.9526C205.83 45.4503 205.375 45.84 204.896 46.1405H204.9Z" fill="white"/>
<path id="Vector_13" d="M201.59 47.8308C200.21 47.8308 198.768 47.5444 197.299 47.2063C194.979 46.6757 192.383 45.1639 189.368 42.5862C187.936 41.3607 187.992 39.6657 188.039 38.1679C188.054 37.7031 188.068 37.2617 188.039 36.8485L187.171 24.1009L189.983 19.4572C190.415 18.7482 191.096 18.2881 191.847 18.1942C192.603 18.1003 193.373 18.3867 193.96 18.9783C208.83 33.8623 210.887 35.9236 211.192 36.2335C211.812 36.8626 211.798 37.9801 209.713 41.3842C208.582 43.2341 207.248 45.0653 206.882 45.4925C206.412 46.0372 205.891 46.4879 205.332 46.8401C204.163 47.5725 202.905 47.8355 201.585 47.8355L201.59 47.8308ZM188.833 24.5047L189.669 36.7405C189.702 37.2335 189.687 37.7359 189.669 38.2243C189.626 39.5155 189.589 40.6282 190.425 41.3466C193.237 43.7506 195.604 45.1451 197.66 45.6193C200.285 46.2203 202.604 46.6241 204.464 45.455C204.886 45.192 205.281 44.8446 205.647 44.422C206.563 43.3609 209.826 38.4684 209.915 37.257C208.422 35.7639 192.805 20.1287 192.805 20.1287C192.57 19.8939 192.303 19.7812 192.04 19.8141C191.782 19.8469 191.547 20.0207 191.373 20.3024L188.828 24.5047H188.833Z" fill="#003467"/>
</g>
<g id="Group_7">
<path id="Vector_14" d="M170.326 9.74967L170.177 10.0052C169.594 11.0041 169.931 12.2864 170.93 12.8692L174.962 15.2211C175.961 15.8039 177.243 15.4665 177.826 14.4676L177.975 14.2121C178.558 13.2131 178.22 11.9308 177.221 11.348L173.19 8.99616C172.191 8.41335 170.909 8.75071 170.326 9.74967Z" fill="white"/>
<path id="Vector_15" d="M176.024 16.3302C175.526 16.3302 175.024 16.2034 174.564 15.9358L170.53 13.5834C169.864 13.1937 169.385 12.5646 169.183 11.8086C168.986 11.0574 169.089 10.2733 169.483 9.60184L169.629 9.3483C170.437 7.96319 172.225 7.49366 173.611 8.30125L177.644 10.6536C179.029 11.4612 179.499 13.2454 178.691 14.6352L178.545 14.8887C178.005 15.8137 177.029 16.3302 176.024 16.3302ZM172.146 9.53611C171.704 9.53611 171.277 9.76148 171.038 10.17L170.892 10.4235C170.718 10.7193 170.676 11.0621 170.761 11.3907C170.85 11.7241 171.056 12.0011 171.352 12.1702L175.385 14.5225C175.991 14.8793 176.78 14.6727 177.137 14.0624L177.282 13.8088C177.639 13.1984 177.433 12.4143 176.822 12.0575L172.789 9.70514C172.587 9.58775 172.366 9.53141 172.146 9.53141V9.53611Z" fill="#003467"/>
</g>
<g id="Group_8">
<path id="Vector_16" d="M175.888 32.7214L175.738 33.0641C175.146 34.4117 173.747 35.1066 172.634 34.6183C171.817 34.2567 171.014 33.7778 170.239 33.3365C168.732 32.4819 166.69 32.0875 167.802 29.5662L167.953 29.2234C168.704 27.5237 169.878 27.5472 171.127 28.0261C172.385 28.5097 173.662 28.9417 174.939 29.383C176.052 29.876 176.479 31.3785 175.888 32.7214Z" fill="white"/>
<path id="Vector_17" d="M173.381 35.5855C173.014 35.5855 172.648 35.5151 172.301 35.3601C171.592 35.0455 170.906 34.6558 170.244 34.2755L169.836 34.0408C169.601 33.9093 169.357 33.7919 169.112 33.6698C167.798 33.0266 165.807 32.0593 167.056 29.2281C167.136 29.0497 167.178 28.9464 167.206 28.8853C168.018 27.0401 169.436 26.4907 171.418 27.2561C172.517 27.6787 173.662 28.0731 174.766 28.4487L175.268 28.6224C176.024 28.9558 176.597 29.6366 176.836 30.4958C177.066 31.3128 176.996 32.2143 176.63 33.036L176.479 33.3787C175.878 34.7403 174.625 35.5761 173.381 35.5761V35.5855ZM168.666 29.6178L168.544 29.8948C167.957 31.2236 168.385 31.51 169.826 32.2096C170.098 32.3411 170.376 32.4772 170.634 32.6275L171.052 32.8669C171.676 33.2238 172.324 33.5947 172.958 33.8764C173.653 34.1816 174.583 33.6604 174.986 32.7402L175.137 32.3974C175.343 31.9279 175.39 31.402 175.263 30.9607C175.155 30.5756 174.93 30.2892 174.629 30.1484L174.23 30.0122C173.113 29.6272 171.953 29.2328 170.826 28.7961C169.667 28.3501 169.145 28.5332 168.695 29.5615L168.666 29.6272V29.6178Z" fill="#003467"/>
</g>
<g id="Group_9">
<path id="Vector_18" d="M176.158 32.9377L175.979 33.3459C175.259 34.9785 176 36.8852 177.632 37.6045L184.21 40.5031C185.843 41.2225 187.75 40.4822 188.469 38.8496L188.649 38.4414C189.368 36.8088 188.628 34.9021 186.995 34.1827L180.417 31.2842C178.785 30.5648 176.878 31.3051 176.158 32.9377Z" fill="white"/>
<path id="Vector_19" d="M185.523 41.6048C184.978 41.6048 184.429 41.4969 183.898 41.2621L177.315 38.3604C176.329 37.9284 175.573 37.1302 175.179 36.1208C174.789 35.1113 174.808 34.0126 175.245 33.0266L175.428 32.6134C175.86 31.6274 176.658 30.8714 177.667 30.477C178.677 30.0873 179.776 30.1108 180.762 30.5428L187.344 33.4445C188.331 33.8764 189.086 34.6746 189.481 35.6841C189.871 36.6936 189.847 37.7923 189.415 38.7783L189.232 39.1915C188.565 40.7034 187.082 41.6048 185.527 41.6048H185.523ZM179.137 31.834C178.841 31.834 178.545 31.8903 178.259 31.9983C177.658 32.2331 177.184 32.6838 176.926 33.2707L176.742 33.6839C176.484 34.2708 176.47 34.9235 176.705 35.5292C176.94 36.1302 177.39 36.6044 177.977 36.8673L184.56 39.769C185.776 40.3043 187.204 39.7502 187.739 38.5341L187.922 38.121C188.18 37.534 188.194 36.8814 187.96 36.2757C187.725 35.6747 187.274 35.2005 186.687 34.9376L180.104 32.0359C179.794 31.8997 179.47 31.834 179.142 31.834H179.137Z" fill="#003467"/>
</g>
<g id="Group_10">
<path id="Vector_20" d="M193.481 22.6641L193.289 22.9928C192.538 24.284 190.941 24.7629 189.739 24.0633L179.926 18.537C178.729 17.8374 178.362 16.2081 179.114 14.9216L179.306 14.5929C180.057 13.3017 181.654 12.8228 182.856 13.5224L192.669 19.0487C193.866 19.7483 194.233 21.3776 193.481 22.6641Z" fill="white"/>
<path id="Vector_21" d="M190.941 25.1995C190.387 25.1995 189.833 25.0587 189.331 24.7676L179.531 19.2459C177.93 18.3116 177.433 16.1893 178.414 14.5084L178.606 14.1797C179.588 12.4988 181.677 11.8884 183.269 12.8134L193.073 18.3351C194.674 19.2694 195.172 21.3917 194.19 23.0726L193.998 23.4013C193.326 24.5516 192.138 25.1995 190.946 25.1995H190.941ZM181.649 14.0107C181.015 14.0107 180.377 14.3722 180.01 14.9967L179.818 15.3254C179.292 16.2269 179.527 17.349 180.339 17.828L190.143 23.3496C190.969 23.8332 192.059 23.4811 192.589 22.5796L192.782 22.2509C193.308 21.3494 193.078 20.2273 192.261 19.7483L182.461 14.2267C182.208 14.0811 181.931 14.0107 181.654 14.0107H181.649Z" fill="#003467"/>
</g>
<g id="Group_11">
<path id="Vector_22" d="M169.676 11.7523C170.762 11.7523 171.643 10.8715 171.643 9.78496C171.643 8.69843 170.762 7.81763 169.676 7.81763C168.589 7.81763 167.709 8.69843 167.709 9.78496C167.709 10.8715 168.589 11.7523 169.676 11.7523Z" fill="#00FFFF"/>
<path id="Vector_23" d="M169.671 12.3063C169.263 12.3063 168.85 12.2077 168.469 11.9964C167.878 11.6725 167.45 11.1419 167.258 10.4939C167.065 9.846 167.14 9.16518 167.464 8.57827C167.788 7.98667 168.319 7.5594 168.967 7.36689C169.615 7.17908 170.296 7.24951 170.883 7.57348C172.103 8.24021 172.554 9.77557 171.887 10.9916C171.432 11.8274 170.563 12.3016 169.671 12.3016V12.3063ZM169.681 8.36698C169.549 8.36698 169.413 8.38577 169.281 8.42333C168.92 8.53132 168.619 8.77078 168.436 9.10414C168.253 9.43751 168.216 9.81783 168.319 10.1841C168.422 10.5503 168.666 10.8461 169 11.0292C169.685 11.4048 170.545 11.1513 170.92 10.4658C171.296 9.78026 171.042 8.92103 170.357 8.54541C170.145 8.42802 169.915 8.37168 169.681 8.37168V8.36698Z" fill="#003467"/>
</g>
<g id="Group_12">
<path id="Vector_24" d="M169.676 10.5738C170.112 10.5738 170.465 10.2206 170.465 9.78495C170.465 9.34931 170.112 8.99615 169.676 8.99615C169.24 8.99615 168.887 9.34931 168.887 9.78495C168.887 10.2206 169.24 10.5738 169.676 10.5738Z" fill="white"/>
<path id="Vector_25" d="M169.676 10.663C169.535 10.663 169.389 10.6301 169.258 10.555C169.051 10.4423 168.906 10.2592 168.835 10.0338C168.765 9.80843 168.793 9.57367 168.906 9.36707C169.019 9.16048 169.202 9.01493 169.427 8.9445C169.652 8.87877 169.887 8.90224 170.094 9.01493C170.516 9.245 170.676 9.78026 170.441 10.2028C170.282 10.4939 169.981 10.6583 169.671 10.6583L169.676 10.663ZM169.676 9.08536C169.61 9.08536 169.544 9.09475 169.479 9.11353C169.3 9.16518 169.15 9.28725 169.061 9.44689C168.972 9.61123 168.953 9.79904 169.004 9.97746C169.056 10.1559 169.178 10.3061 169.338 10.3953C169.676 10.5785 170.103 10.4564 170.286 10.1183C170.469 9.78026 170.347 9.35299 170.009 9.16987C169.906 9.11353 169.789 9.08536 169.676 9.08536Z" fill="#003467"/>
</g>
<g id="Group_13">
<path id="Vector_26" d="M178.71 16.687C179.796 16.687 180.677 15.8062 180.677 14.7197C180.677 13.6332 179.796 12.7524 178.71 12.7524C177.623 12.7524 176.742 13.6332 176.742 14.7197C176.742 15.8062 177.623 16.687 178.71 16.687Z" fill="#00FFFF"/>
<path id="Vector_27" d="M178.705 17.2411C178.287 17.2411 177.874 17.1378 177.498 16.9312C176.278 16.2644 175.827 14.7291 176.494 13.513C177.16 12.2922 178.696 11.8462 179.912 12.5082C180.503 12.8322 180.931 13.3628 181.123 14.0107C181.316 14.6587 181.241 15.3395 180.917 15.9264C180.593 16.518 180.062 16.9453 179.414 17.1378C179.179 17.2082 178.94 17.2411 178.7 17.2411H178.705ZM178.714 13.3064C178.212 13.3064 177.728 13.574 177.47 14.0436C177.095 14.7291 177.348 15.5883 178.034 15.9639C178.367 16.1471 178.747 16.1846 179.109 16.0813C179.47 15.9733 179.771 15.7339 179.954 15.4005C180.137 15.0671 180.175 14.6868 180.071 14.3253C179.968 13.9638 179.724 13.6633 179.391 13.4801C179.175 13.3628 178.945 13.3064 178.714 13.3064Z" fill="#003467"/>
</g>
<g id="Group_14">
<path id="Vector_28" d="M178.71 15.5085C179.145 15.5085 179.499 15.1553 179.499 14.7197C179.499 14.284 179.145 13.9309 178.71 13.9309C178.274 13.9309 177.921 14.284 177.921 14.7197C177.921 15.1553 178.274 15.5085 178.71 15.5085Z" fill="white"/>
<path id="Vector_29" d="M178.71 15.5977C178.564 15.5977 178.423 15.5601 178.292 15.4897C177.869 15.2596 177.71 14.7244 177.944 14.3018C178.057 14.0952 178.24 13.945 178.466 13.8792C178.691 13.8135 178.926 13.837 179.132 13.9497C179.339 14.0624 179.484 14.2455 179.555 14.4708C179.625 14.6962 179.597 14.931 179.484 15.1376C179.372 15.3442 179.189 15.4897 178.963 15.5601C178.883 15.5836 178.799 15.5977 178.714 15.5977H178.71ZM178.71 14.0201C178.644 14.0201 178.578 14.0295 178.513 14.0483C178.334 14.0999 178.184 14.222 178.095 14.3816C177.912 14.7197 178.034 15.147 178.372 15.3301C178.536 15.4193 178.724 15.4381 178.902 15.3864C179.081 15.3348 179.231 15.2127 179.32 15.0531C179.409 14.8887 179.428 14.7009 179.376 14.5225C179.325 14.3441 179.203 14.1938 179.043 14.1046C178.94 14.0483 178.822 14.0201 178.71 14.0201Z" fill="#003467"/>
</g>
<g id="Group_15">
<g id="Group_16">
<path id="Vector_30" d="M184.156 25.7865C185.243 25.7865 186.124 24.9057 186.124 23.8191C186.124 22.7326 185.243 21.8518 184.156 21.8518C183.07 21.8518 182.189 22.7326 182.189 23.8191C182.189 24.9057 183.07 25.7865 184.156 25.7865Z" fill="#00FFFF"/>
<path id="Vector_31" d="M184.152 26.3405C183.743 26.3405 183.33 26.2419 182.95 26.0306C182.358 25.7066 181.931 25.1761 181.738 24.5281C181.546 23.8802 181.621 23.1994 181.945 22.6125C182.269 22.0208 182.799 21.5936 183.447 21.4011C184.095 21.2133 184.776 21.2837 185.363 21.6077C186.584 22.2744 187.035 23.8097 186.368 25.0258C185.912 25.8616 185.044 26.3358 184.152 26.3358V26.3405ZM184.161 22.4059C184.025 22.4059 183.893 22.4246 183.762 22.4622C183.4 22.5702 183.1 22.8097 182.917 23.143C182.734 23.4764 182.696 23.8567 182.799 24.2182C182.903 24.5798 183.147 24.8803 183.48 25.0634C184.166 25.439 185.025 25.1855 185.401 24.5C185.776 23.8144 185.523 22.9552 184.837 22.5796C184.626 22.4622 184.396 22.4059 184.161 22.4059Z" fill="#003467"/>
</g>
<g id="Group_17">
<path id="Vector_32" d="M184.156 24.6079C184.592 24.6079 184.945 24.2548 184.945 23.8191C184.945 23.3835 184.592 23.0303 184.156 23.0303C183.721 23.0303 183.368 23.3835 183.368 23.8191C183.368 24.2548 183.721 24.6079 184.156 24.6079Z" fill="white"/>
<path id="Vector_33" d="M184.156 24.6971C184.011 24.6971 183.87 24.6596 183.738 24.5892C183.532 24.4765 183.386 24.2934 183.316 24.068C183.245 23.8426 183.274 23.6078 183.386 23.4013C183.499 23.1947 183.682 23.0491 183.907 22.9787C184.133 22.9129 184.368 22.9364 184.574 23.0491C184.997 23.2792 185.156 23.8144 184.922 24.237C184.809 24.4436 184.626 24.5939 184.401 24.6596C184.321 24.6831 184.236 24.6971 184.152 24.6971H184.156ZM184.156 23.1195C184.091 23.1195 184.025 23.1289 183.959 23.1477C183.781 23.1994 183.63 23.3214 183.541 23.4811C183.452 23.6454 183.433 23.8332 183.485 24.0116C183.537 24.1901 183.659 24.3403 183.818 24.4295C183.983 24.5187 184.17 24.5375 184.349 24.4859C184.527 24.4342 184.678 24.3121 184.767 24.1525C184.95 23.8144 184.828 23.3872 184.49 23.2041C184.386 23.1477 184.269 23.1195 184.156 23.1195Z" fill="#003467"/>
</g>
</g>
<g id="Group_18">
<g id="Group_19">
<path id="Vector_34" d="M175.789 34.7638C176.876 34.7638 177.757 33.883 177.757 32.7965C177.757 31.71 176.876 30.8292 175.789 30.8292C174.703 30.8292 173.822 31.71 173.822 32.7965C173.822 33.883 174.703 34.7638 175.789 34.7638Z" fill="#00FFFF"/>
<path id="Vector_35" d="M175.785 35.3179C175.329 35.3179 174.869 35.1958 174.456 34.9376C173.277 34.2004 172.916 32.6416 173.653 31.4631C174.39 30.2845 175.949 29.923 177.127 30.6602C177.7 31.017 178.095 31.5757 178.245 32.2284C178.395 32.881 178.282 33.5618 177.926 34.13C177.447 34.8953 176.625 35.3132 175.785 35.3132V35.3179ZM175.789 31.3785C175.681 31.3785 175.573 31.3926 175.47 31.4161C175.099 31.5006 174.789 31.726 174.587 32.0453C174.174 32.7073 174.376 33.5806 175.038 33.9985C175.7 34.4117 176.573 34.2098 176.991 33.5478C177.193 33.2285 177.254 32.8482 177.17 32.4772C177.085 32.111 176.86 31.7964 176.54 31.5945C176.31 31.4537 176.057 31.3785 175.794 31.3785H175.789Z" fill="#003467"/>
</g>
<g id="Group_20">
<path id="Vector_36" d="M175.789 33.5853C176.225 33.5853 176.578 33.2322 176.578 32.7965C176.578 32.3609 176.225 32.0077 175.789 32.0077C175.354 32.0077 175 32.3609 175 32.7965C175 33.2322 175.354 33.5853 175.789 33.5853Z" fill="white"/>
<path id="Vector_37" d="M175.785 33.6745C175.625 33.6745 175.465 33.6323 175.324 33.5431C175.127 33.421 174.986 33.2238 174.935 32.9984C174.883 32.7683 174.921 32.5336 175.047 32.3364C175.169 32.1392 175.367 31.9983 175.592 31.9467C175.822 31.895 176.057 31.9326 176.254 32.0593C176.663 32.3129 176.789 32.8575 176.531 33.266C176.367 33.5337 176.08 33.6792 175.789 33.6792L175.785 33.6745ZM175.789 32.0969C175.738 32.0969 175.681 32.1016 175.63 32.1157C175.446 32.158 175.292 32.2659 175.193 32.4256C175.094 32.5852 175.061 32.773 175.104 32.9515C175.146 33.1346 175.254 33.2895 175.414 33.3881C175.742 33.5947 176.174 33.4914 176.376 33.1674C176.578 32.8388 176.479 32.4068 176.155 32.2049C176.043 32.1345 175.916 32.0969 175.785 32.0969H175.789Z" fill="#003467"/>
</g>
</g>
<g id="Group_21">
<g id="Group_22">
<path id="Vector_38" d="M188.434 42.4594C190.568 42.4594 192.298 40.7293 192.298 38.5952C192.298 36.461 190.568 34.731 188.434 34.731C186.3 34.731 184.57 36.461 184.57 38.5952C184.57 40.7293 186.3 42.4594 188.434 42.4594Z" fill="#00FFFF"/>
<path id="Vector_39" d="M188.424 43.0134C187.697 43.0134 186.974 42.8303 186.312 42.4688C185.274 41.9053 184.523 40.971 184.189 39.8394C183.856 38.7079 183.987 37.5153 184.551 36.4776C185.72 34.3413 188.406 33.5524 190.542 34.7216C191.58 35.285 192.331 36.2194 192.66 37.3509C192.988 38.4825 192.862 39.6751 192.298 40.7127C191.73 41.7457 190.796 42.5016 189.664 42.835C189.251 42.9571 188.833 43.0134 188.415 43.0134H188.424ZM188.434 35.2803C188.119 35.2803 187.805 35.3273 187.495 35.4165C186.645 35.6653 185.945 36.2288 185.523 37.0082C185.1 37.7829 185.002 38.6797 185.25 39.5295C185.499 40.3794 186.063 41.079 186.842 41.5015C187.622 41.9241 188.514 42.0227 189.363 41.7739C190.213 41.525 190.913 40.9616 191.336 40.1822C191.758 39.4075 191.857 38.5107 191.608 37.6608C191.359 36.811 190.796 36.1114 190.016 35.6888C189.523 35.4212 188.978 35.2803 188.434 35.2803Z" fill="#003467"/>
</g>
<g id="Group_23">
<path id="Vector_40" d="M188.434 40.5249C189.5 40.5249 190.364 39.6609 190.364 38.5952C190.364 37.5294 189.5 36.6654 188.434 36.6654C187.368 36.6654 186.504 37.5294 186.504 38.5952C186.504 39.6609 187.368 40.5249 188.434 40.5249Z" fill="white"/>
<path id="Vector_41" d="M188.429 40.802C188.063 40.802 187.701 40.7127 187.373 40.5296C186.307 39.9474 185.908 38.6046 186.495 37.534C187.077 36.4682 188.42 36.0691 189.49 36.656C190.007 36.9377 190.382 37.4073 190.551 37.9707C190.72 38.5341 190.655 39.1351 190.368 39.6516C190.087 40.1681 189.617 40.5437 189.054 40.7127C188.847 40.7738 188.636 40.802 188.429 40.802ZM188.434 36.9377C187.847 36.9377 187.279 37.2476 186.978 37.797C186.542 38.5999 186.837 39.6047 187.64 40.046C188.03 40.2573 188.476 40.3043 188.899 40.1822C189.321 40.0554 189.673 39.7737 189.885 39.3887C190.096 38.999 190.143 38.5529 190.021 38.1303C189.899 37.7078 189.612 37.3556 189.227 37.1443C188.974 37.0082 188.706 36.9424 188.439 36.9424L188.434 36.9377Z" fill="#003467"/>
</g>
</g>
<g id="Group_24">
<g id="Group_25">
<path id="Vector_42" d="M190.364 25.716C192.498 25.716 194.228 23.986 194.228 21.8518C194.228 19.7177 192.498 17.9876 190.364 17.9876C188.229 17.9876 186.499 19.7177 186.499 21.8518C186.499 23.986 188.229 25.716 190.364 25.716Z" fill="#00FFFF"/>
<path id="Vector_43" d="M190.354 26.2654C189.641 26.2654 188.917 26.0917 188.246 25.7254C186.11 24.5563 185.321 21.8706 186.49 19.7342C187.659 17.5979 190.345 16.8091 192.481 17.9782C194.618 19.1473 195.406 21.833 194.237 23.9694C193.434 25.4343 191.918 26.2654 190.354 26.2654ZM190.368 18.5416C189.194 18.5416 188.058 19.1661 187.457 20.2648C186.584 21.8659 187.171 23.8849 188.777 24.7582C190.378 25.6315 192.397 25.0399 193.27 23.4388C194.148 21.8377 193.556 19.8188 191.951 18.9454C191.448 18.6731 190.904 18.5416 190.368 18.5416Z" fill="#003467"/>
</g>
<g id="Group_26">
<path id="Vector_44" d="M190.364 23.7816C191.429 23.7816 192.293 22.9176 192.293 21.8518C192.293 20.786 191.429 19.9221 190.364 19.9221C189.298 19.9221 188.434 20.786 188.434 21.8518C188.434 22.9176 189.298 23.7816 190.364 23.7816Z" fill="white"/>
<path id="Vector_45" d="M190.359 24.0586C190.002 24.0586 189.641 23.9694 189.302 23.791C188.786 23.5093 188.41 23.0397 188.241 22.4763C188.072 21.9129 188.138 21.3119 188.424 20.7954C188.706 20.2789 189.176 19.9033 189.739 19.7342C190.307 19.5699 190.904 19.631 191.42 19.9174C192.486 20.4996 192.88 21.8424 192.298 22.913C191.899 23.6454 191.138 24.0633 190.359 24.0633V24.0586ZM190.368 20.1944C190.213 20.1944 190.054 20.2179 189.899 20.2601C189.476 20.3869 189.124 20.6686 188.913 21.0536C188.701 21.4386 188.654 21.8894 188.777 22.312C188.899 22.7345 189.185 23.0867 189.57 23.298C190.368 23.7346 191.378 23.4388 191.819 22.6406C192.256 21.8377 191.96 20.8329 191.162 20.3963C190.913 20.2601 190.645 20.1944 190.368 20.1944Z" fill="#003467"/>
</g>
</g>
<g id="Group_27">
<path id="Vector_46" d="M212.07 43.1167C213.446 41.68 213.568 39.2243 212.347 37.6561L210.286 35.008C209.065 33.4398 207.281 33.5806 206.314 35.3179L201.407 44.1732C200.445 45.9104 200.909 47.9904 202.445 48.798C203.98 49.6056 206.356 49.0891 207.732 47.6524L212.07 43.1167Z" fill="white"/>
<path id="Vector_47" d="M204.135 50C203.398 50 202.684 49.8451 202.064 49.5211C201.2 49.0656 200.557 48.2721 200.266 47.2908C199.928 46.1593 200.083 44.8775 200.693 43.7788L205.6 34.9235C206.196 33.8529 207.121 33.1909 208.14 33.1111C209.159 33.036 210.178 33.5431 210.929 34.5103L212.991 37.1584C214.451 39.0365 214.301 41.9617 212.657 43.6849L208.319 48.2205C207.22 49.3661 205.628 50 204.13 50H204.135ZM208.351 34.7357C208.323 34.7357 208.295 34.7357 208.267 34.7357C207.797 34.7732 207.356 35.1207 207.027 35.7123L202.121 44.5676C201.722 45.2859 201.614 46.1076 201.83 46.826C201.994 47.3847 202.351 47.8261 202.825 48.0796C204.041 48.7182 206.018 48.2674 207.145 47.0936L211.483 42.558C212.573 41.4217 212.676 39.4075 211.709 38.1632L209.647 35.5151C209.258 35.0127 208.802 34.7404 208.356 34.7404L208.351 34.7357Z" fill="#003467"/>
</g>
</g>
</g>
</g>
<defs>
<linearGradient id="paint0_linear_1186_8277" x1="45.512" y1="19.5934" x2="209.361" y2="19.5934" gradientUnits="userSpaceOnUse">
<stop stop-color="#00D4C2"/>
<stop offset="0.5" stop-color="#0046B4"/>
</linearGradient>
<linearGradient id="paint1_linear_1186_8277" x1="45.512" y1="20.5184" x2="209.361" y2="20.5184" gradientUnits="userSpaceOnUse">
<stop stop-color="#00D4C2"/>
<stop offset="0.5" stop-color="#0046B4"/>
<stop offset="1" stop-color="#000046"/>
</linearGradient>
<linearGradient id="paint2_linear_1186_8277" x1="45.512" y1="19.7202" x2="209.361" y2="19.7202" gradientUnits="userSpaceOnUse">
<stop stop-color="#00D4C2"/>
<stop offset="0.5" stop-color="#0046B4"/>
<stop offset="1" stop-color="#000046"/>
</linearGradient>
<clipPath id="clip0_1186_8277">
<rect width="214" height="50" fill="white"/>
</clipPath>
</defs>
</svg>
