<svg width="66" height="28" viewBox="0 0 66 28" fill="none" xmlns="http://www.w3.org/2000/svg">
<g id="Frame" clip-path="url(#clip0_3946_1792)">
<path id="Vector" d="M13.9536 0.509178C15.7199 0.507585 17.4694 0.855272 19.1018 1.53239C20.7342 2.2095 22.2177 3.20276 23.4675 4.45542C24.7172 5.70808 25.7088 7.19558 26.3855 8.83294C27.0622 10.4703 27.4108 12.2254 27.4113 13.998C27.4113 17.5758 25.9953 21.0072 23.4746 23.5375C20.9539 26.0677 17.535 27.4898 13.9697 27.4908C12.2042 27.4908 10.456 27.1418 8.82489 26.4637C7.19381 25.7855 5.71183 24.7916 4.46361 23.5386C3.21539 22.2857 2.22536 20.7982 1.55009 19.1612C0.874825 17.5242 0.52754 15.7697 0.528069 13.998C0.528069 10.4205 1.94424 6.9896 4.46503 4.45996C6.98582 1.93031 10.4047 0.509178 13.9697 0.509178H13.9536ZM13.9697 9.34745e-06C12.1365 -0.00584603 10.3204 0.353701 8.62684 1.0578C6.93324 1.76189 5.39587 2.79651 4.10391 4.10161C2.80458 5.39817 1.77433 6.9404 1.07276 8.63909C0.3712 10.3378 0.0122407 12.1592 0.016652 13.998C0.0117079 15.8375 0.370423 17.6597 1.072 19.3591C1.77358 21.0585 2.8041 22.6014 4.10391 23.8984C5.39587 25.2035 6.93324 26.2381 8.62684 26.9422C10.3204 27.6463 12.1365 28.0059 13.9697 28C15.8027 28.005 17.6185 27.645 19.312 26.941C21.0055 26.2369 22.543 25.2028 23.8355 23.8984C25.1347 22.6012 26.1646 21.0582 26.8655 19.3587C27.5664 17.6593 27.9244 15.8372 27.9187 13.998C27.9238 12.1594 27.5656 10.3381 26.8647 8.63942C26.1639 6.94072 25.1342 5.39837 23.8355 4.10161C22.543 2.79724 21.0055 1.7631 19.312 1.05905C17.6185 0.355011 15.8027 -0.0049521 13.9697 9.34745e-06Z" fill="#2B2B2B"/>
<path id="Vector_2" d="M15.008 12.8746H23.0215V11.7471C23.0215 10.9955 22.2161 11.0521 22.2161 11.0521H21.6644V9.21747H23.0255V8.22339C23.0259 8.11122 23.003 8.00018 22.9584 7.89737C22.9137 7.79455 22.8482 7.70219 22.766 7.62617C22.6838 7.55015 22.5867 7.49214 22.481 7.45581C22.3752 7.41949 22.263 7.40566 22.1517 7.41519H19.5463V6.60699H17.7463V7.41519H14.2671V8.62749C14.2671 8.62749 14.243 9.22959 15.0362 9.22959H15.6282V11.0521H14.2671V12.2118C14.2683 12.3055 14.2889 12.3979 14.3277 12.4832C14.3664 12.5684 14.4224 12.6447 14.4921 12.707C14.5618 12.7694 14.6437 12.8164 14.7325 12.8453C14.8213 12.8741 14.9152 12.8841 15.008 12.8746ZM17.4241 9.23767H19.8403V11.0602H17.4241V9.23767Z" fill="#2B2B2B"/>
<path id="Vector_3" d="M21.1973 22.6538V20.1565H23.0214V13.4848H14.247V19.2351C14.2398 19.3539 14.257 19.4729 14.2976 19.5847C14.3381 19.6965 14.4011 19.7988 14.4826 19.8852C14.5642 19.9716 14.6625 20.0402 14.7716 20.0869C14.8807 20.1336 14.9982 20.1572 15.1167 20.1565H16.0591V22.6578H14.2872C14.2175 23.3526 13.9017 23.9993 13.3973 24.4803H16.1356C16.3677 24.4934 16.6001 24.4569 16.8171 24.3731C17.0342 24.2894 17.2311 24.1604 17.3948 23.9946C17.5585 23.8288 17.6852 23.6301 17.7666 23.4115C17.848 23.1929 17.8823 22.9594 17.8671 22.7265V20.1605H19.3772V24.4803H21.1168C22.2322 24.4803 23.5329 22.6578 23.5329 22.6578L21.1973 22.6538ZM18.6161 18.924C18.0736 18.9241 17.5523 18.7125 17.1624 18.334H16.0711V15.3032H17.1704C17.5594 14.9232 18.0813 14.7114 18.6242 14.7133C19.167 14.7114 19.6889 14.9232 20.0778 15.3032H21.2134V18.334H20.0778C19.6847 18.7115 19.1603 18.9203 18.6161 18.9159V18.924Z" fill="#2B2B2B"/>
<path id="Vector_4" d="M18.5879 15.2386C18.3797 15.2386 18.1736 15.2798 17.9814 15.3599C17.7891 15.4399 17.6144 15.5573 17.4674 15.7052C17.3204 15.8531 17.204 16.0286 17.1247 16.2218C17.0454 16.4149 17.0048 16.6218 17.0054 16.8307C17.0054 17.2523 17.172 17.6567 17.4686 17.9551C17.7653 18.2536 18.1678 18.4218 18.5879 18.4229C19.0087 18.4229 19.4122 18.2552 19.7098 17.9566C20.0073 17.658 20.1745 17.253 20.1745 16.8307C20.175 16.6215 20.1344 16.4142 20.0548 16.2208C19.9753 16.0274 19.8584 15.8517 19.711 15.7037C19.5635 15.5558 19.3884 15.4385 19.1957 15.3587C19.003 15.2789 18.7964 15.2381 18.5879 15.2386ZM18.5879 17.9178C18.3006 17.9178 18.0251 17.8032 17.822 17.5994C17.6188 17.3955 17.5047 17.119 17.5047 16.8307C17.5047 16.5424 17.6188 16.266 17.822 16.0621C18.0251 15.8582 18.3006 15.7437 18.5879 15.7437C18.7305 15.7432 18.8718 15.7709 19.0037 15.8253C19.1355 15.8797 19.2554 15.9597 19.3565 16.0607C19.4575 16.1617 19.5376 16.2817 19.5923 16.4138C19.647 16.546 19.6752 16.6877 19.6752 16.8307C19.6752 16.9738 19.647 17.1155 19.5923 17.2477C19.5376 17.3798 19.4575 17.4998 19.3565 17.6008C19.2554 17.7018 19.1355 17.7818 19.0037 17.8362C18.8718 17.8906 18.7305 17.9183 18.5879 17.9178Z" fill="#2B2B2B"/>
<path id="Vector_5" d="M13.4497 23.3973C13.5725 23.1657 13.6529 22.9139 13.6873 22.6538H11.1222V16.5155H13.643V15.4123C13.6554 15.3131 13.6446 15.2124 13.6116 15.1181C13.5787 15.0237 13.5243 14.9384 13.4529 14.8687C13.3815 14.799 13.2949 14.7468 13.2001 14.7164C13.1052 14.6859 13.0045 14.6779 12.9061 14.693H11.1222V12.8746H13.6873V10.9794C13.6644 10.5523 13.4967 10.146 13.2121 9.8277L10.7396 7.34653C10.6135 7.22019 10.4427 7.14923 10.2645 7.14923C10.0863 7.14923 9.91537 7.22019 9.78929 7.34653L7.30874 9.83578C7.02411 10.1525 6.85641 10.5576 6.8336 10.9834V12.1957C6.8336 12.5634 6.8336 12.8706 6.8336 12.8746C6.8336 12.8786 7.05102 12.6645 7.31277 12.4018L9.78526 9.92064C9.91134 9.7943 10.0823 9.72334 10.2604 9.72334C10.4386 9.72334 10.6095 9.7943 10.7356 9.92064L11.8672 11.0562H9.85373C9.66505 11.0621 9.47947 11.106 9.30795 11.1851C9.13643 11.2642 8.98245 11.377 8.85508 11.5168L7.29266 13.0847H9.30608V14.7011H6.78528V15.8407C6.77511 15.935 6.78656 16.0304 6.81875 16.1196C6.85094 16.2088 6.90304 16.2894 6.97104 16.3553C7.03903 16.4212 7.12112 16.4706 7.21106 16.4998C7.30101 16.5289 7.39641 16.5371 7.48997 16.5236H9.30608V22.6619H6.78528C6.78528 22.6619 7.36513 24.4844 8.43224 24.4844H11.9477C12.0465 24.484 12.1451 24.4732 12.2416 24.452C12.6787 24.2936 13.0549 24.0009 13.3168 23.6155L13.341 23.5792L13.4134 23.466C13.4275 23.4443 13.4396 23.4213 13.4497 23.3973Z" fill="#2B2B2B"/>
<path id="Vector_6" d="M12.3342 20.1605C13.0036 20.1605 13.5463 19.6159 13.5463 18.9441C13.5463 18.2724 13.0036 17.7278 12.3342 17.7278C11.6648 17.7278 11.1221 18.2724 11.1221 18.9441C11.1221 19.6159 11.6648 20.1605 12.3342 20.1605Z" fill="#2B2B2B"/>
<path id="Vector_7" d="M8.1262 20.6899C8.41028 20.3712 8.57787 19.9651 8.60139 19.5382V17.1136L8.12217 17.5904L7.26445 18.4552C6.97981 18.7735 6.81218 19.1798 6.78931 19.6069V22.0315L7.26848 21.5546L8.1262 20.6899Z" fill="#2B2B2B"/>
<path id="Vector_8" d="M37.5383 13.6626H39.451V18.3663H37.5383V13.6626Z" fill="#2B2B2B"/>
<path id="Vector_9" d="M40.6711 13.6626H43.8926C45.5034 13.6626 46.0792 14.2405 46.0792 14.8749C46.0792 15.5093 45.604 15.8973 44.7141 16.0225C45.9221 16.1195 46.0027 16.564 46.0228 17.1944C46.059 18.1238 46.1154 18.2168 46.3892 18.2814V18.3421H44.3235C44.1745 18.1845 44.1181 17.9178 44.1181 17.3843C44.1181 16.5761 43.9248 16.3983 43.3127 16.3983H42.5839V18.3421H40.6671L40.6711 13.6626ZM42.5879 15.6427H43.1799C43.953 15.6427 44.1584 15.3073 44.1584 15.0325C44.1584 14.6769 43.9288 14.4385 43.1678 14.4385H42.5879V15.6427Z" fill="#2B2B2B"/>
<path id="Vector_10" d="M47.2108 13.6626H50.4322C52.043 13.6626 52.6228 14.2405 52.6228 14.8749C52.6228 15.5093 52.1436 15.8973 51.2537 16.0225C52.4617 16.1195 52.5423 16.564 52.5624 17.1944C52.5986 18.1238 52.655 18.2168 52.9289 18.2814V18.3421H50.8671C50.7181 18.1845 50.6617 17.9178 50.6617 17.3843C50.6617 16.5761 50.4684 16.3983 49.8564 16.3983H49.1275V18.3421H47.2108V13.6626ZM49.1275 15.6427H49.7195C50.4926 15.6427 50.698 15.3073 50.698 15.0325C50.698 14.6769 50.4725 14.4385 49.7074 14.4385H49.1275V15.6427Z" fill="#2B2B2B"/>
<path id="Vector_11" d="M56.4282 18.4552C53.9114 18.4552 53.5691 17.5096 53.5691 16.0306C53.5691 14.5516 53.9114 13.5858 56.4282 13.5858C59.1423 13.5858 59.2913 14.7254 59.2913 16.0306C59.2913 17.3358 59.1423 18.4552 56.4282 18.4552ZM56.4282 17.7197C57.2014 17.7197 57.3141 17.3157 57.3141 16.0145C57.3141 14.7133 57.2014 14.3092 56.4282 14.3092C55.6551 14.3092 55.5624 14.7133 55.5624 16.0145C55.5624 17.3157 55.6671 17.7036 56.404 17.7036L56.4282 17.7197Z" fill="#2B2B2B"/>
<path id="Vector_12" d="M60.294 13.6626H63.5154C65.1262 13.6626 65.706 14.2405 65.706 14.8749C65.706 15.5093 65.2268 15.8973 64.3369 16.0225C65.5449 16.1195 65.6255 16.564 65.6496 17.1944C65.6819 18.1238 65.7382 18.2168 66.0121 18.2814V18.3421H63.9503C63.8013 18.1845 63.745 17.9178 63.745 17.3843C63.745 16.5761 63.5517 16.3983 62.9396 16.3983H62.2108V18.3421H60.298L60.294 13.6626ZM62.2067 15.6427H62.7987C63.5718 15.6427 63.7772 15.3073 63.7772 15.0325C63.7772 14.6769 63.5517 14.4385 62.7866 14.4385H62.2067V15.6427Z" fill="#2B2B2B"/>
<path id="Vector_13" d="M30.5235 19.1219L30.0524 16.0629H30.0282V19.1219H28.3208V13.6626H31.1396L31.9047 19.13L30.5235 19.1219ZM34.1074 19.1219V16.0629H34.0872L33.6402 19.1219H32.3758L33.1168 13.6545H35.8873V19.1219H34.1074Z" fill="#2B2B2B"/>
<path id="Vector_14" d="M37.4376 19.8534H42.141V20.7505H39.3504V21.692H41.9719V22.5851H39.3504V23.66H42.2658V24.5733H37.4336L37.4376 19.8534Z" fill="#2B2B2B"/>
<path id="Vector_15" d="M43.1154 19.8534H45.9342C47.8268 19.8534 48.6322 20.4191 48.6322 22.0517C48.6322 23.757 48.2577 24.5571 45.7409 24.5571H43.1154V19.8534ZM45.0322 23.7408H45.5436C46.4335 23.7408 46.7517 23.5347 46.7517 22.1244C46.7517 20.9808 46.5946 20.6697 45.5798 20.6697H45.0443L45.0322 23.7408Z" fill="#2B2B2B"/>
<path id="Vector_16" d="M49.7074 19.8534H51.6201V24.5733H49.7074V19.8534Z" fill="#2B2B2B"/>
<path id="Vector_17" d="M54.3463 19.8534H56.7382L58.7516 24.5571H56.7705L56.4765 23.66H54.5275L54.2416 24.5571H52.2604L54.3463 19.8534ZM55.506 20.7101L54.8335 22.8033H56.2228L55.506 20.7101Z" fill="#2B2B2B"/>
<path id="Vector_18" d="M28.3208 19.1219H30.0282V24.5732H28.3208V19.1219ZM31.3611 24.553L30.5235 19.1219H31.8886L32.1261 20.8111H32.1503L32.3798 19.1219H33.6402L32.8349 24.553H31.3611ZM34.1074 19.1219H35.8873V24.5732H34.1074V19.1219Z" fill="#2B2B2B"/>
</g>
<defs>
<clipPath id="clip0_3946_1792">
<rect width="66" height="28" fill="white"/>
</clipPath>
</defs>
</svg>
