<svg width="76" height="24" viewBox="0 0 76 24" fill="none" xmlns="http://www.w3.org/2000/svg">
<g clip-path="url(#clip0_5090_77)">
<path d="M30.4304 6.53125H24.8772V17.4685H27.2182V8.84404C27.2182 8.84404 28.1686 8.80527 29.6353 8.80527C31.1876 8.80527 31.9542 9.86799 31.9542 11.4734V17.4685H34.2952V10.8693C34.3016 8.32398 32.9679 6.55709 30.4304 6.53125Z" fill="white"/>
<path d="M40.4377 6.43444C39.732 6.41514 39.0303 6.54917 38.3792 6.82763C37.7282 7.10609 37.1427 7.5226 36.6616 8.04952C36.17 8.57362 35.7845 9.19147 35.5274 9.8677C35.2703 10.5439 35.1465 11.2652 35.1632 11.9903C35.1474 12.7301 35.2797 13.4654 35.5521 14.1513C35.8244 14.8372 36.2311 15.4593 36.7472 15.9795C37.2639 16.5001 37.8786 16.9086 38.5542 17.1806C39.2298 17.4526 39.9524 17.5825 40.6785 17.5623C41.5856 17.5889 42.4827 17.3623 43.2727 16.9069C44.0627 16.4514 44.7157 15.7845 45.161 14.9782L43.4693 13.8347C42.8991 14.9362 41.9551 15.4982 40.6373 15.4982C39.8603 15.5086 39.106 15.2308 38.5148 14.7165C38.2226 14.4731 37.9861 14.1674 37.8219 13.8208C37.6577 13.4743 37.5699 13.0954 37.5645 12.7106H45.5285C45.5549 12.4639 45.5676 12.2159 45.5665 11.9677C45.5665 10.3042 45.1135 8.9798 44.2106 7.95907C43.3078 6.93834 42.0311 6.43444 40.4377 6.43444ZM37.6658 10.9082C37.7491 10.2247 38.0793 9.59741 38.5918 9.14884C39.1044 8.70027 39.7625 8.46264 40.4377 8.48236C41.9329 8.48236 43.0924 9.40618 43.1716 10.9082H37.6658Z" fill="white"/>
<path d="M59.0995 6.53125L56.8946 14.2352H56.8566L54.4586 6.53125H52.0985L49.7194 14.2158H49.7004L47.4956 6.53125H45.0405L48.4016 17.4588H50.7997L53.2389 9.84538H53.2769L55.6972 17.4588H58.1333L61.4975 6.53125H59.0995Z" fill="white"/>
<path d="M65.6823 10.8468C64.3265 10.5464 63.7341 10.2008 63.7341 9.48371C63.7341 8.90228 64.4817 8.44037 65.2103 8.44037C65.68 8.42318 66.1436 8.55209 66.5397 8.80999C66.9358 9.06789 67.2456 9.44257 67.4278 9.88424L69.2367 8.84091C68.5081 7.22583 67.1902 6.43445 65.3054 6.43445C64.3357 6.41461 63.3898 6.74144 62.6317 7.35827C62.2707 7.63133 61.9789 7.98834 61.7805 8.39961C61.5822 8.81088 61.483 9.2645 61.4913 9.72274C61.4829 10.4435 61.7512 11.139 62.2389 11.6608C62.8091 12.281 63.6929 12.7042 64.8555 12.9529C66.2906 13.2533 67.0192 13.7346 67.0192 14.3548C67.0192 15.0751 66.2526 15.537 65.3687 15.537C64.2473 15.537 63.4205 14.9556 62.8503 13.8121L61.0034 14.8587C61.8081 16.6417 63.2653 17.5462 65.3497 17.5462C66.384 17.598 67.4022 17.2703 68.2198 16.6223C68.5726 16.3339 68.8555 15.9665 69.0467 15.5486C69.2379 15.1308 69.3321 14.6736 69.3222 14.2126C69.3222 12.5523 68.0614 11.3895 65.6823 10.8468Z" fill="white"/>
<path d="M18.9881 6.52148C17.4359 6.52148 16.4127 7.08353 15.3293 8.28515C14.6957 7.10291 13.5996 6.52148 12.0854 6.52148H6.68103V17.4685H9.02207V11.5153C9.02207 9.90022 9.90591 8.78905 11.3219 8.78905C12.8742 8.78905 13.5838 9.85177 13.5838 11.4572V17.4685H15.9027V11.4927C15.9027 9.87761 16.7865 8.78582 18.2215 8.78582C19.7738 8.78582 20.4644 9.80977 20.4644 11.4313V17.4685H22.8086V10.8531C22.8086 8.28514 21.5414 6.52148 18.9881 6.52148Z" fill="white"/>
<path d="M1.74866 9.28668V1.77981H35.3406V0H0V9.28668H1.74866Z" fill="white"/>
<path d="M1.74866 14.7134V22.217H35.3406V24.0001H0V14.7134H1.74866Z" fill="white"/>
<path d="M74.2514 9.28668V1.77981H40.6594V0H76V9.28668H74.2514Z" fill="white"/>
<path d="M74.2514 14.7134V22.217H40.6594V24.0001H76V14.7134H74.2514Z" fill="white"/>
</g>
<defs>
<clipPath id="clip0_5090_77">
<rect width="76" height="24" fill="white"/>
</clipPath>
</defs>
</svg>
