<svg width="38" height="16" viewBox="0 0 38 16" fill="none" xmlns="http://www.w3.org/2000/svg">
<g id="Frame" clip-path="url(#clip0_567_1652)">
<path id="Vector" d="M8.00146 0.290948C9.01436 0.290038 10.0175 0.488716 10.9536 0.875638C11.8897 1.26256 12.7404 1.83014 13.4571 2.54594C14.1737 3.26175 14.7423 4.11175 15.1304 5.04738C15.5184 5.98301 15.7183 6.98593 15.7186 7.99884C15.7186 10.0433 14.9066 12.0041 13.4612 13.45C12.0157 14.8958 10.0552 15.7084 8.0107 15.709C6.99829 15.709 5.99581 15.5096 5.06049 15.1221C4.12518 14.7346 3.27536 14.1666 2.55958 13.4506C1.84381 12.7346 1.27609 11.8847 0.888872 10.9492C0.50165 10.0138 0.302504 9.01125 0.302807 7.99884C0.302807 5.95458 1.11489 3.99405 2.5604 2.54853C4.00591 1.10302 5.96644 0.290948 8.0107 0.290948H8.00146ZM8.0107 -5.55774e-06C6.9595 -0.00335149 5.91809 0.202104 4.94693 0.604444C3.97576 1.00678 3.09418 1.598 2.35332 2.34377C1.60824 3.08466 1.01746 3.96593 0.615155 4.93661C0.212853 5.90729 0.0070132 6.9481 0.00954277 7.99884C0.00670765 9.04996 0.212408 10.0912 0.614718 11.0623C1.01703 12.0334 1.60796 12.9151 2.35332 13.6562C3.09418 14.402 3.97576 14.9932 4.94693 15.3955C5.91809 15.7979 6.9595 16.0033 8.0107 16C9.06183 16.0028 10.1031 15.7971 11.0742 15.3948C12.0453 14.9925 12.9269 14.4016 13.6681 13.6562C14.4131 12.9149 15.0037 12.0332 15.4056 11.0621C15.8075 10.091 16.0128 9.04982 16.0096 7.99884C16.0125 6.94824 15.8071 5.90749 15.4052 4.9368C15.0033 3.96611 14.4128 3.08477 13.6681 2.34377C12.9269 1.59841 12.0453 1.00747 11.0742 0.605163C10.1031 0.202852 9.06183 -0.00284067 8.0107 -5.55774e-06Z" fill="black"/>
<path id="Vector_2" d="M8.60612 7.3569H13.2013V6.71266C13.2013 6.28316 12.7395 6.31548 12.7395 6.31548H12.4231V5.26714H13.2036V4.69909C13.2039 4.63499 13.1907 4.57154 13.1651 4.51279C13.1395 4.45404 13.1019 4.40126 13.0548 4.35782C13.0077 4.31438 12.952 4.28123 12.8914 4.26048C12.8307 4.23972 12.7664 4.23181 12.7025 4.23726H11.2085V3.77544H10.1763V4.23726H8.18125V4.93C8.18125 4.93 8.1674 5.27406 8.6223 5.27406H8.96174V6.31548H8.18125V6.97821C8.18193 7.03174 8.19377 7.08455 8.21598 7.13327C8.23819 7.18198 8.2703 7.22554 8.31027 7.26116C8.35023 7.29678 8.39719 7.32369 8.44813 7.34018C8.49907 7.35666 8.55286 7.36235 8.60612 7.3569ZM9.99161 5.27868H11.3771V6.3201H9.99161V5.27868Z" fill="black"/>
<path id="Vector_3" d="M12.1553 12.945V11.518H13.2013V7.70558H8.16973V10.9915C8.16562 11.0594 8.17549 11.1274 8.19874 11.1913C8.22198 11.2551 8.2581 11.3136 8.30486 11.3629C8.35163 11.4123 8.40803 11.4515 8.47058 11.4782C8.53313 11.5049 8.60049 11.5184 8.66849 11.518H9.20884V12.9473H8.19282C8.15282 13.3443 7.97173 13.7139 7.68248 13.9887H9.2527C9.38585 13.9962 9.51908 13.9753 9.64355 13.9275C9.76803 13.8796 9.88093 13.8059 9.97479 13.7112C10.0686 13.6165 10.1413 13.5029 10.188 13.378C10.2347 13.253 10.2544 13.1196 10.2456 12.9866V11.5203H11.1116V13.9887H12.1091C12.7487 13.9887 13.4946 12.9473 13.4946 12.9473L12.1553 12.945ZM10.6751 10.8137C10.364 10.8138 10.0651 10.6929 9.84154 10.4765H9.21575V8.74469H9.84614C10.0692 8.52755 10.3685 8.40651 10.6798 8.40756C10.991 8.40651 11.2903 8.52755 11.5134 8.74469H12.1645V10.4765H11.5134C11.2879 10.6923 10.9872 10.8116 10.6751 10.8091V10.8137Z" fill="black"/>
<path id="Vector_4" d="M10.659 8.70775C10.5396 8.70775 10.4214 8.7313 10.3112 8.77705C10.2009 8.8228 10.1008 8.88985 10.0165 8.97436C9.93216 9.05888 9.86537 9.15919 9.8199 9.26956C9.77443 9.37993 9.75119 9.49818 9.75149 9.61755C9.75149 9.85845 9.84701 10.0895 10.0171 10.2601C10.1873 10.4306 10.4181 10.5267 10.659 10.5274C10.9003 10.5274 11.1317 10.4315 11.3023 10.2609C11.4729 10.0903 11.5688 9.85885 11.5688 9.61755C11.5691 9.49799 11.5458 9.37954 11.5001 9.26902C11.4545 9.15851 11.3875 9.05809 11.303 8.97355C11.2184 8.889 11.118 8.822 11.0075 8.77639C10.897 8.73077 10.7785 8.70745 10.659 8.70775ZM10.659 10.2387C10.4942 10.2387 10.3362 10.1733 10.2197 10.0568C10.1033 9.94029 10.0378 9.78229 10.0378 9.61755C10.0378 9.45281 10.1033 9.29482 10.2197 9.17833C10.3362 9.06184 10.4942 8.99639 10.659 8.99639C10.7407 8.99609 10.8217 9.01194 10.8974 9.04302C10.973 9.0741 11.0418 9.1198 11.0997 9.17751C11.1576 9.23522 11.2036 9.3038 11.2349 9.37931C11.2663 9.45482 11.2824 9.53579 11.2824 9.61755C11.2824 9.69932 11.2663 9.78028 11.2349 9.85579C11.2036 9.93131 11.1576 9.99989 11.0997 10.0576C11.0418 10.1153 10.973 10.161 10.8974 10.1921C10.8217 10.2232 10.7407 10.239 10.659 10.2387Z" fill="black"/>
<path id="Vector_5" d="M7.71251 13.3699C7.78291 13.2375 7.82907 13.0936 7.84876 12.945H6.37785V9.43744H7.82337V8.80704C7.83045 8.75036 7.8243 8.6928 7.80538 8.6389C7.78647 8.58499 7.75529 8.53621 7.71434 8.49638C7.67339 8.45655 7.62378 8.42675 7.56937 8.40933C7.51496 8.39192 7.45725 8.38736 7.40078 8.39602H6.37785V7.35691H7.84876V6.27392C7.83565 6.0299 7.73949 5.7977 7.57627 5.61582L6.15846 4.19801C6.08616 4.12581 5.98818 4.08527 5.886 4.08527C5.78382 4.08527 5.68581 4.12581 5.61351 4.19801L4.19107 5.62044C4.02786 5.8014 3.9317 6.03289 3.91861 6.27623V6.96897C3.91861 7.1791 3.91861 7.3546 3.91861 7.35691C3.91861 7.35921 4.04329 7.23683 4.19339 7.08674L5.6112 5.66893C5.6835 5.59673 5.78151 5.55618 5.88369 5.55618C5.98586 5.55618 6.08385 5.59673 6.15615 5.66893L6.80503 6.31779H5.65046C5.54227 6.32121 5.43585 6.34626 5.3375 6.39147C5.23914 6.43668 5.15084 6.50114 5.0778 6.58104L4.18186 7.47698H5.33642V8.40064H3.8909V9.05182C3.88507 9.10571 3.89164 9.16021 3.9101 9.21118C3.92856 9.26214 3.95843 9.30821 3.99742 9.34586C4.03641 9.38352 4.08349 9.41176 4.13506 9.42843C4.18664 9.44511 4.24135 9.44976 4.295 9.44205H5.33642V12.9496H3.8909C3.8909 12.9496 4.22341 13.9911 4.83533 13.9911H6.8512C6.90789 13.9909 6.96439 13.9847 7.01976 13.9726C7.27041 13.882 7.48615 13.7148 7.63631 13.4946L7.65018 13.4738L7.69173 13.4092C7.6998 13.3967 7.70675 13.3836 7.71251 13.3699Z" fill="black"/>
<path id="Vector_6" d="M7.07288 11.5203C7.45675 11.5203 7.76793 11.2091 7.76793 10.8252C7.76793 10.4414 7.45675 10.1302 7.07288 10.1302C6.68901 10.1302 6.37783 10.4414 6.37783 10.8252C6.37783 11.2091 6.68901 11.5203 7.07288 11.5203Z" fill="black"/>
<path id="Vector_7" d="M4.65983 11.8228C4.82273 11.6407 4.91884 11.4086 4.93232 11.1647V9.77919L4.65752 10.0517L4.16567 10.5458C4.00245 10.7277 3.90633 10.9599 3.89321 11.2039V12.5894L4.16798 12.3169L4.65983 11.8228Z" fill="black"/>
<path id="Vector_8" d="M21.5258 7.80719H22.6226V10.495H21.5258V7.80719Z" fill="black"/>
<path id="Vector_9" d="M23.3223 7.80719H25.1696C26.0932 7.80719 26.4234 8.1374 26.4234 8.49993C26.4234 8.86247 26.151 9.08414 25.6406 9.15572C26.3334 9.21114 26.3796 9.46515 26.3911 9.82537C26.4119 10.3565 26.4442 10.4096 26.6012 10.4465V10.4812H25.4167C25.3312 10.3911 25.2989 10.2387 25.2989 9.9339C25.2989 9.47208 25.188 9.37047 24.8371 9.37047H24.4191V10.4812H23.32L23.3223 7.80719ZM24.4214 8.93867H24.7609C25.2042 8.93867 25.322 8.74701 25.322 8.58999C25.322 8.38679 25.1904 8.25055 24.7539 8.25055H24.4214V8.93867Z" fill="black"/>
<path id="Vector_10" d="M27.0723 7.80719H28.9196C29.8433 7.80719 30.1758 8.1374 30.1758 8.49993C30.1758 8.86247 29.901 9.08414 29.3907 9.15572C30.0834 9.21114 30.1296 9.46515 30.1411 9.82537C30.1619 10.3565 30.1942 10.4096 30.3513 10.4465V10.4812H29.169C29.0836 10.3911 29.0512 10.2387 29.0512 9.9339C29.0512 9.47208 28.9404 9.37047 28.5894 9.37047H28.1715V10.4812H27.0723V7.80719ZM28.1715 8.93867H28.5109C28.9543 8.93867 29.072 8.74701 29.072 8.58999C29.072 8.38679 28.9427 8.25055 28.504 8.25055H28.1715V8.93867Z" fill="black"/>
<path id="Vector_11" d="M32.3579 10.5458C30.9147 10.5458 30.7184 10.0055 30.7184 9.16033C30.7184 8.31519 30.9147 7.76331 32.3579 7.76331C33.9143 7.76331 33.9997 8.41448 33.9997 9.16033C33.9997 9.90618 33.9143 10.5458 32.3579 10.5458ZM32.3579 10.1256C32.8013 10.1256 32.8659 9.89464 32.8659 9.1511C32.8659 8.40756 32.8013 8.17664 32.3579 8.17664C31.9146 8.17664 31.8615 8.40756 31.8615 9.1511C31.8615 9.89464 31.9215 10.1163 32.3441 10.1163L32.3579 10.1256Z" fill="black"/>
<path id="Vector_12" d="M34.5747 7.80719H36.422C37.3457 7.80719 37.6782 8.1374 37.6782 8.49993C37.6782 8.86247 37.4034 9.08414 36.893 9.15572C37.5858 9.21114 37.632 9.46515 37.6458 9.82537C37.6643 10.3565 37.6966 10.4096 37.8537 10.4465V10.4812H36.6714C36.5859 10.3911 36.5536 10.2387 36.5536 9.9339C36.5536 9.47208 36.4428 9.37047 36.0918 9.37047H35.6738V10.4812H34.577L34.5747 7.80719ZM35.6715 8.93867H36.011C36.4543 8.93867 36.5721 8.74701 36.5721 8.58999C36.5721 8.38679 36.4428 8.25055 36.004 8.25055H35.6715V8.93867Z" fill="black"/>
<path id="Vector_13" d="M17.5032 10.9268L17.2331 9.17881H17.2192V10.9268H16.2402V7.80718H17.8565L18.2953 10.9314L17.5032 10.9268ZM19.5584 10.9268V9.17881H19.5468L19.2905 10.9268H18.5654L18.9903 7.80257H20.579V10.9268H19.5584Z" fill="black"/>
<path id="Vector_14" d="M21.468 11.3448H24.1651V11.8574H22.5649V12.3954H24.0681V12.9058H22.5649V13.52H24.2367V14.0419H21.4657L21.468 11.3448Z" fill="black"/>
<path id="Vector_15" d="M24.7239 11.3448H26.3403C27.4256 11.3448 27.8874 11.6681 27.8874 12.601C27.8874 13.5754 27.6727 14.0326 26.2295 14.0326H24.7239V11.3448ZM25.8231 13.5662H26.1163C26.6266 13.5662 26.8091 13.4484 26.8091 12.6425C26.8091 11.989 26.719 11.8112 26.1371 11.8112H25.83L25.8231 13.5662Z" fill="black"/>
<path id="Vector_16" d="M28.504 11.3448H29.6008V14.0419H28.504V11.3448Z" fill="black"/>
<path id="Vector_17" d="M31.1641 11.3448H32.5357L33.6903 14.0326H32.5542L32.3856 13.52H31.268L31.1041 14.0326H29.9679L31.1641 11.3448ZM31.8291 11.8343L31.4435 13.0305H32.2402L31.8291 11.8343Z" fill="black"/>
<path id="Vector_18" d="M16.2402 10.9268H17.2192V14.0419H16.2402V10.9268ZM17.9836 14.0303L17.5032 10.9268H18.286L18.4223 11.8921H18.4361L18.5677 10.9268H19.2905L18.8287 14.0303H17.9836ZM19.5584 10.9268H20.579V14.0419H19.5584V10.9268Z" fill="black"/>
</g>
<defs>
<clipPath id="clip0_567_1652">
<rect width="37.8467" height="16" fill="white"/>
</clipPath>
</defs>
</svg>
