<svg width="57" height="25" viewBox="0 0 57 25" fill="none" xmlns="http://www.w3.org/2000/svg">
<g clip-path="url(#clip0_5357_6075)">
<mask id="mask0_5357_6075" style="mask-type:luminance" maskUnits="userSpaceOnUse" x="0" y="0" width="57" height="25">
<path d="M56.4564 0H0.487549V24.9367H56.4564V0Z" fill="white"/>
</mask>
<g mask="url(#mask0_5357_6075)">
<path d="M4.86394 13.4072L2.29208 16.3186L2.01208 19.4726H5.06097C5.06097 19.4726 6.16023 17.4579 6.16023 17.4368C6.16023 17.4157 5.14394 13.5022 5.14394 13.5022L4.86394 13.4072Z" fill="white"/>
<path d="M10.5678 5.5169C10.5574 5.50636 10.547 5.50636 10.547 5.49581C10.5055 5.47471 10.4641 5.45361 10.4226 5.45361H4.05516C4.00331 5.45361 3.96183 5.46416 3.92035 5.49581C3.90998 5.50636 3.88924 5.5169 3.87887 5.52745L3.83738 5.5802L3.57812 6.18146L4.79146 13.365L5.29961 13.4177L10.7337 5.89665L10.6403 5.64349C10.6403 5.66458 10.5678 5.5169 10.5678 5.5169Z" fill="#FE5000"/>
<path d="M4.38696 17.1415C4.35585 17.1943 4.31437 17.247 4.25214 17.2681C4.15881 17.3103 4.05511 17.3209 3.96177 17.2681C3.81659 17.1837 3.75437 16.9939 3.83733 16.8356C3.86844 16.7829 3.90992 16.7301 3.97214 16.7091C4.06548 16.6669 4.16918 16.6563 4.26252 16.7091C4.41807 16.7934 4.46992 16.9833 4.38696 17.1415Z" fill="black"/>
<path d="M13.7304 19.4728C13.8652 19.4728 13.9689 19.3673 13.9689 19.2302V12.5108C13.9689 12.4686 13.9585 12.4264 13.9378 12.3947C13.9378 12.3842 10.6296 5.60148 10.6296 5.60148C10.6193 5.56983 10.5882 5.54874 10.5674 5.51709L5.08149 13.2175L3.86816 5.53819C3.84742 5.55928 3.83705 5.58038 3.82668 5.60148L0.518532 12.3736C0.518532 12.3736 0.518532 12.3842 0.508162 12.3842C0.487421 12.4158 0.477051 12.458 0.477051 12.5002V12.5424V19.2196C0.477051 19.3568 0.580754 19.4622 0.715569 19.4622H2.0015L2.33335 16.8989L2.37483 16.5614C2.3852 16.5297 2.37483 16.4559 2.53038 16.2766C3.31853 15.38 4.10668 14.4939 4.89483 13.5973C4.91557 13.5762 4.94668 13.5656 4.96742 13.5762C4.99853 13.5867 5.0089 13.6078 5.01927 13.6289L5.80742 17.1416L5.82816 17.2576C5.8489 17.3631 5.82816 17.4053 5.80742 17.4686L5.05038 19.4728H13.7304ZM12.7245 14.5677H13.1911V15.0424H12.7245V14.5677ZM13.1911 18.3546H12.7245V17.88H13.1911V18.3546ZM13.1911 16.6985H12.7245V16.2238H13.1911V16.6985ZM13.1911 13.3863H12.7245V12.9116H13.1911V13.3863Z" fill="black"/>
<path d="M37.6759 19.4726H38.2463V18.1434H40.03V17.5633H38.2463V16.962H40.03V16.3818H37.6759V19.4726Z" fill="white"/>
<path d="M49.2181 16.3818H48.6477V19.4726H49.2181V16.3818Z" fill="white"/>
<path d="M45.3915 16.962H46.2833V19.4726H46.8537V16.962H47.7456V16.3818H45.3915V16.962Z" fill="white"/>
<path d="M20.9796 16.3818H20.4092V19.4726H20.9796V16.3818Z" fill="white"/>
<path d="M29.9292 16.3818C29.0892 16.3818 28.4048 17.078 28.4048 17.9325C28.4048 18.7869 29.0892 19.4831 29.9292 19.4831C30.7692 19.4831 31.4537 18.7869 31.4537 17.9325C31.4537 17.0675 30.7692 16.3818 29.9292 16.3818ZM29.9292 18.8924C29.4003 18.8924 28.9752 18.4599 28.9752 17.9219C28.9752 17.3839 29.4003 16.9515 29.9292 16.9515C30.4581 16.9515 30.8833 17.3839 30.8833 17.9219C30.8833 18.4599 30.4581 18.8924 29.9292 18.8924Z" fill="white"/>
<path d="M51.6552 16.3818C50.8152 16.3818 50.1307 17.078 50.1307 17.9325C50.1307 18.7869 50.8152 19.4831 51.6552 19.4831C52.4952 19.4831 53.1796 18.7869 53.1796 17.9325C53.1796 17.078 52.4952 16.3818 51.6552 16.3818ZM51.6552 18.8924C51.1263 18.8924 50.7011 18.4599 50.7011 17.9219C50.7011 17.3839 51.1263 16.9515 51.6552 16.9515C52.1841 16.9515 52.6093 17.3839 52.6093 17.9219C52.6093 18.4599 52.1841 18.8924 51.6552 18.8924Z" fill="white"/>
<path d="M41.264 18.5128C41.2536 18.5022 41.2432 18.4917 41.2329 18.4917C41.2225 18.4917 41.2018 18.5022 41.2018 18.5128L40.9321 19.0297V19.0402C40.9321 19.0719 40.9944 19.4516 40.9944 19.4516C40.9944 19.4727 41.0047 19.4727 41.0151 19.4727H41.461C41.4714 19.4727 41.4818 19.4622 41.4818 19.4516C41.4818 19.4516 41.544 19.0824 41.544 19.0402C41.544 19.0297 41.544 19.0297 41.544 19.0297L41.264 18.5128Z" fill="white"/>
<path d="M41.067 18.1434H41.3885L41.5959 16.3818H40.8596L41.067 18.1434Z" fill="white"/>
<path d="M55.8759 16.3818V18.3755L54.6625 16.3818H54.0922V19.4726H54.6625V17.4789L55.8759 19.4726H56.4462L56.4566 16.3818H55.8759Z" fill="white"/>
<path d="M17.7751 18.6392L16.8625 16.3818H16.2921V19.4726H16.8625V17.9114L17.4847 19.4726H18.0551L18.6773 17.9114V19.4726H19.2477V16.3818H18.6773L17.7751 18.6392Z" fill="white"/>
<path d="M23.4477 16.3818H22.1721V19.4726H22.7425V18.2067H23.4166L23.7692 19.4726H24.3395L23.9455 18.0485C24.184 17.8797 24.3395 17.6055 24.3395 17.289C24.3499 16.7932 23.9455 16.3818 23.4477 16.3818ZM23.4477 17.6266H22.7425V17.2996V16.9726H23.4477C23.624 16.9726 23.7692 17.1202 23.7692 17.2996C23.7795 17.4789 23.6343 17.6266 23.4477 17.6266Z" fill="white"/>
<path d="M40.6936 12.9749C40.6729 12.9644 38.6403 12.1838 37.0847 10.8019C38.2877 9.4517 38.7751 8.00655 38.9306 7.45803H38.9721H40.4862V6.5403H36.8877V5.46436H35.9855V6.5403H32.3869V7.45803H33.9114H33.9529C34.1084 8.00655 34.6062 9.4517 35.8092 10.8019C34.264 12.1838 32.2106 12.9749 32.1899 12.9855L32.1173 13.0065L32.4284 13.861L32.501 13.8399C32.5943 13.8082 34.7721 12.9644 36.4521 11.4454C38.1321 12.9644 40.2995 13.7977 40.3929 13.8293L40.4655 13.8504L40.7766 12.996L40.6936 12.9749ZM36.4418 10.1584C35.5395 9.13524 35.0832 8.03819 34.8862 7.45803H37.9869C37.8003 8.03819 37.344 9.13524 36.4418 10.1584Z" fill="white"/>
<path d="M24.3707 12.4577V12.4999C24.3603 12.6371 24.3292 12.8164 24.2981 12.8691C24.2359 12.9957 24.1114 13.059 23.9559 13.059H23.4685C23.3544 13.059 23.2611 12.9641 23.2611 12.848V11.867H24.5366V8.63916H20.1811V11.867H21.1663C21.1248 12.0674 21.0107 12.3944 20.7514 12.6476C20.3159 13.0695 19.6418 13.2172 19.6107 13.2172L19.5692 13.2278L19.8596 14.0084L19.8907 13.9978C20.15 13.9345 20.824 13.7235 21.3114 13.2489C21.8092 12.7742 21.944 12.1413 21.9855 11.867H22.4522V13.0801C22.4522 13.5231 22.8151 13.8818 23.2507 13.8818H24.2566C24.9618 13.8818 25.1277 12.9852 25.1588 12.7109V12.6792L24.3707 12.4577ZM21.0003 9.47249H23.7174V9.84169H21.0003V9.47249ZM20.99 11.0442V10.675H23.707V11.0442H20.99Z" fill="white"/>
<path d="M24.6611 7.43693H23.5618L23.8314 6.83566H24.6714V6.00233H22.7426V5.46436H21.9233V6.00233H20.0463V6.83566H20.8863L21.1559 7.43693H20.0463V8.27026H24.6714V7.43693H24.6611ZM22.7529 7.43693H21.9648L21.6848 6.83566H23.0329L22.7529 7.43693Z" fill="white"/>
<path d="M18.5944 11.9833L19.341 12.1309C19.341 12.1309 19.5173 11.3715 19.6936 10.4959C19.6107 10.4748 18.8951 10.3271 18.8951 10.3271L18.5944 11.9833Z" fill="white"/>
<path d="M17.0595 10.4956C16.8832 10.5589 16.2921 10.7804 16.2921 10.7804C16.2921 10.7804 16.6447 11.7825 16.8625 12.6264C16.8729 12.6264 17.578 12.3627 17.578 12.3627C17.578 12.3627 17.3292 11.2235 17.0595 10.4956Z" fill="white"/>
<path d="M18.4803 10.1055H19.5588V9.27218H18.4803V8.56543H19.5588V7.73209H19.4551L19.8803 7.24686L19.8492 7.22577C19.1129 6.72998 18.6462 6.22366 18.4699 6.01268C18.4906 5.95994 18.5114 5.86501 18.5114 5.86501L18.584 5.62239L17.7647 5.45361L17.7544 5.48526C17.3914 7.09918 15.9292 8.12239 15.9084 8.13294L15.8669 8.15404L16.4373 8.74475L16.4581 8.7342C16.4581 8.7342 16.5514 8.67091 16.6862 8.55488H17.6299V9.26163H16.4995V10.095H17.6299V12.8059C16.9144 13.0064 16.3544 13.1329 16.261 13.154L16.4788 13.9557C16.6447 13.9241 18.1173 13.5654 19.5173 13.0907V12.2152C19.1647 12.3418 18.7914 12.4578 18.4388 12.5633V10.1055H18.4803ZM17.5262 7.73209C17.7544 7.44728 17.9514 7.15193 18.1069 6.84602C18.3247 7.06754 18.6566 7.38399 19.1336 7.73209H17.5262Z" fill="white"/>
<path d="M55.6995 9.23018V5.70697H53.8225V6.54031H54.8803V6.88841H53.8225V7.72174H54.8803V8.06984H53.8225V8.90317H54.8803V9.25128H49.944V8.90317H51.0017V8.06984H49.944V7.72174H51.0017V6.88841H49.944V6.59305C50.2032 6.50866 50.5973 6.36098 51.0017 6.13946C50.9706 6.10782 50.5247 5.55929 50.4521 5.46436C50.0062 5.71752 49.6329 5.83355 49.4566 5.87575H49.1247V9.23018H48.3677V10.9707H49.1869V10.0635H55.6373V10.8547H56.4566V9.23018H55.6995Z" fill="white"/>
<path d="M51.6447 7.2576C51.6447 7.2576 52.1218 7.08883 52.4847 6.84621C52.661 6.99389 52.9203 7.2787 52.9203 7.2787L53.4906 6.76182C53.4906 6.76182 53.2314 6.47701 53.0758 6.33988C53.0758 6.33988 53.2521 6.18166 53.4492 5.93904L52.8581 5.46436C52.8581 5.46436 52.6195 5.74917 52.4847 5.8863C52.2255 5.69642 51.8832 5.4749 51.8832 5.4749L51.3751 6.05507C51.3751 6.05507 51.7277 6.29769 51.8418 6.37153C51.6966 6.45592 51.3232 6.59305 51.3232 6.59305L51.6447 7.2576Z" fill="white"/>
<path d="M52.4847 8.72365C52.661 8.87133 52.9203 9.15614 52.9203 9.15614L53.4906 8.63927C53.4906 8.63927 53.2314 8.35446 53.0758 8.21732C53.0758 8.21732 53.2521 8.0591 53.4492 7.81648L52.8581 7.3418C52.8581 7.3418 52.6195 7.62661 52.4847 7.76374C52.2255 7.57386 51.8832 7.35235 51.8832 7.35235L51.3751 7.93251C51.3751 7.93251 51.7277 8.17513 51.8418 8.24897C51.6966 8.33336 51.3232 8.47049 51.3232 8.47049L51.6344 9.13505C51.6447 9.13505 52.1321 8.96627 52.4847 8.72365Z" fill="white"/>
<path d="M53.4699 11.899L54.901 11.15L54.5277 10.4116H50.0373V11.245H52.9514L52.4432 11.5087L52.0388 11.477V11.899H48.3884V12.7323H52.0284V13.1648C52.0284 13.1753 52.0181 13.1859 52.0077 13.1859H50.9499L51.0847 14.0192H52.0077C52.4744 14.0192 52.8477 13.6395 52.8477 13.1648V12.7323H56.4566V11.899H53.4699Z" fill="white"/>
<path d="M27.5751 17.2888C27.5751 16.7825 27.1707 16.3711 26.6729 16.3711H25.9677H25.3973V19.4618H25.9677V18.196H26.6107L27.0359 19.4618H27.6062L27.1396 18.0589C27.3988 17.9112 27.5751 17.6158 27.5751 17.2888ZM26.6729 17.6264H25.9677V17.2994V16.9724H26.6729C26.8492 16.9724 26.9944 17.12 26.9944 17.2994C27.0047 17.4787 26.8596 17.6264 26.6729 17.6264Z" fill="white"/>
<path d="M34.5336 17.2888C34.5336 16.7825 34.1292 16.3711 33.6314 16.3711H32.9262H32.3558V19.4618H32.9262V18.196H33.5692L33.9944 19.4618H34.5647L34.0981 18.0589C34.3677 17.9112 34.5336 17.6158 34.5336 17.2888ZM33.6418 17.6264H32.9366V17.2994V16.9724H33.6418C33.8181 16.9724 33.9632 17.12 33.9632 17.2994C33.9632 17.4787 33.8181 17.6264 33.6418 17.6264Z" fill="white"/>
<path d="M44.2092 18.4388C44.1367 18.7025 43.9085 18.8924 43.6285 18.8924H43.6181H43.6078C43.2759 18.8924 43.0063 18.6181 43.0063 18.2806V18.2384V17.616V17.5738C43.0063 17.2363 43.2759 16.962 43.6078 16.962H43.6181H43.6285C43.9085 16.962 44.1367 17.1519 44.2092 17.4156L44.7692 17.3207C44.6448 16.7827 44.1781 16.3818 43.6181 16.3818C42.9648 16.3818 42.4359 16.9198 42.4359 17.5844V18.27C42.4359 18.9346 42.9648 19.4726 43.6181 19.4726C44.1781 19.4726 44.6552 19.0717 44.7692 18.5337L44.2092 18.4388Z" fill="white"/>
</g>
</g>
<defs>
<clipPath id="clip0_5357_6075">
<rect width="56" height="25" fill="white" transform="translate(0.487549)"/>
</clipPath>
</defs>
</svg>
