<svg width="120" height="32" viewBox="0 0 120 32" fill="none" xmlns="http://www.w3.org/2000/svg">
<g clip-path="url(#clip0_5076_1098)">
<path d="M50.7105 22.7316C50.8127 22.7316 50.8973 22.7148 50.9643 22.6778C51.0312 22.6409 51.1017 22.5333 51.1335 22.2981C51.1652 22.0628 51.1828 21.5587 51.1828 20.8933C51.5388 21.2193 52.2719 21.6159 52.7654 21.794C52.7161 22.4795 52.6456 23.1987 52.5257 23.5079C52.3883 23.8507 52.1521 24.049 51.8454 24.2103C51.5917 24.338 51.1652 24.3716 50.8761 24.3716H49.854C49.4451 24.3716 48.934 24.2439 48.6274 23.9381C48.3207 23.6322 48.1832 23.2525 48.1832 22.1536V19.7205H47.1963C46.9742 22.1536 46.227 23.6322 43.1464 24.5161C42.9948 24.0658 42.5859 23.397 42.2123 23.0004C40.4429 23.397 38.6735 23.7566 37.2424 24.0624L36.8512 22.1166C37.5667 22.0091 38.4338 21.8814 39.3678 21.7032V16.9983H37.0697V15.197H39.3678V13.8797H37.8698V13.268C37.6478 13.5033 37.4116 13.7184 37.1896 13.9166C37.0697 13.4293 36.6961 12.2229 36.4247 11.6986C37.7183 10.724 39.0295 9.15797 39.7943 7.51798L41.2924 8.24052C41.1901 8.4556 41.0879 8.67404 40.9857 8.88912C42.0925 9.55453 43.1464 10.3476 43.7773 10.9996L43.2169 11.991H45.2929C45.1907 11.5575 45.0533 11.0702 44.8841 10.6568L46.2622 10.3678H43.5552V8.74461H46.8403C46.7381 8.4556 46.6183 8.16658 46.4843 7.9347L48.2714 7.48438C48.4758 7.84396 48.7155 8.31445 48.8847 8.74461H52.2014V10.3678H49.4275L50.9748 10.6568C50.7528 11.1441 50.5307 11.5944 50.3439 11.991H52.487V13.6478H43.1111V12.1691L42.8045 12.6934L42.7551 12.6396V13.883H41.1232V15.2004H43.2662V17.0017H41.1232V21.3806L43.4213 20.9303L43.5411 22.409C44.7995 21.8511 45.1414 21.0042 45.2929 19.7238H43.9641V14.2796H51.8243V19.7238H50.0549V22.2107C50.0549 22.4459 50.0725 22.5904 50.1218 22.6442C50.1712 22.698 50.2417 22.735 50.3439 22.735H50.6999L50.7105 22.7316ZM38.5113 17.6839C38.8004 18.6753 39.04 19.9557 39.1246 20.7858L37.7641 21.1823C37.7288 20.3187 37.4927 19.0181 37.2354 18.0267L38.5113 17.6839ZM42.2194 12.0985C41.6237 11.5407 40.8588 10.9794 40.0939 10.4585C39.7379 11.0366 39.3291 11.5776 38.9202 12.0985H42.2229H42.2194ZM41.317 20.4598C41.5567 19.6667 41.8105 18.3863 41.9127 17.5394L43.3755 17.9192C43.0688 18.9273 42.7974 20.0632 42.5577 20.8227L41.317 20.4632V20.4598ZM45.6736 16.3867H50.0478V15.5936H45.6736V16.3867ZM45.6736 18.4065H50.0478V17.6133H45.6736V18.4065ZM46.5407 10.3678C46.7628 10.8551 46.9989 11.5037 47.0835 11.991H48.5992C48.8036 11.4869 49.0257 10.8551 49.1279 10.3678H46.5407Z" fill="white"/>
<path d="M58.6412 12.243H61.3623V14.0443H59.6951L60.7173 14.3132C60.4283 14.945 60.1216 15.5566 59.8502 16.1346H61.0239V17.9359H58.6412V19.3776H61.3623V21.1789H58.6412V24.3884H56.7696V21.1789H53.8264V19.3776H56.7696V17.9359H54.2353V16.1346H55.4443C55.3244 15.5936 55.0706 14.908 54.8486 14.3501L55.8003 14.0443H53.844V12.243H56.7696V10.9996H54.3023V9.23187H56.7696V7.68262H58.6412V9.23187H60.9711V10.9996H58.6412V12.243ZM58.1619 16.1346C58.4685 15.4692 58.7752 14.6929 58.9796 14.0443H56.3748C56.6638 14.6559 56.9529 15.3785 57.0375 15.8658L56.2726 16.1346H58.1619ZM69.2578 14.945C68.9335 17.0722 68.3378 19.0382 67.4883 20.7118C68.1686 21.5217 68.9511 22.1703 69.8182 22.6408C69.3917 23.0374 68.796 23.8137 68.4894 24.3346C67.7245 23.8473 67.0266 23.2155 66.3957 22.4593C65.8352 23.2525 65.1867 23.9179 64.457 24.4959C64.2702 24.1901 63.9636 23.8473 63.6569 23.5213V24.422H61.8205V8.38499H68.8489V11.7725C68.8489 12.6933 68.6621 13.2142 67.9994 13.5032C67.3544 13.7923 66.4344 13.8091 65.1902 13.8091C65.1056 13.231 64.8483 12.4917 64.6121 11.9708C65.4475 12.0078 66.3816 12.0078 66.6353 12.0078C66.8891 11.991 66.9772 11.9372 66.9772 11.7389V10.2602H63.6605V14.5686H67.7104L68.0347 14.4778L69.2613 14.945H69.2578ZM63.6605 22.6072C64.2738 22.083 64.7849 21.4713 65.2431 20.7857C64.598 19.6868 64.087 18.4232 63.6605 17.0722V22.6072ZM65.0704 16.2623C65.377 17.1999 65.7683 18.1174 66.2441 18.9475C66.6177 18.1174 66.9067 17.1999 67.1288 16.2623H65.0704Z" fill="white"/>
<path d="M75.4506 17.7376V24.1732H74.6505V17.7376H71.1116V16.9444H74.6505V14.7634H71.0447V13.9871H75.8278C76.1838 13.0663 76.6103 11.7153 76.8499 10.7978L77.6324 11.0129C77.3258 11.9673 76.9522 13.1234 76.5962 13.9871H78.9613V14.7634H75.4577V16.9444H78.8449V17.7376H75.4577H75.4506ZM73.5296 19.0919C73.1208 20.4093 72.4405 21.777 71.7426 22.6777C71.6227 22.5702 71.3161 22.3181 71.1293 22.2274C71.8448 21.3435 72.4405 20.1169 72.8141 18.9104L73.5296 19.0919ZM78.7004 10.5996H71.2985V9.82325H74.9219C74.6822 9.26539 74.3262 8.57982 74.0372 8.05556L74.8197 7.82031C75.1933 8.45211 75.6198 9.24522 75.8419 9.81989H78.7004V10.5962V10.5996ZM73.2723 13.7922C73.1877 13.0528 72.8987 11.8632 72.5392 10.9995L73.2194 10.8382C73.5931 11.7018 73.9173 12.8579 74.0019 13.5771L73.2688 13.7922H73.2723ZM77.0861 18.8566C77.6642 19.8111 78.2775 21.0377 78.5489 21.8476L77.9179 22.2072C77.6465 21.3771 77.0332 20.0967 76.4869 19.1423L77.0826 18.8533L77.0861 18.8566ZM86.3597 14.8373H84.3189V24.1194H83.5188V14.8373H80.7272V15.7212C80.7272 18.2618 80.5051 21.7233 78.8731 24.1026C78.7533 23.9211 78.4466 23.6691 78.2598 23.5615C79.8072 21.3099 79.9623 18.1543 79.9623 15.7212V9.62834C81.8868 9.30235 84.1497 8.79826 85.3552 8.29416L86.0707 8.94277C84.6749 9.46703 82.5988 9.93415 80.7272 10.203V14.024H86.3597V14.834V14.8373Z" fill="white"/>
<path d="M89.6096 14.0983V24.2474H88.8094V8.67084H94.7804V14.0983H89.606H89.6096ZM89.6096 9.37657V11.0166H93.9979V9.37657H89.6096ZM94.0014 13.3959V11.7189H89.6131V13.3959H94.0014ZM98.5589 21.6698V23.6526H97.794V21.6698H90.9031V20.9473H92.7748V15.9903H91.3614V15.2879H99.9547V15.9903H98.5589V20.9473H100.293V21.6698H98.5589ZM93.522 15.9903V17.2169H97.794V15.9903H93.522ZM93.522 19.072H97.794V17.8655H93.522V19.072ZM97.794 20.9473V19.7408H93.522V20.9473H97.794ZM102.644 22.9838C102.644 23.6156 102.507 23.8845 102.101 24.0458C101.71 24.1903 100.977 24.2071 99.8384 24.2071C99.8031 23.9718 99.6868 23.6122 99.567 23.3602C100.469 23.377 101.287 23.377 101.523 23.3602C101.763 23.3602 101.847 23.2695 101.847 23.0006V14.0949H96.5216V8.66748H102.648V22.9804L102.644 22.9838ZM97.3006 9.37657V11.0166H101.844V9.37657H97.3006ZM101.844 13.3959V11.7189H97.3006V13.3959H101.844Z" fill="white"/>
<path d="M106.557 19.3977C106.317 20.947 105.996 22.6441 105.637 23.7598C105.485 23.6892 105.161 23.5447 104.956 23.4708C105.365 22.3349 105.654 20.7319 105.841 19.27L106.557 19.3977ZM109.944 14.6222C110.42 15.7413 110.931 17.2368 111.135 18.1207L110.437 18.3895C110.388 18.1005 110.3 17.7779 110.198 17.4149C106.112 18.0803 105.637 18.208 105.348 18.3694C105.312 18.1711 105.196 17.7376 105.094 17.5225C105.4 17.4687 105.792 16.9814 106.268 16.316C106.557 15.9564 107.187 15.0356 107.885 13.8997C105.809 14.1686 105.453 14.2593 105.266 14.3668C105.217 14.1686 105.097 13.772 104.995 13.5368C105.266 13.483 105.538 13.0696 105.897 12.5286C106.271 11.9707 107.498 9.86022 108.263 7.87744L108.996 8.23703C108.178 10.0585 107.191 11.9505 106.19 13.3553L108.351 13.1402C108.809 12.3471 109.253 11.4834 109.644 10.6332L110.36 11.0297C109.186 13.2813 107.825 15.5363 106.43 17.2671L109.986 16.726C109.782 16.0774 109.542 15.4086 109.306 14.8138L109.951 14.6155L109.944 14.6222ZM108.259 19.2162C108.463 20.4429 108.685 22.0291 108.735 23.0742L108.055 23.2356C108.005 22.1736 107.815 20.5672 107.596 19.3607L108.259 19.2162ZM110.081 18.8197C110.473 19.9388 110.917 21.3973 111.118 22.3349L110.473 22.5702C110.286 21.5956 109.842 20.1371 109.468 19.018L110.081 18.8197ZM120 23.0574C120 23.6523 119.862 23.9043 119.506 24.0656C119.15 24.2101 118.47 24.2269 117.466 24.2101C117.416 23.9951 117.314 23.6321 117.212 23.3801C118.012 23.417 118.727 23.3969 118.946 23.3969C119.168 23.3801 119.235 23.3061 119.235 23.0709V9.59137H112.277V24.2471H111.512V8.78145H120.003V23.0574H120ZM112.785 13.3956H116.408C116.715 12.495 117.124 11.144 117.311 10.24L118.008 10.4752C117.719 11.4128 117.363 12.5487 117.039 13.3956H118.844V14.1518H112.785V13.3956ZM117.533 19.8648C117.839 19.8648 118.315 19.8648 118.586 19.7943C118.604 20.0295 118.636 20.3353 118.671 20.5168C118.449 20.5874 118.008 20.5874 117.564 20.5874H114.875C113.955 20.5874 113.719 20.2278 113.719 19.2162V17.0352H113.021V16.279H115.693C115.541 15.7548 115.164 14.9986 114.857 14.4408L115.453 14.1719C115.777 14.7298 116.169 15.5229 116.338 15.9934L115.809 16.2824H118.53V17.0385H114.445V19.2364C114.445 19.7237 114.512 19.8682 114.889 19.8682H117.526L117.533 19.8648ZM114.131 10.203C114.607 11.0129 115.034 12.1488 115.185 12.8882L114.572 13.1234C114.42 12.3841 114.011 11.2482 113.55 10.4013L114.128 10.203H114.131Z" fill="white"/>
<mask id="mask0_5076_1098" style="mask-type:luminance" maskUnits="userSpaceOnUse" x="0" y="0" width="34" height="32">
<path d="M16.7813 32C26.0494 32 33.5626 24.8366 33.5626 16C33.5626 7.16344 26.0494 0 16.7813 0C7.51325 0 0 7.16344 0 16C0 24.8366 7.51325 32 16.7813 32Z" fill="white"/>
</mask>
<g mask="url(#mask0_5076_1098)">
<path d="M38.2118 16.0001C38.2118 27.7388 28.2297 37.2562 15.9178 37.2562C3.60586 37.2562 -6.37622 27.7388 -6.37622 16.0001C-6.37622 4.26141 3.60234 -5.25928 15.9178 -5.25928C28.2333 -5.25928 38.2118 4.25805 38.2118 15.9968" fill="url(#paint0_linear_5076_1098)"/>
<g opacity="0.8">
<path d="M5.1497 6.987H4.95937V-0.530751L-2.41793 -7.56457H-6.02374L-7.698 -9.15751L-7.56053 -9.28857L-5.9462 -7.74604H-2.34038L5.1497 -0.604685V6.987Z" fill="white"/>
<path d="M4.83948 6.97697C4.83948 7.09123 4.93465 7.18197 5.05449 7.18197C5.17433 7.18197 5.2695 7.09123 5.2695 6.97697C5.2695 6.86271 5.17433 6.77197 5.05449 6.77197C4.93465 6.77197 4.83948 6.86271 4.83948 6.97697Z" fill="white"/>
<path d="M6.89088 8.60676H6.50668V-0.913926L-1.82935 -8.86184L-1.55794 -9.12061L6.89088 -1.06516V8.60676Z" fill="white"/>
<path d="M6.33752 8.58985C6.33752 8.78141 6.49966 8.93264 6.69705 8.93264C6.89443 8.93264 7.05657 8.77805 7.05657 8.58985C7.05657 8.40166 6.89443 8.24707 6.69705 8.24707C6.49966 8.24707 6.33752 8.40166 6.33752 8.58985Z" fill="white"/>
<path d="M9.05507 6.98668H8.86473V-0.242055L3.85254 -5.02424V-9.22168H4.04288V-5.09818L9.05507 -0.319349V6.98668Z" fill="white"/>
<path d="M8.74487 6.97648C8.74487 7.09075 8.84004 7.18148 8.95988 7.18148C9.07972 7.18148 9.17489 7.09075 9.17489 6.97648C9.17489 6.86222 9.07972 6.77148 8.95988 6.77148C8.84004 6.77148 8.74487 6.86222 8.74487 6.97648Z" fill="white"/>
<path d="M4.39193 10.7879H4.19807V-0.137555L-1.97729 -6.02539H-8.90341L-12.1885 -9.15751L-12.0545 -9.28857L-8.82234 -6.20687H-1.89622L4.39193 -0.214849V10.7879Z" fill="white"/>
<path d="M4.2968 10.9828C4.41554 10.9828 4.51181 10.891 4.51181 10.7778C4.51181 10.6645 4.41554 10.5728 4.2968 10.5728C4.17805 10.5728 4.08179 10.6645 4.08179 10.7778C4.08179 10.891 4.17805 10.9828 4.2968 10.9828Z" fill="white"/>
<path d="M3.28509 9.7626H3.09123V0.64519L-2.86206 -5.03093H-9.70007V-5.2124H-2.781L3.28509 0.571257V9.7626Z" fill="white"/>
<path d="M2.97144 9.75236C2.97144 9.86662 3.0666 9.95736 3.18644 9.95736C3.30629 9.95736 3.40145 9.86662 3.40145 9.75236C3.40145 9.6381 3.30629 9.54736 3.18644 9.54736C3.0666 9.54736 2.97144 9.6381 2.97144 9.75236Z" fill="white"/>
<path d="M3.79617 13.8797L3.66223 13.752L10.1442 7.56839V-3.56205L16.1539 -9.28857L16.2879 -9.15751L10.3381 -3.48475V7.64232L3.79617 13.8797Z" fill="white"/>
<path d="M3.58469 13.6611C3.50009 13.7417 3.50009 13.8728 3.58469 13.9535C3.66928 14.0341 3.80674 14.0341 3.89134 13.9535C3.97593 13.8728 3.97593 13.7417 3.89134 13.6611C3.80674 13.5804 3.66928 13.5804 3.58469 13.6611Z" fill="white"/>
<path d="M4.33549 14.8744H1.05396V14.6929H4.25443L11.0325 8.23043V-2.89664L17.7331 -9.28857L17.8705 -9.15751L11.2228 -2.82271V8.30773L4.33549 14.8744Z" fill="white"/>
<path d="M1.0645 14.5752C0.944655 14.5752 0.849487 14.6659 0.849487 14.7802C0.849487 14.8945 0.944655 14.9852 1.0645 14.9852C1.18434 14.9852 1.27951 14.8945 1.27951 14.7802C1.27951 14.6659 1.18434 14.5752 1.0645 14.5752Z" fill="white"/>
<path d="M13.1509 2.82976L12.8795 2.57099L15.0155 0.534447V-2.72537L19.8092 -7.29248L20.0806 -7.03371L15.3997 -2.57414V0.685676L13.1509 2.82976Z" fill="white"/>
<path d="M13.0275 3.03127C13.2261 3.03127 13.387 2.8778 13.387 2.68849C13.387 2.49917 13.2261 2.3457 13.0275 2.3457C12.8289 2.3457 12.668 2.49917 12.668 2.68849C12.668 2.8778 12.8289 3.03127 13.0275 3.03127Z" fill="white"/>
<path d="M12.4635 7.12475L12.3296 6.99369L19.2557 0.390031V-3.56208L25.1174 -9.14746L25.2513 -9.01976L19.4461 -3.48479V0.467326L12.4635 7.12475Z" fill="white"/>
<path d="M12.252 6.90619C12.1675 6.98685 12.1675 7.11792 12.252 7.19857C12.3366 7.27923 12.4741 7.27923 12.5587 7.19857C12.6433 7.11792 12.6433 6.98685 12.5587 6.90619C12.4741 6.82554 12.3366 6.82554 12.252 6.90619Z" fill="white"/>
<path d="M6.84157 15.5463L6.7041 15.4152L22.3399 0.510808V-2.7927L29.7348 -9.84668L29.8687 -9.71561L22.5302 -2.71877V0.584743L6.84157 15.5463Z" fill="white"/>
<path d="M6.62656 15.3281C6.54196 15.4087 6.54196 15.5398 6.62656 15.6204C6.71115 15.7011 6.84862 15.7011 6.93321 15.6204C7.0178 15.5398 7.0178 15.4087 6.93321 15.3281C6.84862 15.2474 6.71115 15.2474 6.62656 15.3281Z" fill="white"/>
<path d="M-6.86263 22.2879L-7.13403 22.0292L-1.36755 16.5311H7.03193L33.9363 -9.12061L34.2077 -8.86184L7.19054 16.8975H-1.20893L-6.86263 22.2879Z" fill="white"/>
<path d="M-6.94016 23.9044L-7.0741 23.7734L-0.842345 17.8317H7.45138L27.3133 -1.10881H39.8368L48.2715 -9.14746L48.4054 -9.01976L39.9178 -0.923979H27.3944L7.53245 18.0132H-0.761276L-6.94016 23.9044Z" fill="white"/>
<path d="M13.9756 14.0979L13.8417 13.9669L27.9477 0.517578H38.536V0.699053H28.0253L13.9756 14.0979Z" fill="white"/>
<path d="M13.7641 13.8793C13.6795 13.96 13.6795 14.0911 13.7641 14.1717C13.8487 14.2524 13.9862 14.2524 14.0708 14.1717C14.1554 14.0911 14.1554 13.96 14.0708 13.8793C13.9862 13.7987 13.8487 13.7987 13.7641 13.8793Z" fill="white"/>
<path d="M13.7853 19.7203L13.3765 19.3338L27.2675 6.08955H34.7964L39.1071 1.97949L39.5125 2.36597L35.036 6.63734H27.5072L13.7853 19.7203Z" fill="white"/>
<path d="M10.7153 19.6629C10.5038 19.8646 10.5038 20.1906 10.7153 20.3922C10.9267 20.5938 11.2686 20.5938 11.4801 20.3922C11.6916 20.1906 11.6916 19.8646 11.4801 19.6629C11.2686 19.4613 10.9267 19.4613 10.7153 19.6629Z" fill="white"/>
<path d="M12.4248 20.6409L12.2874 20.5132L20.1017 13.0627H22.569L25.9246 9.8667H30.9156V10.0482H26.0021L22.6501 13.2441H20.1828L12.4248 20.6409Z" fill="white"/>
<path d="M30.9051 10.1624C31.0238 10.1624 31.1201 10.0707 31.1201 9.95744C31.1201 9.84422 31.0238 9.75244 30.9051 9.75244C30.7863 9.75244 30.6901 9.84422 30.6901 9.95744C30.6901 10.0707 30.7863 10.1624 30.9051 10.1624Z" fill="white"/>
<path d="M12.3649 20.7752C12.4837 20.7752 12.5799 20.6835 12.5799 20.5702C12.5799 20.457 12.4837 20.3652 12.3649 20.3652C12.2462 20.3652 12.1499 20.457 12.1499 20.5702C12.1499 20.6835 12.2462 20.7752 12.3649 20.7752Z" fill="white"/>
<path d="M13.7536 20.9232C13.6337 20.9232 13.5386 20.8324 13.5386 20.7182C13.5386 20.6039 13.6337 20.5132 13.7536 20.5132C13.8734 20.5132 13.9686 20.6039 13.9686 20.7182C13.9686 20.8324 13.8734 20.9232 13.7536 20.9232Z" fill="white"/>
<path d="M21.071 17.8283H7.4408V17.462H20.9124L27.6376 11.0532L27.909 11.312L21.071 17.8283Z" fill="white"/>
<path d="M27.5037 10.949C27.6447 10.8145 27.8738 10.8145 28.0148 10.949C28.1558 11.0834 28.1558 11.3018 28.0148 11.4363C27.8738 11.5707 27.6447 11.5707 27.5037 11.4363C27.3627 11.3018 27.3627 11.0834 27.5037 10.949Z" fill="white"/>
<path d="M7.46194 17.9893C7.6605 17.9893 7.82147 17.8358 7.82147 17.6465C7.82147 17.4572 7.6605 17.3037 7.46194 17.3037C7.26338 17.3037 7.10242 17.4572 7.10242 17.6465C7.10242 17.8358 7.26338 17.9893 7.46194 17.9893Z" fill="white"/>
<path d="M-7.72972 24.7412L-7.86719 24.6101L-3.47888 20.4261H2.83042L5.61497 23.0811H18.2336L30.7217 11.1743H51.7645L56.8683 6.30811H63.6816V6.49294H56.9494L51.842 11.3591H30.8028L18.3146 23.2659H5.53742L2.75287 20.611H-3.39781L-7.72972 24.7412Z" fill="white"/>
<path d="M19.365 24.6908L19.0936 24.432L30.5138 13.5435H50.8939L56.1176 8.56641H63.1318V8.93272H56.2762L51.0525 13.9098H30.6724L19.365 24.6908Z" fill="white"/>
<path d="M19.8479 25.6487C19.7069 25.7831 19.4778 25.7831 19.3368 25.6487C19.1958 25.5142 19.1958 25.2958 19.3368 25.1614C19.4778 25.0269 19.7069 25.0269 19.8479 25.1614C19.9889 25.2958 19.9889 25.5142 19.8479 25.6487Z" fill="white"/>
<path d="M24.4688 22.3851L24.3313 22.2574L31.7262 15.2068H52.924L57.619 10.7271H62.9096V10.9119H57.7001L53.0016 15.3883H31.8038L24.4688 22.3851Z" fill="white"/>
<path d="M23.6405 24.9159C23.5559 24.9965 23.4184 24.9965 23.3338 24.9159C23.2492 24.8352 23.2492 24.7041 23.3338 24.6235C23.4184 24.5428 23.5559 24.5428 23.6405 24.6235C23.7251 24.7041 23.7251 24.8352 23.6405 24.9159Z" fill="white"/>
<path d="M25.1844 24.8317L25.0504 24.704L34.1372 16.0402H55.4655L60.0159 11.7017H64.4747V11.8831H60.097L55.5465 16.2217H34.2148L25.1844 24.8317Z" fill="white"/>
<path d="M25.2795 24.9056C25.1949 24.9863 25.0575 24.9863 24.9729 24.9056C24.8883 24.8249 24.8883 24.6939 24.9729 24.6132C25.0575 24.5326 25.1949 24.5326 25.2795 24.6132C25.3641 24.6939 25.3641 24.8249 25.2795 24.9056Z" fill="white"/>
<path d="M26.5802 24.8451L26.4463 24.7173L34.5003 17.0349H56.4771L60.9641 12.7568H64.1576V12.9383H61.0452L56.5582 17.2164H34.5814L26.5802 24.8451Z" fill="white"/>
<path d="M26.6719 24.9188C26.5873 24.9994 26.4498 24.9994 26.3652 24.9188C26.2806 24.8381 26.2806 24.7071 26.3652 24.6264C26.4498 24.5458 26.5873 24.5458 26.6719 24.6264C26.7564 24.7071 26.7564 24.8381 26.6719 24.9188Z" fill="white"/>
<path d="M41.8177 24.069H30.1543V23.8841H41.7366L44.0911 21.6426H65.1057V21.8241H44.1722L41.8177 24.069Z" fill="white"/>
<path d="M30.1648 24.1834C30.2836 24.1834 30.3798 24.0917 30.3798 23.9784C30.3798 23.8652 30.2836 23.7734 30.1648 23.7734C30.0461 23.7734 29.9498 23.8652 29.9498 23.9784C29.9498 24.0917 30.0461 24.1834 30.1648 24.1834Z" fill="white"/>
<path d="M4.1205 23.4844L6.56315 25.8133H17.2079L19.0936 27.6112H36.9465L36.9747 27.6381L39.1635 29.7251L39.0296 29.8561L36.8689 27.7927H19.0161L17.1303 25.9948H6.4856L4.03943 23.6658" fill="white"/>
<path d="M4.20504 23.7229C4.06757 23.854 3.83846 23.854 3.701 23.7229C3.56353 23.5918 3.56353 23.3734 3.701 23.2423C3.83846 23.1113 4.06757 23.1113 4.20504 23.2423C4.3425 23.3734 4.3425 23.5918 4.20504 23.7229Z" fill="white"/>
<path d="M63.8473 27.3291H39.3926L37.6549 26.4183H23.0272V25.8672H37.803L39.5407 26.7813H63.8473V27.3291Z" fill="white"/>
<path d="M23.0554 26.6568C22.7558 26.6568 22.5161 26.4249 22.5161 26.1426C22.5161 25.8603 22.7593 25.6284 23.0554 25.6284C23.3515 25.6284 23.5947 25.8603 23.5947 26.1426C23.5947 26.4249 23.3515 26.6568 23.0554 26.6568Z" fill="white"/>
<path d="M0.137505 9.45668L-6.66173 2.97401H-18.734L-22.4314 6.50268H-32.2866L-44.0522 -4.71513L-43.9183 -4.84619L-32.2056 6.32121H-22.5125L-18.8115 2.79254H-6.58066L0.271442 9.32898L0.137505 9.45668Z" fill="white"/>
<path d="M0.34898 9.23823C0.433574 9.31888 0.433574 9.44995 0.34898 9.5306C0.264386 9.61126 0.126921 9.61126 0.0423273 9.5306C-0.0422666 9.44995 -0.0422666 9.31888 0.0423273 9.23823C0.126921 9.15757 0.264386 9.15757 0.34898 9.23823Z" fill="white"/>
<path d="M1.29359 4.18417C1.54082 4.18417 1.74123 3.99308 1.74123 3.75737C1.74123 3.52165 1.54082 3.33057 1.29359 3.33057C1.04636 3.33057 0.845947 3.52165 0.845947 3.75737C0.845947 3.99308 1.04636 4.18417 1.29359 4.18417Z" fill="white"/>
<path d="M1.29359 6.47616C1.54082 6.47616 1.74123 6.28508 1.74123 6.04936C1.74123 5.81364 1.54082 5.62256 1.29359 5.62256C1.04636 5.62256 0.845947 5.81364 0.845947 6.04936C0.845947 6.28508 1.04636 6.47616 1.29359 6.47616Z" fill="white"/>
<path d="M1.29359 8.76767C1.54082 8.76767 1.74123 8.57658 1.74123 8.34086C1.74123 8.10515 1.54082 7.91406 1.29359 7.91406C1.04636 7.91406 0.845947 8.10515 0.845947 8.34086C0.845947 8.57658 1.04636 8.76767 1.29359 8.76767Z" fill="white"/>
<path d="M30.8627 2.497C30.9932 2.497 31.0989 2.38716 31.0989 2.25167C31.0989 2.11618 30.9932 2.00635 30.8627 2.00635C30.7323 2.00635 30.6266 2.11618 30.6266 2.25167C30.6266 2.38716 30.7323 2.497 30.8627 2.497Z" fill="white"/>
<path d="M30.8627 3.82122C30.9932 3.82122 31.0989 3.71138 31.0989 3.57589C31.0989 3.4404 30.9932 3.33057 30.8627 3.33057C30.7323 3.33057 30.6266 3.4404 30.6266 3.57589C30.6266 3.71138 30.7323 3.82122 30.8627 3.82122Z" fill="white"/>
<path d="M30.8627 5.14837C30.9932 5.14837 31.0989 5.03853 31.0989 4.90304C31.0989 4.76755 30.9932 4.65771 30.8627 4.65771C30.7323 4.65771 30.6266 4.76755 30.6266 4.90304C30.6266 5.03853 30.7323 5.14837 30.8627 5.14837Z" fill="white"/>
<path d="M31.9942 2.497C32.1246 2.497 32.2304 2.38716 32.2304 2.25167C32.2304 2.11618 32.1246 2.00635 31.9942 2.00635C31.8638 2.00635 31.7581 2.11618 31.7581 2.25167C31.7581 2.38716 31.8638 2.497 31.9942 2.497Z" fill="white"/>
<path d="M31.9942 3.82122C32.1246 3.82122 32.2304 3.71138 32.2304 3.57589C32.2304 3.4404 32.1246 3.33057 31.9942 3.33057C31.8638 3.33057 31.7581 3.4404 31.7581 3.57589C31.7581 3.71138 31.8638 3.82122 31.9942 3.82122Z" fill="white"/>
<path d="M31.9942 5.14837C32.1246 5.14837 32.2304 5.03853 32.2304 4.90304C32.2304 4.76755 32.1246 4.65771 31.9942 4.65771C31.8638 4.65771 31.7581 4.76755 31.7581 4.90304C31.7581 5.03853 31.8638 5.14837 31.9942 5.14837Z" fill="white"/>
<path d="M33.1221 2.497C33.2526 2.497 33.3583 2.38716 33.3583 2.25167C33.3583 2.11618 33.2526 2.00635 33.1221 2.00635C32.9917 2.00635 32.886 2.11618 32.886 2.25167C32.886 2.38716 32.9917 2.497 33.1221 2.497Z" fill="white"/>
<path d="M33.1221 3.82122C33.2526 3.82122 33.3583 3.71138 33.3583 3.57589C33.3583 3.4404 33.2526 3.33057 33.1221 3.33057C32.9917 3.33057 32.886 3.4404 32.886 3.57589C32.886 3.71138 32.9917 3.82122 33.1221 3.82122Z" fill="white"/>
<path d="M33.1221 5.14837C33.2526 5.14837 33.3583 5.03853 33.3583 4.90304C33.3583 4.76755 33.2526 4.65771 33.1221 4.65771C32.9917 4.65771 32.886 4.76755 32.886 4.90304C32.886 5.03853 32.9917 5.14837 33.1221 5.14837Z" fill="white"/>
<path d="M12.3578 29.13C12.605 29.13 12.8054 28.9389 12.8054 28.7032C12.8054 28.4675 12.605 28.2764 12.3578 28.2764C12.1106 28.2764 11.9102 28.4675 11.9102 28.7032C11.9102 28.9389 12.1106 29.13 12.3578 29.13Z" fill="white"/>
<path d="M9.95387 29.13C10.2011 29.13 10.4015 28.9389 10.4015 28.7032C10.4015 28.4675 10.2011 28.2764 9.95387 28.2764C9.70664 28.2764 9.50623 28.4675 9.50623 28.7032C9.50623 28.9389 9.70664 29.13 9.95387 29.13Z" fill="white"/>
<path d="M14.7617 29.13C15.009 29.13 15.2094 28.9389 15.2094 28.7032C15.2094 28.4675 15.009 28.2764 14.7617 28.2764C14.5145 28.2764 14.3141 28.4675 14.3141 28.7032C14.3141 28.9389 14.5145 29.13 14.7617 29.13Z" fill="white"/>
<path d="M8.11053 24.2905C8.24291 24.2905 8.35022 24.1882 8.35022 24.062C8.35022 23.9358 8.24291 23.8335 8.11053 23.8335C7.97816 23.8335 7.87085 23.9358 7.87085 24.062C7.87085 24.1882 7.97816 24.2905 8.11053 24.2905Z" fill="white"/>
<path d="M9.41107 24.2905C9.54344 24.2905 9.65075 24.1882 9.65075 24.062C9.65075 23.9358 9.54344 23.8335 9.41107 23.8335C9.2787 23.8335 9.17139 23.9358 9.17139 24.062C9.17139 24.1882 9.2787 24.2905 9.41107 24.2905Z" fill="white"/>
<path d="M10.7082 24.2905C10.8406 24.2905 10.9479 24.1882 10.9479 24.062C10.9479 23.9358 10.8406 23.8335 10.7082 23.8335C10.5758 23.8335 10.4685 23.9358 10.4685 24.062C10.4685 24.1882 10.5758 24.2905 10.7082 24.2905Z" fill="white"/>
<path d="M12.0088 24.2905C12.1412 24.2905 12.2485 24.1882 12.2485 24.062C12.2485 23.9358 12.1412 23.8335 12.0088 23.8335C11.8765 23.8335 11.7692 23.9358 11.7692 24.062C11.7692 24.1882 11.8765 24.2905 12.0088 24.2905Z" fill="white"/>
<path d="M8.11053 25.2251C8.24291 25.2251 8.35022 25.1228 8.35022 24.9966C8.35022 24.8704 8.24291 24.7681 8.11053 24.7681C7.97816 24.7681 7.87085 24.8704 7.87085 24.9966C7.87085 25.1228 7.97816 25.2251 8.11053 25.2251Z" fill="white"/>
<path d="M9.41107 25.2251C9.54344 25.2251 9.65075 25.1228 9.65075 24.9966C9.65075 24.8704 9.54344 24.7681 9.41107 24.7681C9.2787 24.7681 9.17139 24.8704 9.17139 24.9966C9.17139 25.1228 9.2787 25.2251 9.41107 25.2251Z" fill="white"/>
<path d="M10.7082 25.2251C10.8406 25.2251 10.9479 25.1228 10.9479 24.9966C10.9479 24.8704 10.8406 24.7681 10.7082 24.7681C10.5758 24.7681 10.4685 24.8704 10.4685 24.9966C10.4685 25.1228 10.5758 25.2251 10.7082 25.2251Z" fill="white"/>
<path d="M12.0088 25.2251C12.1412 25.2251 12.2485 25.1228 12.2485 24.9966C12.2485 24.8704 12.1412 24.7681 12.0088 24.7681C11.8765 24.7681 11.7692 24.8704 11.7692 24.9966C11.7692 25.1228 11.8765 25.2251 12.0088 25.2251Z" fill="white"/>
<path d="M32.6886 29.8931H18.2266L15.2623 27.0668H5.73134L4.69859 28.0515H4.65981C1.79067 28.1187 -3.04881 28.206 -3.23914 28.0246L-4.47985 26.8416H-7.03882V26.6602H-4.40231L-3.11578 27.8868C-2.77388 28.0011 1.6673 27.9406 4.61399 27.87L5.64674 26.8853H15.3363L18.3006 29.7116H32.6851V29.8931H32.6886Z" fill="white"/>
<path d="M32.678 30.0072C32.7979 30.0072 32.893 29.9164 32.893 29.8022C32.893 29.6879 32.7979 29.5972 32.678 29.5972C32.5582 29.5972 32.463 29.6879 32.463 29.8022C32.463 29.9164 32.5582 30.0072 32.678 30.0072Z" fill="white"/>
<path d="M23.4713 35.3336H11.9313L8.11402 31.694H-3.13345L-7.19043 27.8293L-7.05296 27.6982L-3.0559 31.5126H8.19509L12.0089 35.1521H23.3938L25.6708 32.9778H40.2668L45.4411 28.0444H64.5064V28.2259H45.5222L40.3478 33.1593H25.7519L23.4713 35.3336Z" fill="white"/>
<path d="M22.2906 34.2382H12.6962L8.79784 30.5213H-2.43201V30.3398H8.87891L12.7773 34.0567H22.2095L24.9271 31.4657H38.5361V31.6471H25.0046L22.2906 34.2382Z" fill="white"/>
</g>
<path d="M13.0416 21.9011C18.9809 21.9011 23.7956 17.3106 23.7956 11.6478C23.7956 5.98509 18.9809 1.39453 13.0416 1.39453C7.10233 1.39453 2.2876 5.98509 2.2876 11.6478C2.2876 17.3106 7.10233 21.9011 13.0416 21.9011Z" fill="url(#paint1_linear_5076_1098)"/>
<path d="M13.0416 21.4007C18.6908 21.4007 23.2704 17.0343 23.2704 11.6481C23.2704 6.26188 18.6908 1.89551 13.0416 1.89551C7.39234 1.89551 2.81274 6.26188 2.81274 11.6481C2.81274 17.0343 7.39234 21.4007 13.0416 21.4007Z" fill="url(#paint2_linear_5076_1098)"/>
<path d="M12.7843 18.0767C16.6543 18.0767 19.7915 15.0856 19.7915 11.3958C19.7915 7.70601 16.6543 4.71484 12.7843 4.71484C8.91433 4.71484 5.7771 7.70601 5.7771 11.3958C5.7771 15.0856 8.91433 18.0767 12.7843 18.0767Z" fill="url(#paint3_linear_5076_1098)"/>
<path d="M12.7843 18.8327C17.0922 18.8327 20.5845 15.503 20.5845 11.3956C20.5845 7.2882 17.0922 3.9585 12.7843 3.9585C8.47631 3.9585 4.98401 7.2882 4.98401 11.3956C4.98401 15.503 8.47631 18.8327 12.7843 18.8327Z" fill="url(#paint4_linear_5076_1098)"/>
<path d="M12.7843 17.9591C16.6543 17.9591 19.7915 14.9679 19.7915 11.2781C19.7915 7.58833 16.6543 4.59717 12.7843 4.59717C8.91433 4.59717 5.7771 7.58833 5.7771 11.2781C5.7771 14.9679 8.91433 17.9591 12.7843 17.9591Z" fill="url(#paint5_linear_5076_1098)"/>
<g filter="url(#filter0_d_5076_1098)">
<path d="M10.9021 7.55127L16.7673 11.1707C17.0669 11.3555 17.0669 11.7722 16.7673 11.9571L10.9021 15.5765C10.5743 15.7781 10.1443 15.553 10.1443 15.1833V7.94447C10.1443 7.5748 10.5743 7.34963 10.9021 7.55127Z" fill="white"/>
</g>
<mask id="mask1_5076_1098" style="mask-type:luminance" maskUnits="userSpaceOnUse" x="10" y="7" width="7" height="9">
<path d="M16.9893 7.47412H10.1407V15.6539H16.9893V7.47412Z" fill="white"/>
</mask>
<g mask="url(#mask1_5076_1098)">
<path d="M10.9024 7.55176L16.7675 11.1712C17.0671 11.356 17.0671 11.7727 16.7675 11.9576L10.9024 15.577C10.5746 15.7786 10.1445 15.5568 10.1445 15.1838V7.94496C10.1445 7.57529 10.5746 7.35012 10.9024 7.55176Z" fill="white"/>
</g>
<mask id="mask2_5076_1098" style="mask-type:luminance" maskUnits="userSpaceOnUse" x="10" y="7" width="7" height="9">
<path d="M10.6236 7.47412C10.3734 7.47748 10.1407 7.6724 10.1407 7.94461V15.1834C10.1407 15.4556 10.3734 15.6472 10.6236 15.6539H10.6413C10.7294 15.6539 10.8175 15.627 10.8986 15.5766L16.7637 11.9572C16.9118 11.8665 16.9893 11.7152 16.9893 11.564C16.9893 11.4128 16.9153 11.2616 16.7637 11.1708L10.8986 7.55142C10.8175 7.50101 10.7294 7.47748 10.6413 7.47748H10.6236V7.47412Z" fill="white"/>
</mask>
<g mask="url(#mask2_5076_1098)">
<mask id="mask3_5076_1098" style="mask-type:luminance" maskUnits="userSpaceOnUse" x="8" y="1" width="14" height="13">
<path d="M21.6596 1.32764H8.87183V13.6645H21.6596V1.32764Z" fill="white"/>
</mask>
<g mask="url(#mask3_5076_1098)">
<g style="mix-blend-mode:multiply" opacity="0.75">
<path d="M21.6596 1.32764H8.87183V13.6645H21.6596V1.32764Z" fill="#231916"/>
</g>
</g>
<path d="M19.4214 2.93063L18.0961 10.9827C18.0291 11.3927 17.5392 11.6011 17.1726 11.3726L10.0103 6.92307C9.612 6.67438 9.65782 6.10307 10.0949 5.91823L18.5825 2.31563C19.0195 2.13079 19.4954 2.4803 19.4214 2.92727" fill="white"/>
</g>
<path d="M25.0786 19.3639L25.1667 19.4883C25.5192 19.9722 25.431 20.6141 24.9728 20.9166L21.3 23.4202C20.8418 23.7227 20.1792 23.5715 19.8302 23.0909L19.7421 22.9665C19.3896 22.4826 19.4778 21.8407 19.936 21.5383L23.6088 19.0346C24.067 18.7321 24.7296 18.8834 25.0786 19.3639Z" fill="white" stroke="black" stroke-width="1.24" stroke-miterlimit="10"/>
<path d="M17.2572 15.086L17.1972 15.1868C16.9576 15.58 16.4253 15.711 16.0129 15.4825C15.7098 15.3145 15.4208 15.1296 15.1317 14.9347C14.8427 14.7398 14.5678 14.5718 14.307 14.3668C14.025 14.1483 13.8734 13.8022 13.891 13.456C13.9087 13.1065 14.1765 12.7705 14.5502 12.9015C14.8427 13.0057 15.1917 13.1502 15.4666 13.2813C15.953 13.5098 16.4782 13.6947 16.947 13.9568C17.3594 14.1853 17.4968 14.6928 17.2572 15.086Z" fill="white" stroke="black" stroke-width="1.24" stroke-miterlimit="10"/>
<path d="M31.9306 29.5435C31.0318 30.0845 30.2529 29.6577 29.1672 29.4191C28.0358 29.1704 26.5977 28.6025 25.7306 27.8968C25.0997 27.3826 25.3499 26.5626 25.3006 25.8602C25.2477 25.1377 25.1984 24.4185 25.1455 23.696C25.0785 22.7751 25.0151 21.8577 24.9481 20.9369L25.9597 18.9944C26.1818 18.5643 26.6541 18.4937 27.0066 18.8331L34.2922 25.8602C34.6694 26.2299 32.7554 28.7873 32.4946 29.073C32.3148 29.2679 32.128 29.4225 31.9306 29.5435Z" fill="white"/>
<path d="M31.9306 29.5435C31.0318 30.0845 30.2529 29.6577 29.1672 29.4191C28.0358 29.1704 26.5977 28.6025 25.7306 27.8968C25.0997 27.3826 25.3499 26.5626 25.3006 25.8602C25.2477 25.1377 25.1984 24.4185 25.1455 23.696C25.0785 22.7752 25.0151 21.8577 24.9481 20.9369L25.9597 18.9944C26.1818 18.5643 26.6541 18.4937 27.0066 18.8331L34.2922 25.8602C34.6694 26.2299 32.7554 28.7873 32.4946 29.073C32.3148 29.2679 32.128 29.4225 31.9306 29.5435Z" stroke="black" stroke-width="1.24" stroke-miterlimit="10"/>
<path d="M17.6436 15.199L17.5832 15.2976C17.3419 15.692 17.4816 16.1982 17.8952 16.4283L19.5605 17.3547C19.9742 17.5848 20.5051 17.4516 20.7464 17.0572L20.8068 16.9585C21.0481 16.5641 20.9084 16.0579 20.4948 15.8278L18.8295 14.9015C18.4158 14.6714 17.8849 14.8046 17.6436 15.199Z" fill="white" stroke="black" stroke-width="1.24" stroke-miterlimit="10"/>
<path d="M27.211 20.2883L27.1335 20.416C26.8233 20.9234 26.1642 21.115 25.6672 20.8394L21.6102 18.6617C21.1132 18.3862 20.9617 17.7443 21.2754 17.2368L21.3529 17.1091C21.6631 16.6017 22.3222 16.4101 22.8192 16.6857L26.8762 18.8634C27.3732 19.139 27.5247 19.7808 27.211 20.2883Z" fill="white" stroke="black" stroke-width="1.24" stroke-miterlimit="10"/>
<path d="M21.6403 23.758C20.9782 23.5227 20.2413 23.8437 19.9946 24.4751C19.7478 25.1064 20.0845 25.8089 20.7467 26.0442L24.2179 27.2777C24.8801 27.513 25.6169 27.1919 25.8637 26.5606C26.1105 25.9293 25.7737 25.2267 25.1116 24.9915L21.6403 23.758Z" fill="white" stroke="black" stroke-width="1.24" stroke-miterlimit="10"/>
<path d="M20.0487 24.5696L19.9712 24.6771C19.6645 25.1073 19.0724 25.2384 18.6564 24.9695C18.3533 24.7712 18.0572 24.5326 17.7717 24.3075C17.2183 23.8739 16.4288 23.3934 16.9998 22.7616C17.4615 22.281 18.1912 22.3885 18.6741 22.644C19.2274 22.933 19.3649 23.0304 19.8478 23.2959C20.2637 23.5648 20.3518 24.1394 20.0452 24.5696H20.0487Z" fill="white" stroke="black" stroke-width="1.24" stroke-miterlimit="10"/>
<path d="M17.37 15.9901C17.8197 15.9901 18.1842 15.6426 18.1842 15.2138C18.1842 14.7851 17.8197 14.4375 17.37 14.4375C16.9203 14.4375 16.5558 14.7851 16.5558 15.2138C16.5558 15.6426 16.9203 15.9901 17.37 15.9901Z" fill="#00FFFF" stroke="black" stroke-width="0.78" stroke-miterlimit="10"/>
<path d="M17.3699 15.5227C17.549 15.5227 17.6942 15.3842 17.6942 15.2135C17.6942 15.0427 17.549 14.9043 17.3699 14.9043C17.1908 14.9043 17.0457 15.0427 17.0457 15.2135C17.0457 15.3842 17.1908 15.5227 17.3699 15.5227Z" fill="white" stroke="black" stroke-width="0.13" stroke-miterlimit="10"/>
<path d="M21.1027 17.9359C21.5523 17.9359 21.9169 17.5884 21.9169 17.1596C21.9169 16.7309 21.5523 16.3833 21.1027 16.3833C20.653 16.3833 20.2885 16.7309 20.2885 17.1596C20.2885 17.5884 20.653 17.9359 21.1027 17.9359Z" fill="#00FFFF" stroke="black" stroke-width="0.78" stroke-miterlimit="10"/>
<path d="M21.1027 17.4685C21.2818 17.4685 21.427 17.33 21.427 17.1593C21.427 16.9885 21.2818 16.8501 21.1027 16.8501C20.9236 16.8501 20.7784 16.9885 20.7784 17.1593C20.7784 17.33 20.9236 17.4685 21.1027 17.4685Z" fill="white" stroke="black" stroke-width="0.13" stroke-miterlimit="10"/>
<path d="M19.8619 25.2015C20.3116 25.2015 20.6762 24.854 20.6762 24.4252C20.6762 23.9965 20.3116 23.6489 19.8619 23.6489C19.4123 23.6489 19.0477 23.9965 19.0477 24.4252C19.0477 24.854 19.4123 25.2015 19.8619 25.2015Z" fill="#00FFFF" stroke="black" stroke-width="0.78" stroke-miterlimit="10"/>
<path d="M19.862 24.7346C20.0411 24.7346 20.1863 24.5961 20.1863 24.4254C20.1863 24.2546 20.0411 24.1162 19.862 24.1162C19.6829 24.1162 19.5377 24.2546 19.5377 24.4254C19.5377 24.5961 19.6829 24.7346 19.862 24.7346Z" fill="white" stroke="black" stroke-width="0.13" stroke-miterlimit="10"/>
<path d="M25.1209 27.8162C26.0027 27.8162 26.7176 27.1346 26.7176 26.2939C26.7176 25.4531 26.0027 24.7715 25.1209 24.7715C24.239 24.7715 23.5242 25.4531 23.5242 26.2939C23.5242 27.1346 24.239 27.8162 25.1209 27.8162Z" fill="#00FFFF" stroke="black" stroke-width="0.78" stroke-miterlimit="10"/>
<path d="M25.1209 27.0565C25.5628 27.0565 25.921 26.7149 25.921 26.2936C25.921 25.8723 25.5628 25.5308 25.1209 25.5308C24.679 25.5308 24.3208 25.8723 24.3208 26.2936C24.3208 26.7149 24.679 27.0565 25.1209 27.0565Z" fill="white" stroke="black" stroke-width="0.39" stroke-miterlimit="10"/>
<path d="M26.0619 21.4578C26.9438 21.4578 27.6586 20.7762 27.6586 19.9355C27.6586 19.0947 26.9438 18.4131 26.0619 18.4131C25.1801 18.4131 24.4652 19.0947 24.4652 19.9355C24.4652 20.7762 25.1801 21.4578 26.0619 21.4578Z" fill="#00FFFF" stroke="black" stroke-width="0.78" stroke-miterlimit="10"/>
<path d="M26.062 20.6981C26.5039 20.6981 26.8621 20.3565 26.8621 19.9352C26.8621 19.5139 26.5039 19.1724 26.062 19.1724C25.6201 19.1724 25.2618 19.5139 25.2618 19.9352C25.2618 20.3565 25.6201 20.6981 26.062 20.6981Z" fill="white" stroke="black" stroke-width="0.39" stroke-miterlimit="10"/>
<path d="M34.895 28.3503C35.4625 27.7857 35.5154 26.8178 35.0113 26.1995L34.1583 25.1543C33.6543 24.536 32.9141 24.5897 32.5158 25.2753L30.4855 28.7636C30.0872 29.4492 30.2811 30.2692 30.9156 30.5851C31.55 30.901 32.5334 30.6994 33.1009 30.1348L34.895 28.3469V28.3503Z" fill="white"/>
<path d="M34.895 28.3503C35.4625 27.7857 35.5154 26.8178 35.0113 26.1995L34.1583 25.1543C33.6543 24.536 32.9141 24.5897 32.5158 25.2753L30.4855 28.7636C30.0872 29.4492 30.2811 30.2692 30.9156 30.5851C31.55 30.901 32.5334 30.6994 33.1009 30.1348L34.895 28.3469V28.3503Z" stroke="black" stroke-width="1.24" stroke-miterlimit="10"/>
</g>
</g>
<defs>
<filter id="filter0_d_5076_1098" x="9.14429" y="6.47559" width="8.84766" height="10.1768" filterUnits="userSpaceOnUse" color-interpolation-filters="sRGB">
<feFlood flood-opacity="0" result="BackgroundImageFix"/>
<feColorMatrix in="SourceAlpha" type="matrix" values="0 0 0 0 0 0 0 0 0 0 0 0 0 0 0 0 0 0 127 0" result="hardAlpha"/>
<feOffset/>
<feGaussianBlur stdDeviation="0.5"/>
<feColorMatrix type="matrix" values="0 0 0 0 0 0 0 0 0 0 0 0 0 0 0 0 0 0 0.75 0"/>
<feBlend mode="normal" in2="BackgroundImageFix" result="effect1_dropShadow_5076_1098"/>
<feBlend mode="normal" in="SourceGraphic" in2="effect1_dropShadow_5076_1098" result="shape"/>
</filter>
<linearGradient id="paint0_linear_5076_1098" x1="15.9178" y1="37.2562" x2="15.9178" y2="-5.25928" gradientUnits="userSpaceOnUse">
<stop offset="0.2" stop-color="#00FFFF"/>
<stop offset="0.7" stop-color="#FFFF00"/>
</linearGradient>
<linearGradient id="paint1_linear_5076_1098" x1="13.0416" y1="21.9011" x2="13.0416" y2="1.39789" gradientUnits="userSpaceOnUse">
<stop stop-color="#00FFFF"/>
<stop offset="1" stop-color="#6C00AA"/>
</linearGradient>
<linearGradient id="paint2_linear_5076_1098" x1="13.0416" y1="1.89887" x2="13.0416" y2="21.4007" gradientUnits="userSpaceOnUse">
<stop stop-color="#00FFFF"/>
<stop offset="1" stop-color="#6C00AA"/>
</linearGradient>
<linearGradient id="paint3_linear_5076_1098" x1="12.7843" y1="18.0767" x2="12.7843" y2="4.71484" gradientUnits="userSpaceOnUse">
<stop stop-color="#FF8DA4"/>
<stop offset="1" stop-color="#AA0047"/>
</linearGradient>
<linearGradient id="paint4_linear_5076_1098" x1="12.7843" y1="3.9585" x2="12.7843" y2="18.8327" gradientUnits="userSpaceOnUse">
<stop stop-color="#00FFFF"/>
<stop offset="1" stop-color="#6C00AA"/>
</linearGradient>
<linearGradient id="paint5_linear_5076_1098" x1="12.7843" y1="17.9591" x2="12.7843" y2="4.59717" gradientUnits="userSpaceOnUse">
<stop stop-color="#00FFFF"/>
<stop offset="1" stop-color="#6C00AA"/>
</linearGradient>
<clipPath id="clip0_5076_1098">
<rect width="120" height="32" fill="white"/>
</clipPath>
</defs>
</svg>
