<svg width="18" height="20" viewBox="0 0 18 20" fill="none" xmlns="http://www.w3.org/2000/svg">
<path d="M9.15901 20H9.15285C6.09164 19.98 3.73829 18.996 2.15639 17.076C0.75094 15.366 0.024621 12.988 0 10.008V9.994C0.024621 7.012 0.75094 4.636 2.15844 2.926C3.73829 1.004 6.0937 0.02 9.15285 0H9.15901H9.16517C11.5124 0.016 13.4759 0.604 15.0003 1.748C16.4345 2.824 17.444 4.356 18 6.304L16.256 6.778C15.3122 3.478 12.924 1.792 9.15696 1.766C6.67024 1.784 4.78878 2.546 3.56594 4.03C2.42312 5.42 1.83221 7.428 1.80964 10C1.83221 12.572 2.42312 14.58 3.56799 15.97C4.79084 17.456 6.67229 18.218 9.15901 18.234C11.4016 18.218 12.885 17.708 14.1181 16.53C15.5256 15.186 15.501 13.536 15.0496 12.532C14.7849 11.94 14.3027 11.448 13.6523 11.074C13.4882 12.2 13.1209 13.112 12.5547 13.8C11.7976 14.718 10.7245 15.22 9.36624 15.292C8.33831 15.346 7.34732 15.11 6.57996 14.624C5.67104 14.05 5.13963 13.174 5.08218 12.154C5.02679 11.162 5.43098 10.25 6.21885 9.586C6.97185 8.952 8.03055 8.58 9.28212 8.51C10.2034 8.46 11.0671 8.5 11.8632 8.628C11.7565 8.01 11.5431 7.518 11.2231 7.164C10.784 6.676 10.1049 6.428 9.2062 6.422C9.19799 6.422 9.18979 6.422 9.18158 6.422C8.45936 6.422 7.47863 6.616 6.8549 7.522L5.35302 6.54C6.19013 5.328 7.54839 4.66 9.18158 4.66C9.19389 4.66 9.2062 4.66 9.21851 4.66C11.9494 4.676 13.5764 6.306 13.7385 9.15C13.8308 9.188 13.9232 9.228 14.0134 9.268C15.2876 9.852 16.2191 10.736 16.7094 11.826C17.3906 13.344 17.4542 15.818 15.3861 17.792C13.8042 19.3 11.8858 19.982 9.16517 20H9.15901ZM10.0166 10.258C9.80941 10.258 9.60014 10.264 9.3847 10.276C7.81511 10.362 6.83643 11.064 6.89183 12.062C6.94928 13.108 8.13314 13.594 9.27186 13.534C10.3182 13.48 11.6806 13.082 11.9104 10.442C11.3318 10.32 10.6978 10.258 10.0166 10.258Z" fill="white"/>
</svg>
