<svg width="11" height="12" viewBox="0 0 11 12" fill="none" xmlns="http://www.w3.org/2000/svg">
<g id="Frame 1120">
<g id="Group">
<path id="Vector" d="M5.49541 12H5.49171C3.65499 11.988 2.24297 11.3976 1.29383 10.2456C0.450564 9.2196 0.0147726 7.7928 0 6.0048V5.9964C0.0147726 4.2072 0.450564 2.7816 1.29506 1.7556C2.24297 0.6024 3.65622 0.012 5.49171 0H5.49541H5.4991C6.90742 0.0096 8.08554 0.3624 9.00021 1.0488C9.86071 1.6944 10.4664 2.6136 10.8 3.7824L9.75361 4.0668C9.18732 2.0868 7.75438 1.0752 5.49418 1.0596C4.00214 1.0704 2.87327 1.5276 2.13956 2.418C1.45387 3.252 1.09933 4.4568 1.08579 6C1.09933 7.5432 1.45387 8.748 2.1408 9.582C2.8745 10.4736 4.00337 10.9308 5.49541 10.9404C6.84094 10.9308 7.73099 10.6248 8.47085 9.918C9.31535 9.1116 9.30058 8.1216 9.02975 7.5192C8.87094 7.164 8.58165 6.8688 8.19141 6.6444C8.09292 7.32 7.87256 7.8672 7.53279 8.28C7.07854 8.8308 6.4347 9.132 5.61974 9.1752C5.00299 9.2076 4.40839 9.066 3.94798 8.7744C3.40262 8.43 3.08378 7.9044 3.04931 7.2924C3.01607 6.6972 3.25859 6.15 3.73131 5.7516C4.18311 5.3712 4.81833 5.148 5.56927 5.106C6.12201 5.076 6.64028 5.1 7.11793 5.1768C7.05392 4.806 6.92589 4.5108 6.73384 4.2984C6.4704 4.0056 6.06292 3.8568 5.52372 3.8532C5.5188 3.8532 5.51387 3.8532 5.50895 3.8532C5.07562 3.8532 4.48718 3.9696 4.11294 4.5132L3.21181 3.924C3.71408 3.1968 4.52903 2.796 5.50895 2.796C5.51633 2.796 5.52372 2.796 5.53111 2.796C7.16963 2.8056 8.14586 3.7836 8.24311 5.49C8.29851 5.5128 8.3539 5.5368 8.40807 5.5608C9.17255 5.9112 9.73145 6.4416 10.0257 7.0956C10.4344 8.0064 10.4725 9.4908 9.23164 10.6752C8.2825 11.58 7.13147 11.9892 5.4991 12H5.49541ZM6.00999 6.1548C5.88565 6.1548 5.76008 6.1584 5.63082 6.1656C4.68907 6.2172 4.10186 6.6384 4.1351 7.2372C4.16957 7.8648 4.87988 8.1564 5.56311 8.1204C6.19095 8.088 7.00837 7.8492 7.14624 6.2652C6.79909 6.192 6.41869 6.1548 6.00999 6.1548Z" fill="#000928"/>
</g>
</g>
</svg>
