<svg width="20" height="15" viewBox="0 0 20 15" fill="none" xmlns="http://www.w3.org/2000/svg">
<path fill-rule="evenodd" clip-rule="evenodd" d="M17.8153 0.448024C18.6763 0.694967 19.353 1.41992 19.5835 2.34243H19.5818C20 4.01282 20 7.5 20 7.5C20 7.5 20 10.9872 19.5818 12.6576C19.3513 13.5801 18.6747 14.305 17.8136 14.552C16.2545 15 10 15 10 15C10 15 3.74547 15 2.18637 14.552C1.32532 14.305 0.648666 13.5801 0.418176 12.6576C0 10.9872 0 7.5 0 7.5C0 7.5 0 4.01282 0.418176 2.34243C0.648666 1.41992 1.32532 0.694967 2.18637 0.448024C3.74547 0 10 0 10 0C10 0 16.2545 0 17.8153 0.448024ZM13.1972 7.49991L7.99967 4.28613V10.7137L13.1972 7.49991Z" fill="#575D71"/>
</svg>
