<svg width="16" height="12" viewBox="0 0 16 12" fill="none" xmlns="http://www.w3.org/2000/svg">
<g id="Layer 1">
<g id="Group">
<path id="Exclude" fill-rule="evenodd" clip-rule="evenodd" d="M14.2522 0.35842C14.9411 0.555974 15.4824 1.13594 15.6668 1.87394H15.6655C16 3.21025 16 6 16 6C16 6 16 8.78975 15.6655 10.1261C15.4811 10.8641 14.9397 11.444 14.2509 11.6416C13.0036 12 8 12 8 12C8 12 2.99638 12 1.74909 11.6416C1.06026 11.444 0.518933 10.8641 0.334541 10.1261C0 8.78975 0 6 0 6C0 6 0 3.21025 0.334541 1.87394C0.518933 1.13594 1.06026 0.555974 1.74909 0.35842C2.99638 0 8 0 8 0C8 0 13.0036 0 14.2522 0.35842ZM10.5578 5.99993L6.39971 3.42891V8.57096L10.5578 5.99993Z" fill="#000928"/>
</g>
</g>
</svg>
